%TF.GenerationSoftware,KiCad,Pcbnew,9.0.3*%
%TF.CreationDate,2025-11-18T14:15:17+09:00*%
%TF.ProjectId,SpeedJeck,53706565-644a-4656-936b-2e6b69636164,1*%
%TF.SameCoordinates,Original*%
%TF.FileFunction,Paste,Top*%
%TF.FilePolarity,Positive*%
%FSLAX46Y46*%
G04 Gerber Fmt 4.6, Leading zero omitted, Abs format (unit mm)*
G04 Created by KiCad (PCBNEW 9.0.3) date 2025-11-18 14:15:17*
%MOMM*%
%LPD*%
G01*
G04 APERTURE LIST*
G04 Aperture macros list*
%AMRoundRect*
0 Rectangle with rounded corners*
0 $1 Rounding radius*
0 $2 $3 $4 $5 $6 $7 $8 $9 X,Y pos of 4 corners*
0 Add a 4 corners polygon primitive as box body*
4,1,4,$2,$3,$4,$5,$6,$7,$8,$9,$2,$3,0*
0 Add four circle primitives for the rounded corners*
1,1,$1+$1,$2,$3*
1,1,$1+$1,$4,$5*
1,1,$1+$1,$6,$7*
1,1,$1+$1,$8,$9*
0 Add four rect primitives between the rounded corners*
20,1,$1+$1,$2,$3,$4,$5,0*
20,1,$1+$1,$4,$5,$6,$7,0*
20,1,$1+$1,$6,$7,$8,$9,0*
20,1,$1+$1,$8,$9,$2,$3,0*%
G04 Aperture macros list end*
%ADD10RoundRect,0.147500X-0.147500X-0.172500X0.147500X-0.172500X0.147500X0.172500X-0.147500X0.172500X0*%
%ADD11RoundRect,0.135000X-0.135000X-0.185000X0.135000X-0.185000X0.135000X0.185000X-0.135000X0.185000X0*%
%ADD12RoundRect,0.250000X-0.750000X-0.500000X0.750000X-0.500000X0.750000X0.500000X-0.750000X0.500000X0*%
%ADD13RoundRect,0.135000X0.135000X0.185000X-0.135000X0.185000X-0.135000X-0.185000X0.135000X-0.185000X0*%
%ADD14R,3.000000X1.250000*%
%ADD15RoundRect,0.375000X0.625000X0.375000X-0.625000X0.375000X-0.625000X-0.375000X0.625000X-0.375000X0*%
%ADD16RoundRect,0.500000X0.500000X1.400000X-0.500000X1.400000X-0.500000X-1.400000X0.500000X-1.400000X0*%
G04 APERTURE END LIST*
D10*
%TO.C,D1*%
X146295000Y-59250000D03*
X147265000Y-59250000D03*
%TD*%
D11*
%TO.C,R1*%
X134980000Y-82000000D03*
X136000000Y-82000000D03*
%TD*%
%TO.C,R3*%
X148760000Y-59250000D03*
X149780000Y-59250000D03*
%TD*%
D12*
%TO.C,UP*%
X164700000Y-72000000D03*
X179000000Y-72000000D03*
X164700000Y-77000000D03*
X179000000Y-77000000D03*
%TD*%
D13*
%TO.C,R8*%
X136020000Y-88000000D03*
X135000000Y-88000000D03*
%TD*%
D14*
%TO.C,J1*%
X117472000Y-81556000D03*
X117472000Y-84056000D03*
X117472000Y-86056000D03*
X117472000Y-88556000D03*
%TD*%
D11*
%TO.C,R7*%
X134980000Y-85000000D03*
X136000000Y-85000000D03*
%TD*%
%TO.C,R2*%
X148750000Y-57000000D03*
X149770000Y-57000000D03*
%TD*%
D12*
%TO.C,BACK*%
X146700000Y-87000000D03*
X161000000Y-87000000D03*
X146700000Y-92000000D03*
X161000000Y-92000000D03*
%TD*%
%TO.C,NEXT*%
X183000000Y-87000000D03*
X197300000Y-87000000D03*
X183000000Y-92000000D03*
X197300000Y-92000000D03*
%TD*%
%TO.C,MENU*%
X146700000Y-72000000D03*
X161000000Y-72000000D03*
X146700000Y-77000000D03*
X161000000Y-77000000D03*
%TD*%
%TO.C,DOWN*%
X164700000Y-87000000D03*
X179000000Y-87000000D03*
X164700000Y-92000000D03*
X179000000Y-92000000D03*
%TD*%
D10*
%TO.C,D2*%
X146285000Y-57000000D03*
X147255000Y-57000000D03*
%TD*%
D12*
%TO.C,OK*%
X182950000Y-72000000D03*
X197250000Y-72000000D03*
X182950000Y-77000000D03*
X197250000Y-77000000D03*
%TD*%
D15*
%TO.C,U2*%
X129210000Y-87300000D03*
X129210000Y-85000000D03*
D16*
X122910000Y-85000000D03*
D15*
X129210000Y-82700000D03*
%TD*%
M02*
