%TF.GenerationSoftware,KiCad,Pcbnew,9.0.3*%
%TF.CreationDate,2025-11-18T14:15:18+09:00*%
%TF.ProjectId,SpeedJeck,53706565-644a-4656-936b-2e6b69636164,1*%
%TF.SameCoordinates,Original*%
%TF.FileFunction,Soldermask,Top*%
%TF.FilePolarity,Negative*%
%FSLAX46Y46*%
G04 Gerber Fmt 4.6, Leading zero omitted, Abs format (unit mm)*
G04 Created by KiCad (PCBNEW 9.0.3) date 2025-11-18 14:15:18*
%MOMM*%
%LPD*%
G01*
G04 APERTURE LIST*
G04 Aperture macros list*
%AMRoundRect*
0 Rectangle with rounded corners*
0 $1 Rounding radius*
0 $2 $3 $4 $5 $6 $7 $8 $9 X,Y pos of 4 corners*
0 Add a 4 corners polygon primitive as box body*
4,1,4,$2,$3,$4,$5,$6,$7,$8,$9,$2,$3,0*
0 Add four circle primitives for the rounded corners*
1,1,$1+$1,$2,$3*
1,1,$1+$1,$4,$5*
1,1,$1+$1,$6,$7*
1,1,$1+$1,$8,$9*
0 Add four rect primitives between the rounded corners*
20,1,$1+$1,$2,$3,$4,$5,0*
20,1,$1+$1,$4,$5,$6,$7,0*
20,1,$1+$1,$6,$7,$8,$9,0*
20,1,$1+$1,$8,$9,$2,$3,0*%
G04 Aperture macros list end*
%ADD10RoundRect,0.147500X-0.147500X-0.172500X0.147500X-0.172500X0.147500X0.172500X-0.147500X0.172500X0*%
%ADD11RoundRect,0.135000X-0.135000X-0.185000X0.135000X-0.185000X0.135000X0.185000X-0.135000X0.185000X0*%
%ADD12RoundRect,0.102000X-0.754000X-0.754000X0.754000X-0.754000X0.754000X0.754000X-0.754000X0.754000X0*%
%ADD13C,1.712000*%
%ADD14RoundRect,0.250000X-0.750000X-0.500000X0.750000X-0.500000X0.750000X0.500000X-0.750000X0.500000X0*%
%ADD15R,1.600000X1.600000*%
%ADD16O,1.600000X1.600000*%
%ADD17RoundRect,0.135000X0.135000X0.185000X-0.135000X0.185000X-0.135000X-0.185000X0.135000X-0.185000X0*%
%ADD18R,3.000000X1.250000*%
%ADD19C,3.000000*%
%ADD20C,1.600000*%
%ADD21RoundRect,0.375000X0.625000X0.375000X-0.625000X0.375000X-0.625000X-0.375000X0.625000X-0.375000X0*%
%ADD22RoundRect,0.500000X0.500000X1.400000X-0.500000X1.400000X-0.500000X-1.400000X0.500000X-1.400000X0*%
G04 APERTURE END LIST*
D10*
%TO.C,D1*%
X146295000Y-59250000D03*
X147265000Y-59250000D03*
%TD*%
D11*
%TO.C,R1*%
X134980000Y-82000000D03*
X136000000Y-82000000D03*
%TD*%
D12*
%TO.C,U1*%
X120190000Y-43450000D03*
D13*
X122730000Y-43450000D03*
X125270000Y-43450000D03*
X127810000Y-43450000D03*
%TD*%
D11*
%TO.C,R3*%
X148760000Y-59250000D03*
X149780000Y-59250000D03*
%TD*%
D14*
%TO.C,UP*%
X164700000Y-72000000D03*
X179000000Y-72000000D03*
X164700000Y-77000000D03*
X179000000Y-77000000D03*
%TD*%
D15*
%TO.C,A1*%
X159512000Y-63754000D03*
D16*
X162052000Y-63754000D03*
X164592000Y-63754000D03*
X167132000Y-63754000D03*
X169672000Y-63754000D03*
X172212000Y-63754000D03*
X174752000Y-63754000D03*
X177292000Y-63754000D03*
X179832000Y-63754000D03*
X182372000Y-63754000D03*
X184912000Y-63754000D03*
X187452000Y-63754000D03*
X189992000Y-63754000D03*
X192532000Y-63754000D03*
X195072000Y-63754000D03*
X195072000Y-48514000D03*
X192532000Y-48514000D03*
X189992000Y-48514000D03*
X187452000Y-48514000D03*
X184912000Y-48514000D03*
X182372000Y-48514000D03*
X179832000Y-48514000D03*
X177292000Y-48514000D03*
X174752000Y-48514000D03*
X172212000Y-48514000D03*
X169672000Y-48514000D03*
X167132000Y-48514000D03*
X164592000Y-48514000D03*
X162052000Y-48514000D03*
X159512000Y-48514000D03*
%TD*%
D17*
%TO.C,R8*%
X136020000Y-88000000D03*
X135000000Y-88000000D03*
%TD*%
D18*
%TO.C,J1*%
X117472000Y-81556000D03*
X117472000Y-84056000D03*
X117472000Y-86056000D03*
X117472000Y-88556000D03*
D19*
X113792000Y-78486000D03*
X113792000Y-91626000D03*
%TD*%
D11*
%TO.C,R7*%
X134980000Y-85000000D03*
X136000000Y-85000000D03*
%TD*%
%TO.C,R2*%
X148750000Y-57000000D03*
X149770000Y-57000000D03*
%TD*%
D14*
%TO.C,BACK*%
X146700000Y-87000000D03*
X161000000Y-87000000D03*
X146700000Y-92000000D03*
X161000000Y-92000000D03*
%TD*%
D15*
%TO.C,BZ1*%
X149000000Y-44000000D03*
D20*
X149000000Y-50500000D03*
%TD*%
D14*
%TO.C,NEXT*%
X183000000Y-87000000D03*
X197300000Y-87000000D03*
X183000000Y-92000000D03*
X197300000Y-92000000D03*
%TD*%
%TO.C,MENU*%
X146700000Y-72000000D03*
X161000000Y-72000000D03*
X146700000Y-77000000D03*
X161000000Y-77000000D03*
%TD*%
%TO.C,DOWN*%
X164700000Y-87000000D03*
X179000000Y-87000000D03*
X164700000Y-92000000D03*
X179000000Y-92000000D03*
%TD*%
D10*
%TO.C,D2*%
X146285000Y-57000000D03*
X147255000Y-57000000D03*
%TD*%
D14*
%TO.C,OK*%
X182950000Y-72000000D03*
X197250000Y-72000000D03*
X182950000Y-77000000D03*
X197250000Y-77000000D03*
%TD*%
D21*
%TO.C,U2*%
X129210000Y-87300000D03*
X129210000Y-85000000D03*
D22*
X122910000Y-85000000D03*
D21*
X129210000Y-82700000D03*
%TD*%
M02*
