G04 #@! TF.GenerationSoftware,KiCad,Pcbnew,9.0.3*
G04 #@! TF.CreationDate,2025-11-18T14:27:20+09:00*
G04 #@! TF.ProjectId,SpeedJeck,53706565-644a-4656-936b-2e6b69636164,1*
G04 #@! TF.SameCoordinates,Original*
G04 #@! TF.FileFunction,Legend,Top*
G04 #@! TF.FilePolarity,Positive*
%FSLAX46Y46*%
G04 Gerber Fmt 4.6, Leading zero omitted, Abs format (unit mm)*
G04 Created by KiCad (PCBNEW 9.0.3) date 2025-11-18 14:27:20*
%MOMM*%
%LPD*%
G01*
G04 APERTURE LIST*
%ADD10C,0.100000*%
%ADD11C,0.150000*%
%ADD12C,0.120000*%
%ADD13C,0.127000*%
%ADD14C,0.200000*%
%ADD15C,0.000000*%
G04 APERTURE END LIST*
D10*
X158291884Y-97408419D02*
X158291884Y-96408419D01*
X158720455Y-97408419D02*
X158720455Y-96884609D01*
X158720455Y-96884609D02*
X158672836Y-96789371D01*
X158672836Y-96789371D02*
X158577598Y-96741752D01*
X158577598Y-96741752D02*
X158434741Y-96741752D01*
X158434741Y-96741752D02*
X158339503Y-96789371D01*
X158339503Y-96789371D02*
X158291884Y-96836990D01*
X159053789Y-96741752D02*
X159434741Y-96741752D01*
X159196646Y-96408419D02*
X159196646Y-97265561D01*
X159196646Y-97265561D02*
X159244265Y-97360800D01*
X159244265Y-97360800D02*
X159339503Y-97408419D01*
X159339503Y-97408419D02*
X159434741Y-97408419D01*
X159625218Y-96741752D02*
X160006170Y-96741752D01*
X159768075Y-96408419D02*
X159768075Y-97265561D01*
X159768075Y-97265561D02*
X159815694Y-97360800D01*
X159815694Y-97360800D02*
X159910932Y-97408419D01*
X159910932Y-97408419D02*
X160006170Y-97408419D01*
X160339504Y-96741752D02*
X160339504Y-97741752D01*
X160339504Y-96789371D02*
X160434742Y-96741752D01*
X160434742Y-96741752D02*
X160625218Y-96741752D01*
X160625218Y-96741752D02*
X160720456Y-96789371D01*
X160720456Y-96789371D02*
X160768075Y-96836990D01*
X160768075Y-96836990D02*
X160815694Y-96932228D01*
X160815694Y-96932228D02*
X160815694Y-97217942D01*
X160815694Y-97217942D02*
X160768075Y-97313180D01*
X160768075Y-97313180D02*
X160720456Y-97360800D01*
X160720456Y-97360800D02*
X160625218Y-97408419D01*
X160625218Y-97408419D02*
X160434742Y-97408419D01*
X160434742Y-97408419D02*
X160339504Y-97360800D01*
X161196647Y-97360800D02*
X161291885Y-97408419D01*
X161291885Y-97408419D02*
X161482361Y-97408419D01*
X161482361Y-97408419D02*
X161577599Y-97360800D01*
X161577599Y-97360800D02*
X161625218Y-97265561D01*
X161625218Y-97265561D02*
X161625218Y-97217942D01*
X161625218Y-97217942D02*
X161577599Y-97122704D01*
X161577599Y-97122704D02*
X161482361Y-97075085D01*
X161482361Y-97075085D02*
X161339504Y-97075085D01*
X161339504Y-97075085D02*
X161244266Y-97027466D01*
X161244266Y-97027466D02*
X161196647Y-96932228D01*
X161196647Y-96932228D02*
X161196647Y-96884609D01*
X161196647Y-96884609D02*
X161244266Y-96789371D01*
X161244266Y-96789371D02*
X161339504Y-96741752D01*
X161339504Y-96741752D02*
X161482361Y-96741752D01*
X161482361Y-96741752D02*
X161577599Y-96789371D01*
X162053790Y-97313180D02*
X162101409Y-97360800D01*
X162101409Y-97360800D02*
X162053790Y-97408419D01*
X162053790Y-97408419D02*
X162006171Y-97360800D01*
X162006171Y-97360800D02*
X162053790Y-97313180D01*
X162053790Y-97313180D02*
X162053790Y-97408419D01*
X162053790Y-96789371D02*
X162101409Y-96836990D01*
X162101409Y-96836990D02*
X162053790Y-96884609D01*
X162053790Y-96884609D02*
X162006171Y-96836990D01*
X162006171Y-96836990D02*
X162053790Y-96789371D01*
X162053790Y-96789371D02*
X162053790Y-96884609D01*
X163244265Y-96360800D02*
X162387123Y-97646514D01*
X164291884Y-96360800D02*
X163434742Y-97646514D01*
X165053789Y-96741752D02*
X165053789Y-97551276D01*
X165053789Y-97551276D02*
X165006170Y-97646514D01*
X165006170Y-97646514D02*
X164958551Y-97694133D01*
X164958551Y-97694133D02*
X164863313Y-97741752D01*
X164863313Y-97741752D02*
X164720456Y-97741752D01*
X164720456Y-97741752D02*
X164625218Y-97694133D01*
X165053789Y-97360800D02*
X164958551Y-97408419D01*
X164958551Y-97408419D02*
X164768075Y-97408419D01*
X164768075Y-97408419D02*
X164672837Y-97360800D01*
X164672837Y-97360800D02*
X164625218Y-97313180D01*
X164625218Y-97313180D02*
X164577599Y-97217942D01*
X164577599Y-97217942D02*
X164577599Y-96932228D01*
X164577599Y-96932228D02*
X164625218Y-96836990D01*
X164625218Y-96836990D02*
X164672837Y-96789371D01*
X164672837Y-96789371D02*
X164768075Y-96741752D01*
X164768075Y-96741752D02*
X164958551Y-96741752D01*
X164958551Y-96741752D02*
X165053789Y-96789371D01*
X165529980Y-97408419D02*
X165529980Y-96741752D01*
X165529980Y-96408419D02*
X165482361Y-96456038D01*
X165482361Y-96456038D02*
X165529980Y-96503657D01*
X165529980Y-96503657D02*
X165577599Y-96456038D01*
X165577599Y-96456038D02*
X165529980Y-96408419D01*
X165529980Y-96408419D02*
X165529980Y-96503657D01*
X165863313Y-96741752D02*
X166244265Y-96741752D01*
X166006170Y-96408419D02*
X166006170Y-97265561D01*
X166006170Y-97265561D02*
X166053789Y-97360800D01*
X166053789Y-97360800D02*
X166149027Y-97408419D01*
X166149027Y-97408419D02*
X166244265Y-97408419D01*
X166577599Y-97408419D02*
X166577599Y-96408419D01*
X167006170Y-97408419D02*
X167006170Y-96884609D01*
X167006170Y-96884609D02*
X166958551Y-96789371D01*
X166958551Y-96789371D02*
X166863313Y-96741752D01*
X166863313Y-96741752D02*
X166720456Y-96741752D01*
X166720456Y-96741752D02*
X166625218Y-96789371D01*
X166625218Y-96789371D02*
X166577599Y-96836990D01*
X167910932Y-96741752D02*
X167910932Y-97408419D01*
X167482361Y-96741752D02*
X167482361Y-97265561D01*
X167482361Y-97265561D02*
X167529980Y-97360800D01*
X167529980Y-97360800D02*
X167625218Y-97408419D01*
X167625218Y-97408419D02*
X167768075Y-97408419D01*
X167768075Y-97408419D02*
X167863313Y-97360800D01*
X167863313Y-97360800D02*
X167910932Y-97313180D01*
X168387123Y-97408419D02*
X168387123Y-96408419D01*
X168387123Y-96789371D02*
X168482361Y-96741752D01*
X168482361Y-96741752D02*
X168672837Y-96741752D01*
X168672837Y-96741752D02*
X168768075Y-96789371D01*
X168768075Y-96789371D02*
X168815694Y-96836990D01*
X168815694Y-96836990D02*
X168863313Y-96932228D01*
X168863313Y-96932228D02*
X168863313Y-97217942D01*
X168863313Y-97217942D02*
X168815694Y-97313180D01*
X168815694Y-97313180D02*
X168768075Y-97360800D01*
X168768075Y-97360800D02*
X168672837Y-97408419D01*
X168672837Y-97408419D02*
X168482361Y-97408419D01*
X168482361Y-97408419D02*
X168387123Y-97360800D01*
X169291885Y-97313180D02*
X169339504Y-97360800D01*
X169339504Y-97360800D02*
X169291885Y-97408419D01*
X169291885Y-97408419D02*
X169244266Y-97360800D01*
X169244266Y-97360800D02*
X169291885Y-97313180D01*
X169291885Y-97313180D02*
X169291885Y-97408419D01*
X170196646Y-97360800D02*
X170101408Y-97408419D01*
X170101408Y-97408419D02*
X169910932Y-97408419D01*
X169910932Y-97408419D02*
X169815694Y-97360800D01*
X169815694Y-97360800D02*
X169768075Y-97313180D01*
X169768075Y-97313180D02*
X169720456Y-97217942D01*
X169720456Y-97217942D02*
X169720456Y-96932228D01*
X169720456Y-96932228D02*
X169768075Y-96836990D01*
X169768075Y-96836990D02*
X169815694Y-96789371D01*
X169815694Y-96789371D02*
X169910932Y-96741752D01*
X169910932Y-96741752D02*
X170101408Y-96741752D01*
X170101408Y-96741752D02*
X170196646Y-96789371D01*
X170768075Y-97408419D02*
X170672837Y-97360800D01*
X170672837Y-97360800D02*
X170625218Y-97313180D01*
X170625218Y-97313180D02*
X170577599Y-97217942D01*
X170577599Y-97217942D02*
X170577599Y-96932228D01*
X170577599Y-96932228D02*
X170625218Y-96836990D01*
X170625218Y-96836990D02*
X170672837Y-96789371D01*
X170672837Y-96789371D02*
X170768075Y-96741752D01*
X170768075Y-96741752D02*
X170910932Y-96741752D01*
X170910932Y-96741752D02*
X171006170Y-96789371D01*
X171006170Y-96789371D02*
X171053789Y-96836990D01*
X171053789Y-96836990D02*
X171101408Y-96932228D01*
X171101408Y-96932228D02*
X171101408Y-97217942D01*
X171101408Y-97217942D02*
X171053789Y-97313180D01*
X171053789Y-97313180D02*
X171006170Y-97360800D01*
X171006170Y-97360800D02*
X170910932Y-97408419D01*
X170910932Y-97408419D02*
X170768075Y-97408419D01*
X171529980Y-97408419D02*
X171529980Y-96741752D01*
X171529980Y-96836990D02*
X171577599Y-96789371D01*
X171577599Y-96789371D02*
X171672837Y-96741752D01*
X171672837Y-96741752D02*
X171815694Y-96741752D01*
X171815694Y-96741752D02*
X171910932Y-96789371D01*
X171910932Y-96789371D02*
X171958551Y-96884609D01*
X171958551Y-96884609D02*
X171958551Y-97408419D01*
X171958551Y-96884609D02*
X172006170Y-96789371D01*
X172006170Y-96789371D02*
X172101408Y-96741752D01*
X172101408Y-96741752D02*
X172244265Y-96741752D01*
X172244265Y-96741752D02*
X172339504Y-96789371D01*
X172339504Y-96789371D02*
X172387123Y-96884609D01*
X172387123Y-96884609D02*
X172387123Y-97408419D01*
X173577598Y-96360800D02*
X172720456Y-97646514D01*
X173768075Y-96741752D02*
X174149027Y-96741752D01*
X173910932Y-96408419D02*
X173910932Y-97265561D01*
X173910932Y-97265561D02*
X173958551Y-97360800D01*
X173958551Y-97360800D02*
X174053789Y-97408419D01*
X174053789Y-97408419D02*
X174149027Y-97408419D01*
X174482361Y-97408419D02*
X174482361Y-96741752D01*
X174482361Y-96408419D02*
X174434742Y-96456038D01*
X174434742Y-96456038D02*
X174482361Y-96503657D01*
X174482361Y-96503657D02*
X174529980Y-96456038D01*
X174529980Y-96456038D02*
X174482361Y-96408419D01*
X174482361Y-96408419D02*
X174482361Y-96503657D01*
X174958551Y-97408419D02*
X174958551Y-96741752D01*
X174958551Y-96836990D02*
X175006170Y-96789371D01*
X175006170Y-96789371D02*
X175101408Y-96741752D01*
X175101408Y-96741752D02*
X175244265Y-96741752D01*
X175244265Y-96741752D02*
X175339503Y-96789371D01*
X175339503Y-96789371D02*
X175387122Y-96884609D01*
X175387122Y-96884609D02*
X175387122Y-97408419D01*
X175387122Y-96884609D02*
X175434741Y-96789371D01*
X175434741Y-96789371D02*
X175529979Y-96741752D01*
X175529979Y-96741752D02*
X175672836Y-96741752D01*
X175672836Y-96741752D02*
X175768075Y-96789371D01*
X175768075Y-96789371D02*
X175815694Y-96884609D01*
X175815694Y-96884609D02*
X175815694Y-97408419D01*
X176672836Y-97360800D02*
X176577598Y-97408419D01*
X176577598Y-97408419D02*
X176387122Y-97408419D01*
X176387122Y-97408419D02*
X176291884Y-97360800D01*
X176291884Y-97360800D02*
X176244265Y-97265561D01*
X176244265Y-97265561D02*
X176244265Y-96884609D01*
X176244265Y-96884609D02*
X176291884Y-96789371D01*
X176291884Y-96789371D02*
X176387122Y-96741752D01*
X176387122Y-96741752D02*
X176577598Y-96741752D01*
X176577598Y-96741752D02*
X176672836Y-96789371D01*
X176672836Y-96789371D02*
X176720455Y-96884609D01*
X176720455Y-96884609D02*
X176720455Y-96979847D01*
X176720455Y-96979847D02*
X176244265Y-97075085D01*
X177149027Y-97408419D02*
X177149027Y-96408419D01*
X177149027Y-96789371D02*
X177244265Y-96741752D01*
X177244265Y-96741752D02*
X177434741Y-96741752D01*
X177434741Y-96741752D02*
X177529979Y-96789371D01*
X177529979Y-96789371D02*
X177577598Y-96836990D01*
X177577598Y-96836990D02*
X177625217Y-96932228D01*
X177625217Y-96932228D02*
X177625217Y-97217942D01*
X177625217Y-97217942D02*
X177577598Y-97313180D01*
X177577598Y-97313180D02*
X177529979Y-97360800D01*
X177529979Y-97360800D02*
X177434741Y-97408419D01*
X177434741Y-97408419D02*
X177244265Y-97408419D01*
X177244265Y-97408419D02*
X177149027Y-97360800D01*
X178053789Y-97408419D02*
X178053789Y-96741752D01*
X178053789Y-96408419D02*
X178006170Y-96456038D01*
X178006170Y-96456038D02*
X178053789Y-96503657D01*
X178053789Y-96503657D02*
X178101408Y-96456038D01*
X178101408Y-96456038D02*
X178053789Y-96408419D01*
X178053789Y-96408419D02*
X178053789Y-96503657D01*
X178529979Y-96741752D02*
X178529979Y-97408419D01*
X178529979Y-96836990D02*
X178577598Y-96789371D01*
X178577598Y-96789371D02*
X178672836Y-96741752D01*
X178672836Y-96741752D02*
X178815693Y-96741752D01*
X178815693Y-96741752D02*
X178910931Y-96789371D01*
X178910931Y-96789371D02*
X178958550Y-96884609D01*
X178958550Y-96884609D02*
X178958550Y-97408419D01*
X179863312Y-97408419D02*
X179863312Y-96408419D01*
X179863312Y-97360800D02*
X179768074Y-97408419D01*
X179768074Y-97408419D02*
X179577598Y-97408419D01*
X179577598Y-97408419D02*
X179482360Y-97360800D01*
X179482360Y-97360800D02*
X179434741Y-97313180D01*
X179434741Y-97313180D02*
X179387122Y-97217942D01*
X179387122Y-97217942D02*
X179387122Y-96932228D01*
X179387122Y-96932228D02*
X179434741Y-96836990D01*
X179434741Y-96836990D02*
X179482360Y-96789371D01*
X179482360Y-96789371D02*
X179577598Y-96741752D01*
X179577598Y-96741752D02*
X179768074Y-96741752D01*
X179768074Y-96741752D02*
X179863312Y-96789371D01*
X180339503Y-97408419D02*
X180339503Y-96741752D01*
X180339503Y-96408419D02*
X180291884Y-96456038D01*
X180291884Y-96456038D02*
X180339503Y-96503657D01*
X180339503Y-96503657D02*
X180387122Y-96456038D01*
X180387122Y-96456038D02*
X180339503Y-96408419D01*
X180339503Y-96408419D02*
X180339503Y-96503657D01*
X180815693Y-96741752D02*
X180815693Y-97408419D01*
X180815693Y-96836990D02*
X180863312Y-96789371D01*
X180863312Y-96789371D02*
X180958550Y-96741752D01*
X180958550Y-96741752D02*
X181101407Y-96741752D01*
X181101407Y-96741752D02*
X181196645Y-96789371D01*
X181196645Y-96789371D02*
X181244264Y-96884609D01*
X181244264Y-96884609D02*
X181244264Y-97408419D01*
X182149026Y-96741752D02*
X182149026Y-97551276D01*
X182149026Y-97551276D02*
X182101407Y-97646514D01*
X182101407Y-97646514D02*
X182053788Y-97694133D01*
X182053788Y-97694133D02*
X181958550Y-97741752D01*
X181958550Y-97741752D02*
X181815693Y-97741752D01*
X181815693Y-97741752D02*
X181720455Y-97694133D01*
X182149026Y-97360800D02*
X182053788Y-97408419D01*
X182053788Y-97408419D02*
X181863312Y-97408419D01*
X181863312Y-97408419D02*
X181768074Y-97360800D01*
X181768074Y-97360800D02*
X181720455Y-97313180D01*
X181720455Y-97313180D02*
X181672836Y-97217942D01*
X181672836Y-97217942D02*
X181672836Y-96932228D01*
X181672836Y-96932228D02*
X181720455Y-96836990D01*
X181720455Y-96836990D02*
X181768074Y-96789371D01*
X181768074Y-96789371D02*
X181863312Y-96741752D01*
X181863312Y-96741752D02*
X182053788Y-96741752D01*
X182053788Y-96741752D02*
X182149026Y-96789371D01*
X182625217Y-97027466D02*
X183387122Y-97027466D01*
X183815693Y-97360800D02*
X183910931Y-97408419D01*
X183910931Y-97408419D02*
X184101407Y-97408419D01*
X184101407Y-97408419D02*
X184196645Y-97360800D01*
X184196645Y-97360800D02*
X184244264Y-97265561D01*
X184244264Y-97265561D02*
X184244264Y-97217942D01*
X184244264Y-97217942D02*
X184196645Y-97122704D01*
X184196645Y-97122704D02*
X184101407Y-97075085D01*
X184101407Y-97075085D02*
X183958550Y-97075085D01*
X183958550Y-97075085D02*
X183863312Y-97027466D01*
X183863312Y-97027466D02*
X183815693Y-96932228D01*
X183815693Y-96932228D02*
X183815693Y-96884609D01*
X183815693Y-96884609D02*
X183863312Y-96789371D01*
X183863312Y-96789371D02*
X183958550Y-96741752D01*
X183958550Y-96741752D02*
X184101407Y-96741752D01*
X184101407Y-96741752D02*
X184196645Y-96789371D01*
X184672836Y-97408419D02*
X184672836Y-96741752D01*
X184672836Y-96408419D02*
X184625217Y-96456038D01*
X184625217Y-96456038D02*
X184672836Y-96503657D01*
X184672836Y-96503657D02*
X184720455Y-96456038D01*
X184720455Y-96456038D02*
X184672836Y-96408419D01*
X184672836Y-96408419D02*
X184672836Y-96503657D01*
X185149026Y-96741752D02*
X185149026Y-97408419D01*
X185149026Y-96836990D02*
X185196645Y-96789371D01*
X185196645Y-96789371D02*
X185291883Y-96741752D01*
X185291883Y-96741752D02*
X185434740Y-96741752D01*
X185434740Y-96741752D02*
X185529978Y-96789371D01*
X185529978Y-96789371D02*
X185577597Y-96884609D01*
X185577597Y-96884609D02*
X185577597Y-97408419D01*
X186482359Y-96741752D02*
X186482359Y-97408419D01*
X186053788Y-96741752D02*
X186053788Y-97265561D01*
X186053788Y-97265561D02*
X186101407Y-97360800D01*
X186101407Y-97360800D02*
X186196645Y-97408419D01*
X186196645Y-97408419D02*
X186339502Y-97408419D01*
X186339502Y-97408419D02*
X186434740Y-97360800D01*
X186434740Y-97360800D02*
X186482359Y-97313180D01*
X186910931Y-97360800D02*
X187006169Y-97408419D01*
X187006169Y-97408419D02*
X187196645Y-97408419D01*
X187196645Y-97408419D02*
X187291883Y-97360800D01*
X187291883Y-97360800D02*
X187339502Y-97265561D01*
X187339502Y-97265561D02*
X187339502Y-97217942D01*
X187339502Y-97217942D02*
X187291883Y-97122704D01*
X187291883Y-97122704D02*
X187196645Y-97075085D01*
X187196645Y-97075085D02*
X187053788Y-97075085D01*
X187053788Y-97075085D02*
X186958550Y-97027466D01*
X186958550Y-97027466D02*
X186910931Y-96932228D01*
X186910931Y-96932228D02*
X186910931Y-96884609D01*
X186910931Y-96884609D02*
X186958550Y-96789371D01*
X186958550Y-96789371D02*
X187053788Y-96741752D01*
X187053788Y-96741752D02*
X187196645Y-96741752D01*
X187196645Y-96741752D02*
X187291883Y-96789371D01*
X188482359Y-96360800D02*
X187625217Y-97646514D01*
X188768074Y-97360800D02*
X188863312Y-97408419D01*
X188863312Y-97408419D02*
X189053788Y-97408419D01*
X189053788Y-97408419D02*
X189149026Y-97360800D01*
X189149026Y-97360800D02*
X189196645Y-97265561D01*
X189196645Y-97265561D02*
X189196645Y-97217942D01*
X189196645Y-97217942D02*
X189149026Y-97122704D01*
X189149026Y-97122704D02*
X189053788Y-97075085D01*
X189053788Y-97075085D02*
X188910931Y-97075085D01*
X188910931Y-97075085D02*
X188815693Y-97027466D01*
X188815693Y-97027466D02*
X188768074Y-96932228D01*
X188768074Y-96932228D02*
X188768074Y-96884609D01*
X188768074Y-96884609D02*
X188815693Y-96789371D01*
X188815693Y-96789371D02*
X188910931Y-96741752D01*
X188910931Y-96741752D02*
X189053788Y-96741752D01*
X189053788Y-96741752D02*
X189149026Y-96789371D01*
X189625217Y-96741752D02*
X189625217Y-97741752D01*
X189625217Y-96789371D02*
X189720455Y-96741752D01*
X189720455Y-96741752D02*
X189910931Y-96741752D01*
X189910931Y-96741752D02*
X190006169Y-96789371D01*
X190006169Y-96789371D02*
X190053788Y-96836990D01*
X190053788Y-96836990D02*
X190101407Y-96932228D01*
X190101407Y-96932228D02*
X190101407Y-97217942D01*
X190101407Y-97217942D02*
X190053788Y-97313180D01*
X190053788Y-97313180D02*
X190006169Y-97360800D01*
X190006169Y-97360800D02*
X189910931Y-97408419D01*
X189910931Y-97408419D02*
X189720455Y-97408419D01*
X189720455Y-97408419D02*
X189625217Y-97360800D01*
X190910931Y-97360800D02*
X190815693Y-97408419D01*
X190815693Y-97408419D02*
X190625217Y-97408419D01*
X190625217Y-97408419D02*
X190529979Y-97360800D01*
X190529979Y-97360800D02*
X190482360Y-97265561D01*
X190482360Y-97265561D02*
X190482360Y-96884609D01*
X190482360Y-96884609D02*
X190529979Y-96789371D01*
X190529979Y-96789371D02*
X190625217Y-96741752D01*
X190625217Y-96741752D02*
X190815693Y-96741752D01*
X190815693Y-96741752D02*
X190910931Y-96789371D01*
X190910931Y-96789371D02*
X190958550Y-96884609D01*
X190958550Y-96884609D02*
X190958550Y-96979847D01*
X190958550Y-96979847D02*
X190482360Y-97075085D01*
X191768074Y-97360800D02*
X191672836Y-97408419D01*
X191672836Y-97408419D02*
X191482360Y-97408419D01*
X191482360Y-97408419D02*
X191387122Y-97360800D01*
X191387122Y-97360800D02*
X191339503Y-97265561D01*
X191339503Y-97265561D02*
X191339503Y-96884609D01*
X191339503Y-96884609D02*
X191387122Y-96789371D01*
X191387122Y-96789371D02*
X191482360Y-96741752D01*
X191482360Y-96741752D02*
X191672836Y-96741752D01*
X191672836Y-96741752D02*
X191768074Y-96789371D01*
X191768074Y-96789371D02*
X191815693Y-96884609D01*
X191815693Y-96884609D02*
X191815693Y-96979847D01*
X191815693Y-96979847D02*
X191339503Y-97075085D01*
X192672836Y-97408419D02*
X192672836Y-96408419D01*
X192672836Y-97360800D02*
X192577598Y-97408419D01*
X192577598Y-97408419D02*
X192387122Y-97408419D01*
X192387122Y-97408419D02*
X192291884Y-97360800D01*
X192291884Y-97360800D02*
X192244265Y-97313180D01*
X192244265Y-97313180D02*
X192196646Y-97217942D01*
X192196646Y-97217942D02*
X192196646Y-96932228D01*
X192196646Y-96932228D02*
X192244265Y-96836990D01*
X192244265Y-96836990D02*
X192291884Y-96789371D01*
X192291884Y-96789371D02*
X192387122Y-96741752D01*
X192387122Y-96741752D02*
X192577598Y-96741752D01*
X192577598Y-96741752D02*
X192672836Y-96789371D01*
X193149027Y-96741752D02*
X193149027Y-97598895D01*
X193149027Y-97598895D02*
X193101408Y-97694133D01*
X193101408Y-97694133D02*
X193006170Y-97741752D01*
X193006170Y-97741752D02*
X192958551Y-97741752D01*
X193149027Y-96408419D02*
X193101408Y-96456038D01*
X193101408Y-96456038D02*
X193149027Y-96503657D01*
X193149027Y-96503657D02*
X193196646Y-96456038D01*
X193196646Y-96456038D02*
X193149027Y-96408419D01*
X193149027Y-96408419D02*
X193149027Y-96503657D01*
X194006169Y-97360800D02*
X193910931Y-97408419D01*
X193910931Y-97408419D02*
X193720455Y-97408419D01*
X193720455Y-97408419D02*
X193625217Y-97360800D01*
X193625217Y-97360800D02*
X193577598Y-97265561D01*
X193577598Y-97265561D02*
X193577598Y-96884609D01*
X193577598Y-96884609D02*
X193625217Y-96789371D01*
X193625217Y-96789371D02*
X193720455Y-96741752D01*
X193720455Y-96741752D02*
X193910931Y-96741752D01*
X193910931Y-96741752D02*
X194006169Y-96789371D01*
X194006169Y-96789371D02*
X194053788Y-96884609D01*
X194053788Y-96884609D02*
X194053788Y-96979847D01*
X194053788Y-96979847D02*
X193577598Y-97075085D01*
X194910931Y-97360800D02*
X194815693Y-97408419D01*
X194815693Y-97408419D02*
X194625217Y-97408419D01*
X194625217Y-97408419D02*
X194529979Y-97360800D01*
X194529979Y-97360800D02*
X194482360Y-97313180D01*
X194482360Y-97313180D02*
X194434741Y-97217942D01*
X194434741Y-97217942D02*
X194434741Y-96932228D01*
X194434741Y-96932228D02*
X194482360Y-96836990D01*
X194482360Y-96836990D02*
X194529979Y-96789371D01*
X194529979Y-96789371D02*
X194625217Y-96741752D01*
X194625217Y-96741752D02*
X194815693Y-96741752D01*
X194815693Y-96741752D02*
X194910931Y-96789371D01*
X195339503Y-97408419D02*
X195339503Y-96408419D01*
X195434741Y-97027466D02*
X195720455Y-97408419D01*
X195720455Y-96741752D02*
X195339503Y-97122704D01*
X172256265Y-56586704D02*
X172732455Y-56586704D01*
X172161027Y-56872419D02*
X172494360Y-55872419D01*
X172494360Y-55872419D02*
X172827693Y-56872419D01*
X173161027Y-56872419D02*
X173161027Y-56205752D01*
X173161027Y-56396228D02*
X173208646Y-56300990D01*
X173208646Y-56300990D02*
X173256265Y-56253371D01*
X173256265Y-56253371D02*
X173351503Y-56205752D01*
X173351503Y-56205752D02*
X173446741Y-56205752D01*
X174208646Y-56872419D02*
X174208646Y-55872419D01*
X174208646Y-56824800D02*
X174113408Y-56872419D01*
X174113408Y-56872419D02*
X173922932Y-56872419D01*
X173922932Y-56872419D02*
X173827694Y-56824800D01*
X173827694Y-56824800D02*
X173780075Y-56777180D01*
X173780075Y-56777180D02*
X173732456Y-56681942D01*
X173732456Y-56681942D02*
X173732456Y-56396228D01*
X173732456Y-56396228D02*
X173780075Y-56300990D01*
X173780075Y-56300990D02*
X173827694Y-56253371D01*
X173827694Y-56253371D02*
X173922932Y-56205752D01*
X173922932Y-56205752D02*
X174113408Y-56205752D01*
X174113408Y-56205752D02*
X174208646Y-56253371D01*
X175113408Y-56205752D02*
X175113408Y-56872419D01*
X174684837Y-56205752D02*
X174684837Y-56729561D01*
X174684837Y-56729561D02*
X174732456Y-56824800D01*
X174732456Y-56824800D02*
X174827694Y-56872419D01*
X174827694Y-56872419D02*
X174970551Y-56872419D01*
X174970551Y-56872419D02*
X175065789Y-56824800D01*
X175065789Y-56824800D02*
X175113408Y-56777180D01*
X175589599Y-56872419D02*
X175589599Y-56205752D01*
X175589599Y-55872419D02*
X175541980Y-55920038D01*
X175541980Y-55920038D02*
X175589599Y-55967657D01*
X175589599Y-55967657D02*
X175637218Y-55920038D01*
X175637218Y-55920038D02*
X175589599Y-55872419D01*
X175589599Y-55872419D02*
X175589599Y-55967657D01*
X176065789Y-56205752D02*
X176065789Y-56872419D01*
X176065789Y-56300990D02*
X176113408Y-56253371D01*
X176113408Y-56253371D02*
X176208646Y-56205752D01*
X176208646Y-56205752D02*
X176351503Y-56205752D01*
X176351503Y-56205752D02*
X176446741Y-56253371D01*
X176446741Y-56253371D02*
X176494360Y-56348609D01*
X176494360Y-56348609D02*
X176494360Y-56872419D01*
X177113408Y-56872419D02*
X177018170Y-56824800D01*
X177018170Y-56824800D02*
X176970551Y-56777180D01*
X176970551Y-56777180D02*
X176922932Y-56681942D01*
X176922932Y-56681942D02*
X176922932Y-56396228D01*
X176922932Y-56396228D02*
X176970551Y-56300990D01*
X176970551Y-56300990D02*
X177018170Y-56253371D01*
X177018170Y-56253371D02*
X177113408Y-56205752D01*
X177113408Y-56205752D02*
X177256265Y-56205752D01*
X177256265Y-56205752D02*
X177351503Y-56253371D01*
X177351503Y-56253371D02*
X177399122Y-56300990D01*
X177399122Y-56300990D02*
X177446741Y-56396228D01*
X177446741Y-56396228D02*
X177446741Y-56681942D01*
X177446741Y-56681942D02*
X177399122Y-56777180D01*
X177399122Y-56777180D02*
X177351503Y-56824800D01*
X177351503Y-56824800D02*
X177256265Y-56872419D01*
X177256265Y-56872419D02*
X177113408Y-56872419D01*
X178637218Y-56205752D02*
X178637218Y-56872419D01*
X178637218Y-56300990D02*
X178684837Y-56253371D01*
X178684837Y-56253371D02*
X178780075Y-56205752D01*
X178780075Y-56205752D02*
X178922932Y-56205752D01*
X178922932Y-56205752D02*
X179018170Y-56253371D01*
X179018170Y-56253371D02*
X179065789Y-56348609D01*
X179065789Y-56348609D02*
X179065789Y-56872419D01*
X179970551Y-56872419D02*
X179970551Y-56348609D01*
X179970551Y-56348609D02*
X179922932Y-56253371D01*
X179922932Y-56253371D02*
X179827694Y-56205752D01*
X179827694Y-56205752D02*
X179637218Y-56205752D01*
X179637218Y-56205752D02*
X179541980Y-56253371D01*
X179970551Y-56824800D02*
X179875313Y-56872419D01*
X179875313Y-56872419D02*
X179637218Y-56872419D01*
X179637218Y-56872419D02*
X179541980Y-56824800D01*
X179541980Y-56824800D02*
X179494361Y-56729561D01*
X179494361Y-56729561D02*
X179494361Y-56634323D01*
X179494361Y-56634323D02*
X179541980Y-56539085D01*
X179541980Y-56539085D02*
X179637218Y-56491466D01*
X179637218Y-56491466D02*
X179875313Y-56491466D01*
X179875313Y-56491466D02*
X179970551Y-56443847D01*
X180446742Y-56205752D02*
X180446742Y-56872419D01*
X180446742Y-56300990D02*
X180494361Y-56253371D01*
X180494361Y-56253371D02*
X180589599Y-56205752D01*
X180589599Y-56205752D02*
X180732456Y-56205752D01*
X180732456Y-56205752D02*
X180827694Y-56253371D01*
X180827694Y-56253371D02*
X180875313Y-56348609D01*
X180875313Y-56348609D02*
X180875313Y-56872419D01*
X181494361Y-56872419D02*
X181399123Y-56824800D01*
X181399123Y-56824800D02*
X181351504Y-56777180D01*
X181351504Y-56777180D02*
X181303885Y-56681942D01*
X181303885Y-56681942D02*
X181303885Y-56396228D01*
X181303885Y-56396228D02*
X181351504Y-56300990D01*
X181351504Y-56300990D02*
X181399123Y-56253371D01*
X181399123Y-56253371D02*
X181494361Y-56205752D01*
X181494361Y-56205752D02*
X181637218Y-56205752D01*
X181637218Y-56205752D02*
X181732456Y-56253371D01*
X181732456Y-56253371D02*
X181780075Y-56300990D01*
X181780075Y-56300990D02*
X181827694Y-56396228D01*
X181827694Y-56396228D02*
X181827694Y-56681942D01*
X181827694Y-56681942D02*
X181780075Y-56777180D01*
X181780075Y-56777180D02*
X181732456Y-56824800D01*
X181732456Y-56824800D02*
X181637218Y-56872419D01*
X181637218Y-56872419D02*
X181494361Y-56872419D01*
D11*
X146041905Y-58534819D02*
X146041905Y-57534819D01*
X146041905Y-57534819D02*
X146280000Y-57534819D01*
X146280000Y-57534819D02*
X146422857Y-57582438D01*
X146422857Y-57582438D02*
X146518095Y-57677676D01*
X146518095Y-57677676D02*
X146565714Y-57772914D01*
X146565714Y-57772914D02*
X146613333Y-57963390D01*
X146613333Y-57963390D02*
X146613333Y-58106247D01*
X146613333Y-58106247D02*
X146565714Y-58296723D01*
X146565714Y-58296723D02*
X146518095Y-58391961D01*
X146518095Y-58391961D02*
X146422857Y-58487200D01*
X146422857Y-58487200D02*
X146280000Y-58534819D01*
X146280000Y-58534819D02*
X146041905Y-58534819D01*
X147565714Y-58534819D02*
X146994286Y-58534819D01*
X147280000Y-58534819D02*
X147280000Y-57534819D01*
X147280000Y-57534819D02*
X147184762Y-57677676D01*
X147184762Y-57677676D02*
X147089524Y-57772914D01*
X147089524Y-57772914D02*
X146994286Y-57820533D01*
X135323333Y-81284819D02*
X134990000Y-80808628D01*
X134751905Y-81284819D02*
X134751905Y-80284819D01*
X134751905Y-80284819D02*
X135132857Y-80284819D01*
X135132857Y-80284819D02*
X135228095Y-80332438D01*
X135228095Y-80332438D02*
X135275714Y-80380057D01*
X135275714Y-80380057D02*
X135323333Y-80475295D01*
X135323333Y-80475295D02*
X135323333Y-80618152D01*
X135323333Y-80618152D02*
X135275714Y-80713390D01*
X135275714Y-80713390D02*
X135228095Y-80761009D01*
X135228095Y-80761009D02*
X135132857Y-80808628D01*
X135132857Y-80808628D02*
X134751905Y-80808628D01*
X136275714Y-81284819D02*
X135704286Y-81284819D01*
X135990000Y-81284819D02*
X135990000Y-80284819D01*
X135990000Y-80284819D02*
X135894762Y-80427676D01*
X135894762Y-80427676D02*
X135799524Y-80522914D01*
X135799524Y-80522914D02*
X135704286Y-80570533D01*
X108663095Y-40569819D02*
X108663095Y-41379342D01*
X108663095Y-41379342D02*
X108710714Y-41474580D01*
X108710714Y-41474580D02*
X108758333Y-41522200D01*
X108758333Y-41522200D02*
X108853571Y-41569819D01*
X108853571Y-41569819D02*
X109044047Y-41569819D01*
X109044047Y-41569819D02*
X109139285Y-41522200D01*
X109139285Y-41522200D02*
X109186904Y-41474580D01*
X109186904Y-41474580D02*
X109234523Y-41379342D01*
X109234523Y-41379342D02*
X109234523Y-40569819D01*
X110234523Y-41569819D02*
X109663095Y-41569819D01*
X109948809Y-41569819D02*
X109948809Y-40569819D01*
X109948809Y-40569819D02*
X109853571Y-40712676D01*
X109853571Y-40712676D02*
X109758333Y-40807914D01*
X109758333Y-40807914D02*
X109663095Y-40855533D01*
X149103333Y-58534819D02*
X148770000Y-58058628D01*
X148531905Y-58534819D02*
X148531905Y-57534819D01*
X148531905Y-57534819D02*
X148912857Y-57534819D01*
X148912857Y-57534819D02*
X149008095Y-57582438D01*
X149008095Y-57582438D02*
X149055714Y-57630057D01*
X149055714Y-57630057D02*
X149103333Y-57725295D01*
X149103333Y-57725295D02*
X149103333Y-57868152D01*
X149103333Y-57868152D02*
X149055714Y-57963390D01*
X149055714Y-57963390D02*
X149008095Y-58011009D01*
X149008095Y-58011009D02*
X148912857Y-58058628D01*
X148912857Y-58058628D02*
X148531905Y-58058628D01*
X149436667Y-57534819D02*
X150055714Y-57534819D01*
X150055714Y-57534819D02*
X149722381Y-57915771D01*
X149722381Y-57915771D02*
X149865238Y-57915771D01*
X149865238Y-57915771D02*
X149960476Y-57963390D01*
X149960476Y-57963390D02*
X150008095Y-58011009D01*
X150008095Y-58011009D02*
X150055714Y-58106247D01*
X150055714Y-58106247D02*
X150055714Y-58344342D01*
X150055714Y-58344342D02*
X150008095Y-58439580D01*
X150008095Y-58439580D02*
X149960476Y-58487200D01*
X149960476Y-58487200D02*
X149865238Y-58534819D01*
X149865238Y-58534819D02*
X149579524Y-58534819D01*
X149579524Y-58534819D02*
X149484286Y-58487200D01*
X149484286Y-58487200D02*
X149436667Y-58439580D01*
X171064286Y-66654819D02*
X171064286Y-67464342D01*
X171064286Y-67464342D02*
X171111905Y-67559580D01*
X171111905Y-67559580D02*
X171159524Y-67607200D01*
X171159524Y-67607200D02*
X171254762Y-67654819D01*
X171254762Y-67654819D02*
X171445238Y-67654819D01*
X171445238Y-67654819D02*
X171540476Y-67607200D01*
X171540476Y-67607200D02*
X171588095Y-67559580D01*
X171588095Y-67559580D02*
X171635714Y-67464342D01*
X171635714Y-67464342D02*
X171635714Y-66654819D01*
X172111905Y-67654819D02*
X172111905Y-66654819D01*
X172111905Y-66654819D02*
X172492857Y-66654819D01*
X172492857Y-66654819D02*
X172588095Y-66702438D01*
X172588095Y-66702438D02*
X172635714Y-66750057D01*
X172635714Y-66750057D02*
X172683333Y-66845295D01*
X172683333Y-66845295D02*
X172683333Y-66988152D01*
X172683333Y-66988152D02*
X172635714Y-67083390D01*
X172635714Y-67083390D02*
X172588095Y-67131009D01*
X172588095Y-67131009D02*
X172492857Y-67178628D01*
X172492857Y-67178628D02*
X172111905Y-67178628D01*
X154601104Y-56848285D02*
X154601104Y-56372095D01*
X154886819Y-56943523D02*
X153886819Y-56610190D01*
X153886819Y-56610190D02*
X154886819Y-56276857D01*
X154886819Y-55419714D02*
X154886819Y-55991142D01*
X154886819Y-55705428D02*
X153886819Y-55705428D01*
X153886819Y-55705428D02*
X154029676Y-55800666D01*
X154029676Y-55800666D02*
X154124914Y-55895904D01*
X154124914Y-55895904D02*
X154172533Y-55991142D01*
X194526819Y-57395904D02*
X195336342Y-57395904D01*
X195336342Y-57395904D02*
X195431580Y-57348285D01*
X195431580Y-57348285D02*
X195479200Y-57300666D01*
X195479200Y-57300666D02*
X195526819Y-57205428D01*
X195526819Y-57205428D02*
X195526819Y-57014952D01*
X195526819Y-57014952D02*
X195479200Y-56919714D01*
X195479200Y-56919714D02*
X195431580Y-56872095D01*
X195431580Y-56872095D02*
X195336342Y-56824476D01*
X195336342Y-56824476D02*
X194526819Y-56824476D01*
X195479200Y-56395904D02*
X195526819Y-56253047D01*
X195526819Y-56253047D02*
X195526819Y-56014952D01*
X195526819Y-56014952D02*
X195479200Y-55919714D01*
X195479200Y-55919714D02*
X195431580Y-55872095D01*
X195431580Y-55872095D02*
X195336342Y-55824476D01*
X195336342Y-55824476D02*
X195241104Y-55824476D01*
X195241104Y-55824476D02*
X195145866Y-55872095D01*
X195145866Y-55872095D02*
X195098247Y-55919714D01*
X195098247Y-55919714D02*
X195050628Y-56014952D01*
X195050628Y-56014952D02*
X195003009Y-56205428D01*
X195003009Y-56205428D02*
X194955390Y-56300666D01*
X194955390Y-56300666D02*
X194907771Y-56348285D01*
X194907771Y-56348285D02*
X194812533Y-56395904D01*
X194812533Y-56395904D02*
X194717295Y-56395904D01*
X194717295Y-56395904D02*
X194622057Y-56348285D01*
X194622057Y-56348285D02*
X194574438Y-56300666D01*
X194574438Y-56300666D02*
X194526819Y-56205428D01*
X194526819Y-56205428D02*
X194526819Y-55967333D01*
X194526819Y-55967333D02*
X194574438Y-55824476D01*
X195003009Y-55062571D02*
X195050628Y-54919714D01*
X195050628Y-54919714D02*
X195098247Y-54872095D01*
X195098247Y-54872095D02*
X195193485Y-54824476D01*
X195193485Y-54824476D02*
X195336342Y-54824476D01*
X195336342Y-54824476D02*
X195431580Y-54872095D01*
X195431580Y-54872095D02*
X195479200Y-54919714D01*
X195479200Y-54919714D02*
X195526819Y-55014952D01*
X195526819Y-55014952D02*
X195526819Y-55395904D01*
X195526819Y-55395904D02*
X194526819Y-55395904D01*
X194526819Y-55395904D02*
X194526819Y-55062571D01*
X194526819Y-55062571D02*
X194574438Y-54967333D01*
X194574438Y-54967333D02*
X194622057Y-54919714D01*
X194622057Y-54919714D02*
X194717295Y-54872095D01*
X194717295Y-54872095D02*
X194812533Y-54872095D01*
X194812533Y-54872095D02*
X194907771Y-54919714D01*
X194907771Y-54919714D02*
X194955390Y-54967333D01*
X194955390Y-54967333D02*
X195003009Y-55062571D01*
X195003009Y-55062571D02*
X195003009Y-55395904D01*
X135343333Y-89624819D02*
X135010000Y-89148628D01*
X134771905Y-89624819D02*
X134771905Y-88624819D01*
X134771905Y-88624819D02*
X135152857Y-88624819D01*
X135152857Y-88624819D02*
X135248095Y-88672438D01*
X135248095Y-88672438D02*
X135295714Y-88720057D01*
X135295714Y-88720057D02*
X135343333Y-88815295D01*
X135343333Y-88815295D02*
X135343333Y-88958152D01*
X135343333Y-88958152D02*
X135295714Y-89053390D01*
X135295714Y-89053390D02*
X135248095Y-89101009D01*
X135248095Y-89101009D02*
X135152857Y-89148628D01*
X135152857Y-89148628D02*
X134771905Y-89148628D01*
X135914762Y-89053390D02*
X135819524Y-89005771D01*
X135819524Y-89005771D02*
X135771905Y-88958152D01*
X135771905Y-88958152D02*
X135724286Y-88862914D01*
X135724286Y-88862914D02*
X135724286Y-88815295D01*
X135724286Y-88815295D02*
X135771905Y-88720057D01*
X135771905Y-88720057D02*
X135819524Y-88672438D01*
X135819524Y-88672438D02*
X135914762Y-88624819D01*
X135914762Y-88624819D02*
X136105238Y-88624819D01*
X136105238Y-88624819D02*
X136200476Y-88672438D01*
X136200476Y-88672438D02*
X136248095Y-88720057D01*
X136248095Y-88720057D02*
X136295714Y-88815295D01*
X136295714Y-88815295D02*
X136295714Y-88862914D01*
X136295714Y-88862914D02*
X136248095Y-88958152D01*
X136248095Y-88958152D02*
X136200476Y-89005771D01*
X136200476Y-89005771D02*
X136105238Y-89053390D01*
X136105238Y-89053390D02*
X135914762Y-89053390D01*
X135914762Y-89053390D02*
X135819524Y-89101009D01*
X135819524Y-89101009D02*
X135771905Y-89148628D01*
X135771905Y-89148628D02*
X135724286Y-89243866D01*
X135724286Y-89243866D02*
X135724286Y-89434342D01*
X135724286Y-89434342D02*
X135771905Y-89529580D01*
X135771905Y-89529580D02*
X135819524Y-89577200D01*
X135819524Y-89577200D02*
X135914762Y-89624819D01*
X135914762Y-89624819D02*
X136105238Y-89624819D01*
X136105238Y-89624819D02*
X136200476Y-89577200D01*
X136200476Y-89577200D02*
X136248095Y-89529580D01*
X136248095Y-89529580D02*
X136295714Y-89434342D01*
X136295714Y-89434342D02*
X136295714Y-89243866D01*
X136295714Y-89243866D02*
X136248095Y-89148628D01*
X136248095Y-89148628D02*
X136200476Y-89101009D01*
X136200476Y-89101009D02*
X136105238Y-89053390D01*
X119894819Y-85389333D02*
X120609104Y-85389333D01*
X120609104Y-85389333D02*
X120751961Y-85436952D01*
X120751961Y-85436952D02*
X120847200Y-85532190D01*
X120847200Y-85532190D02*
X120894819Y-85675047D01*
X120894819Y-85675047D02*
X120894819Y-85770285D01*
X120894819Y-84389333D02*
X120894819Y-84960761D01*
X120894819Y-84675047D02*
X119894819Y-84675047D01*
X119894819Y-84675047D02*
X120037676Y-84770285D01*
X120037676Y-84770285D02*
X120132914Y-84865523D01*
X120132914Y-84865523D02*
X120180533Y-84960761D01*
X135323333Y-84284819D02*
X134990000Y-83808628D01*
X134751905Y-84284819D02*
X134751905Y-83284819D01*
X134751905Y-83284819D02*
X135132857Y-83284819D01*
X135132857Y-83284819D02*
X135228095Y-83332438D01*
X135228095Y-83332438D02*
X135275714Y-83380057D01*
X135275714Y-83380057D02*
X135323333Y-83475295D01*
X135323333Y-83475295D02*
X135323333Y-83618152D01*
X135323333Y-83618152D02*
X135275714Y-83713390D01*
X135275714Y-83713390D02*
X135228095Y-83761009D01*
X135228095Y-83761009D02*
X135132857Y-83808628D01*
X135132857Y-83808628D02*
X134751905Y-83808628D01*
X135656667Y-83284819D02*
X136323333Y-83284819D01*
X136323333Y-83284819D02*
X135894762Y-84284819D01*
X149093333Y-56284819D02*
X148760000Y-55808628D01*
X148521905Y-56284819D02*
X148521905Y-55284819D01*
X148521905Y-55284819D02*
X148902857Y-55284819D01*
X148902857Y-55284819D02*
X148998095Y-55332438D01*
X148998095Y-55332438D02*
X149045714Y-55380057D01*
X149045714Y-55380057D02*
X149093333Y-55475295D01*
X149093333Y-55475295D02*
X149093333Y-55618152D01*
X149093333Y-55618152D02*
X149045714Y-55713390D01*
X149045714Y-55713390D02*
X148998095Y-55761009D01*
X148998095Y-55761009D02*
X148902857Y-55808628D01*
X148902857Y-55808628D02*
X148521905Y-55808628D01*
X149474286Y-55380057D02*
X149521905Y-55332438D01*
X149521905Y-55332438D02*
X149617143Y-55284819D01*
X149617143Y-55284819D02*
X149855238Y-55284819D01*
X149855238Y-55284819D02*
X149950476Y-55332438D01*
X149950476Y-55332438D02*
X149998095Y-55380057D01*
X149998095Y-55380057D02*
X150045714Y-55475295D01*
X150045714Y-55475295D02*
X150045714Y-55570533D01*
X150045714Y-55570533D02*
X149998095Y-55713390D01*
X149998095Y-55713390D02*
X149426667Y-56284819D01*
X149426667Y-56284819D02*
X150045714Y-56284819D01*
X152492857Y-82131009D02*
X152635714Y-82178628D01*
X152635714Y-82178628D02*
X152683333Y-82226247D01*
X152683333Y-82226247D02*
X152730952Y-82321485D01*
X152730952Y-82321485D02*
X152730952Y-82464342D01*
X152730952Y-82464342D02*
X152683333Y-82559580D01*
X152683333Y-82559580D02*
X152635714Y-82607200D01*
X152635714Y-82607200D02*
X152540476Y-82654819D01*
X152540476Y-82654819D02*
X152159524Y-82654819D01*
X152159524Y-82654819D02*
X152159524Y-81654819D01*
X152159524Y-81654819D02*
X152492857Y-81654819D01*
X152492857Y-81654819D02*
X152588095Y-81702438D01*
X152588095Y-81702438D02*
X152635714Y-81750057D01*
X152635714Y-81750057D02*
X152683333Y-81845295D01*
X152683333Y-81845295D02*
X152683333Y-81940533D01*
X152683333Y-81940533D02*
X152635714Y-82035771D01*
X152635714Y-82035771D02*
X152588095Y-82083390D01*
X152588095Y-82083390D02*
X152492857Y-82131009D01*
X152492857Y-82131009D02*
X152159524Y-82131009D01*
X153111905Y-82369104D02*
X153588095Y-82369104D01*
X153016667Y-82654819D02*
X153350000Y-81654819D01*
X153350000Y-81654819D02*
X153683333Y-82654819D01*
X154588095Y-82559580D02*
X154540476Y-82607200D01*
X154540476Y-82607200D02*
X154397619Y-82654819D01*
X154397619Y-82654819D02*
X154302381Y-82654819D01*
X154302381Y-82654819D02*
X154159524Y-82607200D01*
X154159524Y-82607200D02*
X154064286Y-82511961D01*
X154064286Y-82511961D02*
X154016667Y-82416723D01*
X154016667Y-82416723D02*
X153969048Y-82226247D01*
X153969048Y-82226247D02*
X153969048Y-82083390D01*
X153969048Y-82083390D02*
X154016667Y-81892914D01*
X154016667Y-81892914D02*
X154064286Y-81797676D01*
X154064286Y-81797676D02*
X154159524Y-81702438D01*
X154159524Y-81702438D02*
X154302381Y-81654819D01*
X154302381Y-81654819D02*
X154397619Y-81654819D01*
X154397619Y-81654819D02*
X154540476Y-81702438D01*
X154540476Y-81702438D02*
X154588095Y-81750057D01*
X155016667Y-82654819D02*
X155016667Y-81654819D01*
X155588095Y-82654819D02*
X155159524Y-82083390D01*
X155588095Y-81654819D02*
X155016667Y-82226247D01*
X148119047Y-40181009D02*
X148261904Y-40228628D01*
X148261904Y-40228628D02*
X148309523Y-40276247D01*
X148309523Y-40276247D02*
X148357142Y-40371485D01*
X148357142Y-40371485D02*
X148357142Y-40514342D01*
X148357142Y-40514342D02*
X148309523Y-40609580D01*
X148309523Y-40609580D02*
X148261904Y-40657200D01*
X148261904Y-40657200D02*
X148166666Y-40704819D01*
X148166666Y-40704819D02*
X147785714Y-40704819D01*
X147785714Y-40704819D02*
X147785714Y-39704819D01*
X147785714Y-39704819D02*
X148119047Y-39704819D01*
X148119047Y-39704819D02*
X148214285Y-39752438D01*
X148214285Y-39752438D02*
X148261904Y-39800057D01*
X148261904Y-39800057D02*
X148309523Y-39895295D01*
X148309523Y-39895295D02*
X148309523Y-39990533D01*
X148309523Y-39990533D02*
X148261904Y-40085771D01*
X148261904Y-40085771D02*
X148214285Y-40133390D01*
X148214285Y-40133390D02*
X148119047Y-40181009D01*
X148119047Y-40181009D02*
X147785714Y-40181009D01*
X148690476Y-39704819D02*
X149357142Y-39704819D01*
X149357142Y-39704819D02*
X148690476Y-40704819D01*
X148690476Y-40704819D02*
X149357142Y-40704819D01*
X150261904Y-40704819D02*
X149690476Y-40704819D01*
X149976190Y-40704819D02*
X149976190Y-39704819D01*
X149976190Y-39704819D02*
X149880952Y-39847676D01*
X149880952Y-39847676D02*
X149785714Y-39942914D01*
X149785714Y-39942914D02*
X149690476Y-39990533D01*
X150873866Y-44380951D02*
X150873866Y-43619047D01*
X151254819Y-43999999D02*
X150492914Y-43999999D01*
X188554762Y-82654819D02*
X188554762Y-81654819D01*
X188554762Y-81654819D02*
X189126190Y-82654819D01*
X189126190Y-82654819D02*
X189126190Y-81654819D01*
X189602381Y-82131009D02*
X189935714Y-82131009D01*
X190078571Y-82654819D02*
X189602381Y-82654819D01*
X189602381Y-82654819D02*
X189602381Y-81654819D01*
X189602381Y-81654819D02*
X190078571Y-81654819D01*
X190411905Y-81654819D02*
X191078571Y-82654819D01*
X191078571Y-81654819D02*
X190411905Y-82654819D01*
X191316667Y-81654819D02*
X191888095Y-81654819D01*
X191602381Y-82654819D02*
X191602381Y-81654819D01*
X152016667Y-67654819D02*
X152016667Y-66654819D01*
X152016667Y-66654819D02*
X152350000Y-67369104D01*
X152350000Y-67369104D02*
X152683333Y-66654819D01*
X152683333Y-66654819D02*
X152683333Y-67654819D01*
X153159524Y-67131009D02*
X153492857Y-67131009D01*
X153635714Y-67654819D02*
X153159524Y-67654819D01*
X153159524Y-67654819D02*
X153159524Y-66654819D01*
X153159524Y-66654819D02*
X153635714Y-66654819D01*
X154064286Y-67654819D02*
X154064286Y-66654819D01*
X154064286Y-66654819D02*
X154635714Y-67654819D01*
X154635714Y-67654819D02*
X154635714Y-66654819D01*
X155111905Y-66654819D02*
X155111905Y-67464342D01*
X155111905Y-67464342D02*
X155159524Y-67559580D01*
X155159524Y-67559580D02*
X155207143Y-67607200D01*
X155207143Y-67607200D02*
X155302381Y-67654819D01*
X155302381Y-67654819D02*
X155492857Y-67654819D01*
X155492857Y-67654819D02*
X155588095Y-67607200D01*
X155588095Y-67607200D02*
X155635714Y-67559580D01*
X155635714Y-67559580D02*
X155683333Y-67464342D01*
X155683333Y-67464342D02*
X155683333Y-66654819D01*
X169969048Y-82654819D02*
X169969048Y-81654819D01*
X169969048Y-81654819D02*
X170207143Y-81654819D01*
X170207143Y-81654819D02*
X170350000Y-81702438D01*
X170350000Y-81702438D02*
X170445238Y-81797676D01*
X170445238Y-81797676D02*
X170492857Y-81892914D01*
X170492857Y-81892914D02*
X170540476Y-82083390D01*
X170540476Y-82083390D02*
X170540476Y-82226247D01*
X170540476Y-82226247D02*
X170492857Y-82416723D01*
X170492857Y-82416723D02*
X170445238Y-82511961D01*
X170445238Y-82511961D02*
X170350000Y-82607200D01*
X170350000Y-82607200D02*
X170207143Y-82654819D01*
X170207143Y-82654819D02*
X169969048Y-82654819D01*
X171159524Y-81654819D02*
X171350000Y-81654819D01*
X171350000Y-81654819D02*
X171445238Y-81702438D01*
X171445238Y-81702438D02*
X171540476Y-81797676D01*
X171540476Y-81797676D02*
X171588095Y-81988152D01*
X171588095Y-81988152D02*
X171588095Y-82321485D01*
X171588095Y-82321485D02*
X171540476Y-82511961D01*
X171540476Y-82511961D02*
X171445238Y-82607200D01*
X171445238Y-82607200D02*
X171350000Y-82654819D01*
X171350000Y-82654819D02*
X171159524Y-82654819D01*
X171159524Y-82654819D02*
X171064286Y-82607200D01*
X171064286Y-82607200D02*
X170969048Y-82511961D01*
X170969048Y-82511961D02*
X170921429Y-82321485D01*
X170921429Y-82321485D02*
X170921429Y-81988152D01*
X170921429Y-81988152D02*
X170969048Y-81797676D01*
X170969048Y-81797676D02*
X171064286Y-81702438D01*
X171064286Y-81702438D02*
X171159524Y-81654819D01*
X171921429Y-81654819D02*
X172159524Y-82654819D01*
X172159524Y-82654819D02*
X172350000Y-81940533D01*
X172350000Y-81940533D02*
X172540476Y-82654819D01*
X172540476Y-82654819D02*
X172778572Y-81654819D01*
X173159524Y-82654819D02*
X173159524Y-81654819D01*
X173159524Y-81654819D02*
X173730952Y-82654819D01*
X173730952Y-82654819D02*
X173730952Y-81654819D01*
X146031905Y-56284819D02*
X146031905Y-55284819D01*
X146031905Y-55284819D02*
X146270000Y-55284819D01*
X146270000Y-55284819D02*
X146412857Y-55332438D01*
X146412857Y-55332438D02*
X146508095Y-55427676D01*
X146508095Y-55427676D02*
X146555714Y-55522914D01*
X146555714Y-55522914D02*
X146603333Y-55713390D01*
X146603333Y-55713390D02*
X146603333Y-55856247D01*
X146603333Y-55856247D02*
X146555714Y-56046723D01*
X146555714Y-56046723D02*
X146508095Y-56141961D01*
X146508095Y-56141961D02*
X146412857Y-56237200D01*
X146412857Y-56237200D02*
X146270000Y-56284819D01*
X146270000Y-56284819D02*
X146031905Y-56284819D01*
X146984286Y-55380057D02*
X147031905Y-55332438D01*
X147031905Y-55332438D02*
X147127143Y-55284819D01*
X147127143Y-55284819D02*
X147365238Y-55284819D01*
X147365238Y-55284819D02*
X147460476Y-55332438D01*
X147460476Y-55332438D02*
X147508095Y-55380057D01*
X147508095Y-55380057D02*
X147555714Y-55475295D01*
X147555714Y-55475295D02*
X147555714Y-55570533D01*
X147555714Y-55570533D02*
X147508095Y-55713390D01*
X147508095Y-55713390D02*
X146936667Y-56284819D01*
X146936667Y-56284819D02*
X147555714Y-56284819D01*
X189504762Y-66654819D02*
X189695238Y-66654819D01*
X189695238Y-66654819D02*
X189790476Y-66702438D01*
X189790476Y-66702438D02*
X189885714Y-66797676D01*
X189885714Y-66797676D02*
X189933333Y-66988152D01*
X189933333Y-66988152D02*
X189933333Y-67321485D01*
X189933333Y-67321485D02*
X189885714Y-67511961D01*
X189885714Y-67511961D02*
X189790476Y-67607200D01*
X189790476Y-67607200D02*
X189695238Y-67654819D01*
X189695238Y-67654819D02*
X189504762Y-67654819D01*
X189504762Y-67654819D02*
X189409524Y-67607200D01*
X189409524Y-67607200D02*
X189314286Y-67511961D01*
X189314286Y-67511961D02*
X189266667Y-67321485D01*
X189266667Y-67321485D02*
X189266667Y-66988152D01*
X189266667Y-66988152D02*
X189314286Y-66797676D01*
X189314286Y-66797676D02*
X189409524Y-66702438D01*
X189409524Y-66702438D02*
X189504762Y-66654819D01*
X190361905Y-67654819D02*
X190361905Y-66654819D01*
X190933333Y-67654819D02*
X190504762Y-67083390D01*
X190933333Y-66654819D02*
X190361905Y-67226247D01*
X125298095Y-88954819D02*
X125298095Y-89764342D01*
X125298095Y-89764342D02*
X125345714Y-89859580D01*
X125345714Y-89859580D02*
X125393333Y-89907200D01*
X125393333Y-89907200D02*
X125488571Y-89954819D01*
X125488571Y-89954819D02*
X125679047Y-89954819D01*
X125679047Y-89954819D02*
X125774285Y-89907200D01*
X125774285Y-89907200D02*
X125821904Y-89859580D01*
X125821904Y-89859580D02*
X125869523Y-89764342D01*
X125869523Y-89764342D02*
X125869523Y-88954819D01*
X126298095Y-89050057D02*
X126345714Y-89002438D01*
X126345714Y-89002438D02*
X126440952Y-88954819D01*
X126440952Y-88954819D02*
X126679047Y-88954819D01*
X126679047Y-88954819D02*
X126774285Y-89002438D01*
X126774285Y-89002438D02*
X126821904Y-89050057D01*
X126821904Y-89050057D02*
X126869523Y-89145295D01*
X126869523Y-89145295D02*
X126869523Y-89240533D01*
X126869523Y-89240533D02*
X126821904Y-89383390D01*
X126821904Y-89383390D02*
X126250476Y-89954819D01*
X126250476Y-89954819D02*
X126869523Y-89954819D01*
D10*
X145740000Y-59250000D02*
G75*
G02*
X145640000Y-59250000I-50000J0D01*
G01*
X145640000Y-59250000D02*
G75*
G02*
X145740000Y-59250000I50000J0D01*
G01*
D12*
X135336359Y-81620000D02*
X135643641Y-81620000D01*
X135336359Y-82380000D02*
X135643641Y-82380000D01*
D13*
X106250000Y-42150000D02*
X141750000Y-42150000D01*
X106250000Y-75850000D02*
X106250000Y-42150000D01*
X141750000Y-42150000D02*
X141750000Y-75850000D01*
X141750000Y-75850000D02*
X106250000Y-75850000D01*
D14*
X120290000Y-41600000D02*
G75*
G02*
X120090000Y-41600000I-100000J0D01*
G01*
X120090000Y-41600000D02*
G75*
G02*
X120290000Y-41600000I100000J0D01*
G01*
D12*
X149116359Y-58870000D02*
X149423641Y-58870000D01*
X149116359Y-59630000D02*
X149423641Y-59630000D01*
X165650000Y-69900000D02*
X167250000Y-68300000D01*
X165650000Y-71050000D02*
X165650000Y-69900000D01*
X165650000Y-72950000D02*
X165650000Y-76050000D01*
X165650000Y-77950000D02*
X165650000Y-79100000D01*
X165650000Y-79100000D02*
X167250000Y-80700000D01*
X167250000Y-68300000D02*
X176450000Y-68300000D01*
X167250000Y-80700000D02*
X176450000Y-80700000D01*
X176450000Y-68300000D02*
X178050000Y-69900000D01*
X176450000Y-80700000D02*
X178050000Y-79100000D01*
X178050000Y-71050000D02*
X178050000Y-69900000D01*
X178050000Y-72950000D02*
X178050000Y-76050000D01*
X178050000Y-77950000D02*
X178050000Y-79100000D01*
X155572000Y-47114000D02*
X155572000Y-65154000D01*
X155572000Y-65154000D02*
X158242000Y-65154000D01*
X158242000Y-49784000D02*
X158242000Y-47114000D01*
X158242000Y-49784000D02*
X196342000Y-49784000D01*
X158242000Y-62484000D02*
X158242000Y-65154000D01*
X160782000Y-62484000D02*
X158242000Y-62484000D01*
X160782000Y-62484000D02*
X160782000Y-65154000D01*
X160782000Y-62484000D02*
X196342000Y-62484000D01*
X160782000Y-65154000D02*
X199012000Y-65154000D01*
X191132000Y-52194000D02*
X201552000Y-52194000D01*
X191132000Y-60074000D02*
X191132000Y-52194000D01*
X196342000Y-49784000D02*
X196342000Y-47114000D01*
X196342000Y-62484000D02*
X196342000Y-65154000D01*
X199012000Y-47114000D02*
X155572000Y-47114000D01*
X199012000Y-47114000D02*
X199012000Y-52194000D01*
X199012000Y-65154000D02*
X199012000Y-60074000D01*
X201552000Y-52194000D02*
X201552000Y-60074000D01*
X201552000Y-60074000D02*
X191132000Y-60074000D01*
D15*
G36*
X194460077Y-45705783D02*
G01*
X194474020Y-45725605D01*
X194472617Y-45756672D01*
X194458293Y-45799508D01*
X194420460Y-45816742D01*
X194411289Y-45818000D01*
X194372785Y-45817845D01*
X194358236Y-45797417D01*
X194356289Y-45763000D01*
X194360937Y-45719911D01*
X194383375Y-45703764D01*
X194417617Y-45701672D01*
X194460077Y-45705783D01*
G37*
G36*
X196122022Y-45708129D02*
G01*
X196135094Y-45735580D01*
X196136289Y-45761672D01*
X196130907Y-45804552D01*
X196108032Y-45820239D01*
X196086289Y-45821672D01*
X196050555Y-45815214D01*
X196037483Y-45787763D01*
X196036289Y-45761672D01*
X196041670Y-45718791D01*
X196064545Y-45703104D01*
X196086289Y-45701672D01*
X196122022Y-45708129D01*
G37*
G36*
X186476289Y-42120404D02*
G01*
X186481525Y-42161653D01*
X186505466Y-42179759D01*
X186541289Y-42185404D01*
X186606289Y-42191672D01*
X186606289Y-42691672D01*
X186606289Y-43191672D01*
X186541289Y-43197939D01*
X186496197Y-43207018D01*
X186478713Y-43230336D01*
X186476289Y-43262939D01*
X186476289Y-43321672D01*
X186156289Y-43321672D01*
X185836289Y-43321672D01*
X185836289Y-42691672D01*
X185836289Y-42061672D01*
X186156289Y-42061672D01*
X186476289Y-42061672D01*
X186476289Y-42120404D01*
G37*
G36*
X195026289Y-45151672D02*
G01*
X195026289Y-45481672D01*
X195026289Y-45811672D01*
X194971289Y-45818000D01*
X194916289Y-45824328D01*
X194916289Y-45594391D01*
X194915945Y-45495664D01*
X194914026Y-45429937D01*
X194909198Y-45390211D01*
X194900130Y-45369486D01*
X194885487Y-45360764D01*
X194871289Y-45358063D01*
X194834004Y-45338873D01*
X194819960Y-45296672D01*
X194823422Y-45252610D01*
X194841580Y-45241672D01*
X194870433Y-45225672D01*
X194896799Y-45190718D01*
X194929942Y-45152138D01*
X194975178Y-45145718D01*
X195026289Y-45151672D01*
G37*
G36*
X195543879Y-45145620D02*
G01*
X195559524Y-45149376D01*
X195570757Y-45159337D01*
X195578307Y-45181291D01*
X195582904Y-45221025D01*
X195585280Y-45284326D01*
X195586164Y-45376980D01*
X195586289Y-45481672D01*
X195586289Y-45811672D01*
X195531289Y-45818000D01*
X195476289Y-45824328D01*
X195476289Y-45594391D01*
X195475945Y-45495664D01*
X195474026Y-45429937D01*
X195469198Y-45390211D01*
X195460130Y-45369486D01*
X195445487Y-45360764D01*
X195431289Y-45358063D01*
X195390889Y-45338417D01*
X195380930Y-45299621D01*
X195401137Y-45248151D01*
X195437827Y-45203210D01*
X195494012Y-45159063D01*
X195541186Y-45145326D01*
X195543879Y-45145620D01*
G37*
G36*
X196671305Y-45143592D02*
G01*
X196681653Y-45153075D01*
X196688667Y-45175701D01*
X196692991Y-45217051D01*
X196695273Y-45282706D01*
X196696155Y-45378247D01*
X196696289Y-45481672D01*
X196696289Y-45821672D01*
X196646289Y-45821672D01*
X196596289Y-45821672D01*
X196596289Y-45593063D01*
X196595941Y-45494670D01*
X196594001Y-45429255D01*
X196589124Y-45389799D01*
X196579967Y-45369281D01*
X196565185Y-45360679D01*
X196551289Y-45358063D01*
X196510739Y-45338129D01*
X196499908Y-45298957D01*
X196518591Y-45247849D01*
X196555667Y-45202279D01*
X196603041Y-45164436D01*
X196646335Y-45143283D01*
X196656978Y-45141672D01*
X196671305Y-45143592D01*
G37*
G36*
X181976180Y-42111672D02*
G01*
X181990349Y-42154840D01*
X182022032Y-42173546D01*
X182051376Y-42177939D01*
X182116289Y-42184206D01*
X182116289Y-42311672D01*
X182116289Y-42439137D01*
X182051289Y-42445404D01*
X182005470Y-42455101D01*
X181985735Y-42481176D01*
X181980021Y-42516672D01*
X181973754Y-42581672D01*
X181664394Y-42581672D01*
X181539358Y-42580841D01*
X181449580Y-42578093D01*
X181390347Y-42573040D01*
X181356944Y-42565297D01*
X181344993Y-42555507D01*
X181341519Y-42526122D01*
X181339547Y-42465673D01*
X181339225Y-42383074D01*
X181340621Y-42290507D01*
X181346289Y-42051672D01*
X181656092Y-42051672D01*
X181965896Y-42051672D01*
X181976180Y-42111672D01*
G37*
G36*
X191892617Y-44196672D02*
G01*
X191888221Y-44223041D01*
X191877051Y-44239558D01*
X191851024Y-44248932D01*
X191802055Y-44253874D01*
X191722060Y-44257094D01*
X191711289Y-44257450D01*
X191536289Y-44263229D01*
X191536289Y-44342450D01*
X191536289Y-44421672D01*
X191697617Y-44421672D01*
X191858945Y-44421672D01*
X191852617Y-44476672D01*
X191847733Y-44504355D01*
X191835203Y-44521122D01*
X191806394Y-44530230D01*
X191752673Y-44534934D01*
X191691289Y-44537513D01*
X191536289Y-44543354D01*
X191536289Y-44622513D01*
X191536289Y-44701672D01*
X191716289Y-44701672D01*
X191801497Y-44702070D01*
X191854403Y-44704689D01*
X191882704Y-44711669D01*
X191894097Y-44725147D01*
X191896280Y-44747261D01*
X191896289Y-44751672D01*
X191896289Y-44801672D01*
X191656289Y-44801672D01*
X191416289Y-44801672D01*
X191416289Y-44471672D01*
X191416289Y-44141672D01*
X191657617Y-44141672D01*
X191898945Y-44141672D01*
X191892617Y-44196672D01*
G37*
G36*
X189116289Y-44189532D02*
G01*
X189111379Y-44221382D01*
X189092264Y-44242378D01*
X189052365Y-44254663D01*
X188985104Y-44260377D01*
X188894653Y-44261672D01*
X188736289Y-44261672D01*
X188736289Y-44341672D01*
X188736289Y-44421672D01*
X188896289Y-44421672D01*
X188975642Y-44422204D01*
X189023157Y-44425503D01*
X189046995Y-44434118D01*
X189055318Y-44450600D01*
X189056289Y-44471672D01*
X189054583Y-44496469D01*
X189044028Y-44511318D01*
X189016460Y-44518767D01*
X188963719Y-44521368D01*
X188896289Y-44521672D01*
X188736289Y-44521672D01*
X188736289Y-44611672D01*
X188736289Y-44701672D01*
X188926289Y-44701672D01*
X189014309Y-44702019D01*
X189069821Y-44704375D01*
X189100319Y-44710712D01*
X189113295Y-44723001D01*
X189116240Y-44743214D01*
X189116289Y-44751672D01*
X189116289Y-44801672D01*
X188866289Y-44801672D01*
X188616289Y-44801672D01*
X188616289Y-44471672D01*
X188616289Y-44141672D01*
X188866289Y-44141672D01*
X189116289Y-44141672D01*
X189116289Y-44189532D01*
G37*
G36*
X196916289Y-44420525D02*
G01*
X196916289Y-44702036D01*
X196859123Y-44761854D01*
X196823835Y-44794837D01*
X196789102Y-44812548D01*
X196741004Y-44819340D01*
X196674123Y-44819704D01*
X196600559Y-44816459D01*
X196552980Y-44806521D01*
X196517429Y-44785369D01*
X196491289Y-44760495D01*
X196469613Y-44736797D01*
X196454543Y-44713592D01*
X196444879Y-44683470D01*
X196439420Y-44639022D01*
X196436965Y-44572840D01*
X196436313Y-44477514D01*
X196436289Y-44421134D01*
X196436289Y-44139015D01*
X196491289Y-44145343D01*
X196546289Y-44151672D01*
X196551376Y-44381672D01*
X196555781Y-44502873D01*
X196564220Y-44589607D01*
X196578836Y-44647363D01*
X196601771Y-44681628D01*
X196635168Y-44697891D01*
X196676289Y-44701672D01*
X196721023Y-44696988D01*
X196753353Y-44679279D01*
X196775422Y-44643056D01*
X196789372Y-44582830D01*
X196797344Y-44493114D01*
X196801201Y-44381672D01*
X196806289Y-44151672D01*
X196861289Y-44145343D01*
X196916289Y-44139015D01*
X196916289Y-44420525D01*
G37*
G36*
X191336289Y-44470343D02*
G01*
X191336289Y-44801672D01*
X191276289Y-44801672D01*
X191232370Y-44795386D01*
X191216907Y-44771997D01*
X191216289Y-44761672D01*
X191207913Y-44729172D01*
X191196289Y-44721672D01*
X191179909Y-44704963D01*
X191176289Y-44682624D01*
X191162787Y-44649588D01*
X191127346Y-44600144D01*
X191077566Y-44544857D01*
X191076289Y-44543576D01*
X190976289Y-44443576D01*
X190976289Y-44622624D01*
X190976289Y-44801672D01*
X190916289Y-44801672D01*
X190856289Y-44801672D01*
X190856289Y-44471672D01*
X190856289Y-44141672D01*
X190904824Y-44141672D01*
X190949472Y-44156491D01*
X190984824Y-44204744D01*
X191005980Y-44251510D01*
X191016134Y-44282516D01*
X191016289Y-44284480D01*
X191029439Y-44305964D01*
X191064008Y-44346678D01*
X191112676Y-44398033D01*
X191115517Y-44400896D01*
X191214746Y-44500649D01*
X191220517Y-44326160D01*
X191223716Y-44242499D01*
X191228359Y-44190721D01*
X191237169Y-44162727D01*
X191252866Y-44150420D01*
X191278173Y-44145704D01*
X191281289Y-44145343D01*
X191336289Y-44139015D01*
X191336289Y-44470343D01*
G37*
G36*
X195712617Y-44196672D02*
G01*
X195696045Y-44241896D01*
X195661289Y-44258063D01*
X195641570Y-44262725D01*
X195628655Y-44274802D01*
X195621108Y-44301480D01*
X195617491Y-44349947D01*
X195616366Y-44427389D01*
X195616289Y-44483063D01*
X195616289Y-44701672D01*
X195667617Y-44701672D01*
X195704188Y-44707436D01*
X195714274Y-44733018D01*
X195712617Y-44756672D01*
X195706954Y-44786282D01*
X195692237Y-44803319D01*
X195659001Y-44811980D01*
X195597779Y-44816462D01*
X195575441Y-44817491D01*
X195506325Y-44818459D01*
X195453861Y-44815290D01*
X195430441Y-44809157D01*
X195419256Y-44779814D01*
X195416289Y-44748338D01*
X195427101Y-44710868D01*
X195456289Y-44701672D01*
X195473794Y-44699140D01*
X195485285Y-44686935D01*
X195492018Y-44658142D01*
X195495250Y-44605847D01*
X195496239Y-44523134D01*
X195496289Y-44481672D01*
X195495828Y-44385391D01*
X195493609Y-44322192D01*
X195488374Y-44285161D01*
X195478866Y-44267383D01*
X195463827Y-44261942D01*
X195456289Y-44261672D01*
X195427010Y-44252243D01*
X195416701Y-44217160D01*
X195416289Y-44201672D01*
X195416289Y-44141672D01*
X195567617Y-44141672D01*
X195718945Y-44141672D01*
X195712617Y-44196672D01*
G37*
G36*
X190132617Y-44196672D02*
G01*
X190116045Y-44241896D01*
X190081289Y-44258063D01*
X190061570Y-44262725D01*
X190048655Y-44274802D01*
X190041108Y-44301480D01*
X190037491Y-44349947D01*
X190036366Y-44427389D01*
X190036289Y-44483063D01*
X190036289Y-44701672D01*
X190086289Y-44701672D01*
X190124349Y-44709932D01*
X190136077Y-44742457D01*
X190136289Y-44751672D01*
X190134419Y-44777104D01*
X190123194Y-44792011D01*
X190094187Y-44799203D01*
X190038974Y-44801488D01*
X189986289Y-44801672D01*
X189909992Y-44801048D01*
X189865269Y-44797307D01*
X189843694Y-44787638D01*
X189836840Y-44769233D01*
X189836289Y-44751672D01*
X189845663Y-44712463D01*
X189876289Y-44701672D01*
X189893871Y-44699117D01*
X189905381Y-44686820D01*
X189912096Y-44657830D01*
X189915292Y-44605196D01*
X189916247Y-44521968D01*
X189916289Y-44484004D01*
X189915738Y-44387857D01*
X189913233Y-44324408D01*
X189907495Y-44286361D01*
X189897244Y-44266419D01*
X189881201Y-44257286D01*
X189876289Y-44255877D01*
X189843180Y-44229873D01*
X189836289Y-44193544D01*
X189837929Y-44167255D01*
X189848448Y-44151800D01*
X189876239Y-44144302D01*
X189929694Y-44141883D01*
X189987617Y-44141672D01*
X190138945Y-44141672D01*
X190132617Y-44196672D01*
G37*
G36*
X188335879Y-44142344D02*
G01*
X188395327Y-44145890D01*
X188434848Y-44154606D01*
X188464479Y-44170785D01*
X188494252Y-44196721D01*
X188496471Y-44198837D01*
X188522832Y-44225420D01*
X188540025Y-44250733D01*
X188550010Y-44283709D01*
X188554745Y-44333280D01*
X188556188Y-44408381D01*
X188556289Y-44471672D01*
X188555903Y-44567083D01*
X188553439Y-44631428D01*
X188546940Y-44673639D01*
X188534445Y-44702650D01*
X188513998Y-44727393D01*
X188496471Y-44744506D01*
X188466333Y-44771169D01*
X188437004Y-44787923D01*
X188398446Y-44797061D01*
X188340627Y-44800879D01*
X188253510Y-44801670D01*
X188246471Y-44801672D01*
X188056289Y-44801672D01*
X188056289Y-44701672D01*
X188176289Y-44701672D01*
X188271844Y-44701672D01*
X188342759Y-44695711D01*
X188387734Y-44675223D01*
X188401844Y-44661443D01*
X188421408Y-44626434D01*
X188432296Y-44572294D01*
X188436198Y-44489631D01*
X188436289Y-44470014D01*
X188433130Y-44376326D01*
X188420173Y-44315513D01*
X188392194Y-44280711D01*
X188343969Y-44265059D01*
X188277717Y-44261672D01*
X188176289Y-44261672D01*
X188176289Y-44481672D01*
X188176289Y-44701672D01*
X188056289Y-44701672D01*
X188056289Y-44481672D01*
X188056289Y-44471672D01*
X188056289Y-44141672D01*
X188246471Y-44141672D01*
X188335879Y-44142344D01*
G37*
G36*
X192244054Y-44142591D02*
G01*
X192302248Y-44146918D01*
X192341633Y-44157004D01*
X192372797Y-44175201D01*
X192396462Y-44194977D01*
X192422198Y-44219049D01*
X192439237Y-44242213D01*
X192449372Y-44272903D01*
X192454397Y-44319557D01*
X192456105Y-44390611D01*
X192456289Y-44476406D01*
X192454145Y-44592459D01*
X192446769Y-44673852D01*
X192432738Y-44725745D01*
X192410633Y-44753296D01*
X192379031Y-44761663D01*
X192377717Y-44761672D01*
X192357155Y-44776050D01*
X192356289Y-44781672D01*
X192337338Y-44791105D01*
X192284580Y-44797881D01*
X192204157Y-44801353D01*
X192166289Y-44801672D01*
X191976289Y-44801672D01*
X191976289Y-44701672D01*
X192076289Y-44701672D01*
X192179084Y-44701672D01*
X192252430Y-44696428D01*
X192296095Y-44679048D01*
X192308448Y-44666672D01*
X192323814Y-44625687D01*
X192333152Y-44559536D01*
X192336486Y-44480747D01*
X192333840Y-44401850D01*
X192325238Y-44335374D01*
X192310705Y-44293849D01*
X192307717Y-44290243D01*
X192267410Y-44271446D01*
X192200047Y-44262186D01*
X192177717Y-44261672D01*
X192076289Y-44261672D01*
X192076289Y-44481672D01*
X192076289Y-44701672D01*
X191976289Y-44701672D01*
X191976289Y-44481672D01*
X191976289Y-44471672D01*
X191976289Y-44141672D01*
X192156462Y-44141672D01*
X192244054Y-44142591D01*
G37*
G36*
X193373750Y-45143430D02*
G01*
X193419668Y-45151686D01*
X193452760Y-45170907D01*
X193482983Y-45201498D01*
X193524838Y-45267537D01*
X193536289Y-45341672D01*
X193523642Y-45418953D01*
X193482983Y-45481845D01*
X193442811Y-45519575D01*
X193399760Y-45537160D01*
X193335953Y-45541663D01*
X193331554Y-45541672D01*
X193248788Y-45550583D01*
X193198639Y-45578996D01*
X193177509Y-45629425D01*
X193176289Y-45650243D01*
X193177572Y-45674588D01*
X193186553Y-45689703D01*
X193210930Y-45697789D01*
X193258401Y-45701044D01*
X193336664Y-45701669D01*
X193356289Y-45701672D01*
X193536289Y-45701672D01*
X193536289Y-45761672D01*
X193536289Y-45821672D01*
X193296289Y-45821672D01*
X193056289Y-45821672D01*
X193056289Y-45680133D01*
X193057774Y-45603512D01*
X193064736Y-45553990D01*
X193080936Y-45518701D01*
X193110135Y-45484782D01*
X193114750Y-45480133D01*
X193162502Y-45441247D01*
X193214186Y-45424466D01*
X193266179Y-45421672D01*
X193344407Y-45411940D01*
X193396444Y-45384892D01*
X193416252Y-45343744D01*
X193416289Y-45341672D01*
X193399788Y-45297871D01*
X193357797Y-45271220D01*
X193301582Y-45263091D01*
X193242411Y-45274856D01*
X193191550Y-45307889D01*
X193186278Y-45313651D01*
X193139961Y-45350351D01*
X193097238Y-45355951D01*
X193067305Y-45330983D01*
X193059880Y-45306337D01*
X193071822Y-45255103D01*
X193113342Y-45201541D01*
X193150766Y-45168294D01*
X193187809Y-45150265D01*
X193238731Y-45142914D01*
X193301444Y-45141672D01*
X193373750Y-45143430D01*
G37*
G36*
X193831289Y-45145995D02*
G01*
X194046289Y-45151672D01*
X194052617Y-45206672D01*
X194058945Y-45261672D01*
X193897617Y-45261672D01*
X193736289Y-45261672D01*
X193737867Y-45346672D01*
X193740801Y-45392316D01*
X193746415Y-45410237D01*
X193749534Y-45406672D01*
X193776405Y-45390679D01*
X193838213Y-45382538D01*
X193875228Y-45381672D01*
X193946708Y-45384623D01*
X193993615Y-45396651D01*
X194031142Y-45422513D01*
X194043561Y-45434399D01*
X194075894Y-45474066D01*
X194091699Y-45519128D01*
X194096249Y-45585739D01*
X194096289Y-45595937D01*
X194092993Y-45665118D01*
X194079173Y-45711444D01*
X194048932Y-45751792D01*
X194037827Y-45763210D01*
X194000717Y-45795901D01*
X193963347Y-45813456D01*
X193911379Y-45820377D01*
X193852827Y-45821293D01*
X193780693Y-45819180D01*
X193734574Y-45810292D01*
X193700544Y-45790000D01*
X193671289Y-45760947D01*
X193631139Y-45704086D01*
X193615898Y-45653259D01*
X193625957Y-45616461D01*
X193661708Y-45601691D01*
X193663487Y-45601672D01*
X193711066Y-45617854D01*
X193748234Y-45651672D01*
X193796753Y-45690806D01*
X193855046Y-45703642D01*
X193911858Y-45692647D01*
X193955935Y-45660287D01*
X193976024Y-45609031D01*
X193976289Y-45601672D01*
X193963396Y-45552999D01*
X193947717Y-45530243D01*
X193914498Y-45513040D01*
X193866312Y-45503605D01*
X193817842Y-45502674D01*
X193783765Y-45510979D01*
X193776289Y-45521672D01*
X193758545Y-45534196D01*
X193714221Y-45541162D01*
X193696289Y-45541672D01*
X193616289Y-45541672D01*
X193616289Y-45340995D01*
X193616289Y-45140318D01*
X193831289Y-45145995D01*
G37*
G36*
X195979169Y-44147053D02*
G01*
X195994856Y-44169928D01*
X195996289Y-44191672D01*
X196003135Y-44229258D01*
X196016289Y-44241672D01*
X196033794Y-44257970D01*
X196036289Y-44273142D01*
X196049249Y-44298713D01*
X196082358Y-44341845D01*
X196126957Y-44393095D01*
X196174387Y-44443022D01*
X196215988Y-44482182D01*
X196243102Y-44501134D01*
X196245860Y-44501672D01*
X196250453Y-44483161D01*
X196254013Y-44433577D01*
X196256025Y-44361846D01*
X196256289Y-44321672D01*
X196256676Y-44236464D01*
X196259277Y-44183559D01*
X196266251Y-44155259D01*
X196279757Y-44143865D01*
X196301954Y-44141681D01*
X196306772Y-44141672D01*
X196357256Y-44141672D01*
X196351772Y-44476672D01*
X196349598Y-44599433D01*
X196347150Y-44687949D01*
X196343579Y-44747969D01*
X196338034Y-44785244D01*
X196329665Y-44805523D01*
X196317621Y-44814557D01*
X196301289Y-44818063D01*
X196267676Y-44815380D01*
X196256692Y-44786840D01*
X196256289Y-44773063D01*
X196246096Y-44731809D01*
X196226289Y-44721672D01*
X196201862Y-44704971D01*
X196196289Y-44681409D01*
X196182736Y-44647682D01*
X196147196Y-44597870D01*
X196097343Y-44542720D01*
X196097026Y-44542405D01*
X195997763Y-44443663D01*
X195992026Y-44627667D01*
X195988560Y-44714709D01*
X195983487Y-44769519D01*
X195974902Y-44799868D01*
X195960900Y-44813523D01*
X195945465Y-44817515D01*
X195905724Y-44816177D01*
X195890465Y-44809182D01*
X195885703Y-44785346D01*
X195881622Y-44728526D01*
X195878514Y-44645735D01*
X195876671Y-44543987D01*
X195876289Y-44468338D01*
X195876289Y-44141672D01*
X195936289Y-44141672D01*
X195979169Y-44147053D01*
G37*
G36*
X197304461Y-44143661D02*
G01*
X197352034Y-44152585D01*
X197388018Y-44172881D01*
X197417827Y-44200133D01*
X197462396Y-44256404D01*
X197476583Y-44302244D01*
X197460281Y-44332366D01*
X197420704Y-44341672D01*
X197364855Y-44326442D01*
X197336289Y-44301672D01*
X197295153Y-44271396D01*
X197239944Y-44261929D01*
X197183339Y-44270965D01*
X197138014Y-44296199D01*
X197116647Y-44335326D01*
X197116289Y-44341672D01*
X197134548Y-44383363D01*
X197185300Y-44411096D01*
X197262509Y-44421652D01*
X197266398Y-44421672D01*
X197354131Y-44437780D01*
X197421303Y-44480808D01*
X197464434Y-44542807D01*
X197480043Y-44615830D01*
X197464649Y-44691927D01*
X197415599Y-44762346D01*
X197376788Y-44795828D01*
X197338233Y-44813632D01*
X197285106Y-44820485D01*
X197230599Y-44821293D01*
X197159024Y-44819074D01*
X197113209Y-44809781D01*
X197078984Y-44788644D01*
X197051289Y-44760947D01*
X197012265Y-44705483D01*
X196996366Y-44654684D01*
X197004259Y-44617208D01*
X197036612Y-44601714D01*
X197038995Y-44601672D01*
X197081644Y-44615733D01*
X197126241Y-44649764D01*
X197128040Y-44651672D01*
X197183505Y-44689161D01*
X197248320Y-44701864D01*
X197307301Y-44688149D01*
X197327717Y-44673100D01*
X197354678Y-44628082D01*
X197345730Y-44588486D01*
X197304950Y-44558674D01*
X197236417Y-44543009D01*
X197204882Y-44541672D01*
X197138700Y-44536725D01*
X197092270Y-44516730D01*
X197053454Y-44481854D01*
X197005755Y-44406184D01*
X196994857Y-44323150D01*
X197020879Y-44241336D01*
X197049594Y-44201498D01*
X197082770Y-44168495D01*
X197116496Y-44150504D01*
X197164332Y-44143055D01*
X197231133Y-44141672D01*
X197304461Y-44143661D01*
G37*
G36*
X193415702Y-44145456D02*
G01*
X193453802Y-44153064D01*
X193482592Y-44168803D01*
X193512291Y-44194849D01*
X193515693Y-44198094D01*
X193555504Y-44244070D01*
X193572975Y-44292797D01*
X193576289Y-44348837D01*
X193572590Y-44409180D01*
X193559944Y-44437280D01*
X193546289Y-44441672D01*
X193519749Y-44456582D01*
X193516289Y-44469532D01*
X193532421Y-44500407D01*
X193546289Y-44508904D01*
X193569022Y-44539006D01*
X193576289Y-44603044D01*
X193569892Y-44663853D01*
X193544973Y-44712726D01*
X193508289Y-44753672D01*
X193472020Y-44787852D01*
X193439913Y-44808077D01*
X193399914Y-44817973D01*
X193339971Y-44821168D01*
X193283289Y-44821365D01*
X193205438Y-44819253D01*
X193141798Y-44813939D01*
X193104107Y-44806484D01*
X193100763Y-44804860D01*
X193090699Y-44788024D01*
X193083969Y-44749424D01*
X193081270Y-44701672D01*
X193196289Y-44701672D01*
X193302909Y-44701672D01*
X193367711Y-44699183D01*
X193405325Y-44688617D01*
X193428420Y-44665322D01*
X193435608Y-44652942D01*
X193448242Y-44602082D01*
X193424303Y-44566302D01*
X193364492Y-44546166D01*
X193297717Y-44541672D01*
X193196289Y-44541672D01*
X193196289Y-44621672D01*
X193196289Y-44701672D01*
X193081270Y-44701672D01*
X193080295Y-44684411D01*
X193079711Y-44621672D01*
X193079400Y-44588335D01*
X193080763Y-44470166D01*
X193081604Y-44421672D01*
X193196289Y-44421672D01*
X193302909Y-44421672D01*
X193367711Y-44419183D01*
X193405325Y-44408617D01*
X193428420Y-44385322D01*
X193435608Y-44372942D01*
X193448242Y-44322082D01*
X193424303Y-44286302D01*
X193364492Y-44266166D01*
X193297717Y-44261672D01*
X193196289Y-44261672D01*
X193196289Y-44341672D01*
X193196289Y-44421672D01*
X193081604Y-44421672D01*
X193082992Y-44341672D01*
X193086289Y-44151672D01*
X193270693Y-44145929D01*
X193358072Y-44143803D01*
X193415702Y-44145456D01*
G37*
G36*
X190622609Y-44143340D02*
G01*
X190669165Y-44150926D01*
X190701142Y-44168303D01*
X190728937Y-44196672D01*
X190765867Y-44255259D01*
X190773922Y-44303426D01*
X190757945Y-44334589D01*
X190722782Y-44342163D01*
X190673275Y-44319566D01*
X190651681Y-44301672D01*
X190598026Y-44272175D01*
X190532318Y-44262299D01*
X190471904Y-44273000D01*
X190444860Y-44290243D01*
X190429343Y-44326408D01*
X190419754Y-44389605D01*
X190416117Y-44467306D01*
X190418455Y-44546981D01*
X190426794Y-44616100D01*
X190441157Y-44662135D01*
X190444129Y-44666672D01*
X190487862Y-44694853D01*
X190547741Y-44700006D01*
X190607508Y-44682553D01*
X190636289Y-44661672D01*
X190670557Y-44617990D01*
X190668741Y-44591412D01*
X190630812Y-44581723D01*
X190626289Y-44581672D01*
X190590555Y-44575214D01*
X190577483Y-44547763D01*
X190576289Y-44521672D01*
X190578473Y-44486153D01*
X190591906Y-44468441D01*
X190626906Y-44462345D01*
X190676289Y-44461672D01*
X190776289Y-44461672D01*
X190776289Y-44582581D01*
X190773533Y-44655943D01*
X190762548Y-44703641D01*
X190739255Y-44739797D01*
X190727198Y-44752581D01*
X190695547Y-44779075D01*
X190659103Y-44793963D01*
X190605548Y-44800425D01*
X190537198Y-44801672D01*
X190465034Y-44799044D01*
X190415129Y-44791996D01*
X190396290Y-44781777D01*
X190396289Y-44781672D01*
X190380883Y-44762481D01*
X190374860Y-44761672D01*
X190342895Y-44753891D01*
X190320477Y-44727110D01*
X190306184Y-44676169D01*
X190298595Y-44595912D01*
X190296291Y-44481178D01*
X190296289Y-44476406D01*
X190296588Y-44378006D01*
X190298681Y-44311170D01*
X190304361Y-44267463D01*
X190315422Y-44238446D01*
X190333658Y-44215686D01*
X190356115Y-44194977D01*
X190394806Y-44165323D01*
X190435617Y-44149162D01*
X190492578Y-44142614D01*
X190548788Y-44141672D01*
X190622609Y-44143340D01*
G37*
G36*
X192813750Y-45143430D02*
G01*
X192859668Y-45151686D01*
X192892760Y-45170907D01*
X192922983Y-45201498D01*
X192946399Y-45229967D01*
X192961720Y-45258438D01*
X192970655Y-45295907D01*
X192974916Y-45351369D01*
X192976215Y-45433820D01*
X192976289Y-45481680D01*
X192975855Y-45578577D01*
X192973339Y-45644402D01*
X192966920Y-45688084D01*
X192954775Y-45718552D01*
X192935083Y-45744734D01*
X192919123Y-45761854D01*
X192883835Y-45794837D01*
X192849102Y-45812548D01*
X192801004Y-45819340D01*
X192734123Y-45819704D01*
X192660559Y-45816459D01*
X192612980Y-45806521D01*
X192577429Y-45785369D01*
X192551289Y-45760495D01*
X192527279Y-45733662D01*
X192511518Y-45707053D01*
X192502273Y-45671859D01*
X192497809Y-45619270D01*
X192496395Y-45540477D01*
X192496289Y-45480924D01*
X192496349Y-45465709D01*
X192615651Y-45465709D01*
X192616722Y-45545591D01*
X192623391Y-45615476D01*
X192635774Y-45662947D01*
X192641289Y-45671755D01*
X192684639Y-45694875D01*
X192745442Y-45699218D01*
X192806054Y-45685191D01*
X192836060Y-45667227D01*
X192856438Y-45644061D01*
X192868628Y-45611097D01*
X192874588Y-45558592D01*
X192876279Y-45476804D01*
X192876289Y-45467227D01*
X192874952Y-45383514D01*
X192870093Y-45332710D01*
X192860437Y-45307786D01*
X192846289Y-45301672D01*
X192819673Y-45290872D01*
X192816289Y-45281672D01*
X192799429Y-45266972D01*
X192758639Y-45261986D01*
X192708598Y-45265981D01*
X192663985Y-45278220D01*
X192644860Y-45290243D01*
X192629836Y-45325618D01*
X192620061Y-45388245D01*
X192615651Y-45465709D01*
X192496349Y-45465709D01*
X192496674Y-45383717D01*
X192499050Y-45317713D01*
X192505249Y-45274113D01*
X192517103Y-45244122D01*
X192536443Y-45218942D01*
X192554750Y-45200133D01*
X192591637Y-45167609D01*
X192628832Y-45149989D01*
X192680502Y-45142837D01*
X192741444Y-45141672D01*
X192813750Y-45143430D01*
G37*
G36*
X189501420Y-44143271D02*
G01*
X189548394Y-44151065D01*
X189582622Y-44169543D01*
X189617712Y-44203198D01*
X189619142Y-44204727D01*
X189654318Y-44250707D01*
X189671686Y-44290154D01*
X189671962Y-44299727D01*
X189649736Y-44329321D01*
X189607415Y-44336622D01*
X189558325Y-44321316D01*
X189533093Y-44302987D01*
X189478587Y-44272562D01*
X189412510Y-44262183D01*
X189351894Y-44272893D01*
X189324860Y-44290243D01*
X189300421Y-44326094D01*
X189299749Y-44353747D01*
X189316289Y-44361672D01*
X189334032Y-44377871D01*
X189336289Y-44391672D01*
X189346022Y-44409623D01*
X189380253Y-44418949D01*
X189446526Y-44421671D01*
X189448264Y-44421672D01*
X189516741Y-44424367D01*
X189561444Y-44436370D01*
X189598452Y-44463556D01*
X189618264Y-44483787D01*
X189665268Y-44554103D01*
X189676289Y-44611672D01*
X189658645Y-44683837D01*
X189618264Y-44739556D01*
X189584197Y-44772722D01*
X189551485Y-44791234D01*
X189507069Y-44799176D01*
X189437894Y-44800628D01*
X189423264Y-44800528D01*
X189346790Y-44798030D01*
X189297129Y-44789592D01*
X189261152Y-44771437D01*
X189231289Y-44745312D01*
X189189640Y-44691774D01*
X189175776Y-44645126D01*
X189189877Y-44612683D01*
X189227717Y-44601672D01*
X189281045Y-44614376D01*
X189322018Y-44645461D01*
X189336289Y-44680243D01*
X189352734Y-44697769D01*
X189393105Y-44702425D01*
X189443956Y-44695598D01*
X189491840Y-44678676D01*
X189516289Y-44661672D01*
X189545349Y-44629465D01*
X189556289Y-44611672D01*
X189543704Y-44591822D01*
X189516289Y-44561672D01*
X189465602Y-44531466D01*
X189389566Y-44521683D01*
X189386115Y-44521672D01*
X189293354Y-44506198D01*
X189224962Y-44462265D01*
X189185061Y-44393607D01*
X189176289Y-44331672D01*
X189183227Y-44267507D01*
X189210301Y-44220423D01*
X189236115Y-44194977D01*
X189274953Y-44165241D01*
X189315957Y-44149079D01*
X189373230Y-44142576D01*
X189428091Y-44141672D01*
X189501420Y-44143271D01*
G37*
G36*
X192265408Y-45142927D02*
G01*
X192310109Y-45148843D01*
X192336111Y-45162644D01*
X192354051Y-45187557D01*
X192356289Y-45191672D01*
X192380948Y-45227986D01*
X192399668Y-45241672D01*
X192409574Y-45259556D01*
X192415521Y-45304812D01*
X192416289Y-45331845D01*
X192408363Y-45405012D01*
X192379539Y-45461768D01*
X192362983Y-45481845D01*
X192322811Y-45519575D01*
X192279760Y-45537160D01*
X192215953Y-45541663D01*
X192211554Y-45541672D01*
X192128788Y-45550583D01*
X192078639Y-45578996D01*
X192057509Y-45629425D01*
X192056289Y-45650243D01*
X192057572Y-45674588D01*
X192066553Y-45689703D01*
X192090930Y-45697789D01*
X192138401Y-45701044D01*
X192216664Y-45701669D01*
X192236289Y-45701672D01*
X192416289Y-45701672D01*
X192416289Y-45761672D01*
X192416289Y-45821672D01*
X192189622Y-45821672D01*
X192098122Y-45820559D01*
X192021833Y-45817540D01*
X191969342Y-45813091D01*
X191949622Y-45808338D01*
X191942719Y-45782793D01*
X191937901Y-45729346D01*
X191936289Y-45666800D01*
X191938279Y-45593478D01*
X191947208Y-45545908D01*
X191967514Y-45509922D01*
X191994750Y-45480133D01*
X192038735Y-45443313D01*
X192085222Y-45426053D01*
X192152487Y-45421674D01*
X192154750Y-45421672D01*
X192212297Y-45418125D01*
X192249096Y-45409045D01*
X192256289Y-45401672D01*
X192272488Y-45383928D01*
X192286289Y-45381672D01*
X192310720Y-45364998D01*
X192316289Y-45341672D01*
X192303783Y-45309096D01*
X192286289Y-45301672D01*
X192259673Y-45290872D01*
X192256289Y-45281672D01*
X192238660Y-45268649D01*
X192195114Y-45261923D01*
X192183615Y-45261672D01*
X192116857Y-45273482D01*
X192066278Y-45313651D01*
X192019961Y-45350351D01*
X191977238Y-45355951D01*
X191947305Y-45330983D01*
X191939880Y-45306337D01*
X191951822Y-45255103D01*
X191993342Y-45201541D01*
X192029032Y-45169450D01*
X192063993Y-45151444D01*
X192111468Y-45143521D01*
X192184699Y-45141676D01*
X192191370Y-45141672D01*
X192265408Y-45142927D01*
G37*
G36*
X197298216Y-45144314D02*
G01*
X197343003Y-45152736D01*
X197356289Y-45166925D01*
X197370960Y-45195769D01*
X197406240Y-45229689D01*
X197406289Y-45229726D01*
X197442567Y-45269377D01*
X197455720Y-45324319D01*
X197456289Y-45345101D01*
X197448212Y-45407173D01*
X197426289Y-45434439D01*
X197400515Y-45461826D01*
X197396289Y-45481672D01*
X197410983Y-45517999D01*
X197426289Y-45528904D01*
X197451130Y-45557352D01*
X197457879Y-45607496D01*
X197447824Y-45666039D01*
X197422254Y-45719687D01*
X197405943Y-45738771D01*
X197372271Y-45775484D01*
X197356459Y-45802125D01*
X197356289Y-45803771D01*
X197337958Y-45812283D01*
X197289589Y-45818189D01*
X197221115Y-45820356D01*
X197211289Y-45820304D01*
X197134211Y-45818273D01*
X197084767Y-45811436D01*
X197050601Y-45795984D01*
X197019358Y-45768111D01*
X197010157Y-45758324D01*
X196972145Y-45702618D01*
X196961352Y-45652485D01*
X196978129Y-45616549D01*
X197003951Y-45604897D01*
X197044618Y-45614796D01*
X197086278Y-45649692D01*
X197144108Y-45689577D01*
X197215472Y-45701915D01*
X197283915Y-45684857D01*
X197301289Y-45673831D01*
X197331549Y-45634879D01*
X197325912Y-45596504D01*
X197288232Y-45563714D01*
X197222367Y-45541515D01*
X197196289Y-45537503D01*
X197157509Y-45523014D01*
X197146314Y-45484748D01*
X197146289Y-45481672D01*
X197156255Y-45441730D01*
X197193215Y-45426224D01*
X197196289Y-45425840D01*
X197270265Y-45408032D01*
X197317276Y-45378050D01*
X197333465Y-45340901D01*
X197314974Y-45301591D01*
X197301289Y-45289512D01*
X197236893Y-45263349D01*
X197164679Y-45267131D01*
X197101100Y-45299009D01*
X197086278Y-45313651D01*
X197040379Y-45349988D01*
X196997611Y-45356215D01*
X196967586Y-45332682D01*
X196960237Y-45309057D01*
X196971548Y-45263232D01*
X197012896Y-45208203D01*
X197016775Y-45204262D01*
X197053489Y-45170837D01*
X197088287Y-45152039D01*
X197134528Y-45143709D01*
X197205572Y-45141688D01*
X197217827Y-45141672D01*
X197298216Y-45144314D01*
G37*
G36*
X194119133Y-44147017D02*
G01*
X194134821Y-44169903D01*
X194136289Y-44192299D01*
X194125696Y-44234893D01*
X194106289Y-44254439D01*
X194080993Y-44281713D01*
X194076289Y-44303811D01*
X194067491Y-44335130D01*
X194056289Y-44341672D01*
X194041254Y-44358787D01*
X194036289Y-44391672D01*
X194029442Y-44429258D01*
X194016289Y-44441672D01*
X193999903Y-44458378D01*
X193996289Y-44480678D01*
X193982890Y-44521047D01*
X193967368Y-44535869D01*
X193947535Y-44567664D01*
X193935409Y-44637175D01*
X193932368Y-44681662D01*
X193926244Y-44757040D01*
X193915410Y-44799625D01*
X193897919Y-44816528D01*
X193895313Y-44817162D01*
X193859749Y-44814628D01*
X193850313Y-44809030D01*
X193842953Y-44783020D01*
X193837875Y-44729419D01*
X193836289Y-44670478D01*
X193833320Y-44594875D01*
X193823361Y-44551744D01*
X193806289Y-44534439D01*
X193781583Y-44507309D01*
X193776289Y-44482299D01*
X193768029Y-44449461D01*
X193756289Y-44441672D01*
X193741254Y-44424556D01*
X193736289Y-44391672D01*
X193729442Y-44354085D01*
X193716289Y-44341672D01*
X193699744Y-44325018D01*
X193696289Y-44303811D01*
X193682368Y-44266547D01*
X193666289Y-44254439D01*
X193643457Y-44227802D01*
X193636289Y-44192299D01*
X193642623Y-44156147D01*
X193669747Y-44142910D01*
X193696289Y-44141672D01*
X193740427Y-44148130D01*
X193755798Y-44171707D01*
X193756289Y-44180491D01*
X193765472Y-44218778D01*
X193776289Y-44231672D01*
X193793410Y-44260032D01*
X193796289Y-44280712D01*
X193810626Y-44317461D01*
X193826289Y-44328904D01*
X193850994Y-44356034D01*
X193856289Y-44381044D01*
X193868647Y-44414112D01*
X193886289Y-44421672D01*
X193910707Y-44404935D01*
X193916289Y-44381044D01*
X193929321Y-44342586D01*
X193946289Y-44328904D01*
X193971845Y-44301567D01*
X193976289Y-44280712D01*
X193985983Y-44243321D01*
X193996289Y-44231672D01*
X194013090Y-44203462D01*
X194016289Y-44180491D01*
X194026271Y-44151934D01*
X194062712Y-44141989D01*
X194076289Y-44141672D01*
X194119133Y-44147017D01*
G37*
G36*
X195080462Y-44143098D02*
G01*
X195127077Y-44150372D01*
X195160206Y-44167991D01*
X195193095Y-44200450D01*
X195198645Y-44206672D01*
X195233124Y-44253275D01*
X195250578Y-44292297D01*
X195251074Y-44301672D01*
X195229672Y-44329863D01*
X195187930Y-44336611D01*
X195139360Y-44321789D01*
X195113093Y-44302987D01*
X195058587Y-44272562D01*
X194992510Y-44262183D01*
X194931894Y-44272893D01*
X194904860Y-44290243D01*
X194877244Y-44335395D01*
X194885871Y-44374481D01*
X194927056Y-44403843D01*
X194997115Y-44419822D01*
X195037226Y-44421672D01*
X195102995Y-44424820D01*
X195146167Y-44438894D01*
X195183949Y-44470835D01*
X195198335Y-44486672D01*
X195246809Y-44563047D01*
X195255387Y-44637670D01*
X195224032Y-44711537D01*
X195188289Y-44753672D01*
X195145164Y-44792766D01*
X195105877Y-44813065D01*
X195054120Y-44820534D01*
X195003289Y-44821326D01*
X194931383Y-44818220D01*
X194884957Y-44806526D01*
X194849715Y-44781888D01*
X194839189Y-44771326D01*
X194802476Y-44737654D01*
X194775835Y-44721842D01*
X194774189Y-44721672D01*
X194761618Y-44704283D01*
X194756290Y-44662391D01*
X194756289Y-44661672D01*
X194761358Y-44619080D01*
X194784499Y-44603404D01*
X194812909Y-44601672D01*
X194867203Y-44616528D01*
X194896289Y-44651672D01*
X194928793Y-44689304D01*
X194979962Y-44701509D01*
X194989668Y-44701672D01*
X195042395Y-44690755D01*
X195093427Y-44663974D01*
X195128616Y-44630286D01*
X195136289Y-44608876D01*
X195118163Y-44580784D01*
X195071285Y-44557515D01*
X195006902Y-44543774D01*
X194976289Y-44541962D01*
X194906592Y-44534245D01*
X194857525Y-44508607D01*
X194839189Y-44491326D01*
X194802476Y-44457654D01*
X194775835Y-44441842D01*
X194774189Y-44441672D01*
X194763588Y-44423773D01*
X194757168Y-44378411D01*
X194756289Y-44350133D01*
X194762178Y-44282733D01*
X194785219Y-44233606D01*
X194814750Y-44200133D01*
X194850609Y-44168280D01*
X194886534Y-44150669D01*
X194936095Y-44143175D01*
X195007116Y-44141672D01*
X195080462Y-44143098D01*
G37*
G36*
X181061289Y-41551733D02*
G01*
X181201580Y-41551752D01*
X181380051Y-41551797D01*
X181594884Y-41551868D01*
X181844258Y-41551964D01*
X182126354Y-41552085D01*
X182439353Y-41552227D01*
X182781435Y-41552392D01*
X183150780Y-41552578D01*
X183545569Y-41552783D01*
X183963983Y-41553007D01*
X184404202Y-41553250D01*
X184864406Y-41553508D01*
X185342777Y-41553783D01*
X185837494Y-41554073D01*
X186346738Y-41554376D01*
X186868690Y-41554692D01*
X187401530Y-41555020D01*
X187943439Y-41555358D01*
X188492596Y-41555706D01*
X189047184Y-41556063D01*
X189605381Y-41556428D01*
X190066289Y-41556733D01*
X197476289Y-41561672D01*
X197476289Y-42691672D01*
X197476289Y-43821672D01*
X188466123Y-43821672D01*
X179455958Y-43821672D01*
X179461123Y-42686672D01*
X179462830Y-42311672D01*
X179616289Y-42311672D01*
X179616289Y-42539015D01*
X179671289Y-42545343D01*
X179710865Y-42556925D01*
X179728361Y-42587987D01*
X179732556Y-42616672D01*
X179741635Y-42661763D01*
X179764953Y-42679247D01*
X179797556Y-42681672D01*
X179839307Y-42686841D01*
X179854591Y-42710840D01*
X179856289Y-42741164D01*
X179856289Y-42800656D01*
X180171289Y-42806164D01*
X180486289Y-42811672D01*
X180492500Y-42865460D01*
X180507470Y-42907948D01*
X180546936Y-42924739D01*
X180552500Y-42925460D01*
X180581422Y-42930926D01*
X180597522Y-42945208D01*
X180604549Y-42977802D01*
X180606254Y-43038206D01*
X180606289Y-43061672D01*
X180605409Y-43131674D01*
X180600269Y-43171178D01*
X180587119Y-43189680D01*
X180562207Y-43196678D01*
X180552500Y-43197883D01*
X180510012Y-43212853D01*
X180493221Y-43252319D01*
X180492500Y-43257883D01*
X180486289Y-43311672D01*
X180226289Y-43311672D01*
X179966289Y-43311672D01*
X179960077Y-43257883D01*
X179945107Y-43215395D01*
X179905641Y-43198604D01*
X179900077Y-43197883D01*
X179857998Y-43183292D01*
X179841032Y-43144653D01*
X179839960Y-43136672D01*
X179833653Y-43105016D01*
X179817167Y-43088642D01*
X179780017Y-43082536D01*
X179724960Y-43081672D01*
X179616289Y-43081672D01*
X179616289Y-43191672D01*
X179617296Y-43254557D01*
X179623899Y-43287288D01*
X179641467Y-43299711D01*
X179675371Y-43301671D01*
X179676289Y-43301672D01*
X179718786Y-43306627D01*
X179734450Y-43330004D01*
X179736289Y-43361672D01*
X179741244Y-43404169D01*
X179764621Y-43419833D01*
X179796289Y-43421672D01*
X179838786Y-43426627D01*
X179854450Y-43450004D01*
X179856289Y-43481672D01*
X179856289Y-43541672D01*
X180226289Y-43541672D01*
X180596289Y-43541672D01*
X181116289Y-43541672D01*
X181226289Y-43541672D01*
X181336289Y-43541672D01*
X182616289Y-43541672D01*
X183226289Y-43541672D01*
X183836289Y-43541672D01*
X184116289Y-43541672D01*
X184726289Y-43541672D01*
X185336289Y-43541672D01*
X185336289Y-43539480D01*
X185616289Y-43539480D01*
X185711289Y-43546971D01*
X185761588Y-43549544D01*
X185843584Y-43552139D01*
X185948977Y-43554563D01*
X186069464Y-43556624D01*
X186190021Y-43558067D01*
X186573754Y-43561672D01*
X186580021Y-43496672D01*
X186589718Y-43450853D01*
X186615793Y-43431118D01*
X186651289Y-43425404D01*
X186696380Y-43416325D01*
X186713864Y-43393007D01*
X186716289Y-43360404D01*
X186721392Y-43318773D01*
X186745176Y-43303435D01*
X186776289Y-43301672D01*
X186836289Y-43301672D01*
X186836289Y-43081672D01*
X187116289Y-43081672D01*
X187116289Y-43191672D01*
X187117296Y-43254557D01*
X187123899Y-43287288D01*
X187141467Y-43299711D01*
X187175371Y-43301671D01*
X187176289Y-43301672D01*
X187218786Y-43306627D01*
X187234450Y-43330004D01*
X187236289Y-43361672D01*
X187241244Y-43404169D01*
X187264621Y-43419833D01*
X187296289Y-43421672D01*
X187336600Y-43425574D01*
X187353134Y-43445367D01*
X187356289Y-43491672D01*
X187356289Y-43561672D01*
X187596289Y-43561672D01*
X187836289Y-43561672D01*
X187836289Y-43491672D01*
X187839633Y-43444641D01*
X187856599Y-43425351D01*
X187896289Y-43421672D01*
X187938786Y-43416716D01*
X187954450Y-43393339D01*
X187956289Y-43361672D01*
X187961244Y-43319174D01*
X187974259Y-43310453D01*
X188609267Y-43310453D01*
X188609481Y-43416917D01*
X188610098Y-43494206D01*
X188611123Y-43538129D01*
X188611907Y-43546672D01*
X188632824Y-43550407D01*
X188688814Y-43553803D01*
X188774955Y-43556740D01*
X188886320Y-43559097D01*
X189017985Y-43560755D01*
X189165024Y-43561593D01*
X189227469Y-43561672D01*
X189836289Y-43561672D01*
X189836289Y-43441672D01*
X189836289Y-43321672D01*
X189336289Y-43321672D01*
X188836289Y-43321672D01*
X188836289Y-43061672D01*
X188836289Y-42801672D01*
X189276289Y-42801672D01*
X189716289Y-42801672D01*
X189716289Y-42691672D01*
X190096289Y-42691672D01*
X190096289Y-43299137D01*
X190161289Y-43305404D01*
X190208060Y-43315949D01*
X190228254Y-43342530D01*
X190232500Y-43365460D01*
X190247470Y-43407948D01*
X190286936Y-43424739D01*
X190292500Y-43425460D01*
X190331332Y-43437238D01*
X190348564Y-43468996D01*
X190352556Y-43496672D01*
X190358823Y-43561672D01*
X190716289Y-43561672D01*
X191073754Y-43561672D01*
X191080021Y-43496672D01*
X191089718Y-43450853D01*
X191115793Y-43431118D01*
X191151289Y-43425404D01*
X191196380Y-43416325D01*
X191213864Y-43393007D01*
X191216289Y-43360404D01*
X191221392Y-43318773D01*
X191245176Y-43303435D01*
X191276289Y-43301672D01*
X191310590Y-43299824D01*
X191328443Y-43287719D01*
X191335219Y-43255511D01*
X191336288Y-43193354D01*
X191336289Y-43191672D01*
X191336289Y-43081672D01*
X191216289Y-43081672D01*
X191096289Y-43081672D01*
X191096289Y-43141672D01*
X191091333Y-43184169D01*
X191067956Y-43199833D01*
X191036289Y-43201672D01*
X190993791Y-43206627D01*
X190978127Y-43230004D01*
X190976289Y-43261672D01*
X190976289Y-43321672D01*
X190716289Y-43321672D01*
X190456289Y-43321672D01*
X190456289Y-43261672D01*
X190451333Y-43219174D01*
X190427956Y-43203510D01*
X190396289Y-43201672D01*
X190336289Y-43201672D01*
X190336289Y-43019784D01*
X191599771Y-43019784D01*
X191599842Y-43171477D01*
X191600365Y-43302530D01*
X191601316Y-43408645D01*
X191602674Y-43485527D01*
X191604417Y-43528878D01*
X191605437Y-43536665D01*
X191631852Y-43552779D01*
X191692488Y-43560901D01*
X191725661Y-43561672D01*
X191836289Y-43561672D01*
X191836289Y-43241672D01*
X191836289Y-42921672D01*
X191965021Y-42921672D01*
X192093754Y-42921672D01*
X192100021Y-42986672D01*
X192109718Y-43032490D01*
X192135793Y-43052225D01*
X192171289Y-43057939D01*
X192216380Y-43067018D01*
X192233864Y-43090336D01*
X192236289Y-43122939D01*
X192241392Y-43164570D01*
X192265176Y-43179908D01*
X192296289Y-43181672D01*
X192338786Y-43186627D01*
X192354450Y-43210004D01*
X192356289Y-43241672D01*
X192361244Y-43284169D01*
X192384621Y-43299833D01*
X192416289Y-43301672D01*
X192458786Y-43306627D01*
X192474450Y-43330004D01*
X192476289Y-43361672D01*
X192481284Y-43404201D01*
X192504566Y-43419870D01*
X192535021Y-43421672D01*
X192576270Y-43426908D01*
X192594376Y-43450849D01*
X192600021Y-43486672D01*
X192605381Y-43523318D01*
X192619174Y-43543330D01*
X192651548Y-43552649D01*
X192712648Y-43557216D01*
X192721289Y-43557670D01*
X192836289Y-43563668D01*
X192836289Y-43443937D01*
X192836289Y-43324206D01*
X192771289Y-43317939D01*
X192724634Y-43307494D01*
X192704444Y-43280967D01*
X192699960Y-43256672D01*
X192688477Y-43216774D01*
X192657870Y-43202697D01*
X192634960Y-43201672D01*
X192593370Y-43196561D01*
X192578048Y-43172756D01*
X192576289Y-43141672D01*
X192571333Y-43099174D01*
X192547956Y-43083510D01*
X192516289Y-43081672D01*
X192473757Y-43076674D01*
X192458088Y-43053396D01*
X192456289Y-43023000D01*
X192449827Y-42979696D01*
X192422654Y-42961552D01*
X192401289Y-42958000D01*
X192361712Y-42946418D01*
X192344216Y-42915356D01*
X192340021Y-42886672D01*
X192330942Y-42841580D01*
X192307624Y-42824096D01*
X192275021Y-42821672D01*
X192216289Y-42821672D01*
X192216289Y-42691672D01*
X192216289Y-42561672D01*
X192275021Y-42561672D01*
X192316270Y-42556435D01*
X192334376Y-42532494D01*
X192340021Y-42496672D01*
X192350466Y-42450017D01*
X192376993Y-42429827D01*
X192401289Y-42425343D01*
X192441186Y-42413860D01*
X192455263Y-42383253D01*
X192456289Y-42360343D01*
X192461399Y-42318753D01*
X192485204Y-42303431D01*
X192516289Y-42301672D01*
X192558818Y-42296676D01*
X192574487Y-42273394D01*
X192576289Y-42242939D01*
X192581525Y-42201690D01*
X192605466Y-42183584D01*
X192641289Y-42177939D01*
X192687943Y-42167494D01*
X192708133Y-42140967D01*
X192712617Y-42116672D01*
X192724100Y-42076774D01*
X192754707Y-42062697D01*
X192777617Y-42061672D01*
X192809994Y-42060024D01*
X192827527Y-42048821D01*
X192834770Y-42018675D01*
X192836275Y-41960196D01*
X192836289Y-41940673D01*
X192836289Y-41821672D01*
X194596289Y-41821672D01*
X194596289Y-42190404D01*
X194596289Y-42559137D01*
X194661289Y-42565404D01*
X194698086Y-42570818D01*
X194718100Y-42584763D01*
X194727364Y-42617450D01*
X194731916Y-42679087D01*
X194732250Y-42685436D01*
X194737037Y-42750069D01*
X194746106Y-42784911D01*
X194764559Y-42800162D01*
X194792250Y-42805436D01*
X194821896Y-42811402D01*
X194838741Y-42827105D01*
X194847215Y-42862237D01*
X194851750Y-42926493D01*
X194852243Y-42936672D01*
X194856309Y-43004794D01*
X194863459Y-43042177D01*
X194878489Y-43058044D01*
X194906194Y-43061618D01*
X194917243Y-43061672D01*
X194949927Y-43063315D01*
X194967568Y-43074531D01*
X194974805Y-43104748D01*
X194976278Y-43163393D01*
X194976289Y-43181672D01*
X194976289Y-43301672D01*
X195036289Y-43301672D01*
X195096289Y-43301672D01*
X195096289Y-43431672D01*
X195096289Y-43561672D01*
X195216289Y-43561672D01*
X195336289Y-43561672D01*
X195336289Y-43431672D01*
X195336289Y-43301672D01*
X195396289Y-43301672D01*
X195456289Y-43301672D01*
X195456289Y-43181672D01*
X195457097Y-43115247D01*
X195462616Y-43079394D01*
X195477484Y-43064686D01*
X195506340Y-43061694D01*
X195515334Y-43061672D01*
X195547596Y-43059932D01*
X195565796Y-43048566D01*
X195574730Y-43018349D01*
X195579195Y-42960057D01*
X195580334Y-42936672D01*
X195584664Y-42868279D01*
X195592389Y-42830167D01*
X195608015Y-42812632D01*
X195636044Y-42805969D01*
X195641289Y-42805343D01*
X195671904Y-42799500D01*
X195688344Y-42784320D01*
X195695005Y-42749811D01*
X195696287Y-42685979D01*
X195696289Y-42680343D01*
X195696289Y-42561672D01*
X195766740Y-42561672D01*
X195837191Y-42561672D01*
X195831740Y-42196672D01*
X195831665Y-42191672D01*
X196356289Y-42191672D01*
X196356289Y-42301672D01*
X196476289Y-42301672D01*
X196596289Y-42301672D01*
X196596289Y-42931672D01*
X196596289Y-43561672D01*
X196716501Y-43561672D01*
X196836713Y-43561672D01*
X196831501Y-42696672D01*
X196826289Y-41831672D01*
X196711289Y-41825673D01*
X196596289Y-41819675D01*
X196596289Y-41890673D01*
X196593063Y-41938141D01*
X196576592Y-41957786D01*
X196536680Y-41961671D01*
X196536289Y-41961672D01*
X196493791Y-41966627D01*
X196478127Y-41990004D01*
X196476289Y-42021672D01*
X196471333Y-42064169D01*
X196447956Y-42079833D01*
X196416289Y-42081672D01*
X196381987Y-42083519D01*
X196364134Y-42095624D01*
X196357358Y-42127832D01*
X196356289Y-42189989D01*
X196356289Y-42191672D01*
X195831665Y-42191672D01*
X195831640Y-42189989D01*
X195826289Y-41831672D01*
X195711289Y-41825673D01*
X195596289Y-41819675D01*
X195596289Y-42200673D01*
X195596289Y-42581672D01*
X195536289Y-42581672D01*
X195476289Y-42581672D01*
X195476289Y-42701672D01*
X195475480Y-42768096D01*
X195469961Y-42803949D01*
X195455093Y-42818657D01*
X195426237Y-42821649D01*
X195417243Y-42821672D01*
X195384981Y-42823411D01*
X195366781Y-42834777D01*
X195357847Y-42864994D01*
X195353382Y-42923286D01*
X195352243Y-42946672D01*
X195346289Y-43071672D01*
X195216289Y-43071672D01*
X195086289Y-43071672D01*
X195080334Y-42946672D01*
X195076268Y-42878549D01*
X195069118Y-42841166D01*
X195054088Y-42825299D01*
X195026383Y-42821725D01*
X195015334Y-42821672D01*
X194982650Y-42820028D01*
X194965009Y-42808812D01*
X194957772Y-42778595D01*
X194956299Y-42719950D01*
X194956289Y-42701672D01*
X194956289Y-42581672D01*
X194896289Y-42581672D01*
X194836289Y-42581672D01*
X194836289Y-42201672D01*
X194836289Y-41821672D01*
X194716289Y-41821672D01*
X194596289Y-41821672D01*
X192836289Y-41821672D01*
X192836289Y-41819675D01*
X192721406Y-41825673D01*
X192656409Y-41830347D01*
X192620877Y-41839376D01*
X192604292Y-41858309D01*
X192596311Y-41891672D01*
X192580217Y-41937090D01*
X192544977Y-41955894D01*
X192531194Y-41958000D01*
X192491359Y-41969503D01*
X192477307Y-42000161D01*
X192476289Y-42023000D01*
X192471178Y-42064590D01*
X192447373Y-42079912D01*
X192416289Y-42081672D01*
X192373791Y-42086627D01*
X192358127Y-42110004D01*
X192356289Y-42141672D01*
X192351333Y-42184169D01*
X192327956Y-42199833D01*
X192296289Y-42201672D01*
X192253791Y-42206627D01*
X192238127Y-42230004D01*
X192236289Y-42261672D01*
X192232273Y-42302239D01*
X192212084Y-42318682D01*
X192167556Y-42321672D01*
X192120571Y-42325552D01*
X192099911Y-42344986D01*
X192092556Y-42386672D01*
X192082111Y-42433326D01*
X192055584Y-42453516D01*
X192031289Y-42458000D01*
X191991391Y-42469483D01*
X191977314Y-42500090D01*
X191976289Y-42523000D01*
X191972249Y-42562440D01*
X191952063Y-42578616D01*
X191906289Y-42581672D01*
X191836289Y-42581672D01*
X191836289Y-42200673D01*
X191836289Y-41819675D01*
X191721289Y-41825673D01*
X191606289Y-41831672D01*
X191601065Y-42671665D01*
X191600171Y-42851747D01*
X191599771Y-43019784D01*
X190336289Y-43019784D01*
X190336289Y-42691672D01*
X190336289Y-42181672D01*
X190396289Y-42181672D01*
X190438786Y-42176716D01*
X190454450Y-42153339D01*
X190456289Y-42121672D01*
X190456289Y-42061672D01*
X190716289Y-42061672D01*
X190976289Y-42061672D01*
X190976289Y-42121672D01*
X190981244Y-42164169D01*
X191004621Y-42179833D01*
X191036289Y-42181672D01*
X191078786Y-42186627D01*
X191094450Y-42210004D01*
X191096289Y-42241672D01*
X191096289Y-42301672D01*
X191216289Y-42301672D01*
X191336289Y-42301672D01*
X191336289Y-42191672D01*
X191335281Y-42128786D01*
X191328678Y-42096055D01*
X191311110Y-42083632D01*
X191277206Y-42081672D01*
X191276289Y-42081672D01*
X191233759Y-42076676D01*
X191218090Y-42053394D01*
X191216289Y-42022939D01*
X191211052Y-41981690D01*
X191187111Y-41963584D01*
X191151289Y-41957939D01*
X191105470Y-41948242D01*
X191085735Y-41922167D01*
X191080021Y-41886672D01*
X191073754Y-41821672D01*
X190716289Y-41821672D01*
X190358823Y-41821672D01*
X190352556Y-41886672D01*
X190342011Y-41933443D01*
X190315430Y-41953637D01*
X190292500Y-41957883D01*
X190250012Y-41972853D01*
X190233221Y-42012319D01*
X190232500Y-42017883D01*
X190220722Y-42056715D01*
X190188964Y-42073947D01*
X190161289Y-42077939D01*
X190096289Y-42084206D01*
X190096289Y-42691672D01*
X189716289Y-42691672D01*
X189716289Y-42581672D01*
X189276289Y-42581672D01*
X188836289Y-42581672D01*
X188836289Y-42321672D01*
X188836289Y-42084206D01*
X188836289Y-42061672D01*
X189336289Y-42061672D01*
X189836289Y-42061672D01*
X189836289Y-41941672D01*
X189836289Y-41821672D01*
X189227970Y-41821672D01*
X188619651Y-41821672D01*
X188612408Y-42676672D01*
X188611029Y-42857923D01*
X188610044Y-43026765D01*
X188609456Y-43179005D01*
X188609267Y-43310453D01*
X187974259Y-43310453D01*
X187984621Y-43303510D01*
X188016289Y-43301672D01*
X188076289Y-43301672D01*
X188076289Y-42681672D01*
X188076289Y-42061672D01*
X188206289Y-42061672D01*
X188336289Y-42061672D01*
X188336289Y-41941672D01*
X188336289Y-41821672D01*
X187976289Y-41821672D01*
X187616289Y-41821672D01*
X187616289Y-41941672D01*
X187616289Y-42061672D01*
X187736289Y-42061672D01*
X187856289Y-42061672D01*
X187856289Y-42631672D01*
X187856289Y-43201672D01*
X187796289Y-43201672D01*
X187753791Y-43206627D01*
X187738127Y-43230004D01*
X187736289Y-43261672D01*
X187736289Y-43321672D01*
X187596289Y-43321672D01*
X187456289Y-43321672D01*
X187456289Y-43261672D01*
X187451333Y-43219174D01*
X187427956Y-43203510D01*
X187396289Y-43201672D01*
X187353791Y-43196716D01*
X187338127Y-43173339D01*
X187336289Y-43141672D01*
X187334441Y-43107370D01*
X187322336Y-43089517D01*
X187290128Y-43082741D01*
X187227971Y-43081672D01*
X187226289Y-43081672D01*
X187116289Y-43081672D01*
X186836289Y-43081672D01*
X186836289Y-42691672D01*
X186836289Y-42081672D01*
X186777556Y-42081672D01*
X186736285Y-42076424D01*
X186718180Y-42052445D01*
X186712556Y-42016759D01*
X186701773Y-41969712D01*
X186673406Y-41947962D01*
X186646289Y-41941664D01*
X186600875Y-41925602D01*
X186582072Y-41890391D01*
X186579960Y-41876577D01*
X186573632Y-41821672D01*
X186094960Y-41821672D01*
X185616289Y-41821672D01*
X185616289Y-42680576D01*
X185616289Y-43539480D01*
X185336289Y-43539480D01*
X185336289Y-43431672D01*
X185336289Y-43321672D01*
X184836289Y-43321672D01*
X184336289Y-43321672D01*
X184336289Y-43061672D01*
X184336289Y-42801672D01*
X184776289Y-42801672D01*
X185216289Y-42801672D01*
X185216289Y-42692062D01*
X185216289Y-42680576D01*
X185216289Y-42582452D01*
X184781289Y-42577062D01*
X184346289Y-42571672D01*
X184340691Y-42316672D01*
X184335093Y-42061672D01*
X184835691Y-42061672D01*
X185336289Y-42061672D01*
X185336289Y-41941672D01*
X185336289Y-41821672D01*
X184726289Y-41821672D01*
X184116289Y-41821672D01*
X184116289Y-42681672D01*
X184116289Y-43541672D01*
X183836289Y-43541672D01*
X183836289Y-43431672D01*
X183836289Y-43321672D01*
X183336289Y-43321672D01*
X182836289Y-43321672D01*
X182836289Y-43061672D01*
X182836289Y-42801672D01*
X183276289Y-42801672D01*
X183716289Y-42801672D01*
X183716289Y-42692062D01*
X183716289Y-42681672D01*
X183716289Y-42582452D01*
X183281289Y-42577062D01*
X182846289Y-42571672D01*
X182846289Y-42311672D01*
X182846289Y-42051672D01*
X183336289Y-42051672D01*
X183826289Y-42051672D01*
X183832287Y-41936672D01*
X183838285Y-41821672D01*
X183227287Y-41821672D01*
X182616289Y-41821672D01*
X182616289Y-42681672D01*
X182616289Y-43541672D01*
X181336289Y-43541672D01*
X181336289Y-43171672D01*
X181336289Y-42801672D01*
X181716289Y-42801672D01*
X182096289Y-42801672D01*
X182096289Y-42741672D01*
X182101284Y-42699142D01*
X182124566Y-42683473D01*
X182155021Y-42681672D01*
X182196270Y-42676435D01*
X182214376Y-42652494D01*
X182220021Y-42616672D01*
X182230466Y-42570017D01*
X182256993Y-42549827D01*
X182281289Y-42545343D01*
X182336289Y-42539015D01*
X182336289Y-42311672D01*
X182336289Y-42084328D01*
X182281289Y-42078000D01*
X182241712Y-42066418D01*
X182224216Y-42035356D01*
X182220021Y-42006672D01*
X182210942Y-41961580D01*
X182187624Y-41944096D01*
X182155021Y-41941672D01*
X182113390Y-41936568D01*
X182098052Y-41912784D01*
X182096289Y-41881672D01*
X182096289Y-41821672D01*
X181606289Y-41821672D01*
X181116289Y-41821672D01*
X181116289Y-42681672D01*
X181116289Y-43541672D01*
X180596289Y-43541672D01*
X180596289Y-43481672D01*
X180601244Y-43439174D01*
X180624621Y-43423510D01*
X180656289Y-43421672D01*
X180698786Y-43416716D01*
X180714450Y-43393339D01*
X180716289Y-43361672D01*
X180721244Y-43319174D01*
X180744621Y-43303510D01*
X180776289Y-43301672D01*
X180836289Y-43301672D01*
X180836289Y-43061672D01*
X180836289Y-42821672D01*
X180776289Y-42821672D01*
X180733791Y-42816716D01*
X180718127Y-42793339D01*
X180716289Y-42761672D01*
X180711333Y-42719174D01*
X180687956Y-42703510D01*
X180656289Y-42701672D01*
X180613791Y-42696716D01*
X180603711Y-42681672D01*
X180598127Y-42673339D01*
X180596289Y-42641672D01*
X180596289Y-42581672D01*
X180307924Y-42581672D01*
X180202402Y-42580860D01*
X180109612Y-42578630D01*
X180037675Y-42575291D01*
X179994710Y-42571150D01*
X179987924Y-42569532D01*
X179963493Y-42540955D01*
X179956289Y-42499532D01*
X179951077Y-42458496D01*
X179926998Y-42443382D01*
X179896289Y-42441672D01*
X179836289Y-42441672D01*
X179836289Y-42311672D01*
X179836289Y-42181672D01*
X179895021Y-42181672D01*
X179936270Y-42176435D01*
X179954376Y-42152494D01*
X179960021Y-42116672D01*
X179966289Y-42051672D01*
X180226289Y-42051672D01*
X180486289Y-42051672D01*
X180492556Y-42116672D01*
X180501635Y-42161763D01*
X180524953Y-42179247D01*
X180557556Y-42181672D01*
X180599187Y-42186775D01*
X180614525Y-42210559D01*
X180616289Y-42241672D01*
X180618136Y-42275973D01*
X180630241Y-42293826D01*
X180662449Y-42300602D01*
X180724606Y-42301671D01*
X180726289Y-42301672D01*
X180836289Y-42301672D01*
X180836289Y-42193000D01*
X180834940Y-42130298D01*
X180827550Y-42097096D01*
X180809103Y-42082908D01*
X180781289Y-42078000D01*
X180741712Y-42066418D01*
X180724216Y-42035356D01*
X180720021Y-42006672D01*
X180710942Y-41961580D01*
X180687624Y-41944096D01*
X180655021Y-41941672D01*
X180613390Y-41936568D01*
X180598052Y-41912784D01*
X180596289Y-41881672D01*
X180596289Y-41821672D01*
X180226289Y-41821672D01*
X179856289Y-41821672D01*
X179856289Y-41881672D01*
X179851293Y-41924201D01*
X179828011Y-41939870D01*
X179797556Y-41941672D01*
X179756307Y-41946908D01*
X179738201Y-41970849D01*
X179732556Y-42006672D01*
X179722111Y-42053326D01*
X179695584Y-42073516D01*
X179671289Y-42078000D01*
X179616289Y-42084328D01*
X179616289Y-42311672D01*
X179462830Y-42311672D01*
X179463865Y-42084328D01*
X179466289Y-41551672D01*
X181061289Y-41551733D01*
G37*
D12*
X135663641Y-87620000D02*
X135356359Y-87620000D01*
X135663641Y-88380000D02*
X135356359Y-88380000D01*
X103402000Y-77626000D02*
X103402000Y-92486000D01*
X103402000Y-92486000D02*
X103922000Y-92486000D01*
X103922000Y-77626000D02*
X103402000Y-77626000D01*
X103922000Y-78396000D02*
X103922000Y-77626000D01*
X103922000Y-78396000D02*
X112032000Y-78396000D01*
X103922000Y-92486000D02*
X103922000Y-91716000D01*
X112032000Y-91716000D02*
X103922000Y-91716000D01*
X117612000Y-82386000D02*
X117612000Y-83206000D01*
X117612000Y-84886000D02*
X117612000Y-85226000D01*
X117612000Y-86906000D02*
X117612000Y-87726000D01*
X117622000Y-78396000D02*
X115552000Y-78396000D01*
X117622000Y-78396000D02*
X117622000Y-80706000D01*
X117622000Y-89406000D02*
X117622000Y-91716000D01*
X117622000Y-91716000D02*
X115552000Y-91716000D01*
X118912000Y-80706000D02*
X117622000Y-80706000D01*
X135336359Y-84620000D02*
X135643641Y-84620000D01*
X135336359Y-85380000D02*
X135643641Y-85380000D01*
X149106359Y-56620000D02*
X149413641Y-56620000D01*
X149106359Y-57380000D02*
X149413641Y-57380000D01*
X147650000Y-84900000D02*
X149250000Y-83300000D01*
X147650000Y-86050000D02*
X147650000Y-84900000D01*
X147650000Y-87950000D02*
X147650000Y-91050000D01*
X147650000Y-92950000D02*
X147650000Y-94100000D01*
X147650000Y-94100000D02*
X149250000Y-95700000D01*
X149250000Y-83300000D02*
X158450000Y-83300000D01*
X149250000Y-95700000D02*
X158450000Y-95700000D01*
X158450000Y-83300000D02*
X160050000Y-84900000D01*
X158450000Y-95700000D02*
X160050000Y-94100000D01*
X160050000Y-86050000D02*
X160050000Y-84900000D01*
X160050000Y-87950000D02*
X160050000Y-91050000D01*
X160050000Y-92950000D02*
X160050000Y-94100000D01*
X155100000Y-47250000D02*
G75*
G02*
X142900000Y-47250000I-6100000J0D01*
G01*
X142900000Y-47250000D02*
G75*
G02*
X155100000Y-47250000I6100000J0D01*
G01*
X183950000Y-84900000D02*
X185550000Y-83300000D01*
X183950000Y-86050000D02*
X183950000Y-84900000D01*
X183950000Y-87950000D02*
X183950000Y-91050000D01*
X183950000Y-92950000D02*
X183950000Y-94100000D01*
X183950000Y-94100000D02*
X185550000Y-95700000D01*
X185550000Y-83300000D02*
X194750000Y-83300000D01*
X185550000Y-95700000D02*
X194750000Y-95700000D01*
X194750000Y-83300000D02*
X196350000Y-84900000D01*
X194750000Y-95700000D02*
X196350000Y-94100000D01*
X196350000Y-86050000D02*
X196350000Y-84900000D01*
X196350000Y-87950000D02*
X196350000Y-91050000D01*
X196350000Y-92950000D02*
X196350000Y-94100000D01*
D15*
G36*
X149628420Y-96272014D02*
G01*
X149614749Y-96285685D01*
X149601078Y-96272014D01*
X149614749Y-96258344D01*
X149628420Y-96272014D01*
G37*
G36*
X149792467Y-95943920D02*
G01*
X149778796Y-95957590D01*
X149765126Y-95943920D01*
X149778796Y-95930249D01*
X149792467Y-95943920D01*
G37*
G36*
X149847149Y-96600109D02*
G01*
X149833479Y-96613780D01*
X149819808Y-96600109D01*
X149833479Y-96586438D01*
X149847149Y-96600109D01*
G37*
G36*
X137889919Y-86369933D02*
G01*
X137893192Y-86402381D01*
X137889919Y-86406388D01*
X137873665Y-86402635D01*
X137871692Y-86388161D01*
X137881696Y-86365656D01*
X137889919Y-86369933D01*
G37*
G36*
X119935847Y-94604199D02*
G01*
X119935847Y-95820884D01*
X119744458Y-95820884D01*
X119553070Y-95820884D01*
X119553070Y-94604199D01*
X119553070Y-93387515D01*
X119744458Y-93387515D01*
X119935847Y-93387515D01*
X119935847Y-94604199D01*
G37*
G36*
X120674060Y-94713564D02*
G01*
X120674060Y-96777827D01*
X120482671Y-96777827D01*
X120291283Y-96777827D01*
X120291283Y-94713564D01*
X120291283Y-92649302D01*
X120482671Y-92649302D01*
X120674060Y-92649302D01*
X120674060Y-94713564D01*
G37*
G36*
X123080088Y-94317117D02*
G01*
X123080088Y-97980841D01*
X122888699Y-97980841D01*
X122697311Y-97980841D01*
X122697311Y-94317117D01*
X122697311Y-90653392D01*
X122888699Y-90653392D01*
X123080088Y-90653392D01*
X123080088Y-94317117D01*
G37*
G36*
X123900325Y-94494835D02*
G01*
X123900325Y-97324652D01*
X123708936Y-97324652D01*
X123517548Y-97324652D01*
X123517548Y-94494835D01*
X123517548Y-91665018D01*
X123708936Y-91665018D01*
X123900325Y-91665018D01*
X123900325Y-94494835D01*
G37*
G36*
X124665879Y-94358128D02*
G01*
X124665879Y-96258344D01*
X124474491Y-96258344D01*
X124283102Y-96258344D01*
X124283102Y-94358128D01*
X124283102Y-92457913D01*
X124474491Y-92457913D01*
X124665879Y-92457913D01*
X124665879Y-94358128D01*
G37*
G36*
X125322069Y-94125728D02*
G01*
X125322069Y-95301401D01*
X125130680Y-95301401D01*
X124939291Y-95301401D01*
X124939291Y-94125728D01*
X124939291Y-92950055D01*
X125130680Y-92950055D01*
X125322069Y-92950055D01*
X125322069Y-94125728D01*
G37*
G36*
X128192897Y-95082671D02*
G01*
X128192897Y-97980841D01*
X128001509Y-97980841D01*
X127810120Y-97980841D01*
X127810120Y-95082671D01*
X127810120Y-92184501D01*
X128001509Y-92184501D01*
X128192897Y-92184501D01*
X128192897Y-95082671D01*
G37*
G36*
X128876428Y-95479119D02*
G01*
X128876428Y-97980841D01*
X128685040Y-97980841D01*
X128493651Y-97980841D01*
X128493651Y-95479119D01*
X128493651Y-92977396D01*
X128685040Y-92977396D01*
X128876428Y-92977396D01*
X128876428Y-95479119D01*
G37*
G36*
X130879173Y-90959783D02*
G01*
X131077397Y-90967816D01*
X131084336Y-94474329D01*
X131091275Y-97980841D01*
X130886112Y-97980841D01*
X130680949Y-97980841D01*
X130680949Y-94466296D01*
X130680949Y-90951750D01*
X130879173Y-90959783D01*
G37*
G36*
X131719916Y-94139399D02*
G01*
X131719916Y-97980841D01*
X131514857Y-97980841D01*
X131309797Y-97980841D01*
X131309797Y-94139399D01*
X131309797Y-90297956D01*
X131514857Y-90297956D01*
X131719916Y-90297956D01*
X131719916Y-94139399D01*
G37*
G36*
X133797849Y-94686223D02*
G01*
X133797849Y-96723145D01*
X133592790Y-96723145D01*
X133387731Y-96723145D01*
X133387731Y-94686223D01*
X133387731Y-92649302D01*
X133592790Y-92649302D01*
X133797849Y-92649302D01*
X133797849Y-94686223D01*
G37*
G36*
X134242144Y-93420494D02*
G01*
X134440368Y-93428527D01*
X134447510Y-94542682D01*
X134454652Y-95656837D01*
X134249286Y-95656837D01*
X134043920Y-95656837D01*
X134043920Y-94534649D01*
X134043920Y-93412460D01*
X134242144Y-93420494D01*
G37*
G36*
X135028204Y-94467493D02*
G01*
X135028204Y-95164695D01*
X134836816Y-95164695D01*
X134645427Y-95164695D01*
X134645427Y-94467493D01*
X134645427Y-93770292D01*
X134836816Y-93770292D01*
X135028204Y-93770292D01*
X135028204Y-94467493D01*
G37*
G36*
X135657053Y-94194081D02*
G01*
X135657053Y-94754576D01*
X135451993Y-94754576D01*
X135246934Y-94754576D01*
X135246934Y-94194081D01*
X135246934Y-93633586D01*
X135451993Y-93633586D01*
X135657053Y-93633586D01*
X135657053Y-94194081D01*
G37*
G36*
X149452116Y-96234380D02*
G01*
X149455258Y-96249230D01*
X149451772Y-96282699D01*
X149449493Y-96285685D01*
X149429823Y-96267940D01*
X149413472Y-96249230D01*
X149398246Y-96219159D01*
X149419238Y-96212775D01*
X149452116Y-96234380D01*
G37*
G36*
X149589215Y-96218463D02*
G01*
X149584501Y-96242388D01*
X149559150Y-96276739D01*
X149531995Y-96284580D01*
X149522981Y-96262262D01*
X149525320Y-96253217D01*
X149558782Y-96214438D01*
X149568629Y-96209921D01*
X149589215Y-96218463D01*
G37*
G36*
X149781851Y-96265547D02*
G01*
X149819808Y-96285685D01*
X149845430Y-96306919D01*
X149820804Y-96312515D01*
X149814586Y-96312608D01*
X149765150Y-96298675D01*
X149751455Y-96285685D01*
X149749249Y-96261532D01*
X149781851Y-96265547D01*
G37*
G36*
X149998448Y-95712653D02*
G01*
X149995227Y-95721323D01*
X149970637Y-95754919D01*
X149941517Y-95769157D01*
X149929173Y-95755879D01*
X149947311Y-95732316D01*
X149970811Y-95711000D01*
X150000453Y-95691051D01*
X149998448Y-95712653D01*
G37*
G36*
X150316428Y-95623507D02*
G01*
X150326981Y-95633646D01*
X150359075Y-95679099D01*
X150362971Y-95706140D01*
X150341382Y-95714821D01*
X150325621Y-95700922D01*
X150294757Y-95645461D01*
X150289631Y-95628427D01*
X150290389Y-95605631D01*
X150316428Y-95623507D01*
G37*
G36*
X140719321Y-97790464D02*
G01*
X140878786Y-97846799D01*
X140988942Y-97891064D01*
X141049010Y-97924644D01*
X141058212Y-97948926D01*
X141015767Y-97965296D01*
X140920897Y-97975140D01*
X140772821Y-97979845D01*
X140612291Y-97980841D01*
X140184535Y-97980841D01*
X140324128Y-97841977D01*
X140463722Y-97703114D01*
X140719321Y-97790464D01*
G37*
G36*
X143252160Y-94616409D02*
G01*
X143328399Y-94628199D01*
X143381491Y-94646448D01*
X143387457Y-94650613D01*
X143418022Y-94698030D01*
X143417866Y-94748171D01*
X143389232Y-94779069D01*
X143374114Y-94781302D01*
X143322702Y-94769759D01*
X143244546Y-94740990D01*
X143196419Y-94719784D01*
X143125387Y-94680964D01*
X143082558Y-94646746D01*
X143076257Y-94631541D01*
X143106919Y-94616905D01*
X143171943Y-94612253D01*
X143252160Y-94616409D01*
G37*
G36*
X149737853Y-96367819D02*
G01*
X149772273Y-96388673D01*
X149787539Y-96384425D01*
X149821630Y-96389740D01*
X149857806Y-96427876D01*
X149882403Y-96479289D01*
X149883173Y-96521224D01*
X149845575Y-96553791D01*
X149783576Y-96552867D01*
X149739072Y-96533130D01*
X149684113Y-96519544D01*
X149622872Y-96523296D01*
X149567402Y-96527617D01*
X149547661Y-96504393D01*
X149546396Y-96486386D01*
X149565734Y-96439825D01*
X149612248Y-96395326D01*
X149668688Y-96363574D01*
X149717803Y-96355250D01*
X149737853Y-96367819D01*
G37*
G36*
X137996590Y-97683121D02*
G01*
X137998452Y-97980841D01*
X137219643Y-97980841D01*
X137020331Y-97980473D01*
X136840653Y-97979431D01*
X136687335Y-97977813D01*
X136567103Y-97975716D01*
X136486682Y-97973234D01*
X136452797Y-97970464D01*
X136452227Y-97969852D01*
X136480090Y-97957411D01*
X136551734Y-97928711D01*
X136659700Y-97886595D01*
X136796529Y-97833904D01*
X136954763Y-97773481D01*
X137126944Y-97708167D01*
X137305613Y-97640804D01*
X137483314Y-97574234D01*
X137652586Y-97511299D01*
X137748656Y-97475857D01*
X137994727Y-97385400D01*
X137996590Y-97683121D01*
G37*
G36*
X138381270Y-93660155D02*
G01*
X138390343Y-93719451D01*
X138391175Y-93753457D01*
X138405670Y-93853990D01*
X138454075Y-93921674D01*
X138543772Y-93963909D01*
X138616740Y-93979516D01*
X138682544Y-93995698D01*
X138717532Y-94015207D01*
X138719270Y-94019858D01*
X138695632Y-94037785D01*
X138634170Y-94039098D01*
X138549059Y-94024098D01*
X138518108Y-94015592D01*
X138414022Y-93967202D01*
X138355625Y-93893893D01*
X138336530Y-93787425D01*
X138336493Y-93781339D01*
X138342353Y-93705429D01*
X138357053Y-93655119D01*
X138363834Y-93647257D01*
X138381270Y-93660155D01*
G37*
G36*
X149108266Y-97061221D02*
G01*
X149191862Y-97135308D01*
X149221593Y-97209821D01*
X149198237Y-97283080D01*
X149122570Y-97353410D01*
X148995369Y-97419132D01*
X148931218Y-97443411D01*
X148830837Y-97478802D01*
X148746501Y-97509185D01*
X148695381Y-97528369D01*
X148693352Y-97529189D01*
X148655700Y-97529169D01*
X148623009Y-97487802D01*
X148607630Y-97454255D01*
X148554631Y-97373979D01*
X148476058Y-97303564D01*
X148465927Y-97297007D01*
X148363468Y-97233684D01*
X148496966Y-97183151D01*
X148594642Y-97145802D01*
X148714725Y-97099371D01*
X148814348Y-97060510D01*
X148998230Y-96988403D01*
X149108266Y-97061221D01*
G37*
G36*
X149282157Y-83257590D02*
G01*
X149220408Y-83544402D01*
X149107691Y-83818522D01*
X148947338Y-84073716D01*
X148742679Y-84303749D01*
X148703749Y-84339878D01*
X148503470Y-84501671D01*
X148296627Y-84626904D01*
X148061905Y-84728020D01*
X148003562Y-84748552D01*
X147892220Y-84781882D01*
X147780682Y-84807670D01*
X147678926Y-84824733D01*
X147596932Y-84831889D01*
X147544679Y-84827954D01*
X147532143Y-84811744D01*
X147538183Y-84803739D01*
X147573731Y-84782630D01*
X147647431Y-84747645D01*
X147746462Y-84704702D01*
X147802981Y-84681487D01*
X148139685Y-84520347D01*
X148437724Y-84323025D01*
X148699607Y-84087057D01*
X148927841Y-83809982D01*
X149124936Y-83489336D01*
X149224308Y-83286129D01*
X149298667Y-83120884D01*
X149282157Y-83257590D01*
G37*
G36*
X137505536Y-93630477D02*
G01*
X137524432Y-93691453D01*
X137530406Y-93722445D01*
X137574838Y-93872511D01*
X137655631Y-94032209D01*
X137762136Y-94183241D01*
X137857434Y-94284379D01*
X138005419Y-94398912D01*
X138177502Y-94499068D01*
X138358242Y-94577993D01*
X138532196Y-94628835D01*
X138669809Y-94644915D01*
X138740298Y-94651882D01*
X138784197Y-94668663D01*
X138787623Y-94672553D01*
X138777474Y-94690453D01*
X138726203Y-94697683D01*
X138646149Y-94695048D01*
X138549654Y-94683356D01*
X138449059Y-94663413D01*
X138387239Y-94646383D01*
X138167837Y-94556760D01*
X137964047Y-94434128D01*
X137786199Y-94286755D01*
X137644622Y-94122910D01*
X137566029Y-93989022D01*
X137525630Y-93889264D01*
X137494566Y-93788516D01*
X137475468Y-93699398D01*
X137470969Y-93634530D01*
X137483701Y-93606532D01*
X137486188Y-93606245D01*
X137505536Y-93630477D01*
G37*
G36*
X146074060Y-91654862D02*
G01*
X146072544Y-91812303D01*
X146067351Y-91924492D01*
X146057510Y-92000795D01*
X146042051Y-92050576D01*
X146031108Y-92069609D01*
X146012228Y-92106581D01*
X146001168Y-92158897D01*
X145997122Y-92237420D01*
X145999282Y-92353014D01*
X146003226Y-92444799D01*
X146018297Y-92758667D01*
X145953832Y-92758667D01*
X145891646Y-92745188D01*
X145861540Y-92724490D01*
X145837161Y-92677105D01*
X145805991Y-92593749D01*
X145773306Y-92491787D01*
X145744381Y-92388582D01*
X145724491Y-92301499D01*
X145718624Y-92254076D01*
X145734215Y-92196964D01*
X145773928Y-92119995D01*
X145802187Y-92077350D01*
X145853858Y-91992597D01*
X145886235Y-91899706D01*
X145906937Y-91776264D01*
X145908174Y-91765659D01*
X145943039Y-91587309D01*
X146001000Y-91437878D01*
X146002329Y-91435380D01*
X146074060Y-91301437D01*
X146074060Y-91654862D01*
G37*
G36*
X136765100Y-93712955D02*
G01*
X136782633Y-93776810D01*
X136793420Y-93842836D01*
X136850900Y-94090073D01*
X136958729Y-94332337D01*
X137112637Y-94561991D01*
X137308357Y-94771399D01*
X137316726Y-94779003D01*
X137495195Y-94919922D01*
X137694169Y-95042603D01*
X137901121Y-95141352D01*
X138103527Y-95210477D01*
X138288860Y-95244282D01*
X138345661Y-95246718D01*
X138414777Y-95253755D01*
X138457030Y-95271000D01*
X138459528Y-95274060D01*
X138448339Y-95291239D01*
X138395638Y-95298922D01*
X138313677Y-95297591D01*
X138214709Y-95287726D01*
X138110987Y-95269810D01*
X138063080Y-95258484D01*
X137802102Y-95165598D01*
X137555792Y-95030594D01*
X137330306Y-94860104D01*
X137131801Y-94660756D01*
X136966432Y-94439180D01*
X136840355Y-94202007D01*
X136759725Y-93955866D01*
X136738413Y-93831810D01*
X136732831Y-93745756D01*
X136739328Y-93696072D01*
X136747793Y-93688268D01*
X136765100Y-93712955D01*
G37*
G36*
X146238107Y-87223657D02*
G01*
X146242901Y-87291080D01*
X146256031Y-87398653D01*
X146275624Y-87532805D01*
X146299806Y-87679965D01*
X146306013Y-87715311D01*
X146334818Y-87886387D01*
X146352679Y-88020682D01*
X146360830Y-88134726D01*
X146360504Y-88245047D01*
X146353860Y-88356410D01*
X146342427Y-88483819D01*
X146328373Y-88565034D01*
X146306501Y-88608482D01*
X146271614Y-88622592D01*
X146218515Y-88615791D01*
X146197096Y-88610642D01*
X146138018Y-88588572D01*
X146114340Y-88574234D01*
X146104483Y-88538395D01*
X146097176Y-88450582D01*
X146092517Y-88313451D01*
X146090601Y-88129655D01*
X146091214Y-87937063D01*
X146092948Y-87738546D01*
X146095083Y-87586913D01*
X146098443Y-87474368D01*
X146103850Y-87393113D01*
X146112128Y-87335353D01*
X146124100Y-87293291D01*
X146140590Y-87259129D01*
X146162421Y-87225072D01*
X146167134Y-87218126D01*
X146238107Y-87113680D01*
X146238107Y-87223657D01*
G37*
G36*
X149684375Y-80928065D02*
G01*
X149716623Y-80962423D01*
X149739965Y-81025777D01*
X149754439Y-81087254D01*
X149754192Y-81143776D01*
X149736574Y-81213267D01*
X149698935Y-81313654D01*
X149696524Y-81319695D01*
X149648607Y-81433312D01*
X149587007Y-81570157D01*
X149516598Y-81720360D01*
X149442256Y-81874048D01*
X149368856Y-82021350D01*
X149301272Y-82152395D01*
X149244379Y-82257311D01*
X149203052Y-82326226D01*
X149191842Y-82341659D01*
X149155960Y-82382037D01*
X149147214Y-82380147D01*
X149154258Y-82355330D01*
X149175642Y-82305615D01*
X149215180Y-82223897D01*
X149265032Y-82126283D01*
X149274665Y-82107949D01*
X149364894Y-81928818D01*
X149440686Y-81762102D01*
X149498528Y-81616584D01*
X149534906Y-81501046D01*
X149546396Y-81428760D01*
X149533017Y-81356524D01*
X149483304Y-81305218D01*
X149465052Y-81293772D01*
X149383707Y-81245721D01*
X149428281Y-81130665D01*
X149481313Y-81016897D01*
X149537116Y-80949888D01*
X149603139Y-80921917D01*
X149631560Y-80919915D01*
X149684375Y-80928065D01*
G37*
G36*
X141487569Y-96395910D02*
G01*
X141552814Y-96419537D01*
X141588072Y-96442312D01*
X141590099Y-96447303D01*
X141566879Y-96469230D01*
X141507845Y-96499821D01*
X141467831Y-96516339D01*
X141366896Y-96567622D01*
X141253779Y-96650506D01*
X141124252Y-96768819D01*
X140974089Y-96926392D01*
X140816968Y-97105922D01*
X140718350Y-97218473D01*
X140622642Y-97321523D01*
X140539863Y-97404677D01*
X140480033Y-97457540D01*
X140473217Y-97462522D01*
X140401892Y-97527184D01*
X140365797Y-97592019D01*
X140364465Y-97599228D01*
X140341616Y-97650078D01*
X140289197Y-97723985D01*
X140217593Y-97806672D01*
X140201273Y-97823629D01*
X140047031Y-97980841D01*
X139859035Y-97980841D01*
X139671039Y-97980841D01*
X139789826Y-97883530D01*
X139866064Y-97821067D01*
X139966939Y-97738407D01*
X140074797Y-97650016D01*
X140113673Y-97618155D01*
X140188902Y-97552598D01*
X140294537Y-97455042D01*
X140422971Y-97332798D01*
X140566599Y-97193178D01*
X140717814Y-97043493D01*
X140851886Y-96908475D01*
X141385040Y-96366859D01*
X141487569Y-96395910D01*
G37*
G36*
X147966343Y-96227594D02*
G01*
X147991566Y-96247949D01*
X147991874Y-96248228D01*
X148047209Y-96311903D01*
X148087396Y-96374971D01*
X148105267Y-96408737D01*
X148112693Y-96433034D01*
X148102260Y-96452011D01*
X148066561Y-96469817D01*
X147998184Y-96490601D01*
X147889719Y-96518513D01*
X147783514Y-96545134D01*
X147600477Y-96586779D01*
X147460716Y-96607841D01*
X147357058Y-96608834D01*
X147282330Y-96590270D01*
X147266491Y-96582151D01*
X147202914Y-96566806D01*
X147089977Y-96564601D01*
X146986564Y-96570712D01*
X146874790Y-96578575D01*
X146807982Y-96579220D01*
X146776782Y-96571669D01*
X146771829Y-96554944D01*
X146773866Y-96548498D01*
X146784655Y-96528863D01*
X146806013Y-96513308D01*
X146847466Y-96499005D01*
X146918537Y-96483131D01*
X147028751Y-96462862D01*
X147110606Y-96448626D01*
X147207935Y-96427260D01*
X147338613Y-96392302D01*
X147484592Y-96348835D01*
X147610713Y-96307807D01*
X147745528Y-96262327D01*
X147838573Y-96233117D01*
X147899773Y-96218626D01*
X147939054Y-96217302D01*
X147966343Y-96227594D01*
G37*
G36*
X141999613Y-97007391D02*
G01*
X142074679Y-97036754D01*
X142108671Y-97079933D01*
X142109582Y-97089048D01*
X142098028Y-97125870D01*
X142066415Y-97201198D01*
X142019315Y-97304719D01*
X141961299Y-97426116D01*
X141949417Y-97450357D01*
X141884749Y-97582128D01*
X141824495Y-97705585D01*
X141775078Y-97807520D01*
X141742925Y-97874727D01*
X141741242Y-97878311D01*
X141693233Y-97980841D01*
X141422936Y-97980841D01*
X141308880Y-97978786D01*
X141218613Y-97973248D01*
X141163774Y-97965170D01*
X141152639Y-97958968D01*
X141170266Y-97916958D01*
X141226694Y-97889467D01*
X141327247Y-97874899D01*
X141444488Y-97871476D01*
X141555745Y-97870675D01*
X141625372Y-97865647D01*
X141666422Y-97852455D01*
X141691947Y-97827165D01*
X141712518Y-97790644D01*
X141757471Y-97694096D01*
X141802204Y-97581852D01*
X141842819Y-97466128D01*
X141875417Y-97359140D01*
X141896098Y-97273104D01*
X141900965Y-97220235D01*
X141897515Y-97211012D01*
X141854650Y-97190271D01*
X141781528Y-97172267D01*
X141757457Y-97168517D01*
X141682184Y-97152237D01*
X141649277Y-97125528D01*
X141644781Y-97101645D01*
X141670203Y-97051326D01*
X141741126Y-97015616D01*
X141849534Y-96997889D01*
X141894430Y-96996557D01*
X141999613Y-97007391D01*
G37*
G36*
X141538584Y-95650043D02*
G01*
X141508125Y-95705379D01*
X141456623Y-95786048D01*
X141415257Y-95846490D01*
X141263205Y-96063485D01*
X141304374Y-96180170D01*
X141345543Y-96296856D01*
X141090287Y-96557847D01*
X140963857Y-96688977D01*
X140821995Y-96839049D01*
X140684344Y-96987155D01*
X140595172Y-97084933D01*
X140500588Y-97187623D01*
X140412956Y-97276462D01*
X140323763Y-97358397D01*
X140224501Y-97440376D01*
X140106656Y-97529347D01*
X139961720Y-97632259D01*
X139781180Y-97756059D01*
X139733515Y-97788360D01*
X139449051Y-97980841D01*
X138909407Y-97980841D01*
X138369762Y-97980841D01*
X138351460Y-97907919D01*
X138341265Y-97834156D01*
X138335551Y-97724208D01*
X138334300Y-97596385D01*
X138337496Y-97468999D01*
X138345122Y-97360361D01*
X138352010Y-97310755D01*
X138373738Y-97246008D01*
X138403508Y-97215761D01*
X138407519Y-97215287D01*
X138478518Y-97202269D01*
X138591517Y-97165048D01*
X138740937Y-97106374D01*
X138921199Y-97028994D01*
X139126723Y-96935657D01*
X139351931Y-96829112D01*
X139591242Y-96712108D01*
X139839079Y-96587393D01*
X140089861Y-96457717D01*
X140338010Y-96325827D01*
X140577947Y-96194473D01*
X140804091Y-96066404D01*
X141010865Y-95944367D01*
X141107432Y-95885107D01*
X141241537Y-95802372D01*
X141360116Y-95730800D01*
X141455217Y-95675061D01*
X141518888Y-95639830D01*
X141542455Y-95629495D01*
X141538584Y-95650043D01*
G37*
G36*
X141530037Y-96599507D02*
G01*
X141570191Y-96611546D01*
X141652583Y-96633911D01*
X141766381Y-96663737D01*
X141900756Y-96698158D01*
X141946842Y-96709803D01*
X142125676Y-96755036D01*
X142258163Y-96789962D01*
X142350963Y-96817717D01*
X142410734Y-96841435D01*
X142444135Y-96864251D01*
X142457824Y-96889300D01*
X142458459Y-96919716D01*
X142454257Y-96948676D01*
X142439411Y-97019723D01*
X142414077Y-97104289D01*
X142374892Y-97211693D01*
X142318493Y-97351251D01*
X142254399Y-97502370D01*
X142203415Y-97624002D01*
X142156578Y-97741050D01*
X142121231Y-97834961D01*
X142111057Y-97864641D01*
X142084449Y-97936561D01*
X142054126Y-97970300D01*
X142001406Y-97980267D01*
X141960424Y-97980841D01*
X141847360Y-97980841D01*
X141981387Y-97700593D01*
X142085381Y-97474821D01*
X142161652Y-97289743D01*
X142212228Y-97140175D01*
X142232463Y-97058663D01*
X142237277Y-96990188D01*
X142210664Y-96936960D01*
X142175986Y-96901451D01*
X142093668Y-96854272D01*
X141986390Y-96830375D01*
X141873942Y-96830387D01*
X141776117Y-96854937D01*
X141726805Y-96887192D01*
X141670122Y-96927943D01*
X141624563Y-96941874D01*
X141570628Y-96932192D01*
X141497627Y-96908142D01*
X141423552Y-96877215D01*
X141366394Y-96846904D01*
X141344130Y-96825088D01*
X141358012Y-96791644D01*
X141393390Y-96730542D01*
X141416822Y-96693996D01*
X141475787Y-96620844D01*
X141522031Y-96597762D01*
X141530037Y-96599507D01*
G37*
G36*
X143988904Y-83430231D02*
G01*
X143929583Y-83484546D01*
X143825749Y-83568075D01*
X143791068Y-83594797D01*
X143698033Y-83666930D01*
X143606315Y-83740379D01*
X143512756Y-83818140D01*
X143414199Y-83903207D01*
X143307485Y-83998575D01*
X143189458Y-84107242D01*
X143056958Y-84232201D01*
X142906829Y-84376447D01*
X142735913Y-84542978D01*
X142541052Y-84734787D01*
X142319089Y-84954870D01*
X142066865Y-85206222D01*
X141781223Y-85491840D01*
X141602911Y-85670454D01*
X141456927Y-85816189D01*
X141323263Y-85948540D01*
X141206808Y-86062754D01*
X141112447Y-86154077D01*
X141045068Y-86217757D01*
X141009558Y-86249039D01*
X141005539Y-86251455D01*
X141008389Y-86229208D01*
X141031881Y-86170289D01*
X141071219Y-86086434D01*
X141080970Y-86066901D01*
X141147205Y-85946922D01*
X141229124Y-85814179D01*
X141303885Y-85704630D01*
X141396825Y-85589078D01*
X141526431Y-85445076D01*
X141686740Y-85278425D01*
X141871793Y-85094929D01*
X142075628Y-84900389D01*
X142292285Y-84700608D01*
X142515803Y-84501387D01*
X142724760Y-84321572D01*
X142916599Y-84159790D01*
X143073578Y-84028399D01*
X143202424Y-83922282D01*
X143309863Y-83836324D01*
X143402623Y-83765407D01*
X143487430Y-83704417D01*
X143571011Y-83648236D01*
X143660092Y-83591749D01*
X143761401Y-83529840D01*
X143782403Y-83517153D01*
X143900461Y-83448589D01*
X143974276Y-83411649D01*
X144003779Y-83405731D01*
X143988904Y-83430231D01*
G37*
G36*
X149500023Y-95473845D02*
G01*
X149499853Y-95482042D01*
X149519794Y-95501644D01*
X149582680Y-95505253D01*
X149588712Y-95504818D01*
X149651267Y-95505869D01*
X149682347Y-95518180D01*
X149683102Y-95521127D01*
X149707445Y-95535344D01*
X149768666Y-95542970D01*
X149799302Y-95543417D01*
X149889923Y-95545741D01*
X149987521Y-95556775D01*
X150110975Y-95578971D01*
X150175244Y-95592247D01*
X150243597Y-95606716D01*
X150161573Y-95640986D01*
X150076602Y-95665448D01*
X149980630Y-95678696D01*
X149973411Y-95679021D01*
X149857270Y-95689575D01*
X149791899Y-95711917D01*
X149774425Y-95747224D01*
X149777592Y-95759251D01*
X149772218Y-95808089D01*
X149736448Y-95862104D01*
X149687000Y-95902922D01*
X149640594Y-95912170D01*
X149638969Y-95911598D01*
X149610782Y-95916221D01*
X149607703Y-95961041D01*
X149593571Y-96023180D01*
X149553495Y-96052440D01*
X149508964Y-96087942D01*
X149498813Y-96120558D01*
X149488054Y-96155534D01*
X149449608Y-96158590D01*
X149399038Y-96131266D01*
X149375513Y-96108371D01*
X149340174Y-96072250D01*
X149314005Y-96073883D01*
X149275175Y-96115234D01*
X149273190Y-96117576D01*
X149234275Y-96159271D01*
X149214030Y-96160595D01*
X149200063Y-96131247D01*
X149166615Y-96077406D01*
X149145175Y-96058761D01*
X149116546Y-96012090D01*
X149114234Y-95932529D01*
X149134416Y-95832816D01*
X149173270Y-95725688D01*
X149226974Y-95623884D01*
X149291705Y-95540139D01*
X149304548Y-95527676D01*
X149362179Y-95488077D01*
X149424693Y-95463399D01*
X149476004Y-95457402D01*
X149500023Y-95473845D01*
G37*
G36*
X148755711Y-82026458D02*
G01*
X148766507Y-82039831D01*
X148760240Y-82077511D01*
X148721073Y-82145203D01*
X148655803Y-82235311D01*
X148571229Y-82340241D01*
X148474147Y-82452398D01*
X148371355Y-82564185D01*
X148269652Y-82668009D01*
X148175833Y-82756275D01*
X148096698Y-82821386D01*
X148039043Y-82855748D01*
X148035060Y-82857098D01*
X147949274Y-82874231D01*
X147825565Y-82887581D01*
X147680602Y-82896505D01*
X147531054Y-82900355D01*
X147393590Y-82898486D01*
X147284878Y-82890252D01*
X147263403Y-82886994D01*
X147036562Y-82853953D01*
X146776931Y-82827577D01*
X146502964Y-82808930D01*
X146233119Y-82799074D01*
X145985851Y-82799071D01*
X145841660Y-82805133D01*
X145697567Y-82815507D01*
X145568920Y-82826669D01*
X145467684Y-82837443D01*
X145405822Y-82846657D01*
X145397365Y-82848742D01*
X145350312Y-82857468D01*
X145335847Y-82851759D01*
X145360988Y-82833050D01*
X145429448Y-82807161D01*
X145530786Y-82776901D01*
X145654558Y-82745078D01*
X145790320Y-82714500D01*
X145927631Y-82687976D01*
X145973676Y-82680242D01*
X146146522Y-82657441D01*
X146310925Y-82647930D01*
X146492545Y-82650648D01*
X146579873Y-82655165D01*
X146733511Y-82664117D01*
X146919908Y-82674654D01*
X147117209Y-82685556D01*
X147303564Y-82695606D01*
X147331756Y-82697098D01*
X147755546Y-82719459D01*
X147946934Y-82627234D01*
X148055022Y-82567814D01*
X148163881Y-82491112D01*
X148285196Y-82388140D01*
X148405767Y-82274287D01*
X148527385Y-82158264D01*
X148617670Y-82079055D01*
X148682141Y-82033076D01*
X148726315Y-82016739D01*
X148755711Y-82026458D01*
G37*
G36*
X146682874Y-85208859D02*
G01*
X146682228Y-85243610D01*
X146635706Y-85298978D01*
X146546739Y-85371941D01*
X146418763Y-85459478D01*
X146347472Y-85503970D01*
X146222673Y-85584322D01*
X146087815Y-85677974D01*
X145970857Y-85765466D01*
X145964695Y-85770353D01*
X145758956Y-85934574D01*
X145589605Y-86070579D01*
X145450001Y-86183901D01*
X145333505Y-86280071D01*
X145233478Y-86364620D01*
X145143280Y-86443081D01*
X145056271Y-86520986D01*
X144980180Y-86590606D01*
X144853791Y-86711403D01*
X144709909Y-86855705D01*
X144566371Y-87005281D01*
X144442662Y-87140044D01*
X144292375Y-87306999D01*
X144137214Y-87476009D01*
X143981074Y-87643146D01*
X143827853Y-87804481D01*
X143681446Y-87956084D01*
X143545750Y-88094024D01*
X143424661Y-88214373D01*
X143322075Y-88313202D01*
X143241888Y-88386580D01*
X143187998Y-88430577D01*
X143164299Y-88441265D01*
X143168858Y-88424730D01*
X143196242Y-88381480D01*
X143250196Y-88304769D01*
X143332274Y-88192483D01*
X143444029Y-88042511D01*
X143587017Y-87852741D01*
X143681628Y-87727881D01*
X143895449Y-87454424D01*
X144114873Y-87189203D01*
X144334092Y-86938473D01*
X144547296Y-86708493D01*
X144748678Y-86505521D01*
X144932428Y-86335815D01*
X145092737Y-86205631D01*
X145098918Y-86201086D01*
X145186385Y-86136936D01*
X145298450Y-86054535D01*
X145415737Y-85968134D01*
X145458882Y-85936304D01*
X145564677Y-85861456D01*
X145693179Y-85775630D01*
X145837175Y-85683116D01*
X145989451Y-85588200D01*
X146142792Y-85495170D01*
X146289984Y-85408314D01*
X146423813Y-85331918D01*
X146537066Y-85270271D01*
X146622527Y-85227661D01*
X146672984Y-85208373D01*
X146682874Y-85208859D01*
G37*
G36*
X142556254Y-94876377D02*
G01*
X142646943Y-94905294D01*
X142676913Y-94917887D01*
X142748347Y-94954393D01*
X142782328Y-94990447D01*
X142792581Y-95044856D01*
X142793113Y-95077134D01*
X142805090Y-95174128D01*
X142834194Y-95265779D01*
X142836918Y-95271445D01*
X142867902Y-95339825D01*
X142913787Y-95449248D01*
X142970492Y-95589474D01*
X143033933Y-95750265D01*
X143100029Y-95921381D01*
X143164697Y-96092583D01*
X143170428Y-96107967D01*
X143210002Y-96205079D01*
X143248021Y-96282849D01*
X143276874Y-96325880D01*
X143279094Y-96327780D01*
X143305960Y-96367575D01*
X143341628Y-96445755D01*
X143381041Y-96547810D01*
X143419141Y-96659228D01*
X143450872Y-96765497D01*
X143471177Y-96852106D01*
X143475879Y-96892503D01*
X143457257Y-96964872D01*
X143409743Y-97039332D01*
X143406566Y-97042879D01*
X143336488Y-97119592D01*
X143353012Y-96993368D01*
X143355420Y-96894806D01*
X143342257Y-96784140D01*
X143317360Y-96675957D01*
X143284567Y-96584841D01*
X143247717Y-96525378D01*
X143226130Y-96511175D01*
X143188627Y-96479214D01*
X143148722Y-96411907D01*
X143131988Y-96371658D01*
X143101140Y-96288225D01*
X143058536Y-96174739D01*
X143008849Y-96043452D01*
X142956751Y-95906614D01*
X142906915Y-95776475D01*
X142864012Y-95665286D01*
X142832717Y-95585299D01*
X142821042Y-95556391D01*
X142790306Y-95520154D01*
X142722762Y-95461031D01*
X142627291Y-95386182D01*
X142512775Y-95302766D01*
X142466554Y-95270615D01*
X142350175Y-95189572D01*
X142251824Y-95118928D01*
X142179458Y-95064568D01*
X142141031Y-95032375D01*
X142136923Y-95026805D01*
X142160177Y-95000048D01*
X142219306Y-94963336D01*
X142298359Y-94924161D01*
X142381387Y-94890016D01*
X142452438Y-94868392D01*
X142482389Y-94864542D01*
X142556254Y-94876377D01*
G37*
G36*
X149452032Y-93175284D02*
G01*
X149463895Y-93202242D01*
X149490342Y-93268492D01*
X149526814Y-93362104D01*
X149568750Y-93471146D01*
X149611591Y-93583688D01*
X149650778Y-93687801D01*
X149681751Y-93771553D01*
X149699949Y-93823014D01*
X149701721Y-93828600D01*
X149692649Y-93870750D01*
X149655650Y-93946385D01*
X149595960Y-94045515D01*
X149558392Y-94102012D01*
X149451797Y-94255563D01*
X149366959Y-94371830D01*
X149296289Y-94459669D01*
X149232198Y-94527937D01*
X149167095Y-94585489D01*
X149101018Y-94635694D01*
X149022110Y-94694927D01*
X148915824Y-94777760D01*
X148796731Y-94872711D01*
X148691314Y-94958487D01*
X148551466Y-95066987D01*
X148388547Y-95183345D01*
X148226472Y-95290882D01*
X148131023Y-95349248D01*
X147992343Y-95429089D01*
X147895243Y-95482187D01*
X147834878Y-95510695D01*
X147806408Y-95516769D01*
X147804988Y-95502564D01*
X147810886Y-95491725D01*
X147813964Y-95454229D01*
X147808235Y-95375831D01*
X147794911Y-95269384D01*
X147782274Y-95188387D01*
X147765113Y-95071466D01*
X147755591Y-94975036D01*
X147754662Y-94911467D01*
X147759497Y-94893259D01*
X147788598Y-94869816D01*
X147852264Y-94819466D01*
X147941947Y-94748943D01*
X148049098Y-94664978D01*
X148083640Y-94637963D01*
X148200098Y-94544399D01*
X148306345Y-94454424D01*
X148391937Y-94377199D01*
X148446431Y-94321886D01*
X148452747Y-94314171D01*
X148506967Y-94256341D01*
X148590540Y-94181177D01*
X148687863Y-94102482D01*
X148715836Y-94081412D01*
X148801641Y-94015917D01*
X148873691Y-93954438D01*
X148939467Y-93888248D01*
X149006451Y-93808620D01*
X149082123Y-93706827D01*
X149173965Y-93574142D01*
X149258231Y-93448696D01*
X149330042Y-93342375D01*
X149390206Y-93255734D01*
X149432751Y-93197200D01*
X149451702Y-93175201D01*
X149452032Y-93175284D01*
G37*
G36*
X142015924Y-95137823D02*
G01*
X142083388Y-95181418D01*
X142172695Y-95258815D01*
X142187215Y-95272291D01*
X142272489Y-95340920D01*
X142367022Y-95402129D01*
X142385071Y-95411825D01*
X142475735Y-95478361D01*
X142546890Y-95579132D01*
X142603205Y-95721953D01*
X142629457Y-95820884D01*
X142660661Y-95939222D01*
X142699638Y-96067575D01*
X142717897Y-96121638D01*
X142764784Y-96258704D01*
X142791923Y-96352609D01*
X142800316Y-96410787D01*
X142790962Y-96440669D01*
X142764861Y-96449689D01*
X142762034Y-96449732D01*
X142710408Y-96427939D01*
X142692875Y-96401885D01*
X142610136Y-96205406D01*
X142502618Y-96015632D01*
X142378149Y-95842681D01*
X142244555Y-95696669D01*
X142109663Y-95587713D01*
X142028369Y-95543012D01*
X141954093Y-95512406D01*
X141912462Y-95504345D01*
X141886579Y-95518227D01*
X141871157Y-95537416D01*
X141836982Y-95628969D01*
X141841872Y-95751809D01*
X141884523Y-95900335D01*
X141963632Y-96068947D01*
X142015502Y-96157512D01*
X142069196Y-96247029D01*
X142107644Y-96317432D01*
X142124732Y-96357267D01*
X142124557Y-96361847D01*
X142096807Y-96355647D01*
X142036511Y-96328083D01*
X141976599Y-96296110D01*
X141839802Y-96219212D01*
X141676378Y-96297322D01*
X141555509Y-96345652D01*
X141474113Y-96356249D01*
X141432231Y-96329112D01*
X141426051Y-96297510D01*
X141414764Y-96243697D01*
X141387177Y-96171219D01*
X141383063Y-96162346D01*
X141359590Y-96106144D01*
X141357489Y-96062798D01*
X141380089Y-96011274D01*
X141416186Y-95953155D01*
X141471805Y-95871082D01*
X141542679Y-95772879D01*
X141619738Y-95670361D01*
X141693911Y-95575342D01*
X141756127Y-95499637D01*
X141797315Y-95455060D01*
X141801133Y-95451778D01*
X141819694Y-95422219D01*
X141814626Y-95371211D01*
X141797127Y-95315071D01*
X141775669Y-95226170D01*
X141791415Y-95170879D01*
X141850250Y-95137981D01*
X141895942Y-95126766D01*
X141957657Y-95121712D01*
X142015924Y-95137823D01*
G37*
G36*
X143381006Y-80708959D02*
G01*
X143608641Y-80733503D01*
X143820877Y-80769977D01*
X143971225Y-80799144D01*
X144119004Y-80827578D01*
X144247130Y-80852005D01*
X144337892Y-80869037D01*
X144516291Y-80907594D01*
X144729810Y-80962931D01*
X144963109Y-81030753D01*
X145200852Y-81106765D01*
X145267487Y-81129399D01*
X145613157Y-81238552D01*
X145985795Y-81338648D01*
X146357717Y-81422393D01*
X146443065Y-81439110D01*
X146586886Y-81464737D01*
X146697531Y-81478858D01*
X146795072Y-81482433D01*
X146899575Y-81476417D01*
X146999132Y-81465648D01*
X147240420Y-81430109D01*
X147436722Y-81384817D01*
X147597387Y-81326158D01*
X147731766Y-81250519D01*
X147849208Y-81154287D01*
X147877358Y-81126237D01*
X147950597Y-81058351D01*
X148001516Y-81034672D01*
X148039155Y-81054611D01*
X148070921Y-81113602D01*
X148088756Y-81171515D01*
X148088570Y-81231289D01*
X148069183Y-81313547D01*
X148057212Y-81352837D01*
X148007819Y-81488720D01*
X147944861Y-81630965D01*
X147875348Y-81766304D01*
X147806292Y-81881467D01*
X147744702Y-81963187D01*
X147724171Y-81983168D01*
X147652768Y-82044087D01*
X147588010Y-82101051D01*
X147586327Y-82102571D01*
X147532508Y-82135607D01*
X147453132Y-82167455D01*
X147364551Y-82193735D01*
X147283123Y-82210067D01*
X147225200Y-82212072D01*
X147208052Y-82203871D01*
X147204501Y-82158896D01*
X147218863Y-82079330D01*
X147246846Y-81980551D01*
X147284157Y-81877938D01*
X147322149Y-81795052D01*
X147373453Y-81677915D01*
X147384307Y-81596253D01*
X147353004Y-81548009D01*
X147277837Y-81531127D01*
X147157101Y-81543549D01*
X147119679Y-81550975D01*
X147022471Y-81565571D01*
X146891814Y-81577089D01*
X146748921Y-81583900D01*
X146675567Y-81585046D01*
X146559412Y-81583360D01*
X146450402Y-81576479D01*
X146339139Y-81562593D01*
X146216224Y-81539887D01*
X146072260Y-81506550D01*
X145897848Y-81460770D01*
X145683590Y-81400734D01*
X145609259Y-81379419D01*
X145235619Y-81274824D01*
X144900775Y-81187940D01*
X144592701Y-81116293D01*
X144299374Y-81057407D01*
X144008767Y-81008808D01*
X143708858Y-80968022D01*
X143488456Y-80942954D01*
X143349101Y-80929388D01*
X143244292Y-80923967D01*
X143154357Y-80927710D01*
X143059626Y-80941634D01*
X142940429Y-80966758D01*
X142914290Y-80972677D01*
X142723187Y-81024156D01*
X142531685Y-81093009D01*
X142333808Y-81182562D01*
X142123585Y-81296140D01*
X141895039Y-81437071D01*
X141642199Y-81608679D01*
X141359091Y-81814291D01*
X141234663Y-81907842D01*
X141053456Y-82050865D01*
X140847802Y-82222689D01*
X140627927Y-82414010D01*
X140404059Y-82615524D01*
X140186427Y-82817928D01*
X139985256Y-83011918D01*
X139810776Y-83188190D01*
X139716637Y-83288731D01*
X139575827Y-83444034D01*
X139465665Y-83566833D01*
X139379783Y-83664869D01*
X139311810Y-83745883D01*
X139255377Y-83817618D01*
X139204114Y-83887815D01*
X139151651Y-83964216D01*
X139112384Y-84023145D01*
X139038535Y-84133843D01*
X138966021Y-84241120D01*
X138906844Y-84327268D01*
X138890025Y-84351239D01*
X138696923Y-84639848D01*
X138511319Y-84948230D01*
X138339590Y-85264140D01*
X138188112Y-85575331D01*
X138063263Y-85869558D01*
X137985917Y-86087407D01*
X137955302Y-86183902D01*
X137930160Y-86263069D01*
X137916454Y-86306137D01*
X137905646Y-86323211D01*
X137901196Y-86292466D01*
X137909190Y-86170543D01*
X137939265Y-86007255D01*
X137988898Y-85810071D01*
X138055563Y-85586459D01*
X138136734Y-85343888D01*
X138229886Y-85089826D01*
X138332495Y-84831741D01*
X138442034Y-84577101D01*
X138555978Y-84333375D01*
X138580236Y-84284265D01*
X138755966Y-83958185D01*
X138949861Y-83645080D01*
X139155058Y-83354507D01*
X139364698Y-83096024D01*
X139571919Y-82879188D01*
X139622032Y-82833062D01*
X139743615Y-82723423D01*
X139883536Y-82595775D01*
X140020406Y-82469683D01*
X140090212Y-82404743D01*
X140399425Y-82122500D01*
X140684412Y-81877610D01*
X140953713Y-81663649D01*
X141215865Y-81474189D01*
X141479407Y-81302804D01*
X141752878Y-81143067D01*
X141803684Y-81115128D01*
X142050096Y-80985224D01*
X142262689Y-80884265D01*
X142451879Y-80809053D01*
X142628087Y-80756390D01*
X142801731Y-80723079D01*
X142983230Y-80705923D01*
X143151017Y-80701654D01*
X143381006Y-80708959D01*
G37*
G36*
X149762001Y-94022717D02*
G01*
X149756564Y-94060975D01*
X149745484Y-94116348D01*
X149732603Y-94202832D01*
X149725196Y-94262784D01*
X149717428Y-94351145D01*
X149724390Y-94407545D01*
X149753519Y-94454217D01*
X149807519Y-94508856D01*
X149865307Y-94567829D01*
X149947250Y-94656046D01*
X150042026Y-94761138D01*
X150129936Y-94861074D01*
X150324642Y-95073359D01*
X150508200Y-95246003D01*
X150692835Y-95388801D01*
X150890771Y-95511548D01*
X151035838Y-95586923D01*
X151259631Y-95687638D01*
X151462806Y-95758588D01*
X151666271Y-95805584D01*
X151890935Y-95834439D01*
X151941473Y-95838638D01*
X152181929Y-95857121D01*
X152087682Y-95927768D01*
X151986917Y-96009790D01*
X151873758Y-96112041D01*
X151761383Y-96221584D01*
X151662969Y-96325485D01*
X151591693Y-96410807D01*
X151582247Y-96423936D01*
X151531834Y-96511638D01*
X151526292Y-96569550D01*
X151567817Y-96602068D01*
X151658603Y-96613590D01*
X151677001Y-96613780D01*
X151758059Y-96611146D01*
X151807841Y-96595208D01*
X151846610Y-96553907D01*
X151886465Y-96489125D01*
X151948844Y-96404605D01*
X152044605Y-96300629D01*
X152161728Y-96188210D01*
X152288189Y-96078363D01*
X152411965Y-95982101D01*
X152513201Y-95914967D01*
X152643293Y-95838729D01*
X153494037Y-95836911D01*
X153840909Y-95838000D01*
X154140285Y-95843439D01*
X154399240Y-95854102D01*
X154624850Y-95870858D01*
X154824191Y-95894578D01*
X155004338Y-95926134D01*
X155172366Y-95966396D01*
X155335352Y-96016236D01*
X155500370Y-96076524D01*
X155527536Y-96087239D01*
X155634647Y-96139753D01*
X155727039Y-96202929D01*
X155794589Y-96267855D01*
X155827175Y-96325618D01*
X155826687Y-96350645D01*
X155814792Y-96363799D01*
X155785820Y-96371349D01*
X155733688Y-96372924D01*
X155652312Y-96368151D01*
X155535609Y-96356660D01*
X155377494Y-96338078D01*
X155171883Y-96312034D01*
X155151347Y-96309377D01*
X154849785Y-96277704D01*
X154530892Y-96259457D01*
X154194404Y-96253571D01*
X153989118Y-96254580D01*
X153815710Y-96259906D01*
X153663671Y-96271854D01*
X153522495Y-96292731D01*
X153381676Y-96324842D01*
X153230706Y-96370494D01*
X153059079Y-96431993D01*
X152856286Y-96511644D01*
X152667910Y-96588601D01*
X152473440Y-96667645D01*
X152263593Y-96751050D01*
X152055237Y-96832236D01*
X151865240Y-96904625D01*
X151724157Y-96956716D01*
X151579682Y-97010006D01*
X151449293Y-97060272D01*
X151343631Y-97103250D01*
X151273334Y-97134673D01*
X151254123Y-97145140D01*
X151194276Y-97199725D01*
X151125425Y-97284027D01*
X151061866Y-97378292D01*
X151017891Y-97462766D01*
X151011508Y-97480435D01*
X150999099Y-97509635D01*
X150976630Y-97526266D01*
X150932263Y-97532454D01*
X150854158Y-97530324D01*
X150765951Y-97524521D01*
X150539199Y-97508519D01*
X150463342Y-97607974D01*
X150411956Y-97672795D01*
X150375466Y-97700171D01*
X150334973Y-97695646D01*
X150271581Y-97664766D01*
X150270938Y-97664432D01*
X150194902Y-97618429D01*
X150134232Y-97572428D01*
X150088694Y-97540415D01*
X150006434Y-97490836D01*
X149899561Y-97430739D01*
X149792467Y-97373548D01*
X149573088Y-97258632D01*
X149397731Y-97165049D01*
X149261462Y-97089773D01*
X149159345Y-97029777D01*
X149086446Y-96982036D01*
X149037831Y-96943522D01*
X149008564Y-96911208D01*
X148994382Y-96884059D01*
X148951105Y-96814971D01*
X148866576Y-96727765D01*
X148748292Y-96629099D01*
X148603747Y-96525628D01*
X148554749Y-96493599D01*
X148457506Y-96428467D01*
X148364988Y-96361693D01*
X148309185Y-96317605D01*
X148207084Y-96238912D01*
X148087574Y-96159192D01*
X147969200Y-96089921D01*
X147870506Y-96042576D01*
X147856112Y-96037215D01*
X147798303Y-96012317D01*
X149014418Y-96012317D01*
X149017291Y-96128937D01*
X149030206Y-96214401D01*
X149058672Y-96292045D01*
X149098326Y-96367753D01*
X149189059Y-96494909D01*
X149306109Y-96609738D01*
X149433716Y-96698883D01*
X149544961Y-96746221D01*
X149687065Y-96769248D01*
X149840702Y-96770470D01*
X149979429Y-96750325D01*
X150019454Y-96738348D01*
X150204919Y-96645431D01*
X150352590Y-96514969D01*
X150459078Y-96351919D01*
X150520992Y-96161240D01*
X150536066Y-95982764D01*
X150507881Y-95787709D01*
X150432955Y-95613878D01*
X150317070Y-95467278D01*
X150166009Y-95353914D01*
X149985553Y-95279794D01*
X149834120Y-95253549D01*
X149627452Y-95261774D01*
X149441641Y-95320023D01*
X149279725Y-95426621D01*
X149144744Y-95579893D01*
X149095211Y-95660697D01*
X149051043Y-95750160D01*
X149026483Y-95830803D01*
X149016120Y-95926181D01*
X149014418Y-96012317D01*
X147798303Y-96012317D01*
X147797732Y-96012071D01*
X147770492Y-95990866D01*
X147770214Y-95989092D01*
X147794030Y-95962838D01*
X147857525Y-95918211D01*
X147951311Y-95860976D01*
X148066004Y-95796903D01*
X148175266Y-95740196D01*
X148258415Y-95696096D01*
X148315920Y-95660795D01*
X148336523Y-95641277D01*
X148336073Y-95640414D01*
X148305797Y-95642442D01*
X148240032Y-95660654D01*
X148167719Y-95685757D01*
X148058818Y-95719082D01*
X147949209Y-95740392D01*
X147852290Y-95748515D01*
X147781457Y-95742279D01*
X147750617Y-95722244D01*
X147769201Y-95698623D01*
X147827625Y-95655308D01*
X147896594Y-95611268D01*
X148379837Y-95611268D01*
X148383590Y-95627522D01*
X148398064Y-95629495D01*
X148420569Y-95619492D01*
X148416292Y-95611268D01*
X148383844Y-95607996D01*
X148379837Y-95611268D01*
X147896594Y-95611268D01*
X147917319Y-95598034D01*
X148029713Y-95532535D01*
X148055739Y-95518084D01*
X148205229Y-95430137D01*
X148355989Y-95331743D01*
X148489514Y-95235409D01*
X148565585Y-95173473D01*
X148772548Y-94995351D01*
X149001028Y-94806752D01*
X149245642Y-94611434D01*
X149346897Y-94517283D01*
X149456522Y-94391470D01*
X149552245Y-94261798D01*
X149637169Y-94141122D01*
X149701781Y-94059727D01*
X149744064Y-94019598D01*
X149762001Y-94022717D01*
G37*
G36*
X146970899Y-86333478D02*
G01*
X146971245Y-86468101D01*
X146964488Y-86606898D01*
X146952058Y-86722059D01*
X146950393Y-86732166D01*
X146927756Y-86896617D01*
X146924658Y-87031518D01*
X146941590Y-87158575D01*
X146961892Y-87241240D01*
X146991106Y-87346189D01*
X147026624Y-87473515D01*
X147055683Y-87577504D01*
X147088019Y-87701731D01*
X147118088Y-87831651D01*
X147136341Y-87922859D01*
X147166652Y-88068809D01*
X147204562Y-88212668D01*
X147246026Y-88342041D01*
X147287002Y-88444532D01*
X147323445Y-88507747D01*
X147329172Y-88513960D01*
X147374203Y-88567367D01*
X147394203Y-88602800D01*
X147403710Y-88605129D01*
X147409779Y-88562927D01*
X147410712Y-88534447D01*
X147404810Y-88451744D01*
X147387792Y-88331426D01*
X147362710Y-88188694D01*
X147332613Y-88038749D01*
X147300553Y-87896791D01*
X147269578Y-87778021D01*
X147242844Y-87697887D01*
X147215927Y-87621078D01*
X147185030Y-87513679D01*
X147156778Y-87398747D01*
X147156420Y-87397134D01*
X147130210Y-87286936D01*
X147103707Y-87188299D01*
X147082411Y-87121622D01*
X147081436Y-87119127D01*
X147071602Y-87040102D01*
X147085825Y-86926117D01*
X147121301Y-86789844D01*
X147175227Y-86643953D01*
X147197821Y-86593220D01*
X147237145Y-86502227D01*
X147280677Y-86391808D01*
X147302075Y-86333478D01*
X147355298Y-86183102D01*
X147350390Y-86593220D01*
X147349061Y-86754760D01*
X147350737Y-86876392D01*
X147357220Y-86972878D01*
X147370315Y-87058980D01*
X147391823Y-87149458D01*
X147423548Y-87259075D01*
X147437215Y-87304092D01*
X147529362Y-87615185D01*
X147603675Y-87887906D01*
X147662921Y-88134534D01*
X147709868Y-88367349D01*
X147747282Y-88598633D01*
X147772198Y-88790704D01*
X147794255Y-88992333D01*
X147808408Y-89165626D01*
X147814157Y-89322820D01*
X147811000Y-89476156D01*
X147798437Y-89637871D01*
X147775967Y-89820206D01*
X147743090Y-90035398D01*
X147714186Y-90208786D01*
X147672823Y-90475025D01*
X147646557Y-90702172D01*
X147634037Y-90903286D01*
X147632510Y-90999227D01*
X147632510Y-91309582D01*
X147817063Y-91310234D01*
X147926812Y-91313090D01*
X148022854Y-91323002D01*
X148121975Y-91343283D01*
X148240961Y-91377246D01*
X148370723Y-91419503D01*
X148526760Y-91473801D01*
X148640690Y-91519229D01*
X148723184Y-91561226D01*
X148784913Y-91605232D01*
X148836546Y-91656688D01*
X148837017Y-91657225D01*
X148888047Y-91728971D01*
X148952574Y-91839713D01*
X149024723Y-91977314D01*
X149098616Y-92129634D01*
X149168376Y-92284535D01*
X149228126Y-92429879D01*
X149271990Y-92553527D01*
X149273787Y-92559334D01*
X149312184Y-92683375D01*
X149353214Y-92814098D01*
X149380758Y-92900618D01*
X149430804Y-93056240D01*
X149229417Y-93360419D01*
X149128863Y-93512214D01*
X149049590Y-93629595D01*
X148983116Y-93722223D01*
X148920958Y-93799758D01*
X148854635Y-93871863D01*
X148775664Y-93948196D01*
X148675563Y-94038419D01*
X148545850Y-94152193D01*
X148495905Y-94195850D01*
X148380305Y-94294444D01*
X148254441Y-94397614D01*
X148126132Y-94499418D01*
X148003196Y-94593918D01*
X147893451Y-94675171D01*
X147804715Y-94737239D01*
X147744807Y-94774180D01*
X147724572Y-94781917D01*
X147702827Y-94757465D01*
X147675276Y-94693183D01*
X147647689Y-94602683D01*
X147646323Y-94597364D01*
X147616425Y-94483601D01*
X147585934Y-94373559D01*
X147564989Y-94302676D01*
X147530597Y-94192541D01*
X147889142Y-93822623D01*
X148018321Y-93690990D01*
X148150103Y-93559580D01*
X148273774Y-93438877D01*
X148378623Y-93339366D01*
X148439076Y-93284407D01*
X148518520Y-93211966D01*
X148575478Y-93154940D01*
X148602514Y-93121078D01*
X148601553Y-93115106D01*
X148572881Y-93132289D01*
X148510919Y-93180628D01*
X148422659Y-93254299D01*
X148315090Y-93347477D01*
X148205105Y-93445404D01*
X148069103Y-93566748D01*
X147929975Y-93688704D01*
X147799631Y-93800979D01*
X147689981Y-93893282D01*
X147635585Y-93937584D01*
X147433602Y-94098463D01*
X147266479Y-93952276D01*
X147179458Y-93878740D01*
X147100690Y-93816675D01*
X147044866Y-93777567D01*
X147037838Y-93773558D01*
X146988549Y-93730915D01*
X146978869Y-93685419D01*
X147011198Y-93653394D01*
X147057462Y-93625726D01*
X147137155Y-93567550D01*
X147243005Y-93484875D01*
X147367741Y-93383714D01*
X147504092Y-93270077D01*
X147644786Y-93149975D01*
X147782552Y-93029418D01*
X147910119Y-92914419D01*
X147952198Y-92875489D01*
X148180987Y-92649294D01*
X148360205Y-92443444D01*
X148490567Y-92256806D01*
X148572791Y-92088246D01*
X148607593Y-91936633D01*
X148604668Y-91843503D01*
X148562542Y-91713181D01*
X148477624Y-91606572D01*
X148347975Y-91522568D01*
X148171656Y-91460059D01*
X147946728Y-91417937D01*
X147840387Y-91406337D01*
X147651816Y-91389259D01*
X147668571Y-91549563D01*
X147683337Y-91660657D01*
X147706159Y-91778428D01*
X147739731Y-91913528D01*
X147786743Y-92076611D01*
X147849886Y-92278328D01*
X147862888Y-92318683D01*
X147901617Y-92441503D01*
X147933087Y-92547053D01*
X147953870Y-92623440D01*
X147960605Y-92657617D01*
X147942251Y-92693863D01*
X147893324Y-92753784D01*
X147823025Y-92828707D01*
X147740553Y-92909957D01*
X147655111Y-92988859D01*
X147575898Y-93056739D01*
X147512116Y-93104922D01*
X147472966Y-93124733D01*
X147466698Y-93123275D01*
X147448741Y-93080016D01*
X147429830Y-92989519D01*
X147410903Y-92859194D01*
X147392895Y-92696452D01*
X147376744Y-92508705D01*
X147363616Y-92307536D01*
X147345427Y-91979442D01*
X147297546Y-92307536D01*
X147276950Y-92481063D01*
X147260802Y-92678762D01*
X147251300Y-92870394D01*
X147249699Y-92966324D01*
X147248616Y-93113647D01*
X147243272Y-93216858D01*
X147230576Y-93286515D01*
X147207439Y-93333175D01*
X147170771Y-93367397D01*
X147123896Y-93396147D01*
X147094745Y-93384060D01*
X147050015Y-93335128D01*
X146998181Y-93261612D01*
X146947716Y-93175774D01*
X146907095Y-93089878D01*
X146900649Y-93073091D01*
X146850584Y-92907872D01*
X146804281Y-92702271D01*
X146763852Y-92470565D01*
X146731407Y-92227030D01*
X146709056Y-91985942D01*
X146698911Y-91761578D01*
X146698537Y-91706029D01*
X146706524Y-91472276D01*
X146730658Y-91280460D01*
X146773421Y-91119568D01*
X146837296Y-90978591D01*
X146877258Y-90913134D01*
X146938310Y-90819490D01*
X146996468Y-90727952D01*
X147023906Y-90683455D01*
X147080027Y-90590483D01*
X147119636Y-90669785D01*
X147148909Y-90740406D01*
X147186886Y-90848618D01*
X147228775Y-90979023D01*
X147269782Y-91116222D01*
X147305112Y-91244816D01*
X147327330Y-91336923D01*
X147341200Y-91392039D01*
X147348155Y-91399793D01*
X147348888Y-91366972D01*
X147344093Y-91300362D01*
X147334463Y-91206754D01*
X147320692Y-91092932D01*
X147303474Y-90965686D01*
X147283502Y-90831804D01*
X147262885Y-90706241D01*
X147241653Y-90578443D01*
X147226077Y-90468391D01*
X147215590Y-90364510D01*
X147209624Y-90255226D01*
X147207612Y-90128962D01*
X147208987Y-89974144D01*
X147213179Y-89779196D01*
X147214624Y-89721957D01*
X147219407Y-89490948D01*
X147219756Y-89305529D01*
X147214446Y-89156701D01*
X147202255Y-89035467D01*
X147181961Y-88932828D01*
X147152339Y-88839786D01*
X147112168Y-88747344D01*
X147071258Y-88667104D01*
X147032709Y-88588093D01*
X147008233Y-88525413D01*
X147003662Y-88503756D01*
X146990515Y-88454380D01*
X146955404Y-88371108D01*
X146904818Y-88266738D01*
X146845250Y-88154068D01*
X146783190Y-88045898D01*
X146725973Y-87956247D01*
X146684757Y-87894167D01*
X146656491Y-87840641D01*
X146637899Y-87782435D01*
X146625709Y-87706319D01*
X146616646Y-87599060D01*
X146609701Y-87486262D01*
X146607066Y-87151438D01*
X146639294Y-86846060D01*
X146705495Y-86574411D01*
X146804778Y-86340775D01*
X146869544Y-86235212D01*
X146962650Y-86101078D01*
X146970899Y-86333478D01*
G37*
G36*
X140570540Y-81066915D02*
G01*
X140554068Y-81086073D01*
X140500576Y-81129927D01*
X140418123Y-81192216D01*
X140314766Y-81266682D01*
X140300171Y-81276960D01*
X140177683Y-81363015D01*
X140057936Y-81447171D01*
X139955360Y-81519286D01*
X139889037Y-81565941D01*
X139778494Y-81649306D01*
X139639551Y-81762499D01*
X139482302Y-81896509D01*
X139316839Y-82042324D01*
X139153257Y-82190933D01*
X139001648Y-82333325D01*
X138872105Y-82460487D01*
X138786412Y-82550390D01*
X138678565Y-82673752D01*
X138565368Y-82810632D01*
X138463174Y-82940939D01*
X138411156Y-83011519D01*
X138318486Y-83139937D01*
X138212918Y-83283073D01*
X138114311Y-83414058D01*
X138095568Y-83438518D01*
X138011121Y-83553277D01*
X137928610Y-83676921D01*
X137843083Y-83817915D01*
X137749591Y-83984721D01*
X137643182Y-84185806D01*
X137537744Y-84392251D01*
X137449221Y-84579717D01*
X137384536Y-84742476D01*
X137344405Y-84876566D01*
X137329545Y-84978027D01*
X137340672Y-85042898D01*
X137378504Y-85067217D01*
X137416962Y-85059709D01*
X137466125Y-85021343D01*
X137534059Y-84940031D01*
X137616354Y-84822351D01*
X137708598Y-84674884D01*
X137806383Y-84504209D01*
X137873827Y-84378179D01*
X137985738Y-84171387D01*
X138100061Y-83978626D01*
X138222612Y-83792073D01*
X138359209Y-83603904D01*
X138515669Y-83406295D01*
X138697809Y-83191422D01*
X138911446Y-82951463D01*
X139035834Y-82815347D01*
X139117335Y-82732404D01*
X139227042Y-82629026D01*
X139359189Y-82509942D01*
X139508008Y-82379879D01*
X139667734Y-82243564D01*
X139832599Y-82105726D01*
X139996836Y-81971093D01*
X140154680Y-81844391D01*
X140300364Y-81730348D01*
X140428120Y-81633692D01*
X140532183Y-81559151D01*
X140606785Y-81511453D01*
X140645969Y-81495314D01*
X140642007Y-81512565D01*
X140600702Y-81559779D01*
X140527037Y-81632291D01*
X140425990Y-81725437D01*
X140302544Y-81834554D01*
X140161678Y-81954978D01*
X140100002Y-82006572D01*
X139932557Y-82150288D01*
X139745574Y-82318434D01*
X139548592Y-82501801D01*
X139351151Y-82691176D01*
X139162790Y-82877350D01*
X138993048Y-83051112D01*
X138851465Y-83203252D01*
X138799220Y-83262509D01*
X138685087Y-83401569D01*
X138559249Y-83565497D01*
X138438190Y-83732302D01*
X138351395Y-83859873D01*
X138278501Y-83974528D01*
X138191345Y-84116177D01*
X138094610Y-84276752D01*
X137992975Y-84448182D01*
X137891121Y-84622399D01*
X137793730Y-84791335D01*
X137705482Y-84946918D01*
X137631059Y-85081081D01*
X137575140Y-85185755D01*
X137542407Y-85252870D01*
X137540090Y-85258439D01*
X137514122Y-85359841D01*
X137496940Y-85507163D01*
X137488403Y-85692378D01*
X137488370Y-85907456D01*
X137496701Y-86144370D01*
X137513255Y-86395092D01*
X137537891Y-86651592D01*
X137568750Y-86893973D01*
X137589070Y-87011474D01*
X137620588Y-87165737D01*
X137659923Y-87342593D01*
X137703690Y-87527872D01*
X137748509Y-87707404D01*
X137790995Y-87867019D01*
X137827766Y-87992548D01*
X137839630Y-88028634D01*
X137894575Y-88167428D01*
X137971101Y-88333497D01*
X138060050Y-88508890D01*
X138152262Y-88675656D01*
X138238581Y-88815845D01*
X138249604Y-88832226D01*
X138307582Y-88922101D01*
X138335611Y-88981275D01*
X138338188Y-89021519D01*
X138329502Y-89041294D01*
X138319062Y-89075165D01*
X138333778Y-89117065D01*
X138379360Y-89178855D01*
X138416452Y-89221987D01*
X138488466Y-89309368D01*
X138547069Y-89390901D01*
X138586165Y-89456764D01*
X138599655Y-89497135D01*
X138592178Y-89505061D01*
X138564050Y-89488775D01*
X138504299Y-89445050D01*
X138423198Y-89381583D01*
X138373172Y-89341013D01*
X138247759Y-89245244D01*
X138156197Y-89192063D01*
X138097822Y-89181646D01*
X138071970Y-89214168D01*
X138077977Y-89289806D01*
X138115178Y-89408734D01*
X138115324Y-89409124D01*
X138156238Y-89536147D01*
X138169451Y-89622246D01*
X138155511Y-89665535D01*
X138114961Y-89664121D01*
X138054106Y-89621261D01*
X138015676Y-89590246D01*
X138008391Y-89601351D01*
X138018129Y-89641767D01*
X138061018Y-89804256D01*
X138094017Y-89939050D01*
X138118435Y-90057548D01*
X138135577Y-90171150D01*
X138146752Y-90291255D01*
X138153266Y-90429264D01*
X138156426Y-90596576D01*
X138157540Y-90804591D01*
X138157643Y-90858451D01*
X138157425Y-91075360D01*
X138155658Y-91246007D01*
X138151842Y-91378801D01*
X138145481Y-91482153D01*
X138136076Y-91564473D01*
X138123128Y-91634171D01*
X138108232Y-91692359D01*
X138067767Y-91873999D01*
X138053884Y-92034488D01*
X138066636Y-92164915D01*
X138104994Y-92254939D01*
X138206214Y-92347783D01*
X138357319Y-92423398D01*
X138555972Y-92480780D01*
X138685599Y-92504348D01*
X138806724Y-92522850D01*
X138912735Y-92539492D01*
X138988358Y-92551855D01*
X139011526Y-92555966D01*
X139060617Y-92589119D01*
X139114113Y-92662321D01*
X139165589Y-92762022D01*
X139208621Y-92874671D01*
X139236784Y-92986719D01*
X139243755Y-93045750D01*
X139244975Y-93130006D01*
X139233211Y-93176929D01*
X139202963Y-93203356D01*
X139190274Y-93209445D01*
X139143513Y-93235296D01*
X139134723Y-93264719D01*
X139163263Y-93313232D01*
X139184827Y-93341254D01*
X139248337Y-93395171D01*
X139342296Y-93424412D01*
X139369380Y-93428457D01*
X139485411Y-93443866D01*
X139559137Y-93460255D01*
X139602175Y-93487690D01*
X139626145Y-93536235D01*
X139642662Y-93615953D01*
X139652233Y-93673483D01*
X139673107Y-93780482D01*
X139700034Y-93852133D01*
X139743691Y-93896618D01*
X139814753Y-93922119D01*
X139923898Y-93936816D01*
X140004308Y-93943280D01*
X140154123Y-93966712D01*
X140310065Y-94018575D01*
X140392378Y-94054844D01*
X140490481Y-94102933D01*
X140568603Y-94145284D01*
X140613964Y-94174818D01*
X140619676Y-94180719D01*
X140619940Y-94211679D01*
X140582064Y-94225609D01*
X140520329Y-94221041D01*
X140452025Y-94197960D01*
X140343804Y-94159514D01*
X140262839Y-94158341D01*
X140215065Y-94194199D01*
X140209347Y-94207813D01*
X140203196Y-94278071D01*
X140212360Y-94386606D01*
X140233794Y-94520188D01*
X140264453Y-94665586D01*
X140301291Y-94809571D01*
X140341263Y-94938910D01*
X140381323Y-95040375D01*
X140413675Y-95095436D01*
X140508681Y-95172731D01*
X140651751Y-95232683D01*
X140844411Y-95275795D01*
X141029604Y-95298013D01*
X141248333Y-95316903D01*
X141138969Y-95352556D01*
X141040232Y-95375718D01*
X140917794Y-95391753D01*
X140788853Y-95399854D01*
X140670608Y-95399211D01*
X140580258Y-95389018D01*
X140551132Y-95380181D01*
X140480157Y-95349567D01*
X140393095Y-95313024D01*
X140377277Y-95306492D01*
X140295764Y-95255254D01*
X140202268Y-95169796D01*
X140109709Y-95064584D01*
X140031006Y-94954080D01*
X139984781Y-94867097D01*
X139963394Y-94798775D01*
X139939097Y-94694176D01*
X139915867Y-94571271D01*
X139906726Y-94514155D01*
X139881858Y-94380396D01*
X139849321Y-94248717D01*
X139814818Y-94141168D01*
X139802655Y-94111815D01*
X139761004Y-94028924D01*
X139721193Y-93981393D01*
X139665592Y-93953481D01*
X139606802Y-93936925D01*
X139451676Y-93877971D01*
X139343335Y-93791154D01*
X139282038Y-93676751D01*
X139267063Y-93570646D01*
X139260235Y-93498772D01*
X139233092Y-93460277D01*
X139186893Y-93439084D01*
X139109230Y-93388545D01*
X139033004Y-93300032D01*
X138967939Y-93189625D01*
X138923761Y-93073400D01*
X138909888Y-92981131D01*
X138894129Y-92865408D01*
X138853639Y-92749226D01*
X138796596Y-92649777D01*
X138731179Y-92584249D01*
X138717371Y-92576516D01*
X138660105Y-92558712D01*
X138565753Y-92539094D01*
X138451658Y-92521101D01*
X138412800Y-92516126D01*
X138235399Y-92485813D01*
X138103441Y-92440106D01*
X138008624Y-92373709D01*
X137942648Y-92281325D01*
X137907734Y-92193813D01*
X137887415Y-92125310D01*
X137877071Y-92069152D01*
X137877347Y-92010566D01*
X137888887Y-91934780D01*
X137912337Y-91827020D01*
X137926373Y-91766611D01*
X137950074Y-91657127D01*
X137967972Y-91551659D01*
X137981112Y-91438658D01*
X137990535Y-91306572D01*
X137997283Y-91143852D01*
X138002399Y-90938946D01*
X138002777Y-90919969D01*
X138005854Y-90710043D01*
X138005712Y-90551536D01*
X138002245Y-90441274D01*
X137995348Y-90376083D01*
X137984913Y-90352789D01*
X137983820Y-90352639D01*
X137959607Y-90329696D01*
X137953716Y-90296343D01*
X137942692Y-90257328D01*
X137921394Y-90260023D01*
X137871121Y-90276599D01*
X137813465Y-90284496D01*
X137761842Y-90283258D01*
X137754061Y-90262642D01*
X137767836Y-90232979D01*
X137785616Y-90196177D01*
X137774982Y-90193496D01*
X137727463Y-90223061D01*
X137726350Y-90223790D01*
X137660966Y-90262267D01*
X137636965Y-90265316D01*
X137654517Y-90233450D01*
X137709116Y-90172058D01*
X137803339Y-90073501D01*
X137707645Y-90130944D01*
X137630279Y-90171633D01*
X137581468Y-90186923D01*
X137567285Y-90178037D01*
X137593804Y-90146198D01*
X137632781Y-90115872D01*
X137699604Y-90062983D01*
X137730659Y-90027551D01*
X137724033Y-90014980D01*
X137677807Y-90030673D01*
X137659797Y-90039668D01*
X137585267Y-90072316D01*
X137546210Y-90077623D01*
X137547703Y-90058380D01*
X137594825Y-90017377D01*
X137605603Y-90009888D01*
X137667491Y-89960796D01*
X137702376Y-89919776D01*
X137705934Y-89895460D01*
X137673840Y-89896483D01*
X137659797Y-89901685D01*
X137584181Y-89928988D01*
X137547787Y-89934039D01*
X137554788Y-89917445D01*
X137590341Y-89891600D01*
X137678096Y-89835301D01*
X137627522Y-89688304D01*
X137566516Y-89528902D01*
X137503665Y-89407214D01*
X137429571Y-89306796D01*
X137378535Y-89252601D01*
X137258705Y-89105210D01*
X137153571Y-88920281D01*
X137071768Y-88714625D01*
X137037668Y-88589130D01*
X137010741Y-88470365D01*
X136975912Y-88319919D01*
X136938177Y-88159252D01*
X136910340Y-88042305D01*
X136860045Y-87813681D01*
X136823276Y-87597988D01*
X136798840Y-87381543D01*
X136785548Y-87150665D01*
X136782208Y-86891674D01*
X136786746Y-86622495D01*
X136799393Y-86254752D01*
X136816856Y-85933408D01*
X136840296Y-85650300D01*
X136870870Y-85397266D01*
X136909736Y-85166146D01*
X136958053Y-84948777D01*
X137016980Y-84736997D01*
X137082790Y-84536556D01*
X137166208Y-84311224D01*
X137252834Y-84107482D01*
X137348385Y-83915642D01*
X137458578Y-83726016D01*
X137589129Y-83528917D01*
X137745754Y-83314657D01*
X137934171Y-83073548D01*
X137979061Y-83017669D01*
X138285991Y-82664054D01*
X138606333Y-82350430D01*
X138955194Y-82062132D01*
X138992682Y-82033792D01*
X139113574Y-81943053D01*
X139235877Y-81851153D01*
X139343087Y-81770497D01*
X139402801Y-81725498D01*
X139455582Y-81686567D01*
X139512039Y-81647246D01*
X139578689Y-81603504D01*
X139662050Y-81551314D01*
X139768641Y-81486644D01*
X139904980Y-81405467D01*
X140077584Y-81303751D01*
X140223037Y-81218429D01*
X140354311Y-81145302D01*
X140460579Y-81093723D01*
X140535003Y-81066671D01*
X140570540Y-81066915D01*
G37*
D12*
X147650000Y-69900000D02*
X149250000Y-68300000D01*
X147650000Y-71050000D02*
X147650000Y-69900000D01*
X147650000Y-72950000D02*
X147650000Y-76050000D01*
X147650000Y-77950000D02*
X147650000Y-79100000D01*
X147650000Y-79100000D02*
X149250000Y-80700000D01*
X149250000Y-68300000D02*
X158450000Y-68300000D01*
X149250000Y-80700000D02*
X158450000Y-80700000D01*
X158450000Y-68300000D02*
X160050000Y-69900000D01*
X158450000Y-80700000D02*
X160050000Y-79100000D01*
X160050000Y-71050000D02*
X160050000Y-69900000D01*
X160050000Y-72950000D02*
X160050000Y-76050000D01*
X160050000Y-77950000D02*
X160050000Y-79100000D01*
X165650000Y-84900000D02*
X167250000Y-83300000D01*
X165650000Y-86050000D02*
X165650000Y-84900000D01*
X165650000Y-87950000D02*
X165650000Y-91050000D01*
X165650000Y-92950000D02*
X165650000Y-94100000D01*
X165650000Y-94100000D02*
X167250000Y-95700000D01*
X167250000Y-83300000D02*
X176450000Y-83300000D01*
X167250000Y-95700000D02*
X176450000Y-95700000D01*
X176450000Y-83300000D02*
X178050000Y-84900000D01*
X176450000Y-95700000D02*
X178050000Y-94100000D01*
X178050000Y-86050000D02*
X178050000Y-84900000D01*
X178050000Y-87950000D02*
X178050000Y-91050000D01*
X178050000Y-92950000D02*
X178050000Y-94100000D01*
D15*
G36*
X174005822Y-42281281D02*
G01*
X174047429Y-42396664D01*
X174048178Y-42429351D01*
X174018874Y-42564370D01*
X173903491Y-42605977D01*
X173870804Y-42606726D01*
X173735786Y-42577422D01*
X173694179Y-42462039D01*
X173693430Y-42429351D01*
X173722734Y-42294333D01*
X173838117Y-42252726D01*
X173870804Y-42251977D01*
X174005822Y-42281281D01*
G37*
G36*
X175424817Y-42281281D02*
G01*
X175466424Y-42396664D01*
X175467173Y-42429351D01*
X175437869Y-42564370D01*
X175322486Y-42605977D01*
X175289799Y-42606726D01*
X175154780Y-42577422D01*
X175113173Y-42462039D01*
X175112424Y-42429351D01*
X175141728Y-42294333D01*
X175257111Y-42252726D01*
X175289799Y-42251977D01*
X175424817Y-42281281D01*
G37*
G36*
X174757676Y-41897228D02*
G01*
X174751925Y-42107768D01*
X174722576Y-42212802D01*
X174651486Y-42248617D01*
X174580301Y-42251977D01*
X174445283Y-42222673D01*
X174403676Y-42107290D01*
X174402927Y-42074603D01*
X174391425Y-41969333D01*
X174332728Y-41916816D01*
X174190547Y-41898909D01*
X174048178Y-41897228D01*
X173837639Y-41891478D01*
X173732605Y-41862129D01*
X173696790Y-41791039D01*
X173693430Y-41719854D01*
X173700061Y-41629634D01*
X173739883Y-41576749D01*
X173842783Y-41551236D01*
X174038653Y-41543132D01*
X174225553Y-41542480D01*
X174757676Y-41542480D01*
X174757676Y-41897228D01*
G37*
G36*
X176176670Y-42074603D02*
G01*
X176174460Y-42345263D01*
X176161186Y-42503917D01*
X176126886Y-42580456D01*
X176061596Y-42604770D01*
X175999296Y-42606726D01*
X175894026Y-42595224D01*
X175841509Y-42536527D01*
X175823602Y-42394346D01*
X175821922Y-42251977D01*
X175821922Y-41897228D01*
X175467173Y-41897228D01*
X175256633Y-41891478D01*
X175151600Y-41862129D01*
X175115785Y-41791039D01*
X175112424Y-41719854D01*
X175119056Y-41629634D01*
X175158877Y-41576749D01*
X175261778Y-41551236D01*
X175457648Y-41543132D01*
X175644547Y-41542480D01*
X176176670Y-41542480D01*
X176176670Y-42074603D01*
G37*
G36*
X177950413Y-40478234D02*
G01*
X177944662Y-40688774D01*
X177915314Y-40793807D01*
X177844223Y-40829622D01*
X177773039Y-40832983D01*
X177667769Y-40844484D01*
X177615252Y-40903181D01*
X177597345Y-41045362D01*
X177595665Y-41187731D01*
X177589914Y-41398271D01*
X177560565Y-41503304D01*
X177489475Y-41539119D01*
X177418290Y-41542480D01*
X177313020Y-41553982D01*
X177260504Y-41612679D01*
X177242596Y-41754860D01*
X177240916Y-41897228D01*
X177246667Y-42107768D01*
X177276015Y-42212802D01*
X177347106Y-42248617D01*
X177418290Y-42251977D01*
X177508510Y-42258609D01*
X177561395Y-42298430D01*
X177586908Y-42401331D01*
X177595012Y-42597201D01*
X177595665Y-42784100D01*
X177597875Y-43054760D01*
X177611149Y-43213415D01*
X177645449Y-43289954D01*
X177710739Y-43314267D01*
X177773039Y-43316223D01*
X177908057Y-43345527D01*
X177949664Y-43460910D01*
X177950413Y-43493597D01*
X177979717Y-43628615D01*
X178095100Y-43670222D01*
X178127787Y-43670972D01*
X178218007Y-43677603D01*
X178270892Y-43717424D01*
X178296405Y-43820325D01*
X178304510Y-44016195D01*
X178305162Y-44203094D01*
X178307372Y-44473754D01*
X178320646Y-44632409D01*
X178354946Y-44708948D01*
X178420236Y-44733261D01*
X178482536Y-44735217D01*
X178659910Y-44735217D01*
X178659910Y-45799463D01*
X178659910Y-46863709D01*
X178482536Y-46863709D01*
X178305162Y-46863709D01*
X178305162Y-45799463D01*
X178305162Y-44735217D01*
X178127787Y-44735217D01*
X178022518Y-44723716D01*
X177970001Y-44665018D01*
X177952093Y-44522838D01*
X177950413Y-44380469D01*
X177944662Y-44169929D01*
X177915314Y-44064896D01*
X177844223Y-44029081D01*
X177773039Y-44025720D01*
X177638021Y-43996416D01*
X177596414Y-43881033D01*
X177595665Y-43848346D01*
X177566361Y-43713328D01*
X177450978Y-43671721D01*
X177418290Y-43670972D01*
X177283272Y-43641667D01*
X177241665Y-43526285D01*
X177240916Y-43493597D01*
X177229414Y-43388327D01*
X177170717Y-43335811D01*
X177028536Y-43317903D01*
X176886167Y-43316223D01*
X176675628Y-43321974D01*
X176570594Y-43351322D01*
X176534779Y-43422413D01*
X176531419Y-43493597D01*
X176502115Y-43628615D01*
X176386732Y-43670222D01*
X176354044Y-43670972D01*
X176263824Y-43677603D01*
X176210940Y-43717424D01*
X176185427Y-43820325D01*
X176177322Y-44016195D01*
X176176670Y-44203094D01*
X176174460Y-44473754D01*
X176161186Y-44632409D01*
X176126886Y-44708948D01*
X176061596Y-44733261D01*
X175999296Y-44735217D01*
X175864278Y-44764521D01*
X175822671Y-44879904D01*
X175821922Y-44912592D01*
X175821922Y-45089966D01*
X174757676Y-45089966D01*
X173693430Y-45089966D01*
X173693430Y-44912592D01*
X173664126Y-44777573D01*
X173548743Y-44735966D01*
X173516056Y-44735217D01*
X173410786Y-44723716D01*
X173358269Y-44665018D01*
X173340362Y-44522838D01*
X173338681Y-44380469D01*
X173333836Y-44203094D01*
X174402927Y-44203094D01*
X174432231Y-44338113D01*
X174547614Y-44379720D01*
X174580301Y-44380469D01*
X174715320Y-44351165D01*
X174756927Y-44235782D01*
X174757676Y-44203094D01*
X174728372Y-44068076D01*
X174612989Y-44026469D01*
X174580301Y-44025720D01*
X174445283Y-44055024D01*
X174403676Y-44170407D01*
X174402927Y-44203094D01*
X173333836Y-44203094D01*
X173332930Y-44169929D01*
X173303582Y-44064896D01*
X173232491Y-44029081D01*
X173161307Y-44025720D01*
X173026289Y-44055024D01*
X172984682Y-44170407D01*
X172983933Y-44203094D01*
X172954629Y-44338113D01*
X172839246Y-44379720D01*
X172806558Y-44380469D01*
X172671540Y-44409773D01*
X172629933Y-44525156D01*
X172629184Y-44557843D01*
X172599880Y-44692861D01*
X172484497Y-44734468D01*
X172451810Y-44735217D01*
X172274435Y-44735217D01*
X172274435Y-45799463D01*
X172274435Y-46863709D01*
X172097061Y-46863709D01*
X171919687Y-46863709D01*
X171919687Y-45622089D01*
X171919687Y-44380469D01*
X172097061Y-44380469D01*
X172232079Y-44351165D01*
X172273686Y-44235782D01*
X172274435Y-44203094D01*
X172303739Y-44068076D01*
X172419122Y-44026469D01*
X172451810Y-44025720D01*
X172586828Y-43996416D01*
X172628435Y-43881033D01*
X172629184Y-43848346D01*
X172658488Y-43713328D01*
X172773871Y-43671721D01*
X172806558Y-43670972D01*
X172983933Y-43670972D01*
X172983933Y-41897228D01*
X172983933Y-41365106D01*
X173338681Y-41365106D01*
X173340892Y-41635766D01*
X173354166Y-41794420D01*
X173388466Y-41870959D01*
X173453756Y-41895272D01*
X173516056Y-41897228D01*
X173651074Y-41926532D01*
X173692681Y-42041915D01*
X173693430Y-42074603D01*
X173664126Y-42209621D01*
X173548743Y-42251228D01*
X173516056Y-42251977D01*
X173425836Y-42258609D01*
X173372951Y-42298430D01*
X173347438Y-42401331D01*
X173339333Y-42597201D01*
X173338681Y-42784100D01*
X173338681Y-43316223D01*
X174757676Y-43316223D01*
X176176670Y-43316223D01*
X176176670Y-43138849D01*
X176188172Y-43033579D01*
X176246869Y-42981062D01*
X176389050Y-42963155D01*
X176531419Y-42961474D01*
X176886167Y-42961474D01*
X176886167Y-42606726D01*
X176880416Y-42396186D01*
X176851068Y-42291153D01*
X176779977Y-42255338D01*
X176708793Y-42251977D01*
X176531419Y-42251977D01*
X176531419Y-41542480D01*
X176531419Y-40832983D01*
X176708793Y-40832983D01*
X176843811Y-40803679D01*
X176885418Y-40688296D01*
X176886167Y-40655608D01*
X176886167Y-40478234D01*
X175644547Y-40478234D01*
X174402927Y-40478234D01*
X174402927Y-40655608D01*
X174396296Y-40745828D01*
X174356474Y-40798713D01*
X174253574Y-40824226D01*
X174057704Y-40832331D01*
X173870804Y-40832983D01*
X173338681Y-40832983D01*
X173338681Y-41365106D01*
X172983933Y-41365106D01*
X172983933Y-40832983D01*
X172983933Y-40123485D01*
X175467173Y-40123485D01*
X177950413Y-40123485D01*
X177950413Y-40478234D01*
G37*
D10*
X145730000Y-57000000D02*
G75*
G02*
X145630000Y-57000000I-50000J0D01*
G01*
X145630000Y-57000000D02*
G75*
G02*
X145730000Y-57000000I50000J0D01*
G01*
D12*
X183900000Y-69900000D02*
X185500000Y-68300000D01*
X183900000Y-71050000D02*
X183900000Y-69900000D01*
X183900000Y-72950000D02*
X183900000Y-76050000D01*
X183900000Y-77950000D02*
X183900000Y-79100000D01*
X183900000Y-79100000D02*
X185500000Y-80700000D01*
X185500000Y-68300000D02*
X194700000Y-68300000D01*
X185500000Y-80700000D02*
X194700000Y-80700000D01*
X194700000Y-68300000D02*
X196300000Y-69900000D01*
X194700000Y-80700000D02*
X196300000Y-79100000D01*
X196300000Y-71050000D02*
X196300000Y-69900000D01*
X196300000Y-72950000D02*
X196300000Y-76050000D01*
X196300000Y-77950000D02*
X196300000Y-79100000D01*
X124150000Y-81590000D02*
X124150000Y-82850000D01*
X124150000Y-88410000D02*
X124150000Y-87150000D01*
X127910000Y-81590000D02*
X124150000Y-81590000D01*
X127910000Y-88410000D02*
X124150000Y-88410000D01*
X129430000Y-88640000D02*
X128950000Y-88640000D01*
X129190000Y-88310000D01*
X129430000Y-88640000D01*
G36*
X129430000Y-88640000D02*
G01*
X128950000Y-88640000D01*
X129190000Y-88310000D01*
X129430000Y-88640000D01*
G37*
M02*
