%TF.GenerationSoftware,KiCad,Pcbnew,9.0.3*%
%TF.CreationDate,2025-11-18T14:16:47+09:00*%
%TF.ProjectId,SpeedJeck,53706565-644a-4656-936b-2e6b69636164,1*%
%TF.SameCoordinates,Original*%
%TF.FileFunction,Drillmap*%
%TF.FilePolarity,Positive*%
%FSLAX45Y45*%
G04 Gerber Fmt 4.5, Leading zero omitted, Abs format (unit mm)*
G04 Created by KiCad (PCBNEW 9.0.3) date 2025-11-18 14:16:47*
%MOMM*%
%LPD*%
G01*
G04 APERTURE LIST*
%ADD10C,0.050000*%
%ADD11C,0.200000*%
%ADD12C,0.100000*%
%ADD13C,0.230000*%
G04 APERTURE END LIST*
D10*
X19900000Y-9500000D02*
G75*
G02*
X19600000Y-9800000I-300000J0D01*
G01*
X10500000Y-4300000D02*
X10500000Y-9500000D01*
X10800000Y-9800000D02*
G75*
G02*
X10500000Y-9500000I0J300000D01*
G01*
X19600000Y-4000000D02*
G75*
G02*
X19900000Y-4300000I0J-300000D01*
G01*
X19900000Y-4300000D02*
X19900000Y-9500000D01*
X10500000Y-4300000D02*
G75*
G02*
X10800000Y-4000000I300000J0D01*
G01*
X19600000Y-9800000D02*
X10800000Y-9800000D01*
X10800000Y-4000000D02*
X19600000Y-4000000D01*
D11*
D12*
X12040000Y-8840000D02*
X12070000Y-8870000D01*
X12070000Y-8840000D02*
X12040000Y-8870000D01*
X13175000Y-8485000D02*
X13205000Y-8515000D01*
X13205000Y-8485000D02*
X13175000Y-8515000D01*
X13175000Y-8715000D02*
X13205000Y-8745000D01*
X13205000Y-8715000D02*
X13175000Y-8745000D01*
X16085000Y-7900000D02*
X16115000Y-7930000D01*
X16115000Y-7900000D02*
X16085000Y-7930000D01*
X16085000Y-8480000D02*
X16115000Y-8510000D01*
X16115000Y-8480000D02*
X16085000Y-8510000D01*
X16085000Y-9400000D02*
X16115000Y-9430000D01*
X16115000Y-9400000D02*
X16085000Y-9430000D01*
X16698200Y-5185000D02*
X16728200Y-5215000D01*
X16728200Y-5185000D02*
X16698200Y-5215000D01*
X16698200Y-6600000D02*
X16728200Y-6630000D01*
X16728200Y-6600000D02*
X16698200Y-6630000D01*
X17885000Y-7895000D02*
X17915000Y-7925000D01*
X17915000Y-7895000D02*
X17885000Y-7925000D01*
X17885000Y-8485000D02*
X17915000Y-8515000D01*
X17915000Y-8485000D02*
X17885000Y-8515000D01*
X17885000Y-9400000D02*
X17915000Y-9430000D01*
X17915000Y-9400000D02*
X17885000Y-9430000D01*
X18220000Y-6595000D02*
X18250000Y-6625000D01*
X18250000Y-6595000D02*
X18220000Y-6625000D01*
X18285000Y-8485000D02*
X18315000Y-8515000D01*
X18315000Y-8485000D02*
X18285000Y-8515000D01*
X18475000Y-6595000D02*
X18505000Y-6625000D01*
X18505000Y-6595000D02*
X18475000Y-6625000D01*
X18730000Y-6595000D02*
X18760000Y-6625000D01*
X18760000Y-6595000D02*
X18730000Y-6625000D01*
X19710000Y-7880000D02*
X19740000Y-7910000D01*
X19740000Y-7880000D02*
X19710000Y-7910000D01*
X19715000Y-9375000D02*
X19745000Y-9405000D01*
X19745000Y-9375000D02*
X19715000Y-9405000D01*
X12069000Y-4345000D02*
G75*
G02*
X11969000Y-4345000I-50000J0D01*
G01*
X11969000Y-4345000D02*
G75*
G02*
X12069000Y-4345000I50000J0D01*
G01*
X12323000Y-4345000D02*
G75*
G02*
X12223000Y-4345000I-50000J0D01*
G01*
X12223000Y-4345000D02*
G75*
G02*
X12323000Y-4345000I50000J0D01*
G01*
X12577000Y-4345000D02*
G75*
G02*
X12477000Y-4345000I-50000J0D01*
G01*
X12477000Y-4345000D02*
G75*
G02*
X12577000Y-4345000I50000J0D01*
G01*
X12831000Y-4345000D02*
G75*
G02*
X12731000Y-4345000I-50000J0D01*
G01*
X12731000Y-4345000D02*
G75*
G02*
X12831000Y-4345000I50000J0D01*
G01*
X14950000Y-4400000D02*
G75*
G02*
X14850000Y-4400000I-50000J0D01*
G01*
X14850000Y-4400000D02*
G75*
G02*
X14950000Y-4400000I50000J0D01*
G01*
X14950000Y-5050000D02*
G75*
G02*
X14850000Y-5050000I-50000J0D01*
G01*
X14850000Y-5050000D02*
G75*
G02*
X14950000Y-5050000I50000J0D01*
G01*
X16001200Y-4851400D02*
G75*
G02*
X15901200Y-4851400I-50000J0D01*
G01*
X15901200Y-4851400D02*
G75*
G02*
X16001200Y-4851400I50000J0D01*
G01*
X16001200Y-6375400D02*
G75*
G02*
X15901200Y-6375400I-50000J0D01*
G01*
X15901200Y-6375400D02*
G75*
G02*
X16001200Y-6375400I50000J0D01*
G01*
X16255200Y-4851400D02*
G75*
G02*
X16155200Y-4851400I-50000J0D01*
G01*
X16155200Y-4851400D02*
G75*
G02*
X16255200Y-4851400I50000J0D01*
G01*
X16255200Y-6375400D02*
G75*
G02*
X16155200Y-6375400I-50000J0D01*
G01*
X16155200Y-6375400D02*
G75*
G02*
X16255200Y-6375400I50000J0D01*
G01*
X16509200Y-4851400D02*
G75*
G02*
X16409200Y-4851400I-50000J0D01*
G01*
X16409200Y-4851400D02*
G75*
G02*
X16509200Y-4851400I50000J0D01*
G01*
X16509200Y-6375400D02*
G75*
G02*
X16409200Y-6375400I-50000J0D01*
G01*
X16409200Y-6375400D02*
G75*
G02*
X16509200Y-6375400I50000J0D01*
G01*
X16763200Y-4851400D02*
G75*
G02*
X16663200Y-4851400I-50000J0D01*
G01*
X16663200Y-4851400D02*
G75*
G02*
X16763200Y-4851400I50000J0D01*
G01*
X16763200Y-6375400D02*
G75*
G02*
X16663200Y-6375400I-50000J0D01*
G01*
X16663200Y-6375400D02*
G75*
G02*
X16763200Y-6375400I50000J0D01*
G01*
X17017200Y-4851400D02*
G75*
G02*
X16917200Y-4851400I-50000J0D01*
G01*
X16917200Y-4851400D02*
G75*
G02*
X17017200Y-4851400I50000J0D01*
G01*
X17017200Y-6375400D02*
G75*
G02*
X16917200Y-6375400I-50000J0D01*
G01*
X16917200Y-6375400D02*
G75*
G02*
X17017200Y-6375400I50000J0D01*
G01*
X17271200Y-4851400D02*
G75*
G02*
X17171200Y-4851400I-50000J0D01*
G01*
X17171200Y-4851400D02*
G75*
G02*
X17271200Y-4851400I50000J0D01*
G01*
X17271200Y-6375400D02*
G75*
G02*
X17171200Y-6375400I-50000J0D01*
G01*
X17171200Y-6375400D02*
G75*
G02*
X17271200Y-6375400I50000J0D01*
G01*
X17525200Y-4851400D02*
G75*
G02*
X17425200Y-4851400I-50000J0D01*
G01*
X17425200Y-4851400D02*
G75*
G02*
X17525200Y-4851400I50000J0D01*
G01*
X17525200Y-6375400D02*
G75*
G02*
X17425200Y-6375400I-50000J0D01*
G01*
X17425200Y-6375400D02*
G75*
G02*
X17525200Y-6375400I50000J0D01*
G01*
X17779200Y-4851400D02*
G75*
G02*
X17679200Y-4851400I-50000J0D01*
G01*
X17679200Y-4851400D02*
G75*
G02*
X17779200Y-4851400I50000J0D01*
G01*
X17779200Y-6375400D02*
G75*
G02*
X17679200Y-6375400I-50000J0D01*
G01*
X17679200Y-6375400D02*
G75*
G02*
X17779200Y-6375400I50000J0D01*
G01*
X18033200Y-4851400D02*
G75*
G02*
X17933200Y-4851400I-50000J0D01*
G01*
X17933200Y-4851400D02*
G75*
G02*
X18033200Y-4851400I50000J0D01*
G01*
X18033200Y-6375400D02*
G75*
G02*
X17933200Y-6375400I-50000J0D01*
G01*
X17933200Y-6375400D02*
G75*
G02*
X18033200Y-6375400I50000J0D01*
G01*
X18287200Y-4851400D02*
G75*
G02*
X18187200Y-4851400I-50000J0D01*
G01*
X18187200Y-4851400D02*
G75*
G02*
X18287200Y-4851400I50000J0D01*
G01*
X18287200Y-6375400D02*
G75*
G02*
X18187200Y-6375400I-50000J0D01*
G01*
X18187200Y-6375400D02*
G75*
G02*
X18287200Y-6375400I50000J0D01*
G01*
X18541200Y-4851400D02*
G75*
G02*
X18441200Y-4851400I-50000J0D01*
G01*
X18441200Y-4851400D02*
G75*
G02*
X18541200Y-4851400I50000J0D01*
G01*
X18541200Y-6375400D02*
G75*
G02*
X18441200Y-6375400I-50000J0D01*
G01*
X18441200Y-6375400D02*
G75*
G02*
X18541200Y-6375400I50000J0D01*
G01*
X18795200Y-4851400D02*
G75*
G02*
X18695200Y-4851400I-50000J0D01*
G01*
X18695200Y-4851400D02*
G75*
G02*
X18795200Y-4851400I50000J0D01*
G01*
X18795200Y-6375400D02*
G75*
G02*
X18695200Y-6375400I-50000J0D01*
G01*
X18695200Y-6375400D02*
G75*
G02*
X18795200Y-6375400I50000J0D01*
G01*
X19049200Y-4851400D02*
G75*
G02*
X18949200Y-4851400I-50000J0D01*
G01*
X18949200Y-4851400D02*
G75*
G02*
X19049200Y-4851400I50000J0D01*
G01*
X19049200Y-6375400D02*
G75*
G02*
X18949200Y-6375400I-50000J0D01*
G01*
X18949200Y-6375400D02*
G75*
G02*
X19049200Y-6375400I50000J0D01*
G01*
X19303200Y-4851400D02*
G75*
G02*
X19203200Y-4851400I-50000J0D01*
G01*
X19203200Y-4851400D02*
G75*
G02*
X19303200Y-4851400I50000J0D01*
G01*
X19303200Y-6375400D02*
G75*
G02*
X19203200Y-6375400I-50000J0D01*
G01*
X19203200Y-6375400D02*
G75*
G02*
X19303200Y-6375400I50000J0D01*
G01*
X19557200Y-4851400D02*
G75*
G02*
X19457200Y-4851400I-50000J0D01*
G01*
X19457200Y-4851400D02*
G75*
G02*
X19557200Y-4851400I50000J0D01*
G01*
X19557200Y-6375400D02*
G75*
G02*
X19457200Y-6375400I-50000J0D01*
G01*
X19457200Y-6375400D02*
G75*
G02*
X19557200Y-6375400I50000J0D01*
G01*
D13*
X11379200Y-7733600D02*
X11379200Y-7963600D01*
X11264200Y-7848600D02*
X11494200Y-7848600D01*
X11379200Y-9047600D02*
X11379200Y-9277600D01*
X11264200Y-9162600D02*
X11494200Y-9162600D01*
D11*
X10758277Y-10113984D02*
X10758277Y-9913984D01*
X10758277Y-9913984D02*
X10805896Y-9913984D01*
X10805896Y-9913984D02*
X10834467Y-9923508D01*
X10834467Y-9923508D02*
X10853515Y-9942555D01*
X10853515Y-9942555D02*
X10863039Y-9961603D01*
X10863039Y-9961603D02*
X10872562Y-9999698D01*
X10872562Y-9999698D02*
X10872562Y-10028270D01*
X10872562Y-10028270D02*
X10863039Y-10066365D01*
X10863039Y-10066365D02*
X10853515Y-10085412D01*
X10853515Y-10085412D02*
X10834467Y-10104460D01*
X10834467Y-10104460D02*
X10805896Y-10113984D01*
X10805896Y-10113984D02*
X10758277Y-10113984D01*
X10958277Y-10113984D02*
X10958277Y-9980650D01*
X10958277Y-10018746D02*
X10967801Y-9999698D01*
X10967801Y-9999698D02*
X10977324Y-9990174D01*
X10977324Y-9990174D02*
X10996372Y-9980650D01*
X10996372Y-9980650D02*
X11015420Y-9980650D01*
X11082086Y-10113984D02*
X11082086Y-9980650D01*
X11082086Y-9913984D02*
X11072562Y-9923508D01*
X11072562Y-9923508D02*
X11082086Y-9933031D01*
X11082086Y-9933031D02*
X11091610Y-9923508D01*
X11091610Y-9923508D02*
X11082086Y-9913984D01*
X11082086Y-9913984D02*
X11082086Y-9933031D01*
X11205896Y-10113984D02*
X11186848Y-10104460D01*
X11186848Y-10104460D02*
X11177324Y-10085412D01*
X11177324Y-10085412D02*
X11177324Y-9913984D01*
X11310658Y-10113984D02*
X11291610Y-10104460D01*
X11291610Y-10104460D02*
X11282086Y-10085412D01*
X11282086Y-10085412D02*
X11282086Y-9913984D01*
X11539229Y-10113984D02*
X11539229Y-9913984D01*
X11539229Y-9913984D02*
X11605896Y-10056841D01*
X11605896Y-10056841D02*
X11672562Y-9913984D01*
X11672562Y-9913984D02*
X11672562Y-10113984D01*
X11853515Y-10113984D02*
X11853515Y-10009222D01*
X11853515Y-10009222D02*
X11843991Y-9990174D01*
X11843991Y-9990174D02*
X11824943Y-9980650D01*
X11824943Y-9980650D02*
X11786848Y-9980650D01*
X11786848Y-9980650D02*
X11767800Y-9990174D01*
X11853515Y-10104460D02*
X11834467Y-10113984D01*
X11834467Y-10113984D02*
X11786848Y-10113984D01*
X11786848Y-10113984D02*
X11767800Y-10104460D01*
X11767800Y-10104460D02*
X11758277Y-10085412D01*
X11758277Y-10085412D02*
X11758277Y-10066365D01*
X11758277Y-10066365D02*
X11767800Y-10047317D01*
X11767800Y-10047317D02*
X11786848Y-10037793D01*
X11786848Y-10037793D02*
X11834467Y-10037793D01*
X11834467Y-10037793D02*
X11853515Y-10028270D01*
X11948753Y-9980650D02*
X11948753Y-10180650D01*
X11948753Y-9990174D02*
X11967800Y-9980650D01*
X11967800Y-9980650D02*
X12005896Y-9980650D01*
X12005896Y-9980650D02*
X12024943Y-9990174D01*
X12024943Y-9990174D02*
X12034467Y-9999698D01*
X12034467Y-9999698D02*
X12043991Y-10018746D01*
X12043991Y-10018746D02*
X12043991Y-10075889D01*
X12043991Y-10075889D02*
X12034467Y-10094936D01*
X12034467Y-10094936D02*
X12024943Y-10104460D01*
X12024943Y-10104460D02*
X12005896Y-10113984D01*
X12005896Y-10113984D02*
X11967800Y-10113984D01*
X11967800Y-10113984D02*
X11948753Y-10104460D01*
X12129705Y-10094936D02*
X12139229Y-10104460D01*
X12139229Y-10104460D02*
X12129705Y-10113984D01*
X12129705Y-10113984D02*
X12120181Y-10104460D01*
X12120181Y-10104460D02*
X12129705Y-10094936D01*
X12129705Y-10094936D02*
X12129705Y-10113984D01*
X12129705Y-9990174D02*
X12139229Y-9999698D01*
X12139229Y-9999698D02*
X12129705Y-10009222D01*
X12129705Y-10009222D02*
X12120181Y-9999698D01*
X12120181Y-9999698D02*
X12129705Y-9990174D01*
X12129705Y-9990174D02*
X12129705Y-10009222D01*
D12*
X10467500Y-10427500D02*
X10497500Y-10457500D01*
X10497500Y-10427500D02*
X10467500Y-10457500D01*
D11*
X10796372Y-10333984D02*
X10815420Y-10333984D01*
X10815420Y-10333984D02*
X10834467Y-10343508D01*
X10834467Y-10343508D02*
X10843991Y-10353031D01*
X10843991Y-10353031D02*
X10853515Y-10372079D01*
X10853515Y-10372079D02*
X10863039Y-10410174D01*
X10863039Y-10410174D02*
X10863039Y-10457793D01*
X10863039Y-10457793D02*
X10853515Y-10495889D01*
X10853515Y-10495889D02*
X10843991Y-10514936D01*
X10843991Y-10514936D02*
X10834467Y-10524460D01*
X10834467Y-10524460D02*
X10815420Y-10533984D01*
X10815420Y-10533984D02*
X10796372Y-10533984D01*
X10796372Y-10533984D02*
X10777324Y-10524460D01*
X10777324Y-10524460D02*
X10767801Y-10514936D01*
X10767801Y-10514936D02*
X10758277Y-10495889D01*
X10758277Y-10495889D02*
X10748753Y-10457793D01*
X10748753Y-10457793D02*
X10748753Y-10410174D01*
X10748753Y-10410174D02*
X10758277Y-10372079D01*
X10758277Y-10372079D02*
X10767801Y-10353031D01*
X10767801Y-10353031D02*
X10777324Y-10343508D01*
X10777324Y-10343508D02*
X10796372Y-10333984D01*
X10948753Y-10514936D02*
X10958277Y-10524460D01*
X10958277Y-10524460D02*
X10948753Y-10533984D01*
X10948753Y-10533984D02*
X10939229Y-10524460D01*
X10939229Y-10524460D02*
X10948753Y-10514936D01*
X10948753Y-10514936D02*
X10948753Y-10533984D01*
X11024943Y-10333984D02*
X11148753Y-10333984D01*
X11148753Y-10333984D02*
X11082086Y-10410174D01*
X11082086Y-10410174D02*
X11110658Y-10410174D01*
X11110658Y-10410174D02*
X11129705Y-10419698D01*
X11129705Y-10419698D02*
X11139229Y-10429222D01*
X11139229Y-10429222D02*
X11148753Y-10448270D01*
X11148753Y-10448270D02*
X11148753Y-10495889D01*
X11148753Y-10495889D02*
X11139229Y-10514936D01*
X11139229Y-10514936D02*
X11129705Y-10524460D01*
X11129705Y-10524460D02*
X11110658Y-10533984D01*
X11110658Y-10533984D02*
X11053515Y-10533984D01*
X11053515Y-10533984D02*
X11034467Y-10524460D01*
X11034467Y-10524460D02*
X11024943Y-10514936D01*
X11272562Y-10333984D02*
X11291610Y-10333984D01*
X11291610Y-10333984D02*
X11310658Y-10343508D01*
X11310658Y-10343508D02*
X11320181Y-10353031D01*
X11320181Y-10353031D02*
X11329705Y-10372079D01*
X11329705Y-10372079D02*
X11339229Y-10410174D01*
X11339229Y-10410174D02*
X11339229Y-10457793D01*
X11339229Y-10457793D02*
X11329705Y-10495889D01*
X11329705Y-10495889D02*
X11320181Y-10514936D01*
X11320181Y-10514936D02*
X11310658Y-10524460D01*
X11310658Y-10524460D02*
X11291610Y-10533984D01*
X11291610Y-10533984D02*
X11272562Y-10533984D01*
X11272562Y-10533984D02*
X11253515Y-10524460D01*
X11253515Y-10524460D02*
X11243991Y-10514936D01*
X11243991Y-10514936D02*
X11234467Y-10495889D01*
X11234467Y-10495889D02*
X11224943Y-10457793D01*
X11224943Y-10457793D02*
X11224943Y-10410174D01*
X11224943Y-10410174D02*
X11234467Y-10372079D01*
X11234467Y-10372079D02*
X11243991Y-10353031D01*
X11243991Y-10353031D02*
X11253515Y-10343508D01*
X11253515Y-10343508D02*
X11272562Y-10333984D01*
X11463039Y-10333984D02*
X11482086Y-10333984D01*
X11482086Y-10333984D02*
X11501134Y-10343508D01*
X11501134Y-10343508D02*
X11510658Y-10353031D01*
X11510658Y-10353031D02*
X11520181Y-10372079D01*
X11520181Y-10372079D02*
X11529705Y-10410174D01*
X11529705Y-10410174D02*
X11529705Y-10457793D01*
X11529705Y-10457793D02*
X11520181Y-10495889D01*
X11520181Y-10495889D02*
X11510658Y-10514936D01*
X11510658Y-10514936D02*
X11501134Y-10524460D01*
X11501134Y-10524460D02*
X11482086Y-10533984D01*
X11482086Y-10533984D02*
X11463039Y-10533984D01*
X11463039Y-10533984D02*
X11443991Y-10524460D01*
X11443991Y-10524460D02*
X11434467Y-10514936D01*
X11434467Y-10514936D02*
X11424943Y-10495889D01*
X11424943Y-10495889D02*
X11415420Y-10457793D01*
X11415420Y-10457793D02*
X11415420Y-10410174D01*
X11415420Y-10410174D02*
X11424943Y-10372079D01*
X11424943Y-10372079D02*
X11434467Y-10353031D01*
X11434467Y-10353031D02*
X11443991Y-10343508D01*
X11443991Y-10343508D02*
X11463039Y-10333984D01*
X11615420Y-10533984D02*
X11615420Y-10400650D01*
X11615420Y-10419698D02*
X11624943Y-10410174D01*
X11624943Y-10410174D02*
X11643991Y-10400650D01*
X11643991Y-10400650D02*
X11672562Y-10400650D01*
X11672562Y-10400650D02*
X11691610Y-10410174D01*
X11691610Y-10410174D02*
X11701134Y-10429222D01*
X11701134Y-10429222D02*
X11701134Y-10533984D01*
X11701134Y-10429222D02*
X11710658Y-10410174D01*
X11710658Y-10410174D02*
X11729705Y-10400650D01*
X11729705Y-10400650D02*
X11758277Y-10400650D01*
X11758277Y-10400650D02*
X11777324Y-10410174D01*
X11777324Y-10410174D02*
X11786848Y-10429222D01*
X11786848Y-10429222D02*
X11786848Y-10533984D01*
X11882086Y-10533984D02*
X11882086Y-10400650D01*
X11882086Y-10419698D02*
X11891610Y-10410174D01*
X11891610Y-10410174D02*
X11910658Y-10400650D01*
X11910658Y-10400650D02*
X11939229Y-10400650D01*
X11939229Y-10400650D02*
X11958277Y-10410174D01*
X11958277Y-10410174D02*
X11967801Y-10429222D01*
X11967801Y-10429222D02*
X11967801Y-10533984D01*
X11967801Y-10429222D02*
X11977324Y-10410174D01*
X11977324Y-10410174D02*
X11996372Y-10400650D01*
X11996372Y-10400650D02*
X12024943Y-10400650D01*
X12024943Y-10400650D02*
X12043991Y-10410174D01*
X12043991Y-10410174D02*
X12053515Y-10429222D01*
X12053515Y-10429222D02*
X12053515Y-10533984D01*
X12443991Y-10324460D02*
X12272563Y-10581603D01*
X12701134Y-10333984D02*
X12720182Y-10333984D01*
X12720182Y-10333984D02*
X12739229Y-10343508D01*
X12739229Y-10343508D02*
X12748753Y-10353031D01*
X12748753Y-10353031D02*
X12758277Y-10372079D01*
X12758277Y-10372079D02*
X12767801Y-10410174D01*
X12767801Y-10410174D02*
X12767801Y-10457793D01*
X12767801Y-10457793D02*
X12758277Y-10495889D01*
X12758277Y-10495889D02*
X12748753Y-10514936D01*
X12748753Y-10514936D02*
X12739229Y-10524460D01*
X12739229Y-10524460D02*
X12720182Y-10533984D01*
X12720182Y-10533984D02*
X12701134Y-10533984D01*
X12701134Y-10533984D02*
X12682086Y-10524460D01*
X12682086Y-10524460D02*
X12672563Y-10514936D01*
X12672563Y-10514936D02*
X12663039Y-10495889D01*
X12663039Y-10495889D02*
X12653515Y-10457793D01*
X12653515Y-10457793D02*
X12653515Y-10410174D01*
X12653515Y-10410174D02*
X12663039Y-10372079D01*
X12663039Y-10372079D02*
X12672563Y-10353031D01*
X12672563Y-10353031D02*
X12682086Y-10343508D01*
X12682086Y-10343508D02*
X12701134Y-10333984D01*
X12853515Y-10514936D02*
X12863039Y-10524460D01*
X12863039Y-10524460D02*
X12853515Y-10533984D01*
X12853515Y-10533984D02*
X12843991Y-10524460D01*
X12843991Y-10524460D02*
X12853515Y-10514936D01*
X12853515Y-10514936D02*
X12853515Y-10533984D01*
X12986848Y-10333984D02*
X13005896Y-10333984D01*
X13005896Y-10333984D02*
X13024944Y-10343508D01*
X13024944Y-10343508D02*
X13034467Y-10353031D01*
X13034467Y-10353031D02*
X13043991Y-10372079D01*
X13043991Y-10372079D02*
X13053515Y-10410174D01*
X13053515Y-10410174D02*
X13053515Y-10457793D01*
X13053515Y-10457793D02*
X13043991Y-10495889D01*
X13043991Y-10495889D02*
X13034467Y-10514936D01*
X13034467Y-10514936D02*
X13024944Y-10524460D01*
X13024944Y-10524460D02*
X13005896Y-10533984D01*
X13005896Y-10533984D02*
X12986848Y-10533984D01*
X12986848Y-10533984D02*
X12967801Y-10524460D01*
X12967801Y-10524460D02*
X12958277Y-10514936D01*
X12958277Y-10514936D02*
X12948753Y-10495889D01*
X12948753Y-10495889D02*
X12939229Y-10457793D01*
X12939229Y-10457793D02*
X12939229Y-10410174D01*
X12939229Y-10410174D02*
X12948753Y-10372079D01*
X12948753Y-10372079D02*
X12958277Y-10353031D01*
X12958277Y-10353031D02*
X12967801Y-10343508D01*
X12967801Y-10343508D02*
X12986848Y-10333984D01*
X13243991Y-10533984D02*
X13129705Y-10533984D01*
X13186848Y-10533984D02*
X13186848Y-10333984D01*
X13186848Y-10333984D02*
X13167801Y-10362555D01*
X13167801Y-10362555D02*
X13148753Y-10381603D01*
X13148753Y-10381603D02*
X13129705Y-10391127D01*
X13434467Y-10533984D02*
X13320182Y-10533984D01*
X13377324Y-10533984D02*
X13377324Y-10333984D01*
X13377324Y-10333984D02*
X13358277Y-10362555D01*
X13358277Y-10362555D02*
X13339229Y-10381603D01*
X13339229Y-10381603D02*
X13320182Y-10391127D01*
X13548753Y-10419698D02*
X13529705Y-10410174D01*
X13529705Y-10410174D02*
X13520182Y-10400650D01*
X13520182Y-10400650D02*
X13510658Y-10381603D01*
X13510658Y-10381603D02*
X13510658Y-10372079D01*
X13510658Y-10372079D02*
X13520182Y-10353031D01*
X13520182Y-10353031D02*
X13529705Y-10343508D01*
X13529705Y-10343508D02*
X13548753Y-10333984D01*
X13548753Y-10333984D02*
X13586848Y-10333984D01*
X13586848Y-10333984D02*
X13605896Y-10343508D01*
X13605896Y-10343508D02*
X13615420Y-10353031D01*
X13615420Y-10353031D02*
X13624944Y-10372079D01*
X13624944Y-10372079D02*
X13624944Y-10381603D01*
X13624944Y-10381603D02*
X13615420Y-10400650D01*
X13615420Y-10400650D02*
X13605896Y-10410174D01*
X13605896Y-10410174D02*
X13586848Y-10419698D01*
X13586848Y-10419698D02*
X13548753Y-10419698D01*
X13548753Y-10419698D02*
X13529705Y-10429222D01*
X13529705Y-10429222D02*
X13520182Y-10438746D01*
X13520182Y-10438746D02*
X13510658Y-10457793D01*
X13510658Y-10457793D02*
X13510658Y-10495889D01*
X13510658Y-10495889D02*
X13520182Y-10514936D01*
X13520182Y-10514936D02*
X13529705Y-10524460D01*
X13529705Y-10524460D02*
X13548753Y-10533984D01*
X13548753Y-10533984D02*
X13586848Y-10533984D01*
X13586848Y-10533984D02*
X13605896Y-10524460D01*
X13605896Y-10524460D02*
X13615420Y-10514936D01*
X13615420Y-10514936D02*
X13624944Y-10495889D01*
X13624944Y-10495889D02*
X13624944Y-10457793D01*
X13624944Y-10457793D02*
X13615420Y-10438746D01*
X13615420Y-10438746D02*
X13605896Y-10429222D01*
X13605896Y-10429222D02*
X13586848Y-10419698D01*
X13701134Y-10333984D02*
X13701134Y-10372079D01*
X13777325Y-10333984D02*
X13777325Y-10372079D01*
X14072563Y-10610174D02*
X14063039Y-10600650D01*
X14063039Y-10600650D02*
X14043991Y-10572079D01*
X14043991Y-10572079D02*
X14034467Y-10553031D01*
X14034467Y-10553031D02*
X14024944Y-10524460D01*
X14024944Y-10524460D02*
X14015420Y-10476841D01*
X14015420Y-10476841D02*
X14015420Y-10438746D01*
X14015420Y-10438746D02*
X14024944Y-10391127D01*
X14024944Y-10391127D02*
X14034467Y-10362555D01*
X14034467Y-10362555D02*
X14043991Y-10343508D01*
X14043991Y-10343508D02*
X14063039Y-10314936D01*
X14063039Y-10314936D02*
X14072563Y-10305412D01*
X14253515Y-10533984D02*
X14139229Y-10533984D01*
X14196372Y-10533984D02*
X14196372Y-10333984D01*
X14196372Y-10333984D02*
X14177325Y-10362555D01*
X14177325Y-10362555D02*
X14158277Y-10381603D01*
X14158277Y-10381603D02*
X14139229Y-10391127D01*
X14320182Y-10333984D02*
X14453515Y-10333984D01*
X14453515Y-10333984D02*
X14367801Y-10533984D01*
X14682087Y-10533984D02*
X14682087Y-10333984D01*
X14767801Y-10533984D02*
X14767801Y-10429222D01*
X14767801Y-10429222D02*
X14758277Y-10410174D01*
X14758277Y-10410174D02*
X14739229Y-10400650D01*
X14739229Y-10400650D02*
X14710658Y-10400650D01*
X14710658Y-10400650D02*
X14691610Y-10410174D01*
X14691610Y-10410174D02*
X14682087Y-10419698D01*
X14891610Y-10533984D02*
X14872563Y-10524460D01*
X14872563Y-10524460D02*
X14863039Y-10514936D01*
X14863039Y-10514936D02*
X14853515Y-10495889D01*
X14853515Y-10495889D02*
X14853515Y-10438746D01*
X14853515Y-10438746D02*
X14863039Y-10419698D01*
X14863039Y-10419698D02*
X14872563Y-10410174D01*
X14872563Y-10410174D02*
X14891610Y-10400650D01*
X14891610Y-10400650D02*
X14920182Y-10400650D01*
X14920182Y-10400650D02*
X14939229Y-10410174D01*
X14939229Y-10410174D02*
X14948753Y-10419698D01*
X14948753Y-10419698D02*
X14958277Y-10438746D01*
X14958277Y-10438746D02*
X14958277Y-10495889D01*
X14958277Y-10495889D02*
X14948753Y-10514936D01*
X14948753Y-10514936D02*
X14939229Y-10524460D01*
X14939229Y-10524460D02*
X14920182Y-10533984D01*
X14920182Y-10533984D02*
X14891610Y-10533984D01*
X15072563Y-10533984D02*
X15053515Y-10524460D01*
X15053515Y-10524460D02*
X15043991Y-10505412D01*
X15043991Y-10505412D02*
X15043991Y-10333984D01*
X15224944Y-10524460D02*
X15205896Y-10533984D01*
X15205896Y-10533984D02*
X15167801Y-10533984D01*
X15167801Y-10533984D02*
X15148753Y-10524460D01*
X15148753Y-10524460D02*
X15139229Y-10505412D01*
X15139229Y-10505412D02*
X15139229Y-10429222D01*
X15139229Y-10429222D02*
X15148753Y-10410174D01*
X15148753Y-10410174D02*
X15167801Y-10400650D01*
X15167801Y-10400650D02*
X15205896Y-10400650D01*
X15205896Y-10400650D02*
X15224944Y-10410174D01*
X15224944Y-10410174D02*
X15234468Y-10429222D01*
X15234468Y-10429222D02*
X15234468Y-10448270D01*
X15234468Y-10448270D02*
X15139229Y-10467317D01*
X15310658Y-10524460D02*
X15329706Y-10533984D01*
X15329706Y-10533984D02*
X15367801Y-10533984D01*
X15367801Y-10533984D02*
X15386849Y-10524460D01*
X15386849Y-10524460D02*
X15396372Y-10505412D01*
X15396372Y-10505412D02*
X15396372Y-10495889D01*
X15396372Y-10495889D02*
X15386849Y-10476841D01*
X15386849Y-10476841D02*
X15367801Y-10467317D01*
X15367801Y-10467317D02*
X15339229Y-10467317D01*
X15339229Y-10467317D02*
X15320182Y-10457793D01*
X15320182Y-10457793D02*
X15310658Y-10438746D01*
X15310658Y-10438746D02*
X15310658Y-10429222D01*
X15310658Y-10429222D02*
X15320182Y-10410174D01*
X15320182Y-10410174D02*
X15339229Y-10400650D01*
X15339229Y-10400650D02*
X15367801Y-10400650D01*
X15367801Y-10400650D02*
X15386849Y-10410174D01*
X15463039Y-10610174D02*
X15472563Y-10600650D01*
X15472563Y-10600650D02*
X15491610Y-10572079D01*
X15491610Y-10572079D02*
X15501134Y-10553031D01*
X15501134Y-10553031D02*
X15510658Y-10524460D01*
X15510658Y-10524460D02*
X15520182Y-10476841D01*
X15520182Y-10476841D02*
X15520182Y-10438746D01*
X15520182Y-10438746D02*
X15510658Y-10391127D01*
X15510658Y-10391127D02*
X15501134Y-10362555D01*
X15501134Y-10362555D02*
X15491610Y-10343508D01*
X15491610Y-10343508D02*
X15472563Y-10314936D01*
X15472563Y-10314936D02*
X15463039Y-10305412D01*
D12*
X10497500Y-10706500D02*
G75*
G02*
X10397500Y-10706500I-50000J0D01*
G01*
X10397500Y-10706500D02*
G75*
G02*
X10497500Y-10706500I50000J0D01*
G01*
D11*
X10863039Y-10797984D02*
X10748753Y-10797984D01*
X10805896Y-10797984D02*
X10805896Y-10597984D01*
X10805896Y-10597984D02*
X10786848Y-10626555D01*
X10786848Y-10626555D02*
X10767801Y-10645603D01*
X10767801Y-10645603D02*
X10748753Y-10655127D01*
X10948753Y-10778936D02*
X10958277Y-10788460D01*
X10958277Y-10788460D02*
X10948753Y-10797984D01*
X10948753Y-10797984D02*
X10939229Y-10788460D01*
X10939229Y-10788460D02*
X10948753Y-10778936D01*
X10948753Y-10778936D02*
X10948753Y-10797984D01*
X11082086Y-10597984D02*
X11101134Y-10597984D01*
X11101134Y-10597984D02*
X11120182Y-10607508D01*
X11120182Y-10607508D02*
X11129705Y-10617031D01*
X11129705Y-10617031D02*
X11139229Y-10636079D01*
X11139229Y-10636079D02*
X11148753Y-10674174D01*
X11148753Y-10674174D02*
X11148753Y-10721793D01*
X11148753Y-10721793D02*
X11139229Y-10759889D01*
X11139229Y-10759889D02*
X11129705Y-10778936D01*
X11129705Y-10778936D02*
X11120182Y-10788460D01*
X11120182Y-10788460D02*
X11101134Y-10797984D01*
X11101134Y-10797984D02*
X11082086Y-10797984D01*
X11082086Y-10797984D02*
X11063039Y-10788460D01*
X11063039Y-10788460D02*
X11053515Y-10778936D01*
X11053515Y-10778936D02*
X11043991Y-10759889D01*
X11043991Y-10759889D02*
X11034467Y-10721793D01*
X11034467Y-10721793D02*
X11034467Y-10674174D01*
X11034467Y-10674174D02*
X11043991Y-10636079D01*
X11043991Y-10636079D02*
X11053515Y-10617031D01*
X11053515Y-10617031D02*
X11063039Y-10607508D01*
X11063039Y-10607508D02*
X11082086Y-10597984D01*
X11272562Y-10597984D02*
X11291610Y-10597984D01*
X11291610Y-10597984D02*
X11310658Y-10607508D01*
X11310658Y-10607508D02*
X11320181Y-10617031D01*
X11320181Y-10617031D02*
X11329705Y-10636079D01*
X11329705Y-10636079D02*
X11339229Y-10674174D01*
X11339229Y-10674174D02*
X11339229Y-10721793D01*
X11339229Y-10721793D02*
X11329705Y-10759889D01*
X11329705Y-10759889D02*
X11320181Y-10778936D01*
X11320181Y-10778936D02*
X11310658Y-10788460D01*
X11310658Y-10788460D02*
X11291610Y-10797984D01*
X11291610Y-10797984D02*
X11272562Y-10797984D01*
X11272562Y-10797984D02*
X11253515Y-10788460D01*
X11253515Y-10788460D02*
X11243991Y-10778936D01*
X11243991Y-10778936D02*
X11234467Y-10759889D01*
X11234467Y-10759889D02*
X11224943Y-10721793D01*
X11224943Y-10721793D02*
X11224943Y-10674174D01*
X11224943Y-10674174D02*
X11234467Y-10636079D01*
X11234467Y-10636079D02*
X11243991Y-10617031D01*
X11243991Y-10617031D02*
X11253515Y-10607508D01*
X11253515Y-10607508D02*
X11272562Y-10597984D01*
X11463039Y-10597984D02*
X11482086Y-10597984D01*
X11482086Y-10597984D02*
X11501134Y-10607508D01*
X11501134Y-10607508D02*
X11510658Y-10617031D01*
X11510658Y-10617031D02*
X11520181Y-10636079D01*
X11520181Y-10636079D02*
X11529705Y-10674174D01*
X11529705Y-10674174D02*
X11529705Y-10721793D01*
X11529705Y-10721793D02*
X11520181Y-10759889D01*
X11520181Y-10759889D02*
X11510658Y-10778936D01*
X11510658Y-10778936D02*
X11501134Y-10788460D01*
X11501134Y-10788460D02*
X11482086Y-10797984D01*
X11482086Y-10797984D02*
X11463039Y-10797984D01*
X11463039Y-10797984D02*
X11443991Y-10788460D01*
X11443991Y-10788460D02*
X11434467Y-10778936D01*
X11434467Y-10778936D02*
X11424943Y-10759889D01*
X11424943Y-10759889D02*
X11415420Y-10721793D01*
X11415420Y-10721793D02*
X11415420Y-10674174D01*
X11415420Y-10674174D02*
X11424943Y-10636079D01*
X11424943Y-10636079D02*
X11434467Y-10617031D01*
X11434467Y-10617031D02*
X11443991Y-10607508D01*
X11443991Y-10607508D02*
X11463039Y-10597984D01*
X11615420Y-10797984D02*
X11615420Y-10664650D01*
X11615420Y-10683698D02*
X11624943Y-10674174D01*
X11624943Y-10674174D02*
X11643991Y-10664650D01*
X11643991Y-10664650D02*
X11672562Y-10664650D01*
X11672562Y-10664650D02*
X11691610Y-10674174D01*
X11691610Y-10674174D02*
X11701134Y-10693222D01*
X11701134Y-10693222D02*
X11701134Y-10797984D01*
X11701134Y-10693222D02*
X11710658Y-10674174D01*
X11710658Y-10674174D02*
X11729705Y-10664650D01*
X11729705Y-10664650D02*
X11758277Y-10664650D01*
X11758277Y-10664650D02*
X11777324Y-10674174D01*
X11777324Y-10674174D02*
X11786848Y-10693222D01*
X11786848Y-10693222D02*
X11786848Y-10797984D01*
X11882086Y-10797984D02*
X11882086Y-10664650D01*
X11882086Y-10683698D02*
X11891610Y-10674174D01*
X11891610Y-10674174D02*
X11910658Y-10664650D01*
X11910658Y-10664650D02*
X11939229Y-10664650D01*
X11939229Y-10664650D02*
X11958277Y-10674174D01*
X11958277Y-10674174D02*
X11967801Y-10693222D01*
X11967801Y-10693222D02*
X11967801Y-10797984D01*
X11967801Y-10693222D02*
X11977324Y-10674174D01*
X11977324Y-10674174D02*
X11996372Y-10664650D01*
X11996372Y-10664650D02*
X12024943Y-10664650D01*
X12024943Y-10664650D02*
X12043991Y-10674174D01*
X12043991Y-10674174D02*
X12053515Y-10693222D01*
X12053515Y-10693222D02*
X12053515Y-10797984D01*
X12443991Y-10588460D02*
X12272563Y-10845603D01*
X12701134Y-10597984D02*
X12720182Y-10597984D01*
X12720182Y-10597984D02*
X12739229Y-10607508D01*
X12739229Y-10607508D02*
X12748753Y-10617031D01*
X12748753Y-10617031D02*
X12758277Y-10636079D01*
X12758277Y-10636079D02*
X12767801Y-10674174D01*
X12767801Y-10674174D02*
X12767801Y-10721793D01*
X12767801Y-10721793D02*
X12758277Y-10759889D01*
X12758277Y-10759889D02*
X12748753Y-10778936D01*
X12748753Y-10778936D02*
X12739229Y-10788460D01*
X12739229Y-10788460D02*
X12720182Y-10797984D01*
X12720182Y-10797984D02*
X12701134Y-10797984D01*
X12701134Y-10797984D02*
X12682086Y-10788460D01*
X12682086Y-10788460D02*
X12672563Y-10778936D01*
X12672563Y-10778936D02*
X12663039Y-10759889D01*
X12663039Y-10759889D02*
X12653515Y-10721793D01*
X12653515Y-10721793D02*
X12653515Y-10674174D01*
X12653515Y-10674174D02*
X12663039Y-10636079D01*
X12663039Y-10636079D02*
X12672563Y-10617031D01*
X12672563Y-10617031D02*
X12682086Y-10607508D01*
X12682086Y-10607508D02*
X12701134Y-10597984D01*
X12853515Y-10778936D02*
X12863039Y-10788460D01*
X12863039Y-10788460D02*
X12853515Y-10797984D01*
X12853515Y-10797984D02*
X12843991Y-10788460D01*
X12843991Y-10788460D02*
X12853515Y-10778936D01*
X12853515Y-10778936D02*
X12853515Y-10797984D01*
X12986848Y-10597984D02*
X13005896Y-10597984D01*
X13005896Y-10597984D02*
X13024944Y-10607508D01*
X13024944Y-10607508D02*
X13034467Y-10617031D01*
X13034467Y-10617031D02*
X13043991Y-10636079D01*
X13043991Y-10636079D02*
X13053515Y-10674174D01*
X13053515Y-10674174D02*
X13053515Y-10721793D01*
X13053515Y-10721793D02*
X13043991Y-10759889D01*
X13043991Y-10759889D02*
X13034467Y-10778936D01*
X13034467Y-10778936D02*
X13024944Y-10788460D01*
X13024944Y-10788460D02*
X13005896Y-10797984D01*
X13005896Y-10797984D02*
X12986848Y-10797984D01*
X12986848Y-10797984D02*
X12967801Y-10788460D01*
X12967801Y-10788460D02*
X12958277Y-10778936D01*
X12958277Y-10778936D02*
X12948753Y-10759889D01*
X12948753Y-10759889D02*
X12939229Y-10721793D01*
X12939229Y-10721793D02*
X12939229Y-10674174D01*
X12939229Y-10674174D02*
X12948753Y-10636079D01*
X12948753Y-10636079D02*
X12958277Y-10617031D01*
X12958277Y-10617031D02*
X12967801Y-10607508D01*
X12967801Y-10607508D02*
X12986848Y-10597984D01*
X13120182Y-10597984D02*
X13243991Y-10597984D01*
X13243991Y-10597984D02*
X13177324Y-10674174D01*
X13177324Y-10674174D02*
X13205896Y-10674174D01*
X13205896Y-10674174D02*
X13224944Y-10683698D01*
X13224944Y-10683698D02*
X13234467Y-10693222D01*
X13234467Y-10693222D02*
X13243991Y-10712270D01*
X13243991Y-10712270D02*
X13243991Y-10759889D01*
X13243991Y-10759889D02*
X13234467Y-10778936D01*
X13234467Y-10778936D02*
X13224944Y-10788460D01*
X13224944Y-10788460D02*
X13205896Y-10797984D01*
X13205896Y-10797984D02*
X13148753Y-10797984D01*
X13148753Y-10797984D02*
X13129705Y-10788460D01*
X13129705Y-10788460D02*
X13120182Y-10778936D01*
X13339229Y-10797984D02*
X13377324Y-10797984D01*
X13377324Y-10797984D02*
X13396372Y-10788460D01*
X13396372Y-10788460D02*
X13405896Y-10778936D01*
X13405896Y-10778936D02*
X13424944Y-10750365D01*
X13424944Y-10750365D02*
X13434467Y-10712270D01*
X13434467Y-10712270D02*
X13434467Y-10636079D01*
X13434467Y-10636079D02*
X13424944Y-10617031D01*
X13424944Y-10617031D02*
X13415420Y-10607508D01*
X13415420Y-10607508D02*
X13396372Y-10597984D01*
X13396372Y-10597984D02*
X13358277Y-10597984D01*
X13358277Y-10597984D02*
X13339229Y-10607508D01*
X13339229Y-10607508D02*
X13329705Y-10617031D01*
X13329705Y-10617031D02*
X13320182Y-10636079D01*
X13320182Y-10636079D02*
X13320182Y-10683698D01*
X13320182Y-10683698D02*
X13329705Y-10702746D01*
X13329705Y-10702746D02*
X13339229Y-10712270D01*
X13339229Y-10712270D02*
X13358277Y-10721793D01*
X13358277Y-10721793D02*
X13396372Y-10721793D01*
X13396372Y-10721793D02*
X13415420Y-10712270D01*
X13415420Y-10712270D02*
X13424944Y-10702746D01*
X13424944Y-10702746D02*
X13434467Y-10683698D01*
X13605896Y-10664650D02*
X13605896Y-10797984D01*
X13558277Y-10588460D02*
X13510658Y-10731317D01*
X13510658Y-10731317D02*
X13634467Y-10731317D01*
X13701134Y-10597984D02*
X13701134Y-10636079D01*
X13777325Y-10597984D02*
X13777325Y-10636079D01*
X14072563Y-10874174D02*
X14063039Y-10864650D01*
X14063039Y-10864650D02*
X14043991Y-10836079D01*
X14043991Y-10836079D02*
X14034467Y-10817031D01*
X14034467Y-10817031D02*
X14024944Y-10788460D01*
X14024944Y-10788460D02*
X14015420Y-10740841D01*
X14015420Y-10740841D02*
X14015420Y-10702746D01*
X14015420Y-10702746D02*
X14024944Y-10655127D01*
X14024944Y-10655127D02*
X14034467Y-10626555D01*
X14034467Y-10626555D02*
X14043991Y-10607508D01*
X14043991Y-10607508D02*
X14063039Y-10578936D01*
X14063039Y-10578936D02*
X14072563Y-10569412D01*
X14129706Y-10597984D02*
X14253515Y-10597984D01*
X14253515Y-10597984D02*
X14186848Y-10674174D01*
X14186848Y-10674174D02*
X14215420Y-10674174D01*
X14215420Y-10674174D02*
X14234467Y-10683698D01*
X14234467Y-10683698D02*
X14243991Y-10693222D01*
X14243991Y-10693222D02*
X14253515Y-10712270D01*
X14253515Y-10712270D02*
X14253515Y-10759889D01*
X14253515Y-10759889D02*
X14243991Y-10778936D01*
X14243991Y-10778936D02*
X14234467Y-10788460D01*
X14234467Y-10788460D02*
X14215420Y-10797984D01*
X14215420Y-10797984D02*
X14158277Y-10797984D01*
X14158277Y-10797984D02*
X14139229Y-10788460D01*
X14139229Y-10788460D02*
X14129706Y-10778936D01*
X14424944Y-10597984D02*
X14386848Y-10597984D01*
X14386848Y-10597984D02*
X14367801Y-10607508D01*
X14367801Y-10607508D02*
X14358277Y-10617031D01*
X14358277Y-10617031D02*
X14339229Y-10645603D01*
X14339229Y-10645603D02*
X14329706Y-10683698D01*
X14329706Y-10683698D02*
X14329706Y-10759889D01*
X14329706Y-10759889D02*
X14339229Y-10778936D01*
X14339229Y-10778936D02*
X14348753Y-10788460D01*
X14348753Y-10788460D02*
X14367801Y-10797984D01*
X14367801Y-10797984D02*
X14405896Y-10797984D01*
X14405896Y-10797984D02*
X14424944Y-10788460D01*
X14424944Y-10788460D02*
X14434467Y-10778936D01*
X14434467Y-10778936D02*
X14443991Y-10759889D01*
X14443991Y-10759889D02*
X14443991Y-10712270D01*
X14443991Y-10712270D02*
X14434467Y-10693222D01*
X14434467Y-10693222D02*
X14424944Y-10683698D01*
X14424944Y-10683698D02*
X14405896Y-10674174D01*
X14405896Y-10674174D02*
X14367801Y-10674174D01*
X14367801Y-10674174D02*
X14348753Y-10683698D01*
X14348753Y-10683698D02*
X14339229Y-10693222D01*
X14339229Y-10693222D02*
X14329706Y-10712270D01*
X14682087Y-10797984D02*
X14682087Y-10597984D01*
X14767801Y-10797984D02*
X14767801Y-10693222D01*
X14767801Y-10693222D02*
X14758277Y-10674174D01*
X14758277Y-10674174D02*
X14739229Y-10664650D01*
X14739229Y-10664650D02*
X14710658Y-10664650D01*
X14710658Y-10664650D02*
X14691610Y-10674174D01*
X14691610Y-10674174D02*
X14682087Y-10683698D01*
X14891610Y-10797984D02*
X14872563Y-10788460D01*
X14872563Y-10788460D02*
X14863039Y-10778936D01*
X14863039Y-10778936D02*
X14853515Y-10759889D01*
X14853515Y-10759889D02*
X14853515Y-10702746D01*
X14853515Y-10702746D02*
X14863039Y-10683698D01*
X14863039Y-10683698D02*
X14872563Y-10674174D01*
X14872563Y-10674174D02*
X14891610Y-10664650D01*
X14891610Y-10664650D02*
X14920182Y-10664650D01*
X14920182Y-10664650D02*
X14939229Y-10674174D01*
X14939229Y-10674174D02*
X14948753Y-10683698D01*
X14948753Y-10683698D02*
X14958277Y-10702746D01*
X14958277Y-10702746D02*
X14958277Y-10759889D01*
X14958277Y-10759889D02*
X14948753Y-10778936D01*
X14948753Y-10778936D02*
X14939229Y-10788460D01*
X14939229Y-10788460D02*
X14920182Y-10797984D01*
X14920182Y-10797984D02*
X14891610Y-10797984D01*
X15072563Y-10797984D02*
X15053515Y-10788460D01*
X15053515Y-10788460D02*
X15043991Y-10769412D01*
X15043991Y-10769412D02*
X15043991Y-10597984D01*
X15224944Y-10788460D02*
X15205896Y-10797984D01*
X15205896Y-10797984D02*
X15167801Y-10797984D01*
X15167801Y-10797984D02*
X15148753Y-10788460D01*
X15148753Y-10788460D02*
X15139229Y-10769412D01*
X15139229Y-10769412D02*
X15139229Y-10693222D01*
X15139229Y-10693222D02*
X15148753Y-10674174D01*
X15148753Y-10674174D02*
X15167801Y-10664650D01*
X15167801Y-10664650D02*
X15205896Y-10664650D01*
X15205896Y-10664650D02*
X15224944Y-10674174D01*
X15224944Y-10674174D02*
X15234468Y-10693222D01*
X15234468Y-10693222D02*
X15234468Y-10712270D01*
X15234468Y-10712270D02*
X15139229Y-10731317D01*
X15310658Y-10788460D02*
X15329706Y-10797984D01*
X15329706Y-10797984D02*
X15367801Y-10797984D01*
X15367801Y-10797984D02*
X15386849Y-10788460D01*
X15386849Y-10788460D02*
X15396372Y-10769412D01*
X15396372Y-10769412D02*
X15396372Y-10759889D01*
X15396372Y-10759889D02*
X15386849Y-10740841D01*
X15386849Y-10740841D02*
X15367801Y-10731317D01*
X15367801Y-10731317D02*
X15339229Y-10731317D01*
X15339229Y-10731317D02*
X15320182Y-10721793D01*
X15320182Y-10721793D02*
X15310658Y-10702746D01*
X15310658Y-10702746D02*
X15310658Y-10693222D01*
X15310658Y-10693222D02*
X15320182Y-10674174D01*
X15320182Y-10674174D02*
X15339229Y-10664650D01*
X15339229Y-10664650D02*
X15367801Y-10664650D01*
X15367801Y-10664650D02*
X15386849Y-10674174D01*
X15463039Y-10874174D02*
X15472563Y-10864650D01*
X15472563Y-10864650D02*
X15491610Y-10836079D01*
X15491610Y-10836079D02*
X15501134Y-10817031D01*
X15501134Y-10817031D02*
X15510658Y-10788460D01*
X15510658Y-10788460D02*
X15520182Y-10740841D01*
X15520182Y-10740841D02*
X15520182Y-10702746D01*
X15520182Y-10702746D02*
X15510658Y-10655127D01*
X15510658Y-10655127D02*
X15501134Y-10626555D01*
X15501134Y-10626555D02*
X15491610Y-10607508D01*
X15491610Y-10607508D02*
X15472563Y-10578936D01*
X15472563Y-10578936D02*
X15463039Y-10569412D01*
X10397500Y-10870500D02*
X10397500Y-11070500D01*
X10297500Y-10970500D02*
X10497500Y-10970500D01*
X10748753Y-10881031D02*
X10758277Y-10871508D01*
X10758277Y-10871508D02*
X10777324Y-10861984D01*
X10777324Y-10861984D02*
X10824943Y-10861984D01*
X10824943Y-10861984D02*
X10843991Y-10871508D01*
X10843991Y-10871508D02*
X10853515Y-10881031D01*
X10853515Y-10881031D02*
X10863039Y-10900079D01*
X10863039Y-10900079D02*
X10863039Y-10919127D01*
X10863039Y-10919127D02*
X10853515Y-10947698D01*
X10853515Y-10947698D02*
X10739229Y-11061984D01*
X10739229Y-11061984D02*
X10863039Y-11061984D01*
X10948753Y-11042936D02*
X10958277Y-11052460D01*
X10958277Y-11052460D02*
X10948753Y-11061984D01*
X10948753Y-11061984D02*
X10939229Y-11052460D01*
X10939229Y-11052460D02*
X10948753Y-11042936D01*
X10948753Y-11042936D02*
X10948753Y-11061984D01*
X11024943Y-10861984D02*
X11148753Y-10861984D01*
X11148753Y-10861984D02*
X11082086Y-10938174D01*
X11082086Y-10938174D02*
X11110658Y-10938174D01*
X11110658Y-10938174D02*
X11129705Y-10947698D01*
X11129705Y-10947698D02*
X11139229Y-10957222D01*
X11139229Y-10957222D02*
X11148753Y-10976270D01*
X11148753Y-10976270D02*
X11148753Y-11023889D01*
X11148753Y-11023889D02*
X11139229Y-11042936D01*
X11139229Y-11042936D02*
X11129705Y-11052460D01*
X11129705Y-11052460D02*
X11110658Y-11061984D01*
X11110658Y-11061984D02*
X11053515Y-11061984D01*
X11053515Y-11061984D02*
X11034467Y-11052460D01*
X11034467Y-11052460D02*
X11024943Y-11042936D01*
X11272562Y-10861984D02*
X11291610Y-10861984D01*
X11291610Y-10861984D02*
X11310658Y-10871508D01*
X11310658Y-10871508D02*
X11320181Y-10881031D01*
X11320181Y-10881031D02*
X11329705Y-10900079D01*
X11329705Y-10900079D02*
X11339229Y-10938174D01*
X11339229Y-10938174D02*
X11339229Y-10985793D01*
X11339229Y-10985793D02*
X11329705Y-11023889D01*
X11329705Y-11023889D02*
X11320181Y-11042936D01*
X11320181Y-11042936D02*
X11310658Y-11052460D01*
X11310658Y-11052460D02*
X11291610Y-11061984D01*
X11291610Y-11061984D02*
X11272562Y-11061984D01*
X11272562Y-11061984D02*
X11253515Y-11052460D01*
X11253515Y-11052460D02*
X11243991Y-11042936D01*
X11243991Y-11042936D02*
X11234467Y-11023889D01*
X11234467Y-11023889D02*
X11224943Y-10985793D01*
X11224943Y-10985793D02*
X11224943Y-10938174D01*
X11224943Y-10938174D02*
X11234467Y-10900079D01*
X11234467Y-10900079D02*
X11243991Y-10881031D01*
X11243991Y-10881031D02*
X11253515Y-10871508D01*
X11253515Y-10871508D02*
X11272562Y-10861984D01*
X11463039Y-10861984D02*
X11482086Y-10861984D01*
X11482086Y-10861984D02*
X11501134Y-10871508D01*
X11501134Y-10871508D02*
X11510658Y-10881031D01*
X11510658Y-10881031D02*
X11520181Y-10900079D01*
X11520181Y-10900079D02*
X11529705Y-10938174D01*
X11529705Y-10938174D02*
X11529705Y-10985793D01*
X11529705Y-10985793D02*
X11520181Y-11023889D01*
X11520181Y-11023889D02*
X11510658Y-11042936D01*
X11510658Y-11042936D02*
X11501134Y-11052460D01*
X11501134Y-11052460D02*
X11482086Y-11061984D01*
X11482086Y-11061984D02*
X11463039Y-11061984D01*
X11463039Y-11061984D02*
X11443991Y-11052460D01*
X11443991Y-11052460D02*
X11434467Y-11042936D01*
X11434467Y-11042936D02*
X11424943Y-11023889D01*
X11424943Y-11023889D02*
X11415420Y-10985793D01*
X11415420Y-10985793D02*
X11415420Y-10938174D01*
X11415420Y-10938174D02*
X11424943Y-10900079D01*
X11424943Y-10900079D02*
X11434467Y-10881031D01*
X11434467Y-10881031D02*
X11443991Y-10871508D01*
X11443991Y-10871508D02*
X11463039Y-10861984D01*
X11615420Y-11061984D02*
X11615420Y-10928650D01*
X11615420Y-10947698D02*
X11624943Y-10938174D01*
X11624943Y-10938174D02*
X11643991Y-10928650D01*
X11643991Y-10928650D02*
X11672562Y-10928650D01*
X11672562Y-10928650D02*
X11691610Y-10938174D01*
X11691610Y-10938174D02*
X11701134Y-10957222D01*
X11701134Y-10957222D02*
X11701134Y-11061984D01*
X11701134Y-10957222D02*
X11710658Y-10938174D01*
X11710658Y-10938174D02*
X11729705Y-10928650D01*
X11729705Y-10928650D02*
X11758277Y-10928650D01*
X11758277Y-10928650D02*
X11777324Y-10938174D01*
X11777324Y-10938174D02*
X11786848Y-10957222D01*
X11786848Y-10957222D02*
X11786848Y-11061984D01*
X11882086Y-11061984D02*
X11882086Y-10928650D01*
X11882086Y-10947698D02*
X11891610Y-10938174D01*
X11891610Y-10938174D02*
X11910658Y-10928650D01*
X11910658Y-10928650D02*
X11939229Y-10928650D01*
X11939229Y-10928650D02*
X11958277Y-10938174D01*
X11958277Y-10938174D02*
X11967801Y-10957222D01*
X11967801Y-10957222D02*
X11967801Y-11061984D01*
X11967801Y-10957222D02*
X11977324Y-10938174D01*
X11977324Y-10938174D02*
X11996372Y-10928650D01*
X11996372Y-10928650D02*
X12024943Y-10928650D01*
X12024943Y-10928650D02*
X12043991Y-10938174D01*
X12043991Y-10938174D02*
X12053515Y-10957222D01*
X12053515Y-10957222D02*
X12053515Y-11061984D01*
X12443991Y-10852460D02*
X12272563Y-11109603D01*
X12701134Y-10861984D02*
X12720182Y-10861984D01*
X12720182Y-10861984D02*
X12739229Y-10871508D01*
X12739229Y-10871508D02*
X12748753Y-10881031D01*
X12748753Y-10881031D02*
X12758277Y-10900079D01*
X12758277Y-10900079D02*
X12767801Y-10938174D01*
X12767801Y-10938174D02*
X12767801Y-10985793D01*
X12767801Y-10985793D02*
X12758277Y-11023889D01*
X12758277Y-11023889D02*
X12748753Y-11042936D01*
X12748753Y-11042936D02*
X12739229Y-11052460D01*
X12739229Y-11052460D02*
X12720182Y-11061984D01*
X12720182Y-11061984D02*
X12701134Y-11061984D01*
X12701134Y-11061984D02*
X12682086Y-11052460D01*
X12682086Y-11052460D02*
X12672563Y-11042936D01*
X12672563Y-11042936D02*
X12663039Y-11023889D01*
X12663039Y-11023889D02*
X12653515Y-10985793D01*
X12653515Y-10985793D02*
X12653515Y-10938174D01*
X12653515Y-10938174D02*
X12663039Y-10900079D01*
X12663039Y-10900079D02*
X12672563Y-10881031D01*
X12672563Y-10881031D02*
X12682086Y-10871508D01*
X12682086Y-10871508D02*
X12701134Y-10861984D01*
X12853515Y-11042936D02*
X12863039Y-11052460D01*
X12863039Y-11052460D02*
X12853515Y-11061984D01*
X12853515Y-11061984D02*
X12843991Y-11052460D01*
X12843991Y-11052460D02*
X12853515Y-11042936D01*
X12853515Y-11042936D02*
X12853515Y-11061984D01*
X12986848Y-10861984D02*
X13005896Y-10861984D01*
X13005896Y-10861984D02*
X13024944Y-10871508D01*
X13024944Y-10871508D02*
X13034467Y-10881031D01*
X13034467Y-10881031D02*
X13043991Y-10900079D01*
X13043991Y-10900079D02*
X13053515Y-10938174D01*
X13053515Y-10938174D02*
X13053515Y-10985793D01*
X13053515Y-10985793D02*
X13043991Y-11023889D01*
X13043991Y-11023889D02*
X13034467Y-11042936D01*
X13034467Y-11042936D02*
X13024944Y-11052460D01*
X13024944Y-11052460D02*
X13005896Y-11061984D01*
X13005896Y-11061984D02*
X12986848Y-11061984D01*
X12986848Y-11061984D02*
X12967801Y-11052460D01*
X12967801Y-11052460D02*
X12958277Y-11042936D01*
X12958277Y-11042936D02*
X12948753Y-11023889D01*
X12948753Y-11023889D02*
X12939229Y-10985793D01*
X12939229Y-10985793D02*
X12939229Y-10938174D01*
X12939229Y-10938174D02*
X12948753Y-10900079D01*
X12948753Y-10900079D02*
X12958277Y-10881031D01*
X12958277Y-10881031D02*
X12967801Y-10871508D01*
X12967801Y-10871508D02*
X12986848Y-10861984D01*
X13148753Y-11061984D02*
X13186848Y-11061984D01*
X13186848Y-11061984D02*
X13205896Y-11052460D01*
X13205896Y-11052460D02*
X13215420Y-11042936D01*
X13215420Y-11042936D02*
X13234467Y-11014365D01*
X13234467Y-11014365D02*
X13243991Y-10976270D01*
X13243991Y-10976270D02*
X13243991Y-10900079D01*
X13243991Y-10900079D02*
X13234467Y-10881031D01*
X13234467Y-10881031D02*
X13224944Y-10871508D01*
X13224944Y-10871508D02*
X13205896Y-10861984D01*
X13205896Y-10861984D02*
X13167801Y-10861984D01*
X13167801Y-10861984D02*
X13148753Y-10871508D01*
X13148753Y-10871508D02*
X13139229Y-10881031D01*
X13139229Y-10881031D02*
X13129705Y-10900079D01*
X13129705Y-10900079D02*
X13129705Y-10947698D01*
X13129705Y-10947698D02*
X13139229Y-10966746D01*
X13139229Y-10966746D02*
X13148753Y-10976270D01*
X13148753Y-10976270D02*
X13167801Y-10985793D01*
X13167801Y-10985793D02*
X13205896Y-10985793D01*
X13205896Y-10985793D02*
X13224944Y-10976270D01*
X13224944Y-10976270D02*
X13234467Y-10966746D01*
X13234467Y-10966746D02*
X13243991Y-10947698D01*
X13367801Y-10861984D02*
X13386848Y-10861984D01*
X13386848Y-10861984D02*
X13405896Y-10871508D01*
X13405896Y-10871508D02*
X13415420Y-10881031D01*
X13415420Y-10881031D02*
X13424944Y-10900079D01*
X13424944Y-10900079D02*
X13434467Y-10938174D01*
X13434467Y-10938174D02*
X13434467Y-10985793D01*
X13434467Y-10985793D02*
X13424944Y-11023889D01*
X13424944Y-11023889D02*
X13415420Y-11042936D01*
X13415420Y-11042936D02*
X13405896Y-11052460D01*
X13405896Y-11052460D02*
X13386848Y-11061984D01*
X13386848Y-11061984D02*
X13367801Y-11061984D01*
X13367801Y-11061984D02*
X13348753Y-11052460D01*
X13348753Y-11052460D02*
X13339229Y-11042936D01*
X13339229Y-11042936D02*
X13329705Y-11023889D01*
X13329705Y-11023889D02*
X13320182Y-10985793D01*
X13320182Y-10985793D02*
X13320182Y-10938174D01*
X13320182Y-10938174D02*
X13329705Y-10900079D01*
X13329705Y-10900079D02*
X13339229Y-10881031D01*
X13339229Y-10881031D02*
X13348753Y-10871508D01*
X13348753Y-10871508D02*
X13367801Y-10861984D01*
X13605896Y-10861984D02*
X13567801Y-10861984D01*
X13567801Y-10861984D02*
X13548753Y-10871508D01*
X13548753Y-10871508D02*
X13539229Y-10881031D01*
X13539229Y-10881031D02*
X13520182Y-10909603D01*
X13520182Y-10909603D02*
X13510658Y-10947698D01*
X13510658Y-10947698D02*
X13510658Y-11023889D01*
X13510658Y-11023889D02*
X13520182Y-11042936D01*
X13520182Y-11042936D02*
X13529705Y-11052460D01*
X13529705Y-11052460D02*
X13548753Y-11061984D01*
X13548753Y-11061984D02*
X13586848Y-11061984D01*
X13586848Y-11061984D02*
X13605896Y-11052460D01*
X13605896Y-11052460D02*
X13615420Y-11042936D01*
X13615420Y-11042936D02*
X13624944Y-11023889D01*
X13624944Y-11023889D02*
X13624944Y-10976270D01*
X13624944Y-10976270D02*
X13615420Y-10957222D01*
X13615420Y-10957222D02*
X13605896Y-10947698D01*
X13605896Y-10947698D02*
X13586848Y-10938174D01*
X13586848Y-10938174D02*
X13548753Y-10938174D01*
X13548753Y-10938174D02*
X13529705Y-10947698D01*
X13529705Y-10947698D02*
X13520182Y-10957222D01*
X13520182Y-10957222D02*
X13510658Y-10976270D01*
X13701134Y-10861984D02*
X13701134Y-10900079D01*
X13777325Y-10861984D02*
X13777325Y-10900079D01*
X14072563Y-11138174D02*
X14063039Y-11128650D01*
X14063039Y-11128650D02*
X14043991Y-11100079D01*
X14043991Y-11100079D02*
X14034467Y-11081031D01*
X14034467Y-11081031D02*
X14024944Y-11052460D01*
X14024944Y-11052460D02*
X14015420Y-11004841D01*
X14015420Y-11004841D02*
X14015420Y-10966746D01*
X14015420Y-10966746D02*
X14024944Y-10919127D01*
X14024944Y-10919127D02*
X14034467Y-10890555D01*
X14034467Y-10890555D02*
X14043991Y-10871508D01*
X14043991Y-10871508D02*
X14063039Y-10842936D01*
X14063039Y-10842936D02*
X14072563Y-10833412D01*
X14139229Y-10881031D02*
X14148753Y-10871508D01*
X14148753Y-10871508D02*
X14167801Y-10861984D01*
X14167801Y-10861984D02*
X14215420Y-10861984D01*
X14215420Y-10861984D02*
X14234467Y-10871508D01*
X14234467Y-10871508D02*
X14243991Y-10881031D01*
X14243991Y-10881031D02*
X14253515Y-10900079D01*
X14253515Y-10900079D02*
X14253515Y-10919127D01*
X14253515Y-10919127D02*
X14243991Y-10947698D01*
X14243991Y-10947698D02*
X14129706Y-11061984D01*
X14129706Y-11061984D02*
X14253515Y-11061984D01*
X14491610Y-11061984D02*
X14491610Y-10861984D01*
X14577325Y-11061984D02*
X14577325Y-10957222D01*
X14577325Y-10957222D02*
X14567801Y-10938174D01*
X14567801Y-10938174D02*
X14548753Y-10928650D01*
X14548753Y-10928650D02*
X14520182Y-10928650D01*
X14520182Y-10928650D02*
X14501134Y-10938174D01*
X14501134Y-10938174D02*
X14491610Y-10947698D01*
X14701134Y-11061984D02*
X14682087Y-11052460D01*
X14682087Y-11052460D02*
X14672563Y-11042936D01*
X14672563Y-11042936D02*
X14663039Y-11023889D01*
X14663039Y-11023889D02*
X14663039Y-10966746D01*
X14663039Y-10966746D02*
X14672563Y-10947698D01*
X14672563Y-10947698D02*
X14682087Y-10938174D01*
X14682087Y-10938174D02*
X14701134Y-10928650D01*
X14701134Y-10928650D02*
X14729706Y-10928650D01*
X14729706Y-10928650D02*
X14748753Y-10938174D01*
X14748753Y-10938174D02*
X14758277Y-10947698D01*
X14758277Y-10947698D02*
X14767801Y-10966746D01*
X14767801Y-10966746D02*
X14767801Y-11023889D01*
X14767801Y-11023889D02*
X14758277Y-11042936D01*
X14758277Y-11042936D02*
X14748753Y-11052460D01*
X14748753Y-11052460D02*
X14729706Y-11061984D01*
X14729706Y-11061984D02*
X14701134Y-11061984D01*
X14882087Y-11061984D02*
X14863039Y-11052460D01*
X14863039Y-11052460D02*
X14853515Y-11033412D01*
X14853515Y-11033412D02*
X14853515Y-10861984D01*
X15034468Y-11052460D02*
X15015420Y-11061984D01*
X15015420Y-11061984D02*
X14977325Y-11061984D01*
X14977325Y-11061984D02*
X14958277Y-11052460D01*
X14958277Y-11052460D02*
X14948753Y-11033412D01*
X14948753Y-11033412D02*
X14948753Y-10957222D01*
X14948753Y-10957222D02*
X14958277Y-10938174D01*
X14958277Y-10938174D02*
X14977325Y-10928650D01*
X14977325Y-10928650D02*
X15015420Y-10928650D01*
X15015420Y-10928650D02*
X15034468Y-10938174D01*
X15034468Y-10938174D02*
X15043991Y-10957222D01*
X15043991Y-10957222D02*
X15043991Y-10976270D01*
X15043991Y-10976270D02*
X14948753Y-10995317D01*
X15120182Y-11052460D02*
X15139229Y-11061984D01*
X15139229Y-11061984D02*
X15177325Y-11061984D01*
X15177325Y-11061984D02*
X15196372Y-11052460D01*
X15196372Y-11052460D02*
X15205896Y-11033412D01*
X15205896Y-11033412D02*
X15205896Y-11023889D01*
X15205896Y-11023889D02*
X15196372Y-11004841D01*
X15196372Y-11004841D02*
X15177325Y-10995317D01*
X15177325Y-10995317D02*
X15148753Y-10995317D01*
X15148753Y-10995317D02*
X15129706Y-10985793D01*
X15129706Y-10985793D02*
X15120182Y-10966746D01*
X15120182Y-10966746D02*
X15120182Y-10957222D01*
X15120182Y-10957222D02*
X15129706Y-10938174D01*
X15129706Y-10938174D02*
X15148753Y-10928650D01*
X15148753Y-10928650D02*
X15177325Y-10928650D01*
X15177325Y-10928650D02*
X15196372Y-10938174D01*
X15272563Y-11138174D02*
X15282087Y-11128650D01*
X15282087Y-11128650D02*
X15301134Y-11100079D01*
X15301134Y-11100079D02*
X15310658Y-11081031D01*
X15310658Y-11081031D02*
X15320182Y-11052460D01*
X15320182Y-11052460D02*
X15329706Y-11004841D01*
X15329706Y-11004841D02*
X15329706Y-10966746D01*
X15329706Y-10966746D02*
X15320182Y-10919127D01*
X15320182Y-10919127D02*
X15310658Y-10890555D01*
X15310658Y-10890555D02*
X15301134Y-10871508D01*
X15301134Y-10871508D02*
X15282087Y-10842936D01*
X15282087Y-10842936D02*
X15272563Y-10833412D01*
M02*
