%TF.GenerationSoftware,KiCad,Pcbnew,9.0.3*%
%TF.CreationDate,2025-11-18T14:16:47+09:00*%
%TF.ProjectId,SpeedJeck,53706565-644a-4656-936b-2e6b69636164,1*%
%TF.SameCoordinates,Original*%
%TF.FileFunction,Drillmap*%
%TF.FilePolarity,Positive*%
%FSLAX45Y45*%
G04 Gerber Fmt 4.5, Leading zero omitted, Abs format (unit mm)*
G04 Created by KiCad (PCBNEW 9.0.3) date 2025-11-18 14:16:47*
%MOMM*%
%LPD*%
G01*
G04 APERTURE LIST*
%ADD10C,0.050000*%
%ADD11C,0.200000*%
G04 APERTURE END LIST*
D10*
X19900000Y-9500000D02*
G75*
G02*
X19600000Y-9800000I-300000J0D01*
G01*
X10500000Y-4300000D02*
X10500000Y-9500000D01*
X10800000Y-9800000D02*
G75*
G02*
X10500000Y-9500000I0J300000D01*
G01*
X19600000Y-4000000D02*
G75*
G02*
X19900000Y-4300000I0J-300000D01*
G01*
X19900000Y-4300000D02*
X19900000Y-9500000D01*
X10500000Y-4300000D02*
G75*
G02*
X10800000Y-4000000I300000J0D01*
G01*
X19600000Y-9800000D02*
X10800000Y-9800000D01*
X10800000Y-4000000D02*
X19600000Y-4000000D01*
D11*
X10758277Y-10113984D02*
X10758277Y-9913984D01*
X10758277Y-9913984D02*
X10805896Y-9913984D01*
X10805896Y-9913984D02*
X10834467Y-9923508D01*
X10834467Y-9923508D02*
X10853515Y-9942555D01*
X10853515Y-9942555D02*
X10863039Y-9961603D01*
X10863039Y-9961603D02*
X10872562Y-9999698D01*
X10872562Y-9999698D02*
X10872562Y-10028270D01*
X10872562Y-10028270D02*
X10863039Y-10066365D01*
X10863039Y-10066365D02*
X10853515Y-10085412D01*
X10853515Y-10085412D02*
X10834467Y-10104460D01*
X10834467Y-10104460D02*
X10805896Y-10113984D01*
X10805896Y-10113984D02*
X10758277Y-10113984D01*
X10958277Y-10113984D02*
X10958277Y-9980650D01*
X10958277Y-10018746D02*
X10967801Y-9999698D01*
X10967801Y-9999698D02*
X10977324Y-9990174D01*
X10977324Y-9990174D02*
X10996372Y-9980650D01*
X10996372Y-9980650D02*
X11015420Y-9980650D01*
X11082086Y-10113984D02*
X11082086Y-9980650D01*
X11082086Y-9913984D02*
X11072562Y-9923508D01*
X11072562Y-9923508D02*
X11082086Y-9933031D01*
X11082086Y-9933031D02*
X11091610Y-9923508D01*
X11091610Y-9923508D02*
X11082086Y-9913984D01*
X11082086Y-9913984D02*
X11082086Y-9933031D01*
X11205896Y-10113984D02*
X11186848Y-10104460D01*
X11186848Y-10104460D02*
X11177324Y-10085412D01*
X11177324Y-10085412D02*
X11177324Y-9913984D01*
X11310658Y-10113984D02*
X11291610Y-10104460D01*
X11291610Y-10104460D02*
X11282086Y-10085412D01*
X11282086Y-10085412D02*
X11282086Y-9913984D01*
X11539229Y-10113984D02*
X11539229Y-9913984D01*
X11539229Y-9913984D02*
X11605896Y-10056841D01*
X11605896Y-10056841D02*
X11672562Y-9913984D01*
X11672562Y-9913984D02*
X11672562Y-10113984D01*
X11853515Y-10113984D02*
X11853515Y-10009222D01*
X11853515Y-10009222D02*
X11843991Y-9990174D01*
X11843991Y-9990174D02*
X11824943Y-9980650D01*
X11824943Y-9980650D02*
X11786848Y-9980650D01*
X11786848Y-9980650D02*
X11767800Y-9990174D01*
X11853515Y-10104460D02*
X11834467Y-10113984D01*
X11834467Y-10113984D02*
X11786848Y-10113984D01*
X11786848Y-10113984D02*
X11767800Y-10104460D01*
X11767800Y-10104460D02*
X11758277Y-10085412D01*
X11758277Y-10085412D02*
X11758277Y-10066365D01*
X11758277Y-10066365D02*
X11767800Y-10047317D01*
X11767800Y-10047317D02*
X11786848Y-10037793D01*
X11786848Y-10037793D02*
X11834467Y-10037793D01*
X11834467Y-10037793D02*
X11853515Y-10028270D01*
X11948753Y-9980650D02*
X11948753Y-10180650D01*
X11948753Y-9990174D02*
X11967800Y-9980650D01*
X11967800Y-9980650D02*
X12005896Y-9980650D01*
X12005896Y-9980650D02*
X12024943Y-9990174D01*
X12024943Y-9990174D02*
X12034467Y-9999698D01*
X12034467Y-9999698D02*
X12043991Y-10018746D01*
X12043991Y-10018746D02*
X12043991Y-10075889D01*
X12043991Y-10075889D02*
X12034467Y-10094936D01*
X12034467Y-10094936D02*
X12024943Y-10104460D01*
X12024943Y-10104460D02*
X12005896Y-10113984D01*
X12005896Y-10113984D02*
X11967800Y-10113984D01*
X11967800Y-10113984D02*
X11948753Y-10104460D01*
X12129705Y-10094936D02*
X12139229Y-10104460D01*
X12139229Y-10104460D02*
X12129705Y-10113984D01*
X12129705Y-10113984D02*
X12120181Y-10104460D01*
X12120181Y-10104460D02*
X12129705Y-10094936D01*
X12129705Y-10094936D02*
X12129705Y-10113984D01*
X12129705Y-9990174D02*
X12139229Y-9999698D01*
X12139229Y-9999698D02*
X12129705Y-10009222D01*
X12129705Y-10009222D02*
X12120181Y-9999698D01*
X12120181Y-9999698D02*
X12129705Y-9990174D01*
X12129705Y-9990174D02*
X12129705Y-10009222D01*
M02*
