G04 #@! TF.GenerationSoftware,KiCad,Pcbnew,9.0.3*
G04 #@! TF.CreationDate,2025-11-18T14:27:20+09:00*
G04 #@! TF.ProjectId,SpeedJeck,53706565-644a-4656-936b-2e6b69636164,1*
G04 #@! TF.SameCoordinates,Original*
G04 #@! TF.FileFunction,Copper,L1,Top*
G04 #@! TF.FilePolarity,Positive*
%FSLAX46Y46*%
G04 Gerber Fmt 4.6, Leading zero omitted, Abs format (unit mm)*
G04 Created by KiCad (PCBNEW 9.0.3) date 2025-11-18 14:27:20*
%MOMM*%
%LPD*%
G01*
G04 APERTURE LIST*
G04 Aperture macros list*
%AMRoundRect*
0 Rectangle with rounded corners*
0 $1 Rounding radius*
0 $2 $3 $4 $5 $6 $7 $8 $9 X,Y pos of 4 corners*
0 Add a 4 corners polygon primitive as box body*
4,1,4,$2,$3,$4,$5,$6,$7,$8,$9,$2,$3,0*
0 Add four circle primitives for the rounded corners*
1,1,$1+$1,$2,$3*
1,1,$1+$1,$4,$5*
1,1,$1+$1,$6,$7*
1,1,$1+$1,$8,$9*
0 Add four rect primitives between the rounded corners*
20,1,$1+$1,$2,$3,$4,$5,0*
20,1,$1+$1,$4,$5,$6,$7,0*
20,1,$1+$1,$6,$7,$8,$9,0*
20,1,$1+$1,$8,$9,$2,$3,0*%
G04 Aperture macros list end*
G04 #@! TA.AperFunction,SMDPad,CuDef*
%ADD10RoundRect,0.147500X-0.147500X-0.172500X0.147500X-0.172500X0.147500X0.172500X-0.147500X0.172500X0*%
G04 #@! TD*
G04 #@! TA.AperFunction,SMDPad,CuDef*
%ADD11RoundRect,0.135000X-0.135000X-0.185000X0.135000X-0.185000X0.135000X0.185000X-0.135000X0.185000X0*%
G04 #@! TD*
G04 #@! TA.AperFunction,ComponentPad*
%ADD12R,1.508000X1.508000*%
G04 #@! TD*
G04 #@! TA.AperFunction,ComponentPad*
%ADD13C,1.508000*%
G04 #@! TD*
G04 #@! TA.AperFunction,SMDPad,CuDef*
%ADD14RoundRect,0.250000X-0.750000X-0.500000X0.750000X-0.500000X0.750000X0.500000X-0.750000X0.500000X0*%
G04 #@! TD*
G04 #@! TA.AperFunction,ComponentPad*
%ADD15R,1.600000X1.600000*%
G04 #@! TD*
G04 #@! TA.AperFunction,ComponentPad*
%ADD16O,1.600000X1.600000*%
G04 #@! TD*
G04 #@! TA.AperFunction,SMDPad,CuDef*
%ADD17RoundRect,0.135000X0.135000X0.185000X-0.135000X0.185000X-0.135000X-0.185000X0.135000X-0.185000X0*%
G04 #@! TD*
G04 #@! TA.AperFunction,SMDPad,CuDef*
%ADD18R,3.000000X1.250000*%
G04 #@! TD*
G04 #@! TA.AperFunction,HeatsinkPad*
%ADD19C,3.000000*%
G04 #@! TD*
G04 #@! TA.AperFunction,ComponentPad*
%ADD20C,1.600000*%
G04 #@! TD*
G04 #@! TA.AperFunction,SMDPad,CuDef*
%ADD21RoundRect,0.375000X0.625000X0.375000X-0.625000X0.375000X-0.625000X-0.375000X0.625000X-0.375000X0*%
G04 #@! TD*
G04 #@! TA.AperFunction,SMDPad,CuDef*
%ADD22RoundRect,0.500000X0.500000X1.400000X-0.500000X1.400000X-0.500000X-1.400000X0.500000X-1.400000X0*%
G04 #@! TD*
G04 #@! TA.AperFunction,ViaPad*
%ADD23C,0.600000*%
G04 #@! TD*
G04 #@! TA.AperFunction,Conductor*
%ADD24C,0.200000*%
G04 #@! TD*
G04 APERTURE END LIST*
D10*
X146295000Y-59250000D03*
X147265000Y-59250000D03*
D11*
X134980000Y-82000000D03*
X136000000Y-82000000D03*
D12*
X120190000Y-43450000D03*
D13*
X122730000Y-43450000D03*
X125270000Y-43450000D03*
X127810000Y-43450000D03*
D11*
X148760000Y-59250000D03*
X149780000Y-59250000D03*
D14*
X164700000Y-72000000D03*
X179000000Y-72000000D03*
X164700000Y-77000000D03*
X179000000Y-77000000D03*
D15*
X159512000Y-63754000D03*
D16*
X162052000Y-63754000D03*
X164592000Y-63754000D03*
X167132000Y-63754000D03*
X169672000Y-63754000D03*
X172212000Y-63754000D03*
X174752000Y-63754000D03*
X177292000Y-63754000D03*
X179832000Y-63754000D03*
X182372000Y-63754000D03*
X184912000Y-63754000D03*
X187452000Y-63754000D03*
X189992000Y-63754000D03*
X192532000Y-63754000D03*
X195072000Y-63754000D03*
X195072000Y-48514000D03*
X192532000Y-48514000D03*
X189992000Y-48514000D03*
X187452000Y-48514000D03*
X184912000Y-48514000D03*
X182372000Y-48514000D03*
X179832000Y-48514000D03*
X177292000Y-48514000D03*
X174752000Y-48514000D03*
X172212000Y-48514000D03*
X169672000Y-48514000D03*
X167132000Y-48514000D03*
X164592000Y-48514000D03*
X162052000Y-48514000D03*
X159512000Y-48514000D03*
D17*
X136020000Y-88000000D03*
X135000000Y-88000000D03*
D18*
X117472000Y-81556000D03*
X117472000Y-84056000D03*
X117472000Y-86056000D03*
X117472000Y-88556000D03*
D19*
X113792000Y-78486000D03*
X113792000Y-91626000D03*
D11*
X134980000Y-85000000D03*
X136000000Y-85000000D03*
X148750000Y-57000000D03*
X149770000Y-57000000D03*
D14*
X146700000Y-87000000D03*
X161000000Y-87000000D03*
X146700000Y-92000000D03*
X161000000Y-92000000D03*
D15*
X149000000Y-44000000D03*
D20*
X149000000Y-50500000D03*
D14*
X183000000Y-87000000D03*
X197300000Y-87000000D03*
X183000000Y-92000000D03*
X197300000Y-92000000D03*
X146700000Y-72000000D03*
X161000000Y-72000000D03*
X146700000Y-77000000D03*
X161000000Y-77000000D03*
X164700000Y-87000000D03*
X179000000Y-87000000D03*
X164700000Y-92000000D03*
X179000000Y-92000000D03*
D10*
X146285000Y-57000000D03*
X147255000Y-57000000D03*
D14*
X182950000Y-72000000D03*
X197250000Y-72000000D03*
X182950000Y-77000000D03*
X197250000Y-77000000D03*
D21*
X129210000Y-87300000D03*
X129210000Y-85000000D03*
D22*
X122910000Y-85000000D03*
D21*
X129210000Y-82700000D03*
D23*
X197250000Y-78950000D03*
X179000000Y-79100000D03*
X161000000Y-79150000D03*
X167132000Y-66150000D03*
X120550000Y-88550000D03*
X131900000Y-87300000D03*
X197300000Y-93900000D03*
X161000000Y-94150000D03*
X179000000Y-94150000D03*
X179000000Y-85000000D03*
X184900000Y-66100000D03*
X161000000Y-84950000D03*
X187450000Y-66100000D03*
X167132000Y-52000000D03*
X131900000Y-85000000D03*
X183000000Y-85000000D03*
X182350000Y-66100000D03*
D24*
X129150000Y-87300000D02*
X131900000Y-87300000D01*
X146285000Y-55615000D02*
X149000000Y-52900000D01*
X146295000Y-59250000D02*
X146295000Y-57010000D01*
X146295000Y-57010000D02*
X146285000Y-57000000D01*
X179000000Y-94150000D02*
X179000000Y-92000000D01*
X149000000Y-52900000D02*
X149000000Y-50500000D01*
X167132000Y-66150000D02*
X167132000Y-63754000D01*
X161000000Y-92000000D02*
X161000000Y-94150000D01*
X146285000Y-57000000D02*
X146285000Y-55615000D01*
X179000000Y-77000000D02*
X179000000Y-79100000D01*
X197250000Y-77000000D02*
X197250000Y-78950000D01*
X197300000Y-92000000D02*
X197300000Y-93900000D01*
X161000000Y-77000000D02*
X161000000Y-79150000D01*
X120544000Y-88556000D02*
X117472000Y-88556000D01*
X120550000Y-88550000D02*
X120544000Y-88556000D01*
X148760000Y-59250000D02*
X147265000Y-59250000D01*
X148750000Y-57000000D02*
X147255000Y-57000000D01*
X143067100Y-66067100D02*
X147332200Y-61802000D01*
X143067100Y-80952900D02*
X143067100Y-66067100D01*
X167720000Y-61802000D02*
X169672000Y-63754000D01*
X136020000Y-88000000D02*
X143067100Y-80952900D01*
X147332200Y-61802000D02*
X167720000Y-61802000D01*
X189992000Y-66357000D02*
X189000000Y-67349000D01*
X189000000Y-67349000D02*
X180083900Y-67349000D01*
X189992000Y-63754000D02*
X189992000Y-66357000D01*
X176483900Y-70949000D02*
X162051000Y-70949000D01*
X162051000Y-70949000D02*
X161000000Y-72000000D01*
X180083900Y-67349000D02*
X176483900Y-70949000D01*
X184912000Y-55088000D02*
X183000000Y-57000000D01*
X183000000Y-57000000D02*
X149770000Y-57000000D01*
X184912000Y-48514000D02*
X184912000Y-55088000D01*
X174752000Y-48514000D02*
X173238000Y-47000000D01*
X173238000Y-47000000D02*
X128820000Y-47000000D01*
X128820000Y-47000000D02*
X125270000Y-43450000D01*
X184912000Y-66088000D02*
X184900000Y-66100000D01*
X184912000Y-63754000D02*
X184912000Y-66088000D01*
X179000000Y-87000000D02*
X179000000Y-85000000D01*
X177858000Y-44000000D02*
X149000000Y-44000000D01*
X182372000Y-48514000D02*
X177858000Y-44000000D01*
X187450000Y-66100000D02*
X187452000Y-66098000D01*
X187452000Y-66098000D02*
X187452000Y-63754000D01*
X161000000Y-87000000D02*
X161000000Y-84950000D01*
X129150000Y-85000000D02*
X131900000Y-85000000D01*
X124740000Y-48000000D02*
X120190000Y-43450000D01*
X167132000Y-52000000D02*
X167132000Y-48514000D01*
X166031000Y-49615000D02*
X157615000Y-49615000D01*
X157615000Y-49615000D02*
X156000000Y-48000000D01*
X156000000Y-48000000D02*
X124740000Y-48000000D01*
X167132000Y-48514000D02*
X166031000Y-49615000D01*
X179000000Y-72000000D02*
X179000000Y-69000000D01*
X192532000Y-66218000D02*
X192532000Y-63754000D01*
X180250000Y-67750000D02*
X191000000Y-67750000D01*
X191000000Y-67750000D02*
X192532000Y-66218000D01*
X179000000Y-69000000D02*
X180250000Y-67750000D01*
X197250000Y-69500000D02*
X195072000Y-67322000D01*
X195072000Y-67322000D02*
X195072000Y-63754000D01*
X197250000Y-72000000D02*
X197250000Y-69500000D01*
X182372000Y-63754000D02*
X182372000Y-66078000D01*
X182372000Y-66078000D02*
X182350000Y-66100000D01*
X183000000Y-87000000D02*
X183000000Y-85000000D01*
X183166100Y-57401000D02*
X185313000Y-55254100D01*
X151151000Y-59250000D02*
X153000000Y-57401000D01*
X153000000Y-57401000D02*
X183166100Y-57401000D01*
X185313000Y-50653000D02*
X187452000Y-48514000D01*
X149780000Y-59250000D02*
X151151000Y-59250000D01*
X185313000Y-55254100D02*
X185313000Y-50653000D01*
X188000000Y-49062000D02*
X187452000Y-48514000D01*
X142401000Y-79599000D02*
X142401000Y-66166100D01*
X137000000Y-85000000D02*
X142401000Y-79599000D01*
X147166100Y-61401000D02*
X172399000Y-61401000D01*
X136000000Y-85000000D02*
X137000000Y-85000000D01*
X172399000Y-61401000D02*
X174752000Y-63754000D01*
X142401000Y-66166100D02*
X147166100Y-61401000D01*
X142000000Y-66000000D02*
X147000000Y-61000000D01*
X138000000Y-82000000D02*
X142000000Y-78000000D01*
X136000000Y-82000000D02*
X138000000Y-82000000D01*
X147000000Y-61000000D02*
X174538000Y-61000000D01*
X174538000Y-61000000D02*
X177292000Y-63754000D01*
X142000000Y-78000000D02*
X142000000Y-66000000D01*
X127810000Y-43450000D02*
X130959000Y-46599000D01*
X175377000Y-46599000D02*
X177292000Y-48514000D01*
X130959000Y-46599000D02*
X175377000Y-46599000D01*
X115671000Y-82482000D02*
X115671000Y-80630000D01*
X134980000Y-80980000D02*
X134980000Y-82000000D01*
X134980000Y-85000000D02*
X134980000Y-82000000D01*
X134000000Y-80000000D02*
X134980000Y-80980000D01*
X115671000Y-80630000D02*
X116301000Y-80000000D01*
X117245000Y-84056000D02*
X115671000Y-82482000D01*
X117472000Y-84056000D02*
X117245000Y-84056000D01*
X116301000Y-80000000D02*
X134000000Y-80000000D01*
X115671000Y-87630000D02*
X115671000Y-89671000D01*
X117472000Y-86056000D02*
X117245000Y-86056000D01*
X135000000Y-89000000D02*
X135000000Y-88000000D01*
X116000000Y-90000000D02*
X134000000Y-90000000D01*
X117245000Y-86056000D02*
X115671000Y-87630000D01*
X134000000Y-90000000D02*
X135000000Y-89000000D01*
X115671000Y-89671000D02*
X116000000Y-90000000D01*
X122556000Y-81556000D02*
X123700000Y-82700000D01*
X117472000Y-81556000D02*
X122556000Y-81556000D01*
X123700000Y-82700000D02*
X129150000Y-82700000D01*
M02*
