%TF.GenerationSoftware,KiCad,Pcbnew,9.0.3*%
%TF.CreationDate,2025-11-18T14:15:17+09:00*%
%TF.ProjectId,SpeedJeck,53706565-644a-4656-936b-2e6b69636164,1*%
%TF.SameCoordinates,Original*%
%TF.FileFunction,Copper,L2,Bot*%
%TF.FilePolarity,Positive*%
%FSLAX46Y46*%
G04 Gerber Fmt 4.6, Leading zero omitted, Abs format (unit mm)*
G04 Created by KiCad (PCBNEW 9.0.3) date 2025-11-18 14:15:17*
%MOMM*%
%LPD*%
G01*
G04 APERTURE LIST*
%TA.AperFunction,ComponentPad*%
%ADD10R,1.508000X1.508000*%
%TD*%
%TA.AperFunction,ComponentPad*%
%ADD11C,1.508000*%
%TD*%
%TA.AperFunction,ComponentPad*%
%ADD12R,1.600000X1.600000*%
%TD*%
%TA.AperFunction,ComponentPad*%
%ADD13O,1.600000X1.600000*%
%TD*%
%TA.AperFunction,HeatsinkPad*%
%ADD14C,3.000000*%
%TD*%
%TA.AperFunction,ComponentPad*%
%ADD15C,1.600000*%
%TD*%
%TA.AperFunction,ViaPad*%
%ADD16C,0.600000*%
%TD*%
%TA.AperFunction,Conductor*%
%ADD17C,0.200000*%
%TD*%
G04 APERTURE END LIST*
D10*
%TO.P,U1,1,Vcc*%
%TO.N,+3.3V*%
X120190000Y-43450000D03*
D11*
%TO.P,U1,2,GND*%
%TO.N,GND*%
X122730000Y-43450000D03*
%TO.P,U1,3,SCK*%
%TO.N,A5*%
X125270000Y-43450000D03*
%TO.P,U1,4,SDA*%
%TO.N,A4*%
X127810000Y-43450000D03*
%TD*%
D12*
%TO.P,A1,1,D1/TX*%
%TO.N,unconnected-(A1-D1{slash}TX-Pad1)*%
X159512000Y-63754000D03*
D13*
%TO.P,A1,2,D0/RX*%
%TO.N,unconnected-(A1-D0{slash}RX-Pad2)*%
X162052000Y-63754000D03*
%TO.P,A1,3,~{RESET}*%
%TO.N,unconnected-(A1-~{RESET}-Pad3)*%
X164592000Y-63754000D03*
%TO.P,A1,4,GND*%
%TO.N,GND*%
X167132000Y-63754000D03*
%TO.P,A1,5,D2*%
%TO.N,D2*%
X169672000Y-63754000D03*
%TO.P,A1,6,D3*%
%TO.N,unconnected-(A1-D3-Pad6)*%
X172212000Y-63754000D03*
%TO.P,A1,7,D4*%
%TO.N,D4*%
X174752000Y-63754000D03*
%TO.P,A1,8,D5*%
%TO.N,D5*%
X177292000Y-63754000D03*
%TO.P,A1,9,D6*%
%TO.N,unconnected-(A1-D6-Pad9)*%
X179832000Y-63754000D03*
%TO.P,A1,10,D7*%
%TO.N,D7*%
X182372000Y-63754000D03*
%TO.P,A1,11,D8*%
%TO.N,D8*%
X184912000Y-63754000D03*
%TO.P,A1,12,D9*%
%TO.N,D9*%
X187452000Y-63754000D03*
%TO.P,A1,13,D10*%
%TO.N,D10*%
X189992000Y-63754000D03*
%TO.P,A1,14,D11*%
%TO.N,D11*%
X192532000Y-63754000D03*
%TO.P,A1,15,D12*%
%TO.N,D12*%
X195072000Y-63754000D03*
%TO.P,A1,16,D13*%
%TO.N,unconnected-(A1-D13-Pad16)*%
X195072000Y-48514000D03*
%TO.P,A1,17,3V3*%
%TO.N,unconnected-(A1-3V3-Pad17)*%
X192532000Y-48514000D03*
%TO.P,A1,18,AREF*%
%TO.N,unconnected-(A1-AREF-Pad18)*%
X189992000Y-48514000D03*
%TO.P,A1,19,A0*%
%TO.N,A0*%
X187452000Y-48514000D03*
%TO.P,A1,20,A1*%
%TO.N,A1*%
X184912000Y-48514000D03*
%TO.P,A1,21,A2*%
%TO.N,A2*%
X182372000Y-48514000D03*
%TO.P,A1,22,A3*%
%TO.N,unconnected-(A1-A3-Pad22)*%
X179832000Y-48514000D03*
%TO.P,A1,23,A4*%
%TO.N,A4*%
X177292000Y-48514000D03*
%TO.P,A1,24,A5*%
%TO.N,A5*%
X174752000Y-48514000D03*
%TO.P,A1,25,A6*%
%TO.N,unconnected-(A1-A6-Pad25)*%
X172212000Y-48514000D03*
%TO.P,A1,26,A7*%
%TO.N,unconnected-(A1-A7-Pad26)*%
X169672000Y-48514000D03*
%TO.P,A1,27,+5V*%
%TO.N,+3.3V*%
X167132000Y-48514000D03*
%TO.P,A1,28,~{RESET}*%
%TO.N,unconnected-(A1-~{RESET}-Pad28)*%
X164592000Y-48514000D03*
%TO.P,A1,29,GND*%
%TO.N,unconnected-(A1-GND-Pad29)*%
X162052000Y-48514000D03*
%TO.P,A1,30,VIN*%
%TO.N,unconnected-(A1-VIN-Pad30)*%
X159512000Y-48514000D03*
%TD*%
D14*
%TO.P,J1,5,Shield*%
%TO.N,unconnected-(J1-Shield-Pad5)*%
X113792000Y-78486000D03*
%TO.N,unconnected-(J1-Shield-Pad5)_1*%
X113792000Y-91626000D03*
%TD*%
D12*
%TO.P,BZ1,1,+*%
%TO.N,A2*%
X149000000Y-44000000D03*
D15*
%TO.P,BZ1,2,-*%
%TO.N,GND*%
X149000000Y-50500000D03*
%TD*%
D16*
%TO.N,GND*%
X197250000Y-78950000D03*
X179000000Y-79100000D03*
X161000000Y-79150000D03*
X167132000Y-66150000D03*
X120550000Y-88550000D03*
X131900000Y-87300000D03*
X197300000Y-93900000D03*
X161000000Y-94150000D03*
X179000000Y-94150000D03*
%TO.N,D8*%
X179000000Y-85000000D03*
X184900000Y-66100000D03*
%TO.N,D9*%
X161000000Y-84950000D03*
X187450000Y-66100000D03*
%TO.N,+3.3V*%
X167132000Y-52000000D03*
X131900000Y-85000000D03*
%TO.N,D7*%
X183000000Y-85000000D03*
X182350000Y-66100000D03*
%TD*%
D17*
%TO.N,D8*%
X184000000Y-86000000D02*
X181000000Y-86000000D01*
X184900000Y-66100000D02*
X184900000Y-85100000D01*
X180000000Y-85000000D02*
X179000000Y-85000000D01*
X184900000Y-85100000D02*
X184000000Y-86000000D01*
X181000000Y-86000000D02*
X180000000Y-85000000D01*
%TO.N,D9*%
X180082900Y-85650000D02*
X180833900Y-86401000D01*
X161000000Y-84950000D02*
X177850000Y-84950000D01*
X184917100Y-85650000D02*
X186350000Y-85650000D01*
X186350000Y-85650000D02*
X187450000Y-84550000D01*
X184166100Y-86401000D02*
X184917100Y-85650000D01*
X178550000Y-85650000D02*
X180082900Y-85650000D01*
X177850000Y-84950000D02*
X178550000Y-85650000D01*
X180833900Y-86401000D02*
X184166100Y-86401000D01*
X187450000Y-84550000D02*
X187450000Y-66100000D01*
%TO.N,+3.3V*%
X148000000Y-53000000D02*
X144000000Y-57000000D01*
X144000000Y-57000000D02*
X144000000Y-80000000D01*
X139000000Y-85000000D02*
X131900000Y-85000000D01*
X167132000Y-52000000D02*
X166132000Y-53000000D01*
X144000000Y-80000000D02*
X139000000Y-85000000D01*
X166132000Y-53000000D02*
X148000000Y-53000000D01*
%TO.N,D7*%
X182350000Y-84350000D02*
X183000000Y-85000000D01*
X182350000Y-66100000D02*
X182350000Y-84350000D01*
%TD*%
%TA.AperFunction,Conductor*%
%TO.N,GND*%
G36*
X196003736Y-40500726D02*
G01*
X196293796Y-40518271D01*
X196308659Y-40520076D01*
X196590798Y-40571780D01*
X196605335Y-40575363D01*
X196879172Y-40660695D01*
X196893163Y-40666000D01*
X197154743Y-40783727D01*
X197167989Y-40790680D01*
X197413465Y-40939075D01*
X197425776Y-40947573D01*
X197651573Y-41124473D01*
X197662781Y-41134403D01*
X197865596Y-41337218D01*
X197875526Y-41348426D01*
X197995481Y-41501538D01*
X198052422Y-41574217D01*
X198060928Y-41586540D01*
X198209316Y-41832004D01*
X198216275Y-41845263D01*
X198333997Y-42106831D01*
X198339306Y-42120832D01*
X198424635Y-42394663D01*
X198428219Y-42409201D01*
X198479923Y-42691340D01*
X198481728Y-42706205D01*
X198499274Y-42996263D01*
X198499500Y-43003750D01*
X198499500Y-94996249D01*
X198499274Y-95003736D01*
X198481728Y-95293794D01*
X198479923Y-95308659D01*
X198428219Y-95590798D01*
X198424635Y-95605336D01*
X198339306Y-95879167D01*
X198333997Y-95893168D01*
X198216275Y-96154736D01*
X198209316Y-96167995D01*
X198060928Y-96413459D01*
X198052422Y-96425782D01*
X197875526Y-96651573D01*
X197865596Y-96662781D01*
X197662781Y-96865596D01*
X197651573Y-96875526D01*
X197425782Y-97052422D01*
X197413459Y-97060928D01*
X197167995Y-97209316D01*
X197154736Y-97216275D01*
X196893168Y-97333997D01*
X196879167Y-97339306D01*
X196605336Y-97424635D01*
X196590798Y-97428219D01*
X196308659Y-97479923D01*
X196293794Y-97481728D01*
X196003736Y-97499274D01*
X195996249Y-97499500D01*
X108003750Y-97499500D01*
X107996263Y-97499274D01*
X107706204Y-97481728D01*
X107691339Y-97479923D01*
X107409201Y-97428219D01*
X107394663Y-97424635D01*
X107120824Y-97339304D01*
X107106826Y-97333995D01*
X106954095Y-97265256D01*
X106845268Y-97216277D01*
X106832010Y-97209319D01*
X106586540Y-97060928D01*
X106574217Y-97052422D01*
X106348426Y-96875525D01*
X106337218Y-96865595D01*
X106134403Y-96662781D01*
X106124473Y-96651573D01*
X105947573Y-96425776D01*
X105939071Y-96413458D01*
X105790680Y-96167987D01*
X105783722Y-96154730D01*
X105666000Y-95893163D01*
X105660698Y-95879182D01*
X105575363Y-95605334D01*
X105571780Y-95590797D01*
X105520076Y-95308659D01*
X105518271Y-95293794D01*
X105500726Y-95003736D01*
X105500500Y-94996249D01*
X105500500Y-91494872D01*
X111791500Y-91494872D01*
X111791500Y-91757127D01*
X111818123Y-91959339D01*
X111825730Y-92017116D01*
X111893602Y-92270418D01*
X111893605Y-92270428D01*
X111993953Y-92512690D01*
X111993958Y-92512700D01*
X112125075Y-92739803D01*
X112284718Y-92947851D01*
X112284726Y-92947860D01*
X112470140Y-93133274D01*
X112470148Y-93133281D01*
X112678196Y-93292924D01*
X112905299Y-93424041D01*
X112905309Y-93424046D01*
X113147571Y-93524394D01*
X113147581Y-93524398D01*
X113400884Y-93592270D01*
X113660880Y-93626500D01*
X113660887Y-93626500D01*
X113923113Y-93626500D01*
X113923120Y-93626500D01*
X114183116Y-93592270D01*
X114436419Y-93524398D01*
X114678697Y-93424043D01*
X114905803Y-93292924D01*
X115113851Y-93133282D01*
X115113855Y-93133277D01*
X115113860Y-93133274D01*
X115299274Y-92947860D01*
X115299277Y-92947855D01*
X115299282Y-92947851D01*
X115458924Y-92739803D01*
X115590043Y-92512697D01*
X115690398Y-92270419D01*
X115758270Y-92017116D01*
X115792500Y-91757120D01*
X115792500Y-91494880D01*
X115758270Y-91234884D01*
X115690398Y-90981581D01*
X115690394Y-90981571D01*
X115590046Y-90739309D01*
X115590041Y-90739299D01*
X115458924Y-90512196D01*
X115299281Y-90304148D01*
X115299274Y-90304140D01*
X115113860Y-90118726D01*
X115113851Y-90118718D01*
X114905803Y-89959075D01*
X114678700Y-89827958D01*
X114678690Y-89827953D01*
X114436428Y-89727605D01*
X114436421Y-89727603D01*
X114436419Y-89727602D01*
X114183116Y-89659730D01*
X114125339Y-89652123D01*
X113923127Y-89625500D01*
X113923120Y-89625500D01*
X113660880Y-89625500D01*
X113660872Y-89625500D01*
X113429772Y-89655926D01*
X113400884Y-89659730D01*
X113147581Y-89727602D01*
X113147571Y-89727605D01*
X112905309Y-89827953D01*
X112905299Y-89827958D01*
X112678196Y-89959075D01*
X112470148Y-90118718D01*
X112284718Y-90304148D01*
X112125075Y-90512196D01*
X111993958Y-90739299D01*
X111993953Y-90739309D01*
X111893605Y-90981571D01*
X111893602Y-90981581D01*
X111825730Y-91234885D01*
X111791500Y-91494872D01*
X105500500Y-91494872D01*
X105500500Y-84921153D01*
X131099500Y-84921153D01*
X131099500Y-85078846D01*
X131130261Y-85233489D01*
X131130264Y-85233501D01*
X131190602Y-85379172D01*
X131190609Y-85379185D01*
X131278210Y-85510288D01*
X131278213Y-85510292D01*
X131389707Y-85621786D01*
X131389711Y-85621789D01*
X131520814Y-85709390D01*
X131520827Y-85709397D01*
X131620060Y-85750500D01*
X131666503Y-85769737D01*
X131821153Y-85800499D01*
X131821156Y-85800500D01*
X131821158Y-85800500D01*
X131978844Y-85800500D01*
X131978845Y-85800499D01*
X132133497Y-85769737D01*
X132279179Y-85709394D01*
X132354005Y-85659397D01*
X132410875Y-85621398D01*
X132477553Y-85600520D01*
X132479766Y-85600500D01*
X138913331Y-85600500D01*
X138913347Y-85600501D01*
X138920943Y-85600501D01*
X139079054Y-85600501D01*
X139079057Y-85600501D01*
X139231785Y-85559577D01*
X139289136Y-85526465D01*
X139368716Y-85480520D01*
X139480520Y-85368716D01*
X139480520Y-85368714D01*
X139490724Y-85358511D01*
X139490728Y-85358506D01*
X139978081Y-84871153D01*
X160199500Y-84871153D01*
X160199500Y-85028846D01*
X160230261Y-85183489D01*
X160230264Y-85183501D01*
X160290602Y-85329172D01*
X160290609Y-85329185D01*
X160378210Y-85460288D01*
X160378213Y-85460292D01*
X160489707Y-85571786D01*
X160489711Y-85571789D01*
X160620814Y-85659390D01*
X160620827Y-85659397D01*
X160766498Y-85719735D01*
X160766503Y-85719737D01*
X160921153Y-85750499D01*
X160921156Y-85750500D01*
X160921158Y-85750500D01*
X161078844Y-85750500D01*
X161078845Y-85750499D01*
X161233497Y-85719737D01*
X161379179Y-85659394D01*
X161435459Y-85621789D01*
X161510875Y-85571398D01*
X161577553Y-85550520D01*
X161579766Y-85550500D01*
X177549903Y-85550500D01*
X177616942Y-85570185D01*
X177637584Y-85586819D01*
X178065139Y-86014374D01*
X178065149Y-86014385D01*
X178069479Y-86018715D01*
X178069480Y-86018716D01*
X178181284Y-86130520D01*
X178181286Y-86130521D01*
X178181290Y-86130524D01*
X178248306Y-86169215D01*
X178318216Y-86209577D01*
X178401098Y-86231785D01*
X178470942Y-86250500D01*
X178470943Y-86250500D01*
X179782803Y-86250500D01*
X179849842Y-86270185D01*
X179870484Y-86286819D01*
X180349039Y-86765374D01*
X180349049Y-86765385D01*
X180353379Y-86769715D01*
X180353380Y-86769716D01*
X180465184Y-86881520D01*
X180465186Y-86881521D01*
X180465190Y-86881524D01*
X180602109Y-86960573D01*
X180602116Y-86960577D01*
X180713919Y-86990534D01*
X180754842Y-87001500D01*
X180754843Y-87001500D01*
X184079431Y-87001500D01*
X184079447Y-87001501D01*
X184087043Y-87001501D01*
X184245154Y-87001501D01*
X184245157Y-87001501D01*
X184397885Y-86960577D01*
X184448004Y-86931639D01*
X184534816Y-86881520D01*
X184646620Y-86769716D01*
X184646620Y-86769714D01*
X184656828Y-86759507D01*
X184656829Y-86759504D01*
X185129516Y-86286819D01*
X185190839Y-86253334D01*
X185217197Y-86250500D01*
X186263331Y-86250500D01*
X186263347Y-86250501D01*
X186270943Y-86250501D01*
X186429054Y-86250501D01*
X186429057Y-86250501D01*
X186581785Y-86209577D01*
X186651692Y-86169216D01*
X186718716Y-86130520D01*
X186830520Y-86018716D01*
X186830520Y-86018714D01*
X186840724Y-86008511D01*
X186840728Y-86008506D01*
X187808506Y-85040728D01*
X187808511Y-85040724D01*
X187818714Y-85030520D01*
X187818716Y-85030520D01*
X187930520Y-84918716D01*
X187993139Y-84810256D01*
X188009577Y-84781785D01*
X188050501Y-84629057D01*
X188050501Y-84470943D01*
X188050501Y-84463348D01*
X188050500Y-84463330D01*
X188050500Y-66679765D01*
X188070185Y-66612726D01*
X188071398Y-66610874D01*
X188159390Y-66479185D01*
X188159390Y-66479184D01*
X188159394Y-66479179D01*
X188219737Y-66333497D01*
X188250500Y-66178842D01*
X188250500Y-66021158D01*
X188250500Y-66021155D01*
X188250499Y-66021153D01*
X188219738Y-65866510D01*
X188219737Y-65866503D01*
X188219735Y-65866498D01*
X188159397Y-65720827D01*
X188159390Y-65720814D01*
X188071789Y-65589711D01*
X188071786Y-65589707D01*
X187960292Y-65478213D01*
X187960288Y-65478210D01*
X187829185Y-65390609D01*
X187829172Y-65390602D01*
X187683501Y-65330264D01*
X187683489Y-65330261D01*
X187543911Y-65302497D01*
X187543908Y-65302496D01*
X187528842Y-65299500D01*
X187371158Y-65299500D01*
X187356327Y-65302450D01*
X187356318Y-65302450D01*
X187216508Y-65330261D01*
X187216498Y-65330264D01*
X187070827Y-65390602D01*
X187070814Y-65390609D01*
X186939711Y-65478210D01*
X186939707Y-65478213D01*
X186828213Y-65589707D01*
X186828210Y-65589711D01*
X186740609Y-65720814D01*
X186740602Y-65720827D01*
X186680264Y-65866498D01*
X186680261Y-65866510D01*
X186649500Y-66021153D01*
X186649500Y-66178846D01*
X186680261Y-66333489D01*
X186680264Y-66333501D01*
X186740602Y-66479172D01*
X186740609Y-66479185D01*
X186828602Y-66610874D01*
X186849480Y-66677551D01*
X186849500Y-66679765D01*
X186849500Y-84249903D01*
X186829815Y-84316942D01*
X186813181Y-84337584D01*
X186137584Y-85013181D01*
X186076261Y-85046666D01*
X186049903Y-85049500D01*
X185624500Y-85049500D01*
X185557461Y-85029815D01*
X185511706Y-84977011D01*
X185500500Y-84925500D01*
X185500500Y-66679765D01*
X185520185Y-66612726D01*
X185521398Y-66610874D01*
X185609390Y-66479185D01*
X185609390Y-66479184D01*
X185609394Y-66479179D01*
X185669737Y-66333497D01*
X185700500Y-66178842D01*
X185700500Y-66021158D01*
X185700500Y-66021155D01*
X185700499Y-66021153D01*
X185669738Y-65866510D01*
X185669737Y-65866503D01*
X185669735Y-65866498D01*
X185609397Y-65720827D01*
X185609390Y-65720814D01*
X185521789Y-65589711D01*
X185521786Y-65589707D01*
X185410292Y-65478213D01*
X185410288Y-65478210D01*
X185279185Y-65390609D01*
X185279172Y-65390602D01*
X185133501Y-65330264D01*
X185133489Y-65330261D01*
X184993743Y-65302463D01*
X184993737Y-65302462D01*
X184978842Y-65299500D01*
X184821158Y-65299500D01*
X184808996Y-65301919D01*
X184808990Y-65301919D01*
X184666508Y-65330261D01*
X184666498Y-65330264D01*
X184520827Y-65390602D01*
X184520814Y-65390609D01*
X184389711Y-65478210D01*
X184389707Y-65478213D01*
X184278213Y-65589707D01*
X184278210Y-65589711D01*
X184190609Y-65720814D01*
X184190602Y-65720827D01*
X184130264Y-65866498D01*
X184130261Y-65866510D01*
X184099500Y-66021153D01*
X184099500Y-66178846D01*
X184130261Y-66333489D01*
X184130264Y-66333501D01*
X184190602Y-66479172D01*
X184190609Y-66479185D01*
X184278602Y-66610874D01*
X184299480Y-66677551D01*
X184299500Y-66679765D01*
X184299500Y-84799903D01*
X184279815Y-84866942D01*
X184263181Y-84887584D01*
X184012181Y-85138584D01*
X183950858Y-85172069D01*
X183881166Y-85167085D01*
X183825233Y-85125213D01*
X183800816Y-85059749D01*
X183800500Y-85050903D01*
X183800500Y-84921155D01*
X183800499Y-84921153D01*
X183778439Y-84810253D01*
X183769737Y-84766503D01*
X183749940Y-84718709D01*
X183709397Y-84620827D01*
X183709390Y-84620814D01*
X183621789Y-84489711D01*
X183621786Y-84489707D01*
X183510292Y-84378213D01*
X183510288Y-84378210D01*
X183379185Y-84290609D01*
X183379172Y-84290602D01*
X183233501Y-84230264D01*
X183233491Y-84230261D01*
X183078149Y-84199361D01*
X183061392Y-84190595D01*
X183042914Y-84186576D01*
X183017877Y-84167833D01*
X183016238Y-84166976D01*
X183014660Y-84165425D01*
X182986819Y-84137584D01*
X182953334Y-84076261D01*
X182950500Y-84049903D01*
X182950500Y-66679765D01*
X182970185Y-66612726D01*
X182971398Y-66610874D01*
X183059390Y-66479185D01*
X183059390Y-66479184D01*
X183059394Y-66479179D01*
X183119737Y-66333497D01*
X183150500Y-66178842D01*
X183150500Y-66021158D01*
X183150500Y-66021155D01*
X183150499Y-66021153D01*
X183119738Y-65866510D01*
X183119737Y-65866503D01*
X183119735Y-65866498D01*
X183059397Y-65720827D01*
X183059390Y-65720814D01*
X182971789Y-65589711D01*
X182971786Y-65589707D01*
X182860292Y-65478213D01*
X182860288Y-65478210D01*
X182729185Y-65390609D01*
X182729172Y-65390602D01*
X182583501Y-65330264D01*
X182583489Y-65330261D01*
X182443503Y-65302415D01*
X182443496Y-65302414D01*
X182428842Y-65299500D01*
X182271158Y-65299500D01*
X182262762Y-65301170D01*
X182262756Y-65301170D01*
X182116508Y-65330261D01*
X182116498Y-65330264D01*
X181970827Y-65390602D01*
X181970814Y-65390609D01*
X181839711Y-65478210D01*
X181839707Y-65478213D01*
X181728213Y-65589707D01*
X181728210Y-65589711D01*
X181640609Y-65720814D01*
X181640602Y-65720827D01*
X181580264Y-65866498D01*
X181580261Y-65866510D01*
X181549500Y-66021153D01*
X181549500Y-66178846D01*
X181580261Y-66333489D01*
X181580264Y-66333501D01*
X181640602Y-66479172D01*
X181640609Y-66479185D01*
X181728602Y-66610874D01*
X181749480Y-66677551D01*
X181749500Y-66679765D01*
X181749500Y-84263330D01*
X181749499Y-84263348D01*
X181749499Y-84429054D01*
X181749498Y-84429054D01*
X181790424Y-84581789D01*
X181790425Y-84581790D01*
X181812186Y-84619480D01*
X181812187Y-84619482D01*
X181869475Y-84718709D01*
X181869481Y-84718717D01*
X181988349Y-84837585D01*
X181988355Y-84837590D01*
X182165425Y-85014660D01*
X182174284Y-85030885D01*
X182187216Y-85044101D01*
X182197982Y-85074284D01*
X182198910Y-85075983D01*
X182199190Y-85077302D01*
X182199500Y-85078805D01*
X182199500Y-85078842D01*
X182230263Y-85233497D01*
X182232513Y-85238930D01*
X182234891Y-85250461D01*
X182232954Y-85273940D01*
X182235503Y-85297359D01*
X182230136Y-85308113D01*
X182229149Y-85320094D01*
X182214825Y-85338799D01*
X182204309Y-85359878D01*
X182193980Y-85366024D01*
X182186672Y-85375569D01*
X182164508Y-85383562D01*
X182144266Y-85395608D01*
X182124018Y-85398164D01*
X182120946Y-85399273D01*
X182118918Y-85398808D01*
X182113445Y-85399500D01*
X181300098Y-85399500D01*
X181233059Y-85379815D01*
X181212417Y-85363181D01*
X180487590Y-84638355D01*
X180487588Y-84638352D01*
X180368717Y-84519481D01*
X180368709Y-84519475D01*
X180239235Y-84444724D01*
X180239231Y-84444722D01*
X180231785Y-84440423D01*
X180079057Y-84399499D01*
X179920943Y-84399499D01*
X179913347Y-84399499D01*
X179913331Y-84399500D01*
X179579766Y-84399500D01*
X179512727Y-84379815D01*
X179510875Y-84378602D01*
X179379185Y-84290609D01*
X179379172Y-84290602D01*
X179233501Y-84230264D01*
X179233489Y-84230261D01*
X179078845Y-84199500D01*
X179078842Y-84199500D01*
X178921158Y-84199500D01*
X178921155Y-84199500D01*
X178766510Y-84230261D01*
X178766498Y-84230264D01*
X178620827Y-84290602D01*
X178620814Y-84290609D01*
X178489711Y-84378210D01*
X178396259Y-84471662D01*
X178334935Y-84505146D01*
X178265244Y-84500162D01*
X178242637Y-84488993D01*
X178230789Y-84481553D01*
X178218716Y-84469480D01*
X178131904Y-84419360D01*
X178081785Y-84390423D01*
X177929057Y-84349499D01*
X177770943Y-84349499D01*
X177763347Y-84349499D01*
X177763331Y-84349500D01*
X161579766Y-84349500D01*
X161512727Y-84329815D01*
X161510875Y-84328602D01*
X161379185Y-84240609D01*
X161379172Y-84240602D01*
X161233501Y-84180264D01*
X161233489Y-84180261D01*
X161078845Y-84149500D01*
X161078842Y-84149500D01*
X160921158Y-84149500D01*
X160921155Y-84149500D01*
X160766510Y-84180261D01*
X160766498Y-84180264D01*
X160620827Y-84240602D01*
X160620814Y-84240609D01*
X160489711Y-84328210D01*
X160489707Y-84328213D01*
X160378213Y-84439707D01*
X160378210Y-84439711D01*
X160290609Y-84570814D01*
X160290602Y-84570827D01*
X160230264Y-84716498D01*
X160230261Y-84716510D01*
X160199500Y-84871153D01*
X139978081Y-84871153D01*
X144368713Y-80480521D01*
X144368716Y-80480520D01*
X144480520Y-80368716D01*
X144530639Y-80281904D01*
X144559577Y-80231785D01*
X144600501Y-80079057D01*
X144600501Y-79920943D01*
X144600501Y-79913348D01*
X144600500Y-79913330D01*
X144600500Y-62906135D01*
X158211500Y-62906135D01*
X158211500Y-64601870D01*
X158211501Y-64601876D01*
X158217908Y-64661483D01*
X158268202Y-64796328D01*
X158268206Y-64796335D01*
X158354452Y-64911544D01*
X158354455Y-64911547D01*
X158469664Y-64997793D01*
X158469671Y-64997797D01*
X158604517Y-65048091D01*
X158604516Y-65048091D01*
X158611444Y-65048835D01*
X158664127Y-65054500D01*
X160359872Y-65054499D01*
X160419483Y-65048091D01*
X160554331Y-64997796D01*
X160669546Y-64911546D01*
X160755796Y-64796331D01*
X160806091Y-64661483D01*
X160810061Y-64624556D01*
X160836796Y-64560011D01*
X160894188Y-64520161D01*
X160964013Y-64517666D01*
X161024102Y-64553317D01*
X161033667Y-64564929D01*
X161060032Y-64601217D01*
X161204786Y-64745971D01*
X161359749Y-64858556D01*
X161370390Y-64866287D01*
X161459212Y-64911544D01*
X161552776Y-64959218D01*
X161552778Y-64959218D01*
X161552781Y-64959220D01*
X161657137Y-64993127D01*
X161747465Y-65022477D01*
X161848557Y-65038488D01*
X161949648Y-65054500D01*
X161949649Y-65054500D01*
X162154351Y-65054500D01*
X162154352Y-65054500D01*
X162356534Y-65022477D01*
X162551219Y-64959220D01*
X162733610Y-64866287D01*
X162829901Y-64796328D01*
X162899213Y-64745971D01*
X162899215Y-64745968D01*
X162899219Y-64745966D01*
X163043966Y-64601219D01*
X163043968Y-64601215D01*
X163043971Y-64601213D01*
X163164284Y-64435614D01*
X163164286Y-64435611D01*
X163164287Y-64435610D01*
X163211516Y-64342917D01*
X163259489Y-64292123D01*
X163327310Y-64275328D01*
X163393445Y-64297865D01*
X163432485Y-64342919D01*
X163479715Y-64435614D01*
X163600028Y-64601213D01*
X163744786Y-64745971D01*
X163899749Y-64858556D01*
X163910390Y-64866287D01*
X163999212Y-64911544D01*
X164092776Y-64959218D01*
X164092778Y-64959218D01*
X164092781Y-64959220D01*
X164197137Y-64993127D01*
X164287465Y-65022477D01*
X164388557Y-65038488D01*
X164489648Y-65054500D01*
X164489649Y-65054500D01*
X164694351Y-65054500D01*
X164694352Y-65054500D01*
X164896534Y-65022477D01*
X165091219Y-64959220D01*
X165273610Y-64866287D01*
X165369901Y-64796328D01*
X165439213Y-64745971D01*
X165439215Y-64745968D01*
X165439219Y-64745966D01*
X165583966Y-64601219D01*
X165583968Y-64601215D01*
X165583971Y-64601213D01*
X165704284Y-64435614D01*
X165704286Y-64435611D01*
X165704287Y-64435610D01*
X165751795Y-64342369D01*
X165799770Y-64291574D01*
X165867591Y-64274779D01*
X165933725Y-64297316D01*
X165972765Y-64342370D01*
X166020140Y-64435349D01*
X166140417Y-64600894D01*
X166140417Y-64600895D01*
X166285104Y-64745582D01*
X166450650Y-64865859D01*
X166632968Y-64958754D01*
X166827578Y-65021988D01*
X166882000Y-65030607D01*
X166882000Y-64187012D01*
X166939007Y-64219925D01*
X167066174Y-64254000D01*
X167197826Y-64254000D01*
X167324993Y-64219925D01*
X167382000Y-64187012D01*
X167382000Y-65030606D01*
X167436421Y-65021988D01*
X167631031Y-64958754D01*
X167813349Y-64865859D01*
X167978894Y-64745582D01*
X167978895Y-64745582D01*
X168123582Y-64600895D01*
X168123582Y-64600894D01*
X168243861Y-64435347D01*
X168291234Y-64342371D01*
X168339208Y-64291575D01*
X168407028Y-64274779D01*
X168473164Y-64297316D01*
X168512203Y-64342369D01*
X168559713Y-64435611D01*
X168680028Y-64601213D01*
X168824786Y-64745971D01*
X168979749Y-64858556D01*
X168990390Y-64866287D01*
X169079212Y-64911544D01*
X169172776Y-64959218D01*
X169172778Y-64959218D01*
X169172781Y-64959220D01*
X169277137Y-64993127D01*
X169367465Y-65022477D01*
X169468557Y-65038488D01*
X169569648Y-65054500D01*
X169569649Y-65054500D01*
X169774351Y-65054500D01*
X169774352Y-65054500D01*
X169976534Y-65022477D01*
X170171219Y-64959220D01*
X170353610Y-64866287D01*
X170449901Y-64796328D01*
X170519213Y-64745971D01*
X170519215Y-64745968D01*
X170519219Y-64745966D01*
X170663966Y-64601219D01*
X170663968Y-64601215D01*
X170663971Y-64601213D01*
X170784284Y-64435614D01*
X170784286Y-64435611D01*
X170784287Y-64435610D01*
X170831516Y-64342917D01*
X170879489Y-64292123D01*
X170947310Y-64275328D01*
X171013445Y-64297865D01*
X171052485Y-64342919D01*
X171099715Y-64435614D01*
X171220028Y-64601213D01*
X171364786Y-64745971D01*
X171519749Y-64858556D01*
X171530390Y-64866287D01*
X171619212Y-64911544D01*
X171712776Y-64959218D01*
X171712778Y-64959218D01*
X171712781Y-64959220D01*
X171817137Y-64993127D01*
X171907465Y-65022477D01*
X172008557Y-65038488D01*
X172109648Y-65054500D01*
X172109649Y-65054500D01*
X172314351Y-65054500D01*
X172314352Y-65054500D01*
X172516534Y-65022477D01*
X172711219Y-64959220D01*
X172893610Y-64866287D01*
X172989901Y-64796328D01*
X173059213Y-64745971D01*
X173059215Y-64745968D01*
X173059219Y-64745966D01*
X173203966Y-64601219D01*
X173203968Y-64601215D01*
X173203971Y-64601213D01*
X173324284Y-64435614D01*
X173324286Y-64435611D01*
X173324287Y-64435610D01*
X173371516Y-64342917D01*
X173419489Y-64292123D01*
X173487310Y-64275328D01*
X173553445Y-64297865D01*
X173592485Y-64342919D01*
X173639715Y-64435614D01*
X173760028Y-64601213D01*
X173904786Y-64745971D01*
X174059749Y-64858556D01*
X174070390Y-64866287D01*
X174159212Y-64911544D01*
X174252776Y-64959218D01*
X174252778Y-64959218D01*
X174252781Y-64959220D01*
X174357137Y-64993127D01*
X174447465Y-65022477D01*
X174548557Y-65038488D01*
X174649648Y-65054500D01*
X174649649Y-65054500D01*
X174854351Y-65054500D01*
X174854352Y-65054500D01*
X175056534Y-65022477D01*
X175251219Y-64959220D01*
X175433610Y-64866287D01*
X175529901Y-64796328D01*
X175599213Y-64745971D01*
X175599215Y-64745968D01*
X175599219Y-64745966D01*
X175743966Y-64601219D01*
X175743968Y-64601215D01*
X175743971Y-64601213D01*
X175864284Y-64435614D01*
X175864286Y-64435611D01*
X175864287Y-64435610D01*
X175911516Y-64342917D01*
X175959489Y-64292123D01*
X176027310Y-64275328D01*
X176093445Y-64297865D01*
X176132485Y-64342919D01*
X176179715Y-64435614D01*
X176300028Y-64601213D01*
X176444786Y-64745971D01*
X176599749Y-64858556D01*
X176610390Y-64866287D01*
X176699212Y-64911544D01*
X176792776Y-64959218D01*
X176792778Y-64959218D01*
X176792781Y-64959220D01*
X176897137Y-64993127D01*
X176987465Y-65022477D01*
X177088557Y-65038488D01*
X177189648Y-65054500D01*
X177189649Y-65054500D01*
X177394351Y-65054500D01*
X177394352Y-65054500D01*
X177596534Y-65022477D01*
X177791219Y-64959220D01*
X177973610Y-64866287D01*
X178069901Y-64796328D01*
X178139213Y-64745971D01*
X178139215Y-64745968D01*
X178139219Y-64745966D01*
X178283966Y-64601219D01*
X178283968Y-64601215D01*
X178283971Y-64601213D01*
X178404284Y-64435614D01*
X178404286Y-64435611D01*
X178404287Y-64435610D01*
X178451516Y-64342917D01*
X178499489Y-64292123D01*
X178567310Y-64275328D01*
X178633445Y-64297865D01*
X178672485Y-64342919D01*
X178719715Y-64435614D01*
X178840028Y-64601213D01*
X178984786Y-64745971D01*
X179139749Y-64858556D01*
X179150390Y-64866287D01*
X179239212Y-64911544D01*
X179332776Y-64959218D01*
X179332778Y-64959218D01*
X179332781Y-64959220D01*
X179437137Y-64993127D01*
X179527465Y-65022477D01*
X179628557Y-65038488D01*
X179729648Y-65054500D01*
X179729649Y-65054500D01*
X179934351Y-65054500D01*
X179934352Y-65054500D01*
X180136534Y-65022477D01*
X180331219Y-64959220D01*
X180513610Y-64866287D01*
X180609901Y-64796328D01*
X180679213Y-64745971D01*
X180679215Y-64745968D01*
X180679219Y-64745966D01*
X180823966Y-64601219D01*
X180823968Y-64601215D01*
X180823971Y-64601213D01*
X180944284Y-64435614D01*
X180944286Y-64435611D01*
X180944287Y-64435610D01*
X180991516Y-64342917D01*
X181039489Y-64292123D01*
X181107310Y-64275328D01*
X181173445Y-64297865D01*
X181212485Y-64342919D01*
X181259715Y-64435614D01*
X181380028Y-64601213D01*
X181524786Y-64745971D01*
X181679749Y-64858556D01*
X181690390Y-64866287D01*
X181779212Y-64911544D01*
X181872776Y-64959218D01*
X181872778Y-64959218D01*
X181872781Y-64959220D01*
X182067466Y-65022477D01*
X182269648Y-65054500D01*
X182456558Y-65054500D01*
X182474351Y-65054500D01*
X182474352Y-65054500D01*
X182676534Y-65022477D01*
X182871219Y-64959220D01*
X183053610Y-64866287D01*
X183149901Y-64796328D01*
X183219213Y-64745971D01*
X183219215Y-64745968D01*
X183219219Y-64745966D01*
X183363966Y-64601219D01*
X183363968Y-64601215D01*
X183363971Y-64601213D01*
X183484284Y-64435614D01*
X183484286Y-64435611D01*
X183484287Y-64435610D01*
X183531516Y-64342917D01*
X183579489Y-64292123D01*
X183647310Y-64275328D01*
X183713445Y-64297865D01*
X183752485Y-64342919D01*
X183799715Y-64435614D01*
X183920028Y-64601213D01*
X184064786Y-64745971D01*
X184219749Y-64858556D01*
X184230390Y-64866287D01*
X184319212Y-64911544D01*
X184412776Y-64959218D01*
X184412778Y-64959218D01*
X184412781Y-64959220D01*
X184517137Y-64993127D01*
X184607465Y-65022477D01*
X184658796Y-65030607D01*
X184809648Y-65054500D01*
X185006163Y-65054500D01*
X185014351Y-65054500D01*
X185014352Y-65054500D01*
X185216534Y-65022477D01*
X185411219Y-64959220D01*
X185593610Y-64866287D01*
X185689901Y-64796328D01*
X185759213Y-64745971D01*
X185759215Y-64745968D01*
X185759219Y-64745966D01*
X185903966Y-64601219D01*
X185903968Y-64601215D01*
X185903971Y-64601213D01*
X186024284Y-64435614D01*
X186024286Y-64435611D01*
X186024287Y-64435610D01*
X186071516Y-64342917D01*
X186119489Y-64292123D01*
X186187310Y-64275328D01*
X186253445Y-64297865D01*
X186292485Y-64342919D01*
X186339715Y-64435614D01*
X186460028Y-64601213D01*
X186604786Y-64745971D01*
X186759749Y-64858556D01*
X186770390Y-64866287D01*
X186859212Y-64911544D01*
X186952776Y-64959218D01*
X186952778Y-64959218D01*
X186952781Y-64959220D01*
X187057137Y-64993127D01*
X187147465Y-65022477D01*
X187198796Y-65030607D01*
X187349648Y-65054500D01*
X187554352Y-65054500D01*
X187756534Y-65022477D01*
X187951219Y-64959220D01*
X188133610Y-64866287D01*
X188229901Y-64796328D01*
X188299213Y-64745971D01*
X188299215Y-64745968D01*
X188299219Y-64745966D01*
X188443966Y-64601219D01*
X188443968Y-64601215D01*
X188443971Y-64601213D01*
X188564284Y-64435614D01*
X188564286Y-64435611D01*
X188564287Y-64435610D01*
X188611516Y-64342917D01*
X188659489Y-64292123D01*
X188727310Y-64275328D01*
X188793445Y-64297865D01*
X188832485Y-64342919D01*
X188879715Y-64435614D01*
X189000028Y-64601213D01*
X189144786Y-64745971D01*
X189299749Y-64858556D01*
X189310390Y-64866287D01*
X189399212Y-64911544D01*
X189492776Y-64959218D01*
X189492778Y-64959218D01*
X189492781Y-64959220D01*
X189597137Y-64993127D01*
X189687465Y-65022477D01*
X189788557Y-65038488D01*
X189889648Y-65054500D01*
X189889649Y-65054500D01*
X190094351Y-65054500D01*
X190094352Y-65054500D01*
X190296534Y-65022477D01*
X190491219Y-64959220D01*
X190673610Y-64866287D01*
X190769901Y-64796328D01*
X190839213Y-64745971D01*
X190839215Y-64745968D01*
X190839219Y-64745966D01*
X190983966Y-64601219D01*
X190983968Y-64601215D01*
X190983971Y-64601213D01*
X191104284Y-64435614D01*
X191104286Y-64435611D01*
X191104287Y-64435610D01*
X191151516Y-64342917D01*
X191199489Y-64292123D01*
X191267310Y-64275328D01*
X191333445Y-64297865D01*
X191372485Y-64342919D01*
X191419715Y-64435614D01*
X191540028Y-64601213D01*
X191684786Y-64745971D01*
X191839749Y-64858556D01*
X191850390Y-64866287D01*
X191939212Y-64911544D01*
X192032776Y-64959218D01*
X192032778Y-64959218D01*
X192032781Y-64959220D01*
X192137137Y-64993127D01*
X192227465Y-65022477D01*
X192328557Y-65038488D01*
X192429648Y-65054500D01*
X192429649Y-65054500D01*
X192634351Y-65054500D01*
X192634352Y-65054500D01*
X192836534Y-65022477D01*
X193031219Y-64959220D01*
X193213610Y-64866287D01*
X193309901Y-64796328D01*
X193379213Y-64745971D01*
X193379215Y-64745968D01*
X193379219Y-64745966D01*
X193523966Y-64601219D01*
X193523968Y-64601215D01*
X193523971Y-64601213D01*
X193644284Y-64435614D01*
X193644286Y-64435611D01*
X193644287Y-64435610D01*
X193691516Y-64342917D01*
X193739489Y-64292123D01*
X193807310Y-64275328D01*
X193873445Y-64297865D01*
X193912485Y-64342919D01*
X193959715Y-64435614D01*
X194080028Y-64601213D01*
X194224786Y-64745971D01*
X194379749Y-64858556D01*
X194390390Y-64866287D01*
X194479212Y-64911544D01*
X194572776Y-64959218D01*
X194572778Y-64959218D01*
X194572781Y-64959220D01*
X194677137Y-64993127D01*
X194767465Y-65022477D01*
X194868557Y-65038488D01*
X194969648Y-65054500D01*
X194969649Y-65054500D01*
X195174351Y-65054500D01*
X195174352Y-65054500D01*
X195376534Y-65022477D01*
X195571219Y-64959220D01*
X195753610Y-64866287D01*
X195849901Y-64796328D01*
X195919213Y-64745971D01*
X195919215Y-64745968D01*
X195919219Y-64745966D01*
X196063966Y-64601219D01*
X196063968Y-64601215D01*
X196063971Y-64601213D01*
X196124670Y-64517666D01*
X196184287Y-64435610D01*
X196277220Y-64253219D01*
X196340477Y-64058534D01*
X196372500Y-63856352D01*
X196372500Y-63651648D01*
X196340477Y-63449466D01*
X196339673Y-63446993D01*
X196277218Y-63254776D01*
X196184419Y-63072650D01*
X196184287Y-63072390D01*
X196176556Y-63061749D01*
X196063971Y-62906786D01*
X195919213Y-62762028D01*
X195753613Y-62641715D01*
X195753612Y-62641714D01*
X195753610Y-62641713D01*
X195696653Y-62612691D01*
X195571223Y-62548781D01*
X195376534Y-62485522D01*
X195201995Y-62457878D01*
X195174352Y-62453500D01*
X194969648Y-62453500D01*
X194945329Y-62457351D01*
X194767465Y-62485522D01*
X194572776Y-62548781D01*
X194390386Y-62641715D01*
X194224786Y-62762028D01*
X194080028Y-62906786D01*
X193959715Y-63072386D01*
X193912485Y-63165080D01*
X193864510Y-63215876D01*
X193796689Y-63232671D01*
X193730554Y-63210134D01*
X193691515Y-63165080D01*
X193644419Y-63072650D01*
X193644287Y-63072390D01*
X193636556Y-63061749D01*
X193523971Y-62906786D01*
X193379213Y-62762028D01*
X193213613Y-62641715D01*
X193213612Y-62641714D01*
X193213610Y-62641713D01*
X193156653Y-62612691D01*
X193031223Y-62548781D01*
X192836534Y-62485522D01*
X192661995Y-62457878D01*
X192634352Y-62453500D01*
X192429648Y-62453500D01*
X192405329Y-62457351D01*
X192227465Y-62485522D01*
X192032776Y-62548781D01*
X191850386Y-62641715D01*
X191684786Y-62762028D01*
X191540028Y-62906786D01*
X191419715Y-63072386D01*
X191372485Y-63165080D01*
X191324510Y-63215876D01*
X191256689Y-63232671D01*
X191190554Y-63210134D01*
X191151515Y-63165080D01*
X191104419Y-63072650D01*
X191104287Y-63072390D01*
X191096556Y-63061749D01*
X190983971Y-62906786D01*
X190839213Y-62762028D01*
X190673613Y-62641715D01*
X190673612Y-62641714D01*
X190673610Y-62641713D01*
X190616653Y-62612691D01*
X190491223Y-62548781D01*
X190296534Y-62485522D01*
X190121995Y-62457878D01*
X190094352Y-62453500D01*
X189889648Y-62453500D01*
X189865329Y-62457351D01*
X189687465Y-62485522D01*
X189492776Y-62548781D01*
X189310386Y-62641715D01*
X189144786Y-62762028D01*
X189000028Y-62906786D01*
X188879715Y-63072386D01*
X188832485Y-63165080D01*
X188784510Y-63215876D01*
X188716689Y-63232671D01*
X188650554Y-63210134D01*
X188611515Y-63165080D01*
X188564419Y-63072650D01*
X188564287Y-63072390D01*
X188556556Y-63061749D01*
X188443971Y-62906786D01*
X188299213Y-62762028D01*
X188133613Y-62641715D01*
X188133612Y-62641714D01*
X188133610Y-62641713D01*
X188076653Y-62612691D01*
X187951223Y-62548781D01*
X187756534Y-62485522D01*
X187581995Y-62457878D01*
X187554352Y-62453500D01*
X187349648Y-62453500D01*
X187325329Y-62457351D01*
X187147465Y-62485522D01*
X186952776Y-62548781D01*
X186770386Y-62641715D01*
X186604786Y-62762028D01*
X186460028Y-62906786D01*
X186339715Y-63072386D01*
X186292485Y-63165080D01*
X186244510Y-63215876D01*
X186176689Y-63232671D01*
X186110554Y-63210134D01*
X186071515Y-63165080D01*
X186024419Y-63072650D01*
X186024287Y-63072390D01*
X186016556Y-63061749D01*
X185903971Y-62906786D01*
X185759213Y-62762028D01*
X185593613Y-62641715D01*
X185593612Y-62641714D01*
X185593610Y-62641713D01*
X185536653Y-62612691D01*
X185411223Y-62548781D01*
X185216534Y-62485522D01*
X185041995Y-62457878D01*
X185014352Y-62453500D01*
X184809648Y-62453500D01*
X184785329Y-62457351D01*
X184607465Y-62485522D01*
X184412776Y-62548781D01*
X184230386Y-62641715D01*
X184064786Y-62762028D01*
X183920028Y-62906786D01*
X183799715Y-63072386D01*
X183752485Y-63165080D01*
X183704510Y-63215876D01*
X183636689Y-63232671D01*
X183570554Y-63210134D01*
X183531515Y-63165080D01*
X183484419Y-63072650D01*
X183484287Y-63072390D01*
X183476556Y-63061749D01*
X183363971Y-62906786D01*
X183219213Y-62762028D01*
X183053613Y-62641715D01*
X183053612Y-62641714D01*
X183053610Y-62641713D01*
X182996653Y-62612691D01*
X182871223Y-62548781D01*
X182676534Y-62485522D01*
X182501995Y-62457878D01*
X182474352Y-62453500D01*
X182269648Y-62453500D01*
X182245329Y-62457351D01*
X182067465Y-62485522D01*
X181872776Y-62548781D01*
X181690386Y-62641715D01*
X181524786Y-62762028D01*
X181380028Y-62906786D01*
X181259715Y-63072386D01*
X181212485Y-63165080D01*
X181164510Y-63215876D01*
X181096689Y-63232671D01*
X181030554Y-63210134D01*
X180991515Y-63165080D01*
X180944419Y-63072650D01*
X180944287Y-63072390D01*
X180936556Y-63061749D01*
X180823971Y-62906786D01*
X180679213Y-62762028D01*
X180513613Y-62641715D01*
X180513612Y-62641714D01*
X180513610Y-62641713D01*
X180456653Y-62612691D01*
X180331223Y-62548781D01*
X180136534Y-62485522D01*
X179961995Y-62457878D01*
X179934352Y-62453500D01*
X179729648Y-62453500D01*
X179705329Y-62457351D01*
X179527465Y-62485522D01*
X179332776Y-62548781D01*
X179150386Y-62641715D01*
X178984786Y-62762028D01*
X178840028Y-62906786D01*
X178719715Y-63072386D01*
X178672485Y-63165080D01*
X178624510Y-63215876D01*
X178556689Y-63232671D01*
X178490554Y-63210134D01*
X178451515Y-63165080D01*
X178404419Y-63072650D01*
X178404287Y-63072390D01*
X178396556Y-63061749D01*
X178283971Y-62906786D01*
X178139213Y-62762028D01*
X177973613Y-62641715D01*
X177973612Y-62641714D01*
X177973610Y-62641713D01*
X177916653Y-62612691D01*
X177791223Y-62548781D01*
X177596534Y-62485522D01*
X177421995Y-62457878D01*
X177394352Y-62453500D01*
X177189648Y-62453500D01*
X177165329Y-62457351D01*
X176987465Y-62485522D01*
X176792776Y-62548781D01*
X176610386Y-62641715D01*
X176444786Y-62762028D01*
X176300028Y-62906786D01*
X176179715Y-63072386D01*
X176132485Y-63165080D01*
X176084510Y-63215876D01*
X176016689Y-63232671D01*
X175950554Y-63210134D01*
X175911515Y-63165080D01*
X175864419Y-63072650D01*
X175864287Y-63072390D01*
X175856556Y-63061749D01*
X175743971Y-62906786D01*
X175599213Y-62762028D01*
X175433613Y-62641715D01*
X175433612Y-62641714D01*
X175433610Y-62641713D01*
X175376653Y-62612691D01*
X175251223Y-62548781D01*
X175056534Y-62485522D01*
X174881995Y-62457878D01*
X174854352Y-62453500D01*
X174649648Y-62453500D01*
X174625329Y-62457351D01*
X174447465Y-62485522D01*
X174252776Y-62548781D01*
X174070386Y-62641715D01*
X173904786Y-62762028D01*
X173760028Y-62906786D01*
X173639715Y-63072386D01*
X173592485Y-63165080D01*
X173544510Y-63215876D01*
X173476689Y-63232671D01*
X173410554Y-63210134D01*
X173371515Y-63165080D01*
X173324419Y-63072650D01*
X173324287Y-63072390D01*
X173316556Y-63061749D01*
X173203971Y-62906786D01*
X173059213Y-62762028D01*
X172893613Y-62641715D01*
X172893612Y-62641714D01*
X172893610Y-62641713D01*
X172836653Y-62612691D01*
X172711223Y-62548781D01*
X172516534Y-62485522D01*
X172341995Y-62457878D01*
X172314352Y-62453500D01*
X172109648Y-62453500D01*
X172085329Y-62457351D01*
X171907465Y-62485522D01*
X171712776Y-62548781D01*
X171530386Y-62641715D01*
X171364786Y-62762028D01*
X171220028Y-62906786D01*
X171099715Y-63072386D01*
X171052485Y-63165080D01*
X171004510Y-63215876D01*
X170936689Y-63232671D01*
X170870554Y-63210134D01*
X170831515Y-63165080D01*
X170784419Y-63072650D01*
X170784287Y-63072390D01*
X170776556Y-63061749D01*
X170663971Y-62906786D01*
X170519213Y-62762028D01*
X170353613Y-62641715D01*
X170353612Y-62641714D01*
X170353610Y-62641713D01*
X170296653Y-62612691D01*
X170171223Y-62548781D01*
X169976534Y-62485522D01*
X169801995Y-62457878D01*
X169774352Y-62453500D01*
X169569648Y-62453500D01*
X169545329Y-62457351D01*
X169367465Y-62485522D01*
X169172776Y-62548781D01*
X168990386Y-62641715D01*
X168824786Y-62762028D01*
X168680028Y-62906786D01*
X168559713Y-63072388D01*
X168512203Y-63165630D01*
X168464228Y-63216426D01*
X168396407Y-63233220D01*
X168330272Y-63210682D01*
X168291234Y-63165628D01*
X168243861Y-63072652D01*
X168123582Y-62907105D01*
X168123582Y-62907104D01*
X167978895Y-62762417D01*
X167813349Y-62642140D01*
X167631029Y-62549244D01*
X167436413Y-62486009D01*
X167382000Y-62477390D01*
X167382000Y-63320988D01*
X167324993Y-63288075D01*
X167197826Y-63254000D01*
X167066174Y-63254000D01*
X166939007Y-63288075D01*
X166882000Y-63320988D01*
X166882000Y-62477390D01*
X166827586Y-62486009D01*
X166632970Y-62549244D01*
X166450650Y-62642140D01*
X166285105Y-62762417D01*
X166285104Y-62762417D01*
X166140417Y-62907104D01*
X166140417Y-62907105D01*
X166020140Y-63072650D01*
X165972765Y-63165629D01*
X165924790Y-63216425D01*
X165856969Y-63233220D01*
X165790834Y-63210682D01*
X165751795Y-63165629D01*
X165704419Y-63072650D01*
X165704287Y-63072390D01*
X165696556Y-63061749D01*
X165583971Y-62906786D01*
X165439213Y-62762028D01*
X165273613Y-62641715D01*
X165273612Y-62641714D01*
X165273610Y-62641713D01*
X165216653Y-62612691D01*
X165091223Y-62548781D01*
X164896534Y-62485522D01*
X164721995Y-62457878D01*
X164694352Y-62453500D01*
X164489648Y-62453500D01*
X164465329Y-62457351D01*
X164287465Y-62485522D01*
X164092776Y-62548781D01*
X163910386Y-62641715D01*
X163744786Y-62762028D01*
X163600028Y-62906786D01*
X163479715Y-63072386D01*
X163432485Y-63165080D01*
X163384510Y-63215876D01*
X163316689Y-63232671D01*
X163250554Y-63210134D01*
X163211515Y-63165080D01*
X163164419Y-63072650D01*
X163164287Y-63072390D01*
X163156556Y-63061749D01*
X163043971Y-62906786D01*
X162899213Y-62762028D01*
X162733613Y-62641715D01*
X162733612Y-62641714D01*
X162733610Y-62641713D01*
X162676653Y-62612691D01*
X162551223Y-62548781D01*
X162356534Y-62485522D01*
X162181995Y-62457878D01*
X162154352Y-62453500D01*
X161949648Y-62453500D01*
X161925329Y-62457351D01*
X161747465Y-62485522D01*
X161552776Y-62548781D01*
X161370386Y-62641715D01*
X161204786Y-62762028D01*
X161060032Y-62906782D01*
X161033668Y-62943070D01*
X160978338Y-62985735D01*
X160908724Y-62991714D01*
X160846929Y-62959108D01*
X160812572Y-62898269D01*
X160810060Y-62883438D01*
X160809640Y-62879533D01*
X160806091Y-62846517D01*
X160755796Y-62711669D01*
X160755795Y-62711668D01*
X160755793Y-62711664D01*
X160669547Y-62596455D01*
X160669544Y-62596452D01*
X160554335Y-62510206D01*
X160554328Y-62510202D01*
X160419482Y-62459908D01*
X160419483Y-62459908D01*
X160359883Y-62453501D01*
X160359881Y-62453500D01*
X160359873Y-62453500D01*
X160359864Y-62453500D01*
X158664129Y-62453500D01*
X158664123Y-62453501D01*
X158604516Y-62459908D01*
X158469671Y-62510202D01*
X158469664Y-62510206D01*
X158354455Y-62596452D01*
X158354452Y-62596455D01*
X158268206Y-62711664D01*
X158268202Y-62711671D01*
X158217908Y-62846517D01*
X158211501Y-62906116D01*
X158211500Y-62906135D01*
X144600500Y-62906135D01*
X144600500Y-57300097D01*
X144620185Y-57233058D01*
X144636819Y-57212416D01*
X148212416Y-53636819D01*
X148273739Y-53603334D01*
X148300097Y-53600500D01*
X166045331Y-53600500D01*
X166045347Y-53600501D01*
X166052943Y-53600501D01*
X166211054Y-53600501D01*
X166211057Y-53600501D01*
X166363785Y-53559577D01*
X166413904Y-53530639D01*
X166500716Y-53480520D01*
X166612520Y-53368716D01*
X166612520Y-53368714D01*
X166622728Y-53358507D01*
X166622729Y-53358504D01*
X167146665Y-52834570D01*
X167207984Y-52801088D01*
X167210151Y-52800637D01*
X167210840Y-52800500D01*
X167210842Y-52800500D01*
X167365497Y-52769737D01*
X167511179Y-52709394D01*
X167642289Y-52621789D01*
X167753789Y-52510289D01*
X167841394Y-52379179D01*
X167901737Y-52233497D01*
X167932500Y-52078842D01*
X167932500Y-51921158D01*
X167932500Y-51921155D01*
X167932499Y-51921153D01*
X167908400Y-51800000D01*
X167901737Y-51766503D01*
X167901735Y-51766498D01*
X167841397Y-51620827D01*
X167841390Y-51620814D01*
X167753789Y-51489711D01*
X167753786Y-51489707D01*
X167642292Y-51378213D01*
X167642288Y-51378210D01*
X167511185Y-51290609D01*
X167511172Y-51290602D01*
X167365501Y-51230264D01*
X167365489Y-51230261D01*
X167210845Y-51199500D01*
X167210842Y-51199500D01*
X167053158Y-51199500D01*
X167053155Y-51199500D01*
X166898510Y-51230261D01*
X166898498Y-51230264D01*
X166752827Y-51290602D01*
X166752814Y-51290609D01*
X166621711Y-51378210D01*
X166621707Y-51378213D01*
X166510213Y-51489707D01*
X166510210Y-51489711D01*
X166422609Y-51620814D01*
X166422602Y-51620827D01*
X166362264Y-51766498D01*
X166362261Y-51766508D01*
X166331362Y-51921849D01*
X166298977Y-51983759D01*
X166297426Y-51985338D01*
X165919584Y-52363181D01*
X165858261Y-52396666D01*
X165831903Y-52399500D01*
X148079057Y-52399500D01*
X147920942Y-52399500D01*
X147768215Y-52440423D01*
X147768214Y-52440423D01*
X147768212Y-52440424D01*
X147768209Y-52440425D01*
X147718096Y-52469359D01*
X147718095Y-52469360D01*
X147674689Y-52494420D01*
X147631285Y-52519479D01*
X147631282Y-52519481D01*
X143519481Y-56631282D01*
X143519479Y-56631285D01*
X143469361Y-56718094D01*
X143469359Y-56718096D01*
X143440425Y-56768209D01*
X143440424Y-56768210D01*
X143440423Y-56768215D01*
X143399499Y-56920943D01*
X143399499Y-56920945D01*
X143399499Y-57089046D01*
X143399500Y-57089059D01*
X143399500Y-79699903D01*
X143379815Y-79766942D01*
X143363181Y-79787584D01*
X138787584Y-84363181D01*
X138726261Y-84396666D01*
X138699903Y-84399500D01*
X132479766Y-84399500D01*
X132412727Y-84379815D01*
X132410875Y-84378602D01*
X132279185Y-84290609D01*
X132279172Y-84290602D01*
X132133501Y-84230264D01*
X132133489Y-84230261D01*
X131978845Y-84199500D01*
X131978842Y-84199500D01*
X131821158Y-84199500D01*
X131821155Y-84199500D01*
X131666510Y-84230261D01*
X131666498Y-84230264D01*
X131520827Y-84290602D01*
X131520814Y-84290609D01*
X131389711Y-84378210D01*
X131389707Y-84378213D01*
X131278213Y-84489707D01*
X131278210Y-84489711D01*
X131190609Y-84620814D01*
X131190602Y-84620827D01*
X131130264Y-84766498D01*
X131130261Y-84766510D01*
X131099500Y-84921153D01*
X105500500Y-84921153D01*
X105500500Y-78354872D01*
X111791500Y-78354872D01*
X111791500Y-78617127D01*
X111818123Y-78819339D01*
X111825730Y-78877116D01*
X111893602Y-79130418D01*
X111893605Y-79130428D01*
X111993953Y-79372690D01*
X111993958Y-79372700D01*
X112125075Y-79599803D01*
X112284718Y-79807851D01*
X112284726Y-79807860D01*
X112470140Y-79993274D01*
X112470148Y-79993281D01*
X112678196Y-80152924D01*
X112905299Y-80284041D01*
X112905309Y-80284046D01*
X113109721Y-80368716D01*
X113147581Y-80384398D01*
X113400884Y-80452270D01*
X113660880Y-80486500D01*
X113660887Y-80486500D01*
X113923113Y-80486500D01*
X113923120Y-80486500D01*
X114183116Y-80452270D01*
X114436419Y-80384398D01*
X114678697Y-80284043D01*
X114905803Y-80152924D01*
X115113851Y-79993282D01*
X115113855Y-79993277D01*
X115113860Y-79993274D01*
X115299274Y-79807860D01*
X115299277Y-79807855D01*
X115299282Y-79807851D01*
X115458924Y-79599803D01*
X115590043Y-79372697D01*
X115690398Y-79130419D01*
X115758270Y-78877116D01*
X115792500Y-78617120D01*
X115792500Y-78354880D01*
X115758270Y-78094884D01*
X115690398Y-77841581D01*
X115690394Y-77841571D01*
X115590046Y-77599309D01*
X115590041Y-77599299D01*
X115458924Y-77372196D01*
X115299281Y-77164148D01*
X115299274Y-77164140D01*
X115113860Y-76978726D01*
X115113851Y-76978718D01*
X114905803Y-76819075D01*
X114678700Y-76687958D01*
X114678690Y-76687953D01*
X114436428Y-76587605D01*
X114436421Y-76587603D01*
X114436419Y-76587602D01*
X114183116Y-76519730D01*
X114125339Y-76512123D01*
X113923127Y-76485500D01*
X113923120Y-76485500D01*
X113660880Y-76485500D01*
X113660872Y-76485500D01*
X113429772Y-76515926D01*
X113400884Y-76519730D01*
X113147581Y-76587602D01*
X113147571Y-76587605D01*
X112905309Y-76687953D01*
X112905299Y-76687958D01*
X112678196Y-76819075D01*
X112470148Y-76978718D01*
X112284718Y-77164148D01*
X112125075Y-77372196D01*
X111993958Y-77599299D01*
X111993953Y-77599309D01*
X111893605Y-77841571D01*
X111893602Y-77841581D01*
X111825730Y-78094885D01*
X111791500Y-78354872D01*
X105500500Y-78354872D01*
X105500500Y-50397682D01*
X147700000Y-50397682D01*
X147700000Y-50602317D01*
X147732009Y-50804417D01*
X147795244Y-50999031D01*
X147888141Y-51181350D01*
X147888147Y-51181359D01*
X147920523Y-51225921D01*
X147920524Y-51225922D01*
X148517037Y-50629409D01*
X148534075Y-50692993D01*
X148599901Y-50807007D01*
X148692993Y-50900099D01*
X148807007Y-50965925D01*
X148870590Y-50982962D01*
X148274076Y-51579474D01*
X148318650Y-51611859D01*
X148500968Y-51704755D01*
X148695582Y-51767990D01*
X148897683Y-51800000D01*
X149102317Y-51800000D01*
X149304417Y-51767990D01*
X149499031Y-51704755D01*
X149681349Y-51611859D01*
X149725921Y-51579474D01*
X149129409Y-50982962D01*
X149192993Y-50965925D01*
X149307007Y-50900099D01*
X149400099Y-50807007D01*
X149465925Y-50692993D01*
X149482962Y-50629410D01*
X150079474Y-51225922D01*
X150079474Y-51225921D01*
X150111859Y-51181349D01*
X150204755Y-50999031D01*
X150267990Y-50804417D01*
X150300000Y-50602317D01*
X150300000Y-50397682D01*
X150267990Y-50195582D01*
X150204755Y-50000968D01*
X150111859Y-49818650D01*
X150079474Y-49774077D01*
X150079474Y-49774076D01*
X149482962Y-50370589D01*
X149465925Y-50307007D01*
X149400099Y-50192993D01*
X149307007Y-50099901D01*
X149192993Y-50034075D01*
X149129408Y-50017037D01*
X149725922Y-49420524D01*
X149725921Y-49420523D01*
X149681359Y-49388147D01*
X149681350Y-49388141D01*
X149499031Y-49295244D01*
X149304417Y-49232009D01*
X149102317Y-49200000D01*
X148897683Y-49200000D01*
X148695582Y-49232009D01*
X148500968Y-49295244D01*
X148318644Y-49388143D01*
X148274077Y-49420523D01*
X148274077Y-49420524D01*
X148870591Y-50017037D01*
X148807007Y-50034075D01*
X148692993Y-50099901D01*
X148599901Y-50192993D01*
X148534075Y-50307007D01*
X148517037Y-50370590D01*
X147920524Y-49774077D01*
X147920523Y-49774077D01*
X147888143Y-49818644D01*
X147795244Y-50000968D01*
X147732009Y-50195582D01*
X147700000Y-50397682D01*
X105500500Y-50397682D01*
X105500500Y-48411648D01*
X158211500Y-48411648D01*
X158211500Y-48616351D01*
X158243522Y-48818534D01*
X158306781Y-49013223D01*
X158399715Y-49195613D01*
X158520028Y-49361213D01*
X158664786Y-49505971D01*
X158819749Y-49618556D01*
X158830390Y-49626287D01*
X158946607Y-49685503D01*
X159012776Y-49719218D01*
X159012778Y-49719218D01*
X159012781Y-49719220D01*
X159117137Y-49753127D01*
X159207465Y-49782477D01*
X159308557Y-49798488D01*
X159409648Y-49814500D01*
X159409649Y-49814500D01*
X159614351Y-49814500D01*
X159614352Y-49814500D01*
X159816534Y-49782477D01*
X160011219Y-49719220D01*
X160193610Y-49626287D01*
X160286590Y-49558732D01*
X160359213Y-49505971D01*
X160359215Y-49505968D01*
X160359219Y-49505966D01*
X160503966Y-49361219D01*
X160503968Y-49361215D01*
X160503971Y-49361213D01*
X160608913Y-49216770D01*
X160624287Y-49195610D01*
X160671516Y-49102917D01*
X160719489Y-49052123D01*
X160787310Y-49035328D01*
X160853445Y-49057865D01*
X160892485Y-49102919D01*
X160939715Y-49195614D01*
X161060028Y-49361213D01*
X161204786Y-49505971D01*
X161359749Y-49618556D01*
X161370390Y-49626287D01*
X161486607Y-49685503D01*
X161552776Y-49719218D01*
X161552778Y-49719218D01*
X161552781Y-49719220D01*
X161657137Y-49753127D01*
X161747465Y-49782477D01*
X161848557Y-49798488D01*
X161949648Y-49814500D01*
X161949649Y-49814500D01*
X162154351Y-49814500D01*
X162154352Y-49814500D01*
X162356534Y-49782477D01*
X162551219Y-49719220D01*
X162733610Y-49626287D01*
X162826590Y-49558732D01*
X162899213Y-49505971D01*
X162899215Y-49505968D01*
X162899219Y-49505966D01*
X163043966Y-49361219D01*
X163043968Y-49361215D01*
X163043971Y-49361213D01*
X163148913Y-49216770D01*
X163164287Y-49195610D01*
X163211516Y-49102917D01*
X163259489Y-49052123D01*
X163327310Y-49035328D01*
X163393445Y-49057865D01*
X163432485Y-49102919D01*
X163479715Y-49195614D01*
X163600028Y-49361213D01*
X163744786Y-49505971D01*
X163899749Y-49618556D01*
X163910390Y-49626287D01*
X164026607Y-49685503D01*
X164092776Y-49719218D01*
X164092778Y-49719218D01*
X164092781Y-49719220D01*
X164197137Y-49753127D01*
X164287465Y-49782477D01*
X164388557Y-49798488D01*
X164489648Y-49814500D01*
X164489649Y-49814500D01*
X164694351Y-49814500D01*
X164694352Y-49814500D01*
X164896534Y-49782477D01*
X165091219Y-49719220D01*
X165273610Y-49626287D01*
X165366590Y-49558732D01*
X165439213Y-49505971D01*
X165439215Y-49505968D01*
X165439219Y-49505966D01*
X165583966Y-49361219D01*
X165583968Y-49361215D01*
X165583971Y-49361213D01*
X165688913Y-49216770D01*
X165704287Y-49195610D01*
X165751516Y-49102917D01*
X165799489Y-49052123D01*
X165867310Y-49035328D01*
X165933445Y-49057865D01*
X165972485Y-49102919D01*
X166019715Y-49195614D01*
X166140028Y-49361213D01*
X166284786Y-49505971D01*
X166439749Y-49618556D01*
X166450390Y-49626287D01*
X166566607Y-49685503D01*
X166632776Y-49719218D01*
X166632778Y-49719218D01*
X166632781Y-49719220D01*
X166737137Y-49753127D01*
X166827465Y-49782477D01*
X166928557Y-49798488D01*
X167029648Y-49814500D01*
X167029649Y-49814500D01*
X167234351Y-49814500D01*
X167234352Y-49814500D01*
X167436534Y-49782477D01*
X167631219Y-49719220D01*
X167813610Y-49626287D01*
X167906590Y-49558732D01*
X167979213Y-49505971D01*
X167979215Y-49505968D01*
X167979219Y-49505966D01*
X168123966Y-49361219D01*
X168123968Y-49361215D01*
X168123971Y-49361213D01*
X168228913Y-49216770D01*
X168244287Y-49195610D01*
X168291516Y-49102917D01*
X168339489Y-49052123D01*
X168407310Y-49035328D01*
X168473445Y-49057865D01*
X168512485Y-49102919D01*
X168559715Y-49195614D01*
X168680028Y-49361213D01*
X168824786Y-49505971D01*
X168979749Y-49618556D01*
X168990390Y-49626287D01*
X169106607Y-49685503D01*
X169172776Y-49719218D01*
X169172778Y-49719218D01*
X169172781Y-49719220D01*
X169277137Y-49753127D01*
X169367465Y-49782477D01*
X169468557Y-49798488D01*
X169569648Y-49814500D01*
X169569649Y-49814500D01*
X169774351Y-49814500D01*
X169774352Y-49814500D01*
X169976534Y-49782477D01*
X170171219Y-49719220D01*
X170353610Y-49626287D01*
X170446590Y-49558732D01*
X170519213Y-49505971D01*
X170519215Y-49505968D01*
X170519219Y-49505966D01*
X170663966Y-49361219D01*
X170663968Y-49361215D01*
X170663971Y-49361213D01*
X170768913Y-49216770D01*
X170784287Y-49195610D01*
X170831516Y-49102917D01*
X170879489Y-49052123D01*
X170947310Y-49035328D01*
X171013445Y-49057865D01*
X171052485Y-49102919D01*
X171099715Y-49195614D01*
X171220028Y-49361213D01*
X171364786Y-49505971D01*
X171519749Y-49618556D01*
X171530390Y-49626287D01*
X171646607Y-49685503D01*
X171712776Y-49719218D01*
X171712778Y-49719218D01*
X171712781Y-49719220D01*
X171817137Y-49753127D01*
X171907465Y-49782477D01*
X172008557Y-49798488D01*
X172109648Y-49814500D01*
X172109649Y-49814500D01*
X172314351Y-49814500D01*
X172314352Y-49814500D01*
X172516534Y-49782477D01*
X172711219Y-49719220D01*
X172893610Y-49626287D01*
X172986590Y-49558732D01*
X173059213Y-49505971D01*
X173059215Y-49505968D01*
X173059219Y-49505966D01*
X173203966Y-49361219D01*
X173203968Y-49361215D01*
X173203971Y-49361213D01*
X173308913Y-49216770D01*
X173324287Y-49195610D01*
X173371516Y-49102917D01*
X173419489Y-49052123D01*
X173487310Y-49035328D01*
X173553445Y-49057865D01*
X173592485Y-49102919D01*
X173639715Y-49195614D01*
X173760028Y-49361213D01*
X173904786Y-49505971D01*
X174059749Y-49618556D01*
X174070390Y-49626287D01*
X174186607Y-49685503D01*
X174252776Y-49719218D01*
X174252778Y-49719218D01*
X174252781Y-49719220D01*
X174357137Y-49753127D01*
X174447465Y-49782477D01*
X174548557Y-49798488D01*
X174649648Y-49814500D01*
X174649649Y-49814500D01*
X174854351Y-49814500D01*
X174854352Y-49814500D01*
X175056534Y-49782477D01*
X175251219Y-49719220D01*
X175433610Y-49626287D01*
X175526590Y-49558732D01*
X175599213Y-49505971D01*
X175599215Y-49505968D01*
X175599219Y-49505966D01*
X175743966Y-49361219D01*
X175743968Y-49361215D01*
X175743971Y-49361213D01*
X175848913Y-49216770D01*
X175864287Y-49195610D01*
X175911516Y-49102917D01*
X175959489Y-49052123D01*
X176027310Y-49035328D01*
X176093445Y-49057865D01*
X176132485Y-49102919D01*
X176179715Y-49195614D01*
X176300028Y-49361213D01*
X176444786Y-49505971D01*
X176599749Y-49618556D01*
X176610390Y-49626287D01*
X176726607Y-49685503D01*
X176792776Y-49719218D01*
X176792778Y-49719218D01*
X176792781Y-49719220D01*
X176897137Y-49753127D01*
X176987465Y-49782477D01*
X177088557Y-49798488D01*
X177189648Y-49814500D01*
X177189649Y-49814500D01*
X177394351Y-49814500D01*
X177394352Y-49814500D01*
X177596534Y-49782477D01*
X177791219Y-49719220D01*
X177973610Y-49626287D01*
X178066590Y-49558732D01*
X178139213Y-49505971D01*
X178139215Y-49505968D01*
X178139219Y-49505966D01*
X178283966Y-49361219D01*
X178283968Y-49361215D01*
X178283971Y-49361213D01*
X178388913Y-49216770D01*
X178404287Y-49195610D01*
X178451516Y-49102917D01*
X178499489Y-49052123D01*
X178567310Y-49035328D01*
X178633445Y-49057865D01*
X178672485Y-49102919D01*
X178719715Y-49195614D01*
X178840028Y-49361213D01*
X178984786Y-49505971D01*
X179139749Y-49618556D01*
X179150390Y-49626287D01*
X179266607Y-49685503D01*
X179332776Y-49719218D01*
X179332778Y-49719218D01*
X179332781Y-49719220D01*
X179437137Y-49753127D01*
X179527465Y-49782477D01*
X179628557Y-49798488D01*
X179729648Y-49814500D01*
X179729649Y-49814500D01*
X179934351Y-49814500D01*
X179934352Y-49814500D01*
X180136534Y-49782477D01*
X180331219Y-49719220D01*
X180513610Y-49626287D01*
X180606590Y-49558732D01*
X180679213Y-49505971D01*
X180679215Y-49505968D01*
X180679219Y-49505966D01*
X180823966Y-49361219D01*
X180823968Y-49361215D01*
X180823971Y-49361213D01*
X180928913Y-49216770D01*
X180944287Y-49195610D01*
X180991516Y-49102917D01*
X181039489Y-49052123D01*
X181107310Y-49035328D01*
X181173445Y-49057865D01*
X181212485Y-49102919D01*
X181259715Y-49195614D01*
X181380028Y-49361213D01*
X181524786Y-49505971D01*
X181679749Y-49618556D01*
X181690390Y-49626287D01*
X181806607Y-49685503D01*
X181872776Y-49719218D01*
X181872778Y-49719218D01*
X181872781Y-49719220D01*
X181977137Y-49753127D01*
X182067465Y-49782477D01*
X182168557Y-49798488D01*
X182269648Y-49814500D01*
X182269649Y-49814500D01*
X182474351Y-49814500D01*
X182474352Y-49814500D01*
X182676534Y-49782477D01*
X182871219Y-49719220D01*
X183053610Y-49626287D01*
X183146590Y-49558732D01*
X183219213Y-49505971D01*
X183219215Y-49505968D01*
X183219219Y-49505966D01*
X183363966Y-49361219D01*
X183363968Y-49361215D01*
X183363971Y-49361213D01*
X183468913Y-49216770D01*
X183484287Y-49195610D01*
X183531516Y-49102917D01*
X183579489Y-49052123D01*
X183647310Y-49035328D01*
X183713445Y-49057865D01*
X183752485Y-49102919D01*
X183799715Y-49195614D01*
X183920028Y-49361213D01*
X184064786Y-49505971D01*
X184219749Y-49618556D01*
X184230390Y-49626287D01*
X184346607Y-49685503D01*
X184412776Y-49719218D01*
X184412778Y-49719218D01*
X184412781Y-49719220D01*
X184517137Y-49753127D01*
X184607465Y-49782477D01*
X184708557Y-49798488D01*
X184809648Y-49814500D01*
X184809649Y-49814500D01*
X185014351Y-49814500D01*
X185014352Y-49814500D01*
X185216534Y-49782477D01*
X185411219Y-49719220D01*
X185593610Y-49626287D01*
X185686590Y-49558732D01*
X185759213Y-49505971D01*
X185759215Y-49505968D01*
X185759219Y-49505966D01*
X185903966Y-49361219D01*
X185903968Y-49361215D01*
X185903971Y-49361213D01*
X186008913Y-49216770D01*
X186024287Y-49195610D01*
X186071516Y-49102917D01*
X186119489Y-49052123D01*
X186187310Y-49035328D01*
X186253445Y-49057865D01*
X186292485Y-49102919D01*
X186339715Y-49195614D01*
X186460028Y-49361213D01*
X186604786Y-49505971D01*
X186759749Y-49618556D01*
X186770390Y-49626287D01*
X186886607Y-49685503D01*
X186952776Y-49719218D01*
X186952778Y-49719218D01*
X186952781Y-49719220D01*
X187057137Y-49753127D01*
X187147465Y-49782477D01*
X187248557Y-49798488D01*
X187349648Y-49814500D01*
X187349649Y-49814500D01*
X187554351Y-49814500D01*
X187554352Y-49814500D01*
X187756534Y-49782477D01*
X187951219Y-49719220D01*
X188133610Y-49626287D01*
X188226590Y-49558732D01*
X188299213Y-49505971D01*
X188299215Y-49505968D01*
X188299219Y-49505966D01*
X188443966Y-49361219D01*
X188443968Y-49361215D01*
X188443971Y-49361213D01*
X188548913Y-49216770D01*
X188564287Y-49195610D01*
X188611516Y-49102917D01*
X188659489Y-49052123D01*
X188727310Y-49035328D01*
X188793445Y-49057865D01*
X188832485Y-49102919D01*
X188879715Y-49195614D01*
X189000028Y-49361213D01*
X189144786Y-49505971D01*
X189299749Y-49618556D01*
X189310390Y-49626287D01*
X189426607Y-49685503D01*
X189492776Y-49719218D01*
X189492778Y-49719218D01*
X189492781Y-49719220D01*
X189597137Y-49753127D01*
X189687465Y-49782477D01*
X189788557Y-49798488D01*
X189889648Y-49814500D01*
X189889649Y-49814500D01*
X190094351Y-49814500D01*
X190094352Y-49814500D01*
X190296534Y-49782477D01*
X190491219Y-49719220D01*
X190673610Y-49626287D01*
X190766590Y-49558732D01*
X190839213Y-49505971D01*
X190839215Y-49505968D01*
X190839219Y-49505966D01*
X190983966Y-49361219D01*
X190983968Y-49361215D01*
X190983971Y-49361213D01*
X191088913Y-49216770D01*
X191104287Y-49195610D01*
X191151516Y-49102917D01*
X191199489Y-49052123D01*
X191267310Y-49035328D01*
X191333445Y-49057865D01*
X191372485Y-49102919D01*
X191419715Y-49195614D01*
X191540028Y-49361213D01*
X191684786Y-49505971D01*
X191839749Y-49618556D01*
X191850390Y-49626287D01*
X191966607Y-49685503D01*
X192032776Y-49719218D01*
X192032778Y-49719218D01*
X192032781Y-49719220D01*
X192137137Y-49753127D01*
X192227465Y-49782477D01*
X192328557Y-49798488D01*
X192429648Y-49814500D01*
X192429649Y-49814500D01*
X192634351Y-49814500D01*
X192634352Y-49814500D01*
X192836534Y-49782477D01*
X193031219Y-49719220D01*
X193213610Y-49626287D01*
X193306590Y-49558732D01*
X193379213Y-49505971D01*
X193379215Y-49505968D01*
X193379219Y-49505966D01*
X193523966Y-49361219D01*
X193523968Y-49361215D01*
X193523971Y-49361213D01*
X193628913Y-49216770D01*
X193644287Y-49195610D01*
X193691516Y-49102917D01*
X193739489Y-49052123D01*
X193807310Y-49035328D01*
X193873445Y-49057865D01*
X193912485Y-49102919D01*
X193959715Y-49195614D01*
X194080028Y-49361213D01*
X194224786Y-49505971D01*
X194379749Y-49618556D01*
X194390390Y-49626287D01*
X194506607Y-49685503D01*
X194572776Y-49719218D01*
X194572778Y-49719218D01*
X194572781Y-49719220D01*
X194677137Y-49753127D01*
X194767465Y-49782477D01*
X194868557Y-49798488D01*
X194969648Y-49814500D01*
X194969649Y-49814500D01*
X195174351Y-49814500D01*
X195174352Y-49814500D01*
X195376534Y-49782477D01*
X195571219Y-49719220D01*
X195753610Y-49626287D01*
X195846590Y-49558732D01*
X195919213Y-49505971D01*
X195919215Y-49505968D01*
X195919219Y-49505966D01*
X196063966Y-49361219D01*
X196063968Y-49361215D01*
X196063971Y-49361213D01*
X196116732Y-49288590D01*
X196184287Y-49195610D01*
X196277220Y-49013219D01*
X196340477Y-48818534D01*
X196372500Y-48616352D01*
X196372500Y-48411648D01*
X196340477Y-48209466D01*
X196277220Y-48014781D01*
X196277218Y-48014778D01*
X196277218Y-48014776D01*
X196231515Y-47925080D01*
X196184287Y-47832390D01*
X196176556Y-47821749D01*
X196063971Y-47666786D01*
X195919213Y-47522028D01*
X195753613Y-47401715D01*
X195753612Y-47401714D01*
X195753610Y-47401713D01*
X195696653Y-47372691D01*
X195571223Y-47308781D01*
X195376534Y-47245522D01*
X195201995Y-47217878D01*
X195174352Y-47213500D01*
X194969648Y-47213500D01*
X194945329Y-47217351D01*
X194767465Y-47245522D01*
X194572776Y-47308781D01*
X194390386Y-47401715D01*
X194224786Y-47522028D01*
X194080028Y-47666786D01*
X193959715Y-47832386D01*
X193912485Y-47925080D01*
X193864510Y-47975876D01*
X193796689Y-47992671D01*
X193730554Y-47970134D01*
X193691515Y-47925080D01*
X193690883Y-47923840D01*
X193644287Y-47832390D01*
X193636556Y-47821749D01*
X193523971Y-47666786D01*
X193379213Y-47522028D01*
X193213613Y-47401715D01*
X193213612Y-47401714D01*
X193213610Y-47401713D01*
X193156653Y-47372691D01*
X193031223Y-47308781D01*
X192836534Y-47245522D01*
X192661995Y-47217878D01*
X192634352Y-47213500D01*
X192429648Y-47213500D01*
X192405329Y-47217351D01*
X192227465Y-47245522D01*
X192032776Y-47308781D01*
X191850386Y-47401715D01*
X191684786Y-47522028D01*
X191540028Y-47666786D01*
X191419715Y-47832386D01*
X191372485Y-47925080D01*
X191324510Y-47975876D01*
X191256689Y-47992671D01*
X191190554Y-47970134D01*
X191151515Y-47925080D01*
X191150883Y-47923840D01*
X191104287Y-47832390D01*
X191096556Y-47821749D01*
X190983971Y-47666786D01*
X190839213Y-47522028D01*
X190673613Y-47401715D01*
X190673612Y-47401714D01*
X190673610Y-47401713D01*
X190616653Y-47372691D01*
X190491223Y-47308781D01*
X190296534Y-47245522D01*
X190121995Y-47217878D01*
X190094352Y-47213500D01*
X189889648Y-47213500D01*
X189865329Y-47217351D01*
X189687465Y-47245522D01*
X189492776Y-47308781D01*
X189310386Y-47401715D01*
X189144786Y-47522028D01*
X189000028Y-47666786D01*
X188879715Y-47832386D01*
X188832485Y-47925080D01*
X188784510Y-47975876D01*
X188716689Y-47992671D01*
X188650554Y-47970134D01*
X188611515Y-47925080D01*
X188610883Y-47923840D01*
X188564287Y-47832390D01*
X188556556Y-47821749D01*
X188443971Y-47666786D01*
X188299213Y-47522028D01*
X188133613Y-47401715D01*
X188133612Y-47401714D01*
X188133610Y-47401713D01*
X188076653Y-47372691D01*
X187951223Y-47308781D01*
X187756534Y-47245522D01*
X187581995Y-47217878D01*
X187554352Y-47213500D01*
X187349648Y-47213500D01*
X187325329Y-47217351D01*
X187147465Y-47245522D01*
X186952776Y-47308781D01*
X186770386Y-47401715D01*
X186604786Y-47522028D01*
X186460028Y-47666786D01*
X186339715Y-47832386D01*
X186292485Y-47925080D01*
X186244510Y-47975876D01*
X186176689Y-47992671D01*
X186110554Y-47970134D01*
X186071515Y-47925080D01*
X186070883Y-47923840D01*
X186024287Y-47832390D01*
X186016556Y-47821749D01*
X185903971Y-47666786D01*
X185759213Y-47522028D01*
X185593613Y-47401715D01*
X185593612Y-47401714D01*
X185593610Y-47401713D01*
X185536653Y-47372691D01*
X185411223Y-47308781D01*
X185216534Y-47245522D01*
X185041995Y-47217878D01*
X185014352Y-47213500D01*
X184809648Y-47213500D01*
X184785329Y-47217351D01*
X184607465Y-47245522D01*
X184412776Y-47308781D01*
X184230386Y-47401715D01*
X184064786Y-47522028D01*
X183920028Y-47666786D01*
X183799715Y-47832386D01*
X183752485Y-47925080D01*
X183704510Y-47975876D01*
X183636689Y-47992671D01*
X183570554Y-47970134D01*
X183531515Y-47925080D01*
X183530883Y-47923840D01*
X183484287Y-47832390D01*
X183476556Y-47821749D01*
X183363971Y-47666786D01*
X183219213Y-47522028D01*
X183053613Y-47401715D01*
X183053612Y-47401714D01*
X183053610Y-47401713D01*
X182996653Y-47372691D01*
X182871223Y-47308781D01*
X182676534Y-47245522D01*
X182501995Y-47217878D01*
X182474352Y-47213500D01*
X182269648Y-47213500D01*
X182245329Y-47217351D01*
X182067465Y-47245522D01*
X181872776Y-47308781D01*
X181690386Y-47401715D01*
X181524786Y-47522028D01*
X181380028Y-47666786D01*
X181259715Y-47832386D01*
X181212485Y-47925080D01*
X181164510Y-47975876D01*
X181096689Y-47992671D01*
X181030554Y-47970134D01*
X180991515Y-47925080D01*
X180990883Y-47923840D01*
X180944287Y-47832390D01*
X180936556Y-47821749D01*
X180823971Y-47666786D01*
X180679213Y-47522028D01*
X180513613Y-47401715D01*
X180513612Y-47401714D01*
X180513610Y-47401713D01*
X180456653Y-47372691D01*
X180331223Y-47308781D01*
X180136534Y-47245522D01*
X179961995Y-47217878D01*
X179934352Y-47213500D01*
X179729648Y-47213500D01*
X179705329Y-47217351D01*
X179527465Y-47245522D01*
X179332776Y-47308781D01*
X179150386Y-47401715D01*
X178984786Y-47522028D01*
X178840028Y-47666786D01*
X178719715Y-47832386D01*
X178672485Y-47925080D01*
X178624510Y-47975876D01*
X178556689Y-47992671D01*
X178490554Y-47970134D01*
X178451515Y-47925080D01*
X178450883Y-47923840D01*
X178404287Y-47832390D01*
X178396556Y-47821749D01*
X178283971Y-47666786D01*
X178139213Y-47522028D01*
X177973613Y-47401715D01*
X177973612Y-47401714D01*
X177973610Y-47401713D01*
X177916653Y-47372691D01*
X177791223Y-47308781D01*
X177596534Y-47245522D01*
X177421995Y-47217878D01*
X177394352Y-47213500D01*
X177189648Y-47213500D01*
X177165329Y-47217351D01*
X176987465Y-47245522D01*
X176792776Y-47308781D01*
X176610386Y-47401715D01*
X176444786Y-47522028D01*
X176300028Y-47666786D01*
X176179715Y-47832386D01*
X176132485Y-47925080D01*
X176084510Y-47975876D01*
X176016689Y-47992671D01*
X175950554Y-47970134D01*
X175911515Y-47925080D01*
X175910883Y-47923840D01*
X175864287Y-47832390D01*
X175856556Y-47821749D01*
X175743971Y-47666786D01*
X175599213Y-47522028D01*
X175433613Y-47401715D01*
X175433612Y-47401714D01*
X175433610Y-47401713D01*
X175376653Y-47372691D01*
X175251223Y-47308781D01*
X175056534Y-47245522D01*
X174881995Y-47217878D01*
X174854352Y-47213500D01*
X174649648Y-47213500D01*
X174625329Y-47217351D01*
X174447465Y-47245522D01*
X174252776Y-47308781D01*
X174070386Y-47401715D01*
X173904786Y-47522028D01*
X173760028Y-47666786D01*
X173639715Y-47832386D01*
X173592485Y-47925080D01*
X173544510Y-47975876D01*
X173476689Y-47992671D01*
X173410554Y-47970134D01*
X173371515Y-47925080D01*
X173370883Y-47923840D01*
X173324287Y-47832390D01*
X173316556Y-47821749D01*
X173203971Y-47666786D01*
X173059213Y-47522028D01*
X172893613Y-47401715D01*
X172893612Y-47401714D01*
X172893610Y-47401713D01*
X172836653Y-47372691D01*
X172711223Y-47308781D01*
X172516534Y-47245522D01*
X172341995Y-47217878D01*
X172314352Y-47213500D01*
X172109648Y-47213500D01*
X172085329Y-47217351D01*
X171907465Y-47245522D01*
X171712776Y-47308781D01*
X171530386Y-47401715D01*
X171364786Y-47522028D01*
X171220028Y-47666786D01*
X171099715Y-47832386D01*
X171052485Y-47925080D01*
X171004510Y-47975876D01*
X170936689Y-47992671D01*
X170870554Y-47970134D01*
X170831515Y-47925080D01*
X170830883Y-47923840D01*
X170784287Y-47832390D01*
X170776556Y-47821749D01*
X170663971Y-47666786D01*
X170519213Y-47522028D01*
X170353613Y-47401715D01*
X170353612Y-47401714D01*
X170353610Y-47401713D01*
X170296653Y-47372691D01*
X170171223Y-47308781D01*
X169976534Y-47245522D01*
X169801995Y-47217878D01*
X169774352Y-47213500D01*
X169569648Y-47213500D01*
X169545329Y-47217351D01*
X169367465Y-47245522D01*
X169172776Y-47308781D01*
X168990386Y-47401715D01*
X168824786Y-47522028D01*
X168680028Y-47666786D01*
X168559715Y-47832386D01*
X168512485Y-47925080D01*
X168464510Y-47975876D01*
X168396689Y-47992671D01*
X168330554Y-47970134D01*
X168291515Y-47925080D01*
X168290883Y-47923840D01*
X168244287Y-47832390D01*
X168236556Y-47821749D01*
X168123971Y-47666786D01*
X167979213Y-47522028D01*
X167813613Y-47401715D01*
X167813612Y-47401714D01*
X167813610Y-47401713D01*
X167756653Y-47372691D01*
X167631223Y-47308781D01*
X167436534Y-47245522D01*
X167261995Y-47217878D01*
X167234352Y-47213500D01*
X167029648Y-47213500D01*
X167005329Y-47217351D01*
X166827465Y-47245522D01*
X166632776Y-47308781D01*
X166450386Y-47401715D01*
X166284786Y-47522028D01*
X166140028Y-47666786D01*
X166019715Y-47832386D01*
X165972485Y-47925080D01*
X165924510Y-47975876D01*
X165856689Y-47992671D01*
X165790554Y-47970134D01*
X165751515Y-47925080D01*
X165750883Y-47923840D01*
X165704287Y-47832390D01*
X165696556Y-47821749D01*
X165583971Y-47666786D01*
X165439213Y-47522028D01*
X165273613Y-47401715D01*
X165273612Y-47401714D01*
X165273610Y-47401713D01*
X165216653Y-47372691D01*
X165091223Y-47308781D01*
X164896534Y-47245522D01*
X164721995Y-47217878D01*
X164694352Y-47213500D01*
X164489648Y-47213500D01*
X164465329Y-47217351D01*
X164287465Y-47245522D01*
X164092776Y-47308781D01*
X163910386Y-47401715D01*
X163744786Y-47522028D01*
X163600028Y-47666786D01*
X163479715Y-47832386D01*
X163432485Y-47925080D01*
X163384510Y-47975876D01*
X163316689Y-47992671D01*
X163250554Y-47970134D01*
X163211515Y-47925080D01*
X163210883Y-47923840D01*
X163164287Y-47832390D01*
X163156556Y-47821749D01*
X163043971Y-47666786D01*
X162899213Y-47522028D01*
X162733613Y-47401715D01*
X162733612Y-47401714D01*
X162733610Y-47401713D01*
X162676653Y-47372691D01*
X162551223Y-47308781D01*
X162356534Y-47245522D01*
X162181995Y-47217878D01*
X162154352Y-47213500D01*
X161949648Y-47213500D01*
X161925329Y-47217351D01*
X161747465Y-47245522D01*
X161552776Y-47308781D01*
X161370386Y-47401715D01*
X161204786Y-47522028D01*
X161060028Y-47666786D01*
X160939715Y-47832386D01*
X160892485Y-47925080D01*
X160844510Y-47975876D01*
X160776689Y-47992671D01*
X160710554Y-47970134D01*
X160671515Y-47925080D01*
X160670883Y-47923840D01*
X160624287Y-47832390D01*
X160616556Y-47821749D01*
X160503971Y-47666786D01*
X160359213Y-47522028D01*
X160193613Y-47401715D01*
X160193612Y-47401714D01*
X160193610Y-47401713D01*
X160136653Y-47372691D01*
X160011223Y-47308781D01*
X159816534Y-47245522D01*
X159641995Y-47217878D01*
X159614352Y-47213500D01*
X159409648Y-47213500D01*
X159385329Y-47217351D01*
X159207465Y-47245522D01*
X159012776Y-47308781D01*
X158830386Y-47401715D01*
X158664786Y-47522028D01*
X158520028Y-47666786D01*
X158399715Y-47832386D01*
X158306781Y-48014776D01*
X158243522Y-48209465D01*
X158211500Y-48411648D01*
X105500500Y-48411648D01*
X105500500Y-43003750D01*
X105500726Y-42996263D01*
X105503060Y-42957671D01*
X105518271Y-42706201D01*
X105520076Y-42691340D01*
X105527994Y-42648135D01*
X118935500Y-42648135D01*
X118935500Y-44251870D01*
X118935501Y-44251876D01*
X118941908Y-44311483D01*
X118992202Y-44446328D01*
X118992206Y-44446335D01*
X119078452Y-44561544D01*
X119078455Y-44561547D01*
X119193664Y-44647793D01*
X119193671Y-44647797D01*
X119328517Y-44698091D01*
X119328516Y-44698091D01*
X119335444Y-44698835D01*
X119388127Y-44704500D01*
X120991872Y-44704499D01*
X121051483Y-44698091D01*
X121186331Y-44647796D01*
X121301546Y-44561546D01*
X121387796Y-44446331D01*
X121402511Y-44406879D01*
X121402858Y-44405949D01*
X121438091Y-44311482D01*
X121444500Y-44251873D01*
X121444499Y-44195723D01*
X121464182Y-44128687D01*
X121516986Y-44082931D01*
X121586144Y-44072987D01*
X121649700Y-44102011D01*
X121668817Y-44122839D01*
X121683457Y-44142988D01*
X121683457Y-44142989D01*
X122247037Y-43579409D01*
X122264075Y-43642993D01*
X122329901Y-43757007D01*
X122422993Y-43850099D01*
X122537007Y-43915925D01*
X122600590Y-43932962D01*
X122037009Y-44496541D01*
X122037010Y-44496542D01*
X122072755Y-44522512D01*
X122072768Y-44522520D01*
X122248626Y-44612126D01*
X122436353Y-44673123D01*
X122631303Y-44704000D01*
X122828697Y-44704000D01*
X123023646Y-44673123D01*
X123211373Y-44612126D01*
X123387241Y-44522516D01*
X123422988Y-44496543D01*
X123422988Y-44496541D01*
X122859410Y-43932962D01*
X122922993Y-43915925D01*
X123037007Y-43850099D01*
X123130099Y-43757007D01*
X123195925Y-43642993D01*
X123212962Y-43579409D01*
X123776541Y-44142988D01*
X123776543Y-44142988D01*
X123802516Y-44107241D01*
X123889235Y-43937046D01*
X123937210Y-43886250D01*
X124005031Y-43869455D01*
X124071165Y-43891992D01*
X124110202Y-43937042D01*
X124179470Y-44072987D01*
X124197058Y-44107505D01*
X124313115Y-44267246D01*
X124452753Y-44406884D01*
X124576158Y-44496541D01*
X124612499Y-44522944D01*
X124788439Y-44612591D01*
X124913637Y-44653270D01*
X124976236Y-44673610D01*
X125171264Y-44704500D01*
X125171269Y-44704500D01*
X125368736Y-44704500D01*
X125563763Y-44673610D01*
X125565262Y-44673123D01*
X125751561Y-44612591D01*
X125927501Y-44522944D01*
X126032955Y-44446328D01*
X126087246Y-44406884D01*
X126087248Y-44406881D01*
X126087252Y-44406879D01*
X126226879Y-44267252D01*
X126226881Y-44267248D01*
X126226884Y-44267246D01*
X126342941Y-44107505D01*
X126342942Y-44107504D01*
X126342944Y-44107501D01*
X126429517Y-43937593D01*
X126477490Y-43886800D01*
X126545311Y-43870005D01*
X126611446Y-43892542D01*
X126650482Y-43937593D01*
X126719470Y-44072987D01*
X126737058Y-44107505D01*
X126853115Y-44267246D01*
X126992753Y-44406884D01*
X127116158Y-44496541D01*
X127152499Y-44522944D01*
X127328439Y-44612591D01*
X127453637Y-44653270D01*
X127516236Y-44673610D01*
X127711264Y-44704500D01*
X127711269Y-44704500D01*
X127908736Y-44704500D01*
X128103763Y-44673610D01*
X128105262Y-44673123D01*
X128291561Y-44612591D01*
X128467501Y-44522944D01*
X128572955Y-44446328D01*
X128627246Y-44406884D01*
X128627248Y-44406881D01*
X128627252Y-44406879D01*
X128766879Y-44267252D01*
X128766881Y-44267248D01*
X128766884Y-44267246D01*
X128818845Y-44195727D01*
X128882944Y-44107501D01*
X128972591Y-43931561D01*
X129033610Y-43743763D01*
X129064500Y-43548736D01*
X129064500Y-43351263D01*
X129035506Y-43168204D01*
X129033609Y-43156233D01*
X129032277Y-43152135D01*
X147699500Y-43152135D01*
X147699500Y-44847870D01*
X147699501Y-44847876D01*
X147705908Y-44907483D01*
X147756202Y-45042328D01*
X147756206Y-45042335D01*
X147842452Y-45157544D01*
X147842455Y-45157547D01*
X147957664Y-45243793D01*
X147957671Y-45243797D01*
X148092517Y-45294091D01*
X148092516Y-45294091D01*
X148099444Y-45294835D01*
X148152127Y-45300500D01*
X149847872Y-45300499D01*
X149907483Y-45294091D01*
X150042331Y-45243796D01*
X150157546Y-45157546D01*
X150243796Y-45042331D01*
X150294091Y-44907483D01*
X150300500Y-44847873D01*
X150300499Y-43152128D01*
X150294091Y-43092517D01*
X150278196Y-43049901D01*
X150243797Y-42957671D01*
X150243793Y-42957664D01*
X150157547Y-42842455D01*
X150157544Y-42842452D01*
X150042335Y-42756206D01*
X150042328Y-42756202D01*
X149907482Y-42705908D01*
X149907483Y-42705908D01*
X149847883Y-42699501D01*
X149847881Y-42699500D01*
X149847873Y-42699500D01*
X149847864Y-42699500D01*
X148152129Y-42699500D01*
X148152123Y-42699501D01*
X148092516Y-42705908D01*
X147957671Y-42756202D01*
X147957664Y-42756206D01*
X147842455Y-42842452D01*
X147842452Y-42842455D01*
X147756206Y-42957664D01*
X147756202Y-42957671D01*
X147705908Y-43092517D01*
X147700482Y-43142993D01*
X147699501Y-43152123D01*
X147699500Y-43152135D01*
X129032277Y-43152135D01*
X128984064Y-43003750D01*
X128972591Y-42968439D01*
X128882944Y-42792499D01*
X128856576Y-42756206D01*
X128766884Y-42632753D01*
X128627246Y-42493115D01*
X128467504Y-42377058D01*
X128467503Y-42377057D01*
X128467501Y-42377056D01*
X128291561Y-42287409D01*
X128291558Y-42287408D01*
X128103763Y-42226389D01*
X127908736Y-42195500D01*
X127908731Y-42195500D01*
X127711269Y-42195500D01*
X127711264Y-42195500D01*
X127516236Y-42226389D01*
X127328441Y-42287408D01*
X127152495Y-42377058D01*
X126992753Y-42493115D01*
X126853115Y-42632753D01*
X126737058Y-42792495D01*
X126737056Y-42792499D01*
X126652900Y-42957664D01*
X126650485Y-42962403D01*
X126602510Y-43013199D01*
X126534689Y-43029994D01*
X126468554Y-43007456D01*
X126429515Y-42962403D01*
X126427103Y-42957669D01*
X126342944Y-42792499D01*
X126316576Y-42756206D01*
X126226884Y-42632753D01*
X126087246Y-42493115D01*
X125927504Y-42377058D01*
X125927503Y-42377057D01*
X125927501Y-42377056D01*
X125751561Y-42287409D01*
X125751558Y-42287408D01*
X125563763Y-42226389D01*
X125368736Y-42195500D01*
X125368731Y-42195500D01*
X125171269Y-42195500D01*
X125171264Y-42195500D01*
X124976236Y-42226389D01*
X124788441Y-42287408D01*
X124612495Y-42377058D01*
X124452753Y-42493115D01*
X124313115Y-42632753D01*
X124197058Y-42792495D01*
X124197056Y-42792499D01*
X124110203Y-42962954D01*
X124062230Y-43013749D01*
X123994409Y-43030544D01*
X123928274Y-43008006D01*
X123889235Y-42962953D01*
X123802520Y-42792768D01*
X123802512Y-42792755D01*
X123776542Y-42757010D01*
X123776541Y-42757009D01*
X123212962Y-43320589D01*
X123195925Y-43257007D01*
X123130099Y-43142993D01*
X123037007Y-43049901D01*
X122922993Y-42984075D01*
X122859409Y-42967037D01*
X123422989Y-42403457D01*
X123387239Y-42377483D01*
X123211373Y-42287873D01*
X123023646Y-42226876D01*
X122828697Y-42196000D01*
X122631303Y-42196000D01*
X122436353Y-42226876D01*
X122248626Y-42287873D01*
X122072762Y-42377482D01*
X122072760Y-42377483D01*
X122037010Y-42403456D01*
X122037010Y-42403457D01*
X122600591Y-42967037D01*
X122537007Y-42984075D01*
X122422993Y-43049901D01*
X122329901Y-43142993D01*
X122264075Y-43257007D01*
X122247037Y-43320590D01*
X121683457Y-42757010D01*
X121683456Y-42757010D01*
X121668818Y-42777159D01*
X121613489Y-42819826D01*
X121543875Y-42825806D01*
X121482080Y-42793200D01*
X121447722Y-42732362D01*
X121444499Y-42704275D01*
X121444499Y-42648129D01*
X121444498Y-42648123D01*
X121444497Y-42648116D01*
X121438091Y-42588517D01*
X121402511Y-42493121D01*
X121387797Y-42453671D01*
X121387793Y-42453664D01*
X121301547Y-42338455D01*
X121301544Y-42338452D01*
X121186335Y-42252206D01*
X121186328Y-42252202D01*
X121051482Y-42201908D01*
X121051483Y-42201908D01*
X120991883Y-42195501D01*
X120991881Y-42195500D01*
X120991873Y-42195500D01*
X120991864Y-42195500D01*
X119388129Y-42195500D01*
X119388123Y-42195501D01*
X119328516Y-42201908D01*
X119193671Y-42252202D01*
X119193664Y-42252206D01*
X119078455Y-42338452D01*
X119078452Y-42338455D01*
X118992206Y-42453664D01*
X118992202Y-42453671D01*
X118941908Y-42588517D01*
X118938260Y-42622454D01*
X118935501Y-42648123D01*
X118935500Y-42648135D01*
X105527994Y-42648135D01*
X105532700Y-42622454D01*
X105571780Y-42409201D01*
X105575364Y-42394663D01*
X105660696Y-42120822D01*
X105665998Y-42106841D01*
X105783731Y-41845249D01*
X105790676Y-41832016D01*
X105939080Y-41586526D01*
X105947567Y-41574230D01*
X106124480Y-41348417D01*
X106134395Y-41337226D01*
X106337226Y-41134395D01*
X106348417Y-41124480D01*
X106574230Y-40947567D01*
X106586526Y-40939080D01*
X106832016Y-40790676D01*
X106845249Y-40783731D01*
X107106841Y-40665998D01*
X107120822Y-40660696D01*
X107394668Y-40575362D01*
X107409197Y-40571780D01*
X107691344Y-40520075D01*
X107706201Y-40518271D01*
X107996264Y-40500726D01*
X108003751Y-40500500D01*
X108065892Y-40500500D01*
X195934108Y-40500500D01*
X195996249Y-40500500D01*
X196003736Y-40500726D01*
G37*
%TD.AperFunction*%
%TD*%
M02*
