M48
; DRILL file {KiCad 9.0.3} date 2025-11-18T14:16:47+0900
; FORMAT={-:-/ absolute / metric / decimal}
; #@! TF.CreationDate,2025-11-18T14:16:47+09:00
; #@! TF.GenerationSoftware,Kicad,Pcbnew,9.0.3
; #@! TF.FileFunction,Plated,1,2,PTH
FMAT,2
METRIC
; #@! TA.AperFunction,Plated,PTH,ViaDrill
T1C0.300
; #@! TA.AperFunction,Plated,PTH,ComponentDrill
T2C1.000
; #@! TA.AperFunction,Plated,PTH,ComponentDrill
T3C2.300
%
G90
G05
T1
X120.55Y-88.55
X131.9Y-85.0
X131.9Y-87.3
X161.0Y-79.15
X161.0Y-84.95
X161.0Y-94.15
X167.132Y-52.0
X167.132Y-66.15
X179.0Y-79.1
X179.0Y-85.0
X179.0Y-94.15
X182.35Y-66.1
X183.0Y-85.0
X184.9Y-66.1
X187.45Y-66.1
X197.25Y-78.95
X197.3Y-93.9
T2
X120.19Y-43.45
X122.73Y-43.45
X125.27Y-43.45
X127.81Y-43.45
X149.0Y-44.0
X149.0Y-50.5
X159.512Y-48.514
X159.512Y-63.754
X162.052Y-48.514
X162.052Y-63.754
X164.592Y-48.514
X164.592Y-63.754
X167.132Y-48.514
X167.132Y-63.754
X169.672Y-48.514
X169.672Y-63.754
X172.212Y-48.514
X172.212Y-63.754
X174.752Y-48.514
X174.752Y-63.754
X177.292Y-48.514
X177.292Y-63.754
X179.832Y-48.514
X179.832Y-63.754
X182.372Y-48.514
X182.372Y-63.754
X184.912Y-48.514
X184.912Y-63.754
X187.452Y-48.514
X187.452Y-63.754
X189.992Y-48.514
X189.992Y-63.754
X192.532Y-48.514
X192.532Y-63.754
X195.072Y-48.514
X195.072Y-63.754
T3
X113.792Y-78.486
X113.792Y-91.626
M30
