M48
; DRILL file {KiCad 9.0.3} date 2025-11-28T22:49:03+0900
; FORMAT={-:-/ absolute / inch / decimal}
; #@! TF.CreationDate,2025-11-28T22:49:03+09:00
; #@! TF.GenerationSoftware,Kicad,Pcbnew,9.0.3
; #@! TF.FileFunction,Plated,1,2,PTH
FMAT,2
INCH
; #@! TA.AperFunction,Plated,PTH,ViaDrill
T1C0.0118
; #@! TA.AperFunction,Plated,PTH,ComponentDrill
T2C0.0394
; #@! TA.AperFunction,Plated,PTH,ComponentDrill
T3C0.0433
; #@! TA.AperFunction,Plated,PTH,ComponentDrill
T4C0.0906
%
G90
G05
T1
X5.1929Y-3.3465
X5.1929Y-3.437
X6.3386Y-3.1161
X6.3386Y-3.3445
X6.3386Y-3.7067
X6.58Y-2.0472
X6.58Y-2.6043
X7.0472Y-3.1142
X7.0472Y-3.3465
X7.0472Y-3.7067
X7.1791Y-2.6024
X7.2047Y-3.3465
X7.2795Y-2.6024
X7.3799Y-2.6024
X7.7638Y-3.7008
X7.7657Y-3.1083
T2
X4.7319Y-1.7106
X4.8319Y-1.7106
X4.9319Y-1.7106
X5.0319Y-1.7106
X5.8504Y-1.748
X5.8504Y-2.0472
X6.28Y-1.91
X6.28Y-2.51
X6.38Y-1.91
X6.38Y-2.51
X6.48Y-1.91
X6.48Y-2.51
X6.58Y-1.91
X6.58Y-2.51
X6.68Y-1.91
X6.68Y-2.51
X6.78Y-1.91
X6.78Y-2.51
X6.88Y-1.91
X6.88Y-2.51
X6.98Y-1.91
X6.98Y-2.51
X7.08Y-1.91
X7.08Y-2.51
X7.18Y-1.91
X7.18Y-2.51
X7.28Y-1.91
X7.28Y-2.51
X7.38Y-1.91
X7.38Y-2.51
X7.48Y-1.91
X7.48Y-2.51
X7.58Y-1.91
X7.58Y-2.51
X7.68Y-1.91
X7.68Y-2.51
T3
X4.6617Y-3.2414
X4.6617Y-3.3399
X4.6617Y-3.4186
X4.6617Y-3.517
T4
X4.5526Y-3.1044
X4.5526Y-3.6556
M30
