%TF.GenerationSoftware,KiCad,Pcbnew,9.0.3*%
%TF.CreationDate,2025-11-28T22:49:03+09:00*%
%TF.ProjectId,SpeedJeck,53706565-644a-4656-936b-2e6b69636164,1*%
%TF.SameCoordinates,Original*%
%TF.FileFunction,Soldermask,Bot*%
%TF.FilePolarity,Negative*%
%FSLAX46Y46*%
G04 Gerber Fmt 4.6, Leading zero omitted, Abs format (unit mm)*
G04 Created by KiCad (PCBNEW 9.0.3) date 2025-11-28 22:49:03*
%MOMM*%
%LPD*%
G01*
G04 APERTURE LIST*
G04 Aperture macros list*
%AMRoundRect*
0 Rectangle with rounded corners*
0 $1 Rounding radius*
0 $2 $3 $4 $5 $6 $7 $8 $9 X,Y pos of 4 corners*
0 Add a 4 corners polygon primitive as box body*
4,1,4,$2,$3,$4,$5,$6,$7,$8,$9,$2,$3,0*
0 Add four circle primitives for the rounded corners*
1,1,$1+$1,$2,$3*
1,1,$1+$1,$4,$5*
1,1,$1+$1,$6,$7*
1,1,$1+$1,$8,$9*
0 Add four rect primitives between the rounded corners*
20,1,$1+$1,$2,$3,$4,$5,0*
20,1,$1+$1,$4,$5,$6,$7,0*
20,1,$1+$1,$6,$7,$8,$9,0*
20,1,$1+$1,$8,$9,$2,$3,0*%
G04 Aperture macros list end*
%ADD10RoundRect,0.102000X-0.754000X-0.754000X0.754000X-0.754000X0.754000X0.754000X-0.754000X0.754000X0*%
%ADD11C,1.712000*%
%ADD12R,1.600000X1.600000*%
%ADD13O,1.600000X1.600000*%
%ADD14O,1.801600X1.801600*%
%ADD15O,3.301600X3.301600*%
%ADD16O,1.901600X1.901600*%
%ADD17RoundRect,0.050800X-0.900000X0.900000X-0.900000X-0.900000X0.900000X-0.900000X0.900000X0.900000X0*%
G04 APERTURE END LIST*
D10*
%TO.C,U2*%
X120190000Y-43450000D03*
D11*
X122730000Y-43450000D03*
X125270000Y-43450000D03*
X127810000Y-43450000D03*
%TD*%
D12*
%TO.C,A1*%
X159512000Y-63754000D03*
D13*
X162052000Y-63754000D03*
X164592000Y-63754000D03*
X167132000Y-63754000D03*
X169672000Y-63754000D03*
X172212000Y-63754000D03*
X174752000Y-63754000D03*
X177292000Y-63754000D03*
X179832000Y-63754000D03*
X182372000Y-63754000D03*
X184912000Y-63754000D03*
X187452000Y-63754000D03*
X189992000Y-63754000D03*
X192532000Y-63754000D03*
X195072000Y-63754000D03*
X195072000Y-48514000D03*
X192532000Y-48514000D03*
X189992000Y-48514000D03*
X187452000Y-48514000D03*
X184912000Y-48514000D03*
X182372000Y-48514000D03*
X179832000Y-48514000D03*
X177292000Y-48514000D03*
X174752000Y-48514000D03*
X172212000Y-48514000D03*
X169672000Y-48514000D03*
X167132000Y-48514000D03*
X164592000Y-48514000D03*
X162052000Y-48514000D03*
X159512000Y-48514000D03*
%TD*%
D14*
%TO.C,USB*%
X118407600Y-82331600D03*
X118407600Y-84833500D03*
X118407600Y-86832400D03*
X118407600Y-89331800D03*
D15*
X115636400Y-92852200D03*
X115636400Y-78851800D03*
%TD*%
D16*
%TO.C,BZ1*%
X148600000Y-44400000D03*
D17*
X148600000Y-52000000D03*
%TD*%
M02*
